<svg xmlns="http://www.w3.org/2000/svg" xmlns:xlink="http://www.w3.org/1999/xlink" width="500" zoomAndPan="magnify" viewBox="0 0 375 374.999991" height="500" preserveAspectRatio="xMidYMid meet" version="1.0"><defs><linearGradient id="serviceSunset" x1="0%" y1="0%" x2="100%" y2="100%"><stop offset="0%" stop-color="#fcd34d"/><stop offset="50%" stop-color="#fb923c"/><stop offset="100%" stop-color="#f43f5e"/></linearGradient><clipPath id="f711f7ff4b"><path d="M 113 134.21875 L 174 134.21875 L 174 229 L 113 229 Z M 113 134.21875 " clip-rule="nonzero"/></clipPath><clipPath id="0b64a19568"><path d="M 112.5 151 L 116 151 L 116 160 L 112.5 160 Z M 112.5 151 " clip-rule="nonzero"/></clipPath><clipPath id="677d208ee7"><path d="M 179 175 L 262.5 175 L 262.5 216 L 179 216 Z M 179 175 " clip-rule="nonzero"/></clipPath><clipPath id="47c8a0d4ac"><path d="M 164 217 L 261 217 L 261 240.71875 L 164 240.71875 Z M 164 217 " clip-rule="nonzero"/></clipPath><clipPath id="55f520f3a3"><path d="M 42.699219 43.300781 L 332.199219 43.300781 L 332.199219 332 L 42.699219 332 Z M 42.699219 43.300781 " clip-rule="nonzero"/></clipPath></defs><g clip-path="url(#f711f7ff4b)"><path fill="url(#serviceSunset)" d="M 121.214844 134.382812 C 120.480469 134.699219 120.082031 135.328125 117.144531 140.695312 L 114.273438 145.933594 L 114.753906 148.386719 C 115.570312 152.519531 117.3125 161.660156 118.382812 167.527344 C 118.949219 170.589844 119.789062 175.117188 120.269531 177.589844 C 120.730469 180.066406 121.527344 184.40625 122.054688 187.234375 C 122.578125 190.066406 123.039062 192.558594 123.101562 192.8125 C 123.1875 193.167969 122.765625 193.546875 120.667969 195.011719 C 119.285156 195.976562 117.984375 196.898438 117.773438 197.046875 C 117.398438 197.296875 117.375 197.128906 117.25 193.378906 C 117.167969 191.21875 117.0625 188.472656 117 187.277344 C 116.871094 185.410156 116.914062 185.140625 117.1875 185.140625 C 117.941406 185.140625 117.984375 184.511719 117.648438 176.292969 C 117.335938 168.808594 117.269531 168.011719 116.621094 164.699219 L 115.949219 161.132812 L 114.605469 161.070312 L 113.285156 161.007812 L 113.433594 164.636719 C 113.496094 166.628906 113.601562 170.800781 113.664062 173.921875 C 113.726562 177.027344 113.832031 180.757812 113.894531 182.183594 C 114.019531 184.71875 114.039062 184.761719 114.605469 185.097656 L 115.171875 185.433594 L 115.46875 198.011719 L 114.941406 198.410156 C 113.726562 199.289062 113.726562 201.324219 114.941406 202.265625 C 116.054688 203.148438 119.117188 208.785156 119.683594 210.945312 L 120.101562 212.644531 L 119.328125 214.300781 C 118.339844 216.398438 118.027344 218.347656 118.339844 220.253906 C 118.949219 223.945312 121.445312 226.859375 124.90625 227.925781 C 126.039062 228.285156 126.898438 228.324219 133.066406 228.324219 C 138.917969 228.324219 140.007812 228.367188 140.28125 228.640625 C 140.535156 228.890625 141.308594 228.953125 144.898438 228.914062 L 149.21875 228.871094 L 147.875 227.488281 C 147.140625 226.734375 145.464844 224.972656 144.183594 223.546875 L 141.8125 220.988281 L 139.671875 220.988281 L 138.9375 219.5625 C 132.519531 207.320312 129.585938 202.035156 128.996094 201.660156 C 127.738281 200.882812 126.269531 201.492188 125.429688 203.125 C 124.824219 204.300781 122.578125 207.027344 122.136719 207.109375 C 121.78125 207.171875 118.800781 201.828125 118.800781 201.113281 C 118.800781 200.820312 119.390625 200.253906 120.753906 199.269531 C 121.800781 198.492188 122.976562 197.632812 123.332031 197.359375 L 123.984375 196.878906 L 124.339844 198.703125 C 124.863281 201.386719 124.863281 201.367188 125.261719 201.007812 C 126.773438 199.710938 128.996094 199.6875 130.359375 200.988281 L 130.925781 201.511719 L 131.050781 197.152344 C 131.199219 191.761719 131.347656 185.117188 131.492188 176.753906 C 131.554688 173.230469 131.660156 167.949219 131.722656 165.011719 L 131.828125 159.667969 L 128.578125 157.589844 C 126.773438 156.460938 124.90625 155.160156 124.382812 154.71875 C 122.746094 153.273438 122.367188 151.679688 123.269531 149.917969 C 123.941406 148.554688 125.011719 148.074219 128.03125 147.820312 C 129.351562 147.695312 130.464844 147.570312 130.507812 147.527344 C 130.613281 147.421875 130.152344 146.710938 128.703125 144.636719 C 127.738281 143.273438 125.554688 138.808594 125.871094 138.808594 C 125.976562 138.808594 135.414062 142.351562 138.308594 143.480469 C 139.695312 144.007812 140.113281 144.257812 140.15625 144.613281 C 140.199219 144.867188 140.34375 145.160156 140.46875 145.265625 C 140.617188 145.367188 143.46875 146.5 146.804688 147.78125 C 150.160156 149.058594 154.964844 150.925781 157.503906 151.910156 C 161.972656 153.671875 162.308594 153.777344 168.054688 154.929688 C 171.304688 155.601562 173.96875 156.0625 173.96875 155.976562 C 173.96875 155.894531 173.425781 155.265625 172.773438 154.574219 L 171.558594 153.316406 L 165.054688 150.757812 C 146.996094 143.648438 142.066406 141.742188 141.75 141.742188 C 141.539062 141.742188 141.226562 141.890625 141.035156 142.054688 C 140.722656 142.328125 140.09375 142.140625 134.722656 140.105469 C 131.449219 138.847656 127.886719 137.507812 126.816406 137.109375 C 125.285156 136.5625 124.78125 136.269531 124.550781 135.851562 C 123.859375 134.507812 122.453125 133.878906 121.214844 134.382812 Z M 121.214844 134.382812 " fill-opacity="1" fill-rule="nonzero"/></g><path fill="url(#serviceSunset)" d="M 128.347656 149.015625 C 125.304688 149.226562 124.277344 149.8125 124.109375 151.429688 C 123.960938 152.917969 124.445312 153.417969 128.933594 156.375 C 132.5 158.722656 133.253906 159.121094 135.476562 159.898438 C 138.371094 160.902344 162.894531 169.855469 165.578125 170.882812 C 168.054688 171.847656 171.703125 173.585938 173.402344 174.613281 C 174.179688 175.097656 174.808594 175.410156 174.808594 175.328125 C 174.808594 175.242188 174.03125 173.355469 173.089844 171.113281 C 171.535156 167.488281 171.261719 166.984375 170.570312 166.542969 C 167.96875 164.804688 169.164062 160.820312 172.292969 160.820312 C 174.242188 160.820312 175.480469 162.183594 175.417969 164.277344 C 175.394531 165.433594 175.542969 165.871094 177.222656 169.730469 C 178.226562 172.035156 179.613281 175.242188 180.304688 176.859375 C 181.269531 179.121094 181.730469 179.941406 182.316406 180.464844 C 182.757812 180.839844 183.136719 181.132812 183.199219 181.132812 C 183.261719 181.132812 183.597656 180.503906 183.933594 179.730469 C 184.6875 178.054688 185.378906 177.234375 186.765625 176.332031 C 188.273438 175.371094 190.121094 174.867188 192.597656 174.71875 C 193.769531 174.65625 194.734375 174.550781 194.734375 174.507812 C 194.734375 174.46875 194.191406 173.546875 193.539062 172.457031 C 189.367188 165.472656 183.785156 160.695312 177.117188 158.347656 C 176.128906 158.011719 173.863281 157.421875 172.082031 157.046875 C 170.296875 156.691406 165.011719 155.601562 160.335938 154.636719 C 140.617188 150.566406 138.351562 150.085938 135.980469 149.5 C 133.507812 148.871094 131.933594 148.765625 128.347656 149.015625 Z M 128.347656 149.015625 " fill-opacity="1" fill-rule="nonzero"/><g clip-path="url(#0b64a19568)"><path fill="url(#serviceSunset)" d="M 113.347656 154.257812 C 112.363281 157.738281 112.320312 158.554688 112.992188 159.226562 C 113.433594 159.667969 113.746094 159.773438 114.605469 159.773438 C 115.171875 159.773438 115.65625 159.75 115.65625 159.707031 C 115.65625 159.4375 114.1875 151.929688 114.125 151.867188 C 114.0625 151.824219 113.726562 152.894531 113.347656 154.257812 Z M 113.347656 154.257812 " fill-opacity="1" fill-rule="nonzero"/></g><path fill="url(#serviceSunset)" d="M 171.515625 162.183594 C 170.738281 162.519531 170.402344 163.0625 170.402344 164.007812 C 170.402344 164.929688 170.886719 165.601562 171.703125 165.808594 C 172.226562 165.933594 172.417969 166.164062 172.753906 167.003906 C 172.984375 167.589844 174.179688 170.464844 175.4375 173.398438 C 179.296875 182.496094 179.214844 182.265625 178.878906 182.644531 C 178.710938 182.8125 178.585938 183.148438 178.585938 183.378906 C 178.585938 183.796875 180.492188 188.261719 180.683594 188.285156 C 180.746094 188.285156 181.226562 187.003906 181.773438 185.433594 C 182.714844 182.75 182.757812 182.558594 182.445312 182.078125 C 182.214844 181.761719 181.898438 181.574219 181.542969 181.574219 C 181.015625 181.574219 180.828125 181.238281 177.472656 173.441406 C 174.285156 166.019531 173.992188 165.222656 174.179688 164.59375 C 174.472656 163.609375 173.992188 162.558594 173.046875 162.183594 C 172.1875 161.804688 172.355469 161.804688 171.515625 162.183594 Z M 171.515625 162.183594 " fill-opacity="1" fill-rule="nonzero"/><g clip-path="url(#677d208ee7)"><path fill="url(#serviceSunset)" d="M 190.183594 176.230469 C 187.730469 176.898438 186.113281 178.09375 185.210938 179.875 C 184.476562 181.34375 180.09375 193.902344 179.738281 195.539062 C 179.339844 197.402344 179.339844 200.777344 179.738281 202.644531 C 179.90625 203.441406 180.472656 205.558594 181.015625 207.320312 L 181.980469 210.507812 L 181.3125 211.28125 C 180.722656 211.929688 180.660156 212.164062 180.746094 212.855469 C 180.890625 213.882812 181.351562 214.59375 182.214844 215.117188 C 182.863281 215.539062 183.597656 215.539062 221.230469 215.539062 C 258.964844 215.539062 259.574219 215.539062 260.371094 215.117188 C 261.355469 214.636719 261.984375 213.859375 262.300781 212.832031 C 262.445312 212.351562 262.488281 209.480469 262.445312 204.636719 L 262.382812 197.195312 L 261.691406 195.789062 C 261.292969 194.949219 260.726562 194.175781 260.265625 193.839844 C 258.714844 192.664062 259.257812 192.6875 237.96875 192.6875 L 218.3125 192.6875 L 217.410156 187.589844 C 215.628906 177.488281 215.503906 177.109375 213.761719 176.3125 C 212.921875 175.957031 212.25 175.914062 202.078125 175.933594 C 193.457031 175.933594 191.042969 176 190.183594 176.230469 Z M 202.496094 187.027344 L 202.496094 194.78125 L 193.058594 194.78125 C 187.375 194.78125 183.617188 194.699219 183.617188 194.59375 C 183.617188 194.382812 186.09375 187.214844 187.476562 183.378906 C 188.839844 179.5625 189.386719 179.332031 197.527344 179.289062 L 202.496094 179.269531 Z M 210.613281 179.394531 L 211.683594 179.542969 L 212.125 181.867188 C 213.089844 187.128906 214.242188 194.214844 214.242188 194.929688 C 214.242188 196.0625 213.804688 197.277344 213.214844 197.84375 C 212.734375 198.285156 211.726562 198.871094 206.441406 201.890625 L 205.222656 202.558594 L 205.222656 179.269531 L 207.382812 179.269531 C 208.558594 179.269531 210.007812 179.332031 210.613281 179.394531 Z M 259.089844 195.515625 C 260.390625 196.605469 260.476562 197.257812 260.707031 206.566406 L 260.808594 210.925781 L 258.734375 210.925781 L 258.777344 204.152344 C 258.816406 197.78125 258.796875 197.339844 258.378906 196.1875 C 257.875 194.824219 258.0625 194.65625 259.089844 195.515625 Z M 202.496094 200.632812 L 202.496094 204.175781 L 199.75 205.789062 C 198.21875 206.691406 196.5625 207.550781 196.035156 207.695312 C 195.34375 207.90625 193.6875 207.988281 190.015625 207.988281 L 184.917969 207.988281 L 184.375 206.523438 C 183.410156 203.902344 182.78125 201.09375 182.78125 199.375 C 182.78125 198.472656 182.84375 197.613281 182.90625 197.425781 C 183.011719 197.128906 184.078125 197.089844 192.765625 197.089844 L 202.496094 197.089844 Z M 251.371094 197.488281 C 251.476562 197.71875 251.582031 198.136719 251.582031 198.429688 L 251.582031 198.976562 L 233.121094 198.976562 L 233.121094 198.429688 C 233.121094 198.136719 233.226562 197.71875 233.332031 197.488281 C 233.542969 197.109375 233.878906 197.089844 242.351562 197.089844 C 250.824219 197.089844 251.160156 197.109375 251.371094 197.488281 Z M 251.054688 200.777344 C 251.496094 200.882812 251.582031 201.03125 251.582031 201.699219 C 251.582031 202.226562 251.476562 202.539062 251.246094 202.625 C 251.054688 202.6875 247.070312 202.75 242.371094 202.75 C 236.015625 202.75 233.773438 202.6875 233.582031 202.496094 C 233.4375 202.351562 233.332031 201.890625 233.332031 201.46875 L 233.332031 200.671875 L 241.933594 200.652344 C 246.652344 200.652344 250.761719 200.695312 251.054688 200.777344 Z M 251.054688 200.777344 " fill-opacity="1" fill-rule="nonzero"/></g><path fill="url(#serviceSunset)" d="M 232.113281 187.277344 C 231.023438 187.800781 230.25 188.765625 229.851562 190.085938 C 229.683594 190.632812 229.554688 191.15625 229.554688 191.261719 C 229.554688 191.34375 234.945312 191.429688 241.511719 191.429688 C 254.851562 191.429688 253.71875 191.574219 253.257812 189.980469 C 252.921875 188.808594 252.167969 187.886719 251.078125 187.339844 L 250.027344 186.816406 L 241.535156 186.816406 C 233.332031 186.835938 232.976562 186.859375 232.113281 187.277344 Z M 232.113281 187.277344 " fill-opacity="1" fill-rule="nonzero"/><g clip-path="url(#47c8a0d4ac)"><path fill="url(#serviceSunset)" d="M 194.632812 217.445312 C 193.707031 217.550781 188.527344 218.011719 183.09375 218.472656 C 172.4375 219.375 171.558594 219.542969 169.5 220.839844 C 167.027344 222.433594 165.179688 225.347656 164.699219 228.367188 C 163.839844 234.027344 167.59375 239.4375 173.109375 240.484375 C 174.722656 240.777344 249.796875 240.777344 251.496094 240.464844 C 255.335938 239.773438 258.480469 236.816406 259.679688 232.832031 C 260.957031 228.492188 259.132812 223.546875 255.335938 221.007812 C 253.617188 219.855469 251.855469 219.375 248.328125 219.101562 C 246.714844 218.976562 241.21875 218.492188 236.121094 218.03125 L 226.828125 217.214844 L 211.578125 217.234375 C 203.167969 217.257812 195.554688 217.339844 194.632812 217.445312 Z M 231.652344 220.484375 C 233.667969 220.652344 238.996094 221.113281 243.464844 221.511719 C 250.824219 222.164062 251.707031 222.265625 252.734375 222.75 C 254.222656 223.421875 255.859375 225.078125 256.574219 226.605469 C 257.078125 227.65625 257.140625 228.054688 257.140625 229.898438 C 257.140625 231.722656 257.078125 232.140625 256.574219 233.191406 C 255.609375 235.285156 253.742188 236.941406 251.6875 237.550781 C 250.554688 237.886719 175.753906 238.074219 173.886719 237.738281 C 170.507812 237.152344 168.035156 234.574219 167.488281 231.15625 C 166.964844 227.675781 168.808594 224.195312 171.933594 222.75 C 173.089844 222.246094 173.78125 222.140625 182.109375 221.386719 C 187.039062 220.945312 192.050781 220.507812 193.265625 220.402344 C 194.484375 220.296875 202.789062 220.191406 211.726562 220.171875 C 224.859375 220.148438 228.695312 220.210938 231.652344 220.484375 Z M 231.652344 220.484375 " fill-opacity="1" fill-rule="nonzero"/></g><path fill="url(#serviceSunset)" d="M 208.683594 223.085938 L 173.65625 223.191406 L 172.585938 223.671875 C 171.242188 224.28125 169.730469 225.808594 169.101562 227.171875 C 168.410156 228.746094 168.433594 231.175781 169.164062 232.75 C 170.949219 236.523438 175.625 237.886719 178.6875 235.539062 L 179.589844 234.847656 L 185.589844 234.761719 L 185.738281 235.285156 C 186.136719 236.773438 187.101562 237.445312 188.589844 237.277344 C 189.660156 237.171875 190.414062 236.566406 190.792969 235.515625 C 191.003906 234.910156 191.148438 234.824219 191.800781 234.804688 C 192.199219 234.78125 193.644531 234.742188 195.007812 234.699219 L 197.460938 234.636719 L 197.796875 235.453125 C 198.28125 236.648438 199.183594 237.339844 200.253906 237.339844 C 201.722656 237.339844 202.433594 236.734375 203 234.972656 C 203.105469 234.636719 203.417969 234.613281 206.417969 234.65625 L 209.710938 234.71875 L 209.878906 235.371094 C 209.964844 235.746094 210.382812 236.335938 210.78125 236.691406 C 211.832031 237.613281 213.089844 237.613281 214.140625 236.691406 C 214.539062 236.335938 214.957031 235.746094 215.039062 235.371094 L 215.207031 234.71875 L 218.398438 234.65625 L 221.585938 234.59375 L 221.921875 235.453125 C 222.425781 236.691406 223.285156 237.339844 224.457031 237.339844 C 225.277344 237.339844 225.507812 237.234375 226.222656 236.523438 C 226.683594 236.082031 227.039062 235.515625 227.039062 235.285156 C 227.039062 234.761719 227.835938 234.613281 231.148438 234.613281 L 233.710938 234.613281 L 233.835938 235.265625 C 233.898438 235.621094 234.277344 236.230469 234.675781 236.628906 C 235.28125 237.234375 235.535156 237.339844 236.375 237.339844 C 237.253906 237.339844 237.464844 237.234375 238.175781 236.523438 C 238.640625 236.082031 238.996094 235.515625 238.996094 235.265625 C 238.996094 234.847656 239.101562 234.824219 240.671875 234.824219 C 241.597656 234.824219 242.351562 234.78125 242.351562 234.71875 C 242.351562 234.65625 242.121094 234.257812 241.828125 233.820312 C 241.238281 232.917969 240.671875 230.90625 240.671875 229.6875 C 240.671875 228.535156 241.21875 226.523438 241.785156 225.621094 C 242.035156 225.203125 242.601562 224.46875 243.066406 223.964844 C 243.503906 223.484375 243.839844 223.0625 243.800781 223.023438 C 243.757812 223 227.960938 223.023438 208.683594 223.085938 Z M 208.683594 223.085938 " fill-opacity="1" fill-rule="nonzero"/><path fill="url(#serviceSunset)" d="M 247.175781 223.421875 C 244.09375 224.53125 242.371094 227.171875 242.601562 230.402344 C 242.792969 232.875 244.238281 234.992188 246.527344 236.0625 C 248.246094 236.859375 250.574219 236.835938 252.253906 236.019531 C 255.652344 234.363281 257.078125 230.277344 255.460938 226.941406 C 254.832031 225.640625 253.386719 224.257812 252.042969 223.652344 C 250.722656 223.085938 248.433594 222.957031 247.175781 223.421875 Z M 247.175781 223.421875 " fill-opacity="1" fill-rule="nonzero"/><g clip-path="url(#55f520f3a3)"><path fill="url(#serviceSunset)" d="M 86.148438 280.648438 C 101.75 280.648438 109.628906 299.601562 98.582031 310.660156 C 87.539062 321.703125 68.566406 313.828125 68.566406 298.226562 C 68.566406 288.519531 76.441406 280.648438 86.148438 280.648438 Z M 91.550781 292.820312 C 86.761719 288.03125 78.515625 291.445312 78.515625 298.226562 C 78.515625 305.003906 86.761719 308.421875 91.550781 303.632812 C 94.527344 300.636719 94.527344 295.816406 91.550781 292.820312 Z M 217.140625 280.648438 C 232.746094 280.648438 240.625 299.601562 229.574219 310.660156 C 218.535156 321.703125 199.5625 313.828125 199.5625 298.226562 C 199.5625 288.519531 207.433594 280.648438 217.140625 280.648438 Z M 222.546875 292.820312 C 217.757812 288.03125 209.511719 291.445312 209.511719 298.226562 C 209.511719 305.003906 217.757812 308.421875 222.546875 303.632812 C 225.523438 300.636719 225.523438 295.816406 222.546875 292.820312 Z M 173.476562 280.648438 C 189.078125 280.648438 196.957031 299.601562 185.910156 310.660156 C 174.867188 321.703125 155.898438 313.828125 155.898438 298.226562 C 155.898438 288.519531 163.769531 280.648438 173.476562 280.648438 Z M 178.882812 292.820312 C 174.089844 288.03125 165.847656 291.445312 165.847656 298.226562 C 165.847656 305.003906 174.089844 308.421875 178.882812 303.632812 C 181.859375 300.636719 181.859375 295.816406 178.882812 292.820312 Z M 129.8125 280.648438 C 145.414062 280.648438 153.292969 299.601562 142.246094 310.660156 C 131.203125 321.703125 112.234375 313.828125 112.234375 298.226562 C 112.234375 288.519531 120.105469 280.648438 129.8125 280.648438 Z M 135.21875 292.820312 C 130.425781 288.03125 122.179688 291.445312 122.179688 298.226562 C 122.179688 305.003906 130.425781 308.421875 135.21875 303.632812 C 138.195312 300.636719 138.195312 295.816406 135.21875 292.820312 Z M 143.867188 229.550781 L 143.867188 183.0625 L 132.191406 183.0625 L 132.191406 229.550781 Z M 153.796875 183.0625 L 153.796875 233.210938 L 163.328125 249.695312 L 184.902344 249.695312 L 184.902344 197.15625 C 184.214844 194.007812 182.945312 191.117188 181.1875 188.652344 C 179.601562 186.414062 177.628906 184.511719 175.339844 183.0625 Z M 86.253906 249.222656 C 86.253906 246.476562 88.488281 244.257812 91.234375 244.257812 C 93.980469 244.257812 96.199219 246.476562 96.199219 249.222656 L 96.199219 253.679688 C 96.199219 256.40625 93.980469 258.644531 91.234375 258.644531 C 88.488281 258.644531 86.253906 256.40625 86.253906 253.679688 Z M 103.546875 249.222656 C 103.546875 246.476562 105.78125 244.257812 108.527344 244.257812 C 111.277344 244.257812 113.492188 246.476562 113.492188 249.222656 L 113.492188 253.679688 C 113.492188 256.40625 111.277344 258.644531 108.527344 258.644531 C 105.78125 258.644531 103.546875 256.40625 103.546875 253.679688 Z M 274.507812 59.164062 C 274.421875 59.328125 274.335938 59.464844 274.230469 59.589844 C 272.75 62 272.289062 64.90625 273.699219 67.882812 L 274.476562 69.523438 L 278.527344 68.820312 C 290.644531 66.746094 297.960938 77.789062 295.933594 87.726562 C 294.859375 92.886719 291.410156 97.46875 285.152344 99.050781 L 301.089844 221.753906 L 308.753906 223.511719 L 311.324219 99.859375 C 311.46875 93.523438 310.144531 88.148438 307.117188 82.5625 L 293.574219 57.675781 C 289.398438 49.988281 278.472656 53.425781 274.507812 59.164062 Z M 262.882812 62.988281 L 217.613281 70.917969 L 211.699219 80.304688 L 264.347656 71.25 C 263.148438 68.410156 262.707031 65.628906 262.882812 62.988281 Z M 198.34375 82.890625 L 210.230469 64.023438 C 210.921875 62.738281 212.1875 61.769531 213.738281 61.507812 L 267.441406 52.101562 C 267.617188 52.011719 273.097656 44.582031 283.5625 43.417969 C 290.800781 42.613281 298.078125 45.234375 302.265625 52.933594 L 315.8125 77.820312 C 319.671875 84.917969 321.398438 91.980469 321.238281 100.046875 L 318.613281 226.09375 C 319 226.375 319.355469 226.691406 319.652344 227.082031 L 331.171875 241.351562 C 332.601562 243.148438 332.652344 245.738281 331.152344 247.582031 C 320.8125 260.335938 303.550781 280.753906 291.683594 283.941406 C 291.523438 283.976562 291.367188 284.007812 291.203125 284.046875 C 281.289062 285.667969 271.425781 279.1875 261.613281 266.113281 C 252.753906 254.292969 243.59375 236.753906 234.28125 214.730469 C 232.484375 210.765625 235.988281 206.894531 239.847656 207.769531 L 290.800781 219.402344 L 275.390625 100.785156 L 213.984375 111.335938 L 183.214844 156.816406 C 190.347656 158.738281 195.492188 165.253906 195.492188 172.832031 L 195.492188 178.097656 C 195.492188 180.828125 193.273438 183.0625 190.527344 183.0625 L 189.382812 183.0625 C 191.9375 186.710938 193.769531 190.917969 194.703125 195.449219 C 194.789062 195.832031 194.847656 196.242188 194.847656 196.667969 L 194.847656 226.628906 L 212.617188 226.628906 C 224.226562 226.628906 233.703125 236.085938 233.703125 247.695312 L 233.703125 265.449219 C 249.113281 268.53125 260.582031 282.199219 260.582031 298.226562 C 260.582031 316.613281 245.558594 331.65625 227.152344 331.65625 L 76.140625 331.65625 C 57.753906 331.65625 42.710938 316.613281 42.710938 298.226562 C 42.710938 282.195312 54.195312 268.53125 69.605469 265.449219 L 69.605469 242.070312 C 69.605469 237.15625 72.160156 232.75 76.140625 230.234375 C 76.441406 220.796875 80.367188 214.238281 87.910156 210.59375 L 87.910156 186.9375 L 72.269531 177.902344 C 69.910156 176.546875 69.082031 173.515625 70.457031 171.152344 C 71.8125 168.773438 74.84375 167.964844 77.203125 169.320312 L 94.957031 179.554688 C 96.667969 180.347656 97.847656 182.070312 97.847656 184.082031 L 97.847656 207.738281 C 100.171875 207.402344 102.695312 207.210938 105.402344 207.144531 L 105.402344 174.769531 C 105.402344 164.570312 113.699219 156.257812 123.894531 156.257812 L 139.574219 156.257812 L 184.910156 92.828125 C 188.320312 88.035156 192.851562 84.671875 198.34375 82.890625 Z M 171.605469 156.257812 L 206.9375 104.03125 C 207.746094 102.832031 208.984375 102.089844 210.320312 101.898438 L 282.0625 89.570312 C 288.9375 88.390625 287.085938 77.433594 280.199219 78.613281 L 204.105469 91.664062 C 199.4375 92.472656 195.722656 94.726562 192.988281 98.566406 L 151.753906 156.25 L 171.605469 156.25 Z M 247.191406 219.613281 C 254.890625 236.808594 262.359375 250.597656 269.542969 260.179688 C 276.90625 269.992188 283.550781 275.042969 289.304688 274.304688 C 292.261719 273.421875 296.457031 270.445312 301.878906 265.335938 C 307.253906 260.277344 313.613281 253.304688 320.917969 244.445312 L 313.007812 234.632812 Z M 94.914062 218.453125 C 94.617188 218.59375 94.28125 218.699219 93.945312 218.769531 C 92.621094 219.246094 91.476562 219.808594 90.507812 220.496094 C 88.203125 222.117188 86.792969 224.597656 86.285156 228.089844 L 105.398438 228.089844 L 105.398438 217.066406 C 101.203125 217.148438 97.71875 217.589844 94.914062 218.453125 Z M 189.875 259.652344 L 160.476562 259.652344 L 160.476562 259.632812 C 158.769531 259.632812 157.097656 258.730469 156.175781 257.144531 L 145.980469 239.5 L 127.21875 239.5 C 124.472656 239.5 122.253906 237.261719 122.253906 234.515625 L 122.253906 178.097656 C 122.253906 175.351562 124.472656 173.117188 127.21875 173.117188 L 185.554688 173.117188 C 185.554688 169.132812 182.628906 166.210938 178.933594 166.210938 L 123.890625 166.210938 C 119.1875 166.210938 115.328125 170.070312 115.328125 174.773438 L 115.328125 233.0625 C 115.328125 235.808594 113.109375 238.027344 110.363281 238.027344 L 83.59375 238.027344 C 81.375 238.027344 79.542969 239.859375 79.542969 242.078125 L 79.542969 264.800781 L 223.746094 264.800781 L 223.746094 247.703125 C 223.746094 241.574219 218.746094 236.566406 212.613281 236.566406 L 194.839844 236.566406 L 194.839844 254.671875 C 194.839844 257.414062 192.601562 259.652344 189.875 259.652344 Z M 74.941406 274.761719 C 53.878906 276.328125 45.59375 300.847656 59.5625 314.800781 C 63.828125 319.0625 69.691406 321.703125 76.136719 321.703125 L 227.140625 321.703125 C 240.050781 321.703125 250.632812 311.132812 250.632812 298.21875 C 250.632812 285.289062 240.035156 274.738281 227.140625 274.738281 L 76.140625 274.738281 C 75.730469 274.746094 75.347656 274.746094 74.941406 274.761719 Z M 74.941406 274.761719 " fill-opacity="1" fill-rule="nonzero"/></g></svg>