<svg xmlns="http://www.w3.org/2000/svg" xmlns:xlink="http://www.w3.org/1999/xlink" width="500" zoomAndPan="magnify" viewBox="0 0 375 374.999991" height="500" preserveAspectRatio="xMidYMid meet" version="1.0"><defs><linearGradient id="serviceSunset" x1="0%" y1="0%" x2="100%" y2="100%"><stop offset="0%" stop-color="#fcd34d"/><stop offset="50%" stop-color="#fb923c"/><stop offset="100%" stop-color="#f43f5e"/></linearGradient><clipPath id="08b73ce952"><path d="M 52.652344 60.601562 L 322.652344 60.601562 L 322.652344 330.601562 L 52.652344 330.601562 Z M 52.652344 60.601562 " clip-rule="nonzero"/></clipPath></defs><g clip-path="url(#08b73ce952)"><path fill="url(#serviceSunset)" d="M 168.128906 301.621094 C 172.476562 307.308594 178.503906 316.898438 177.421875 323.449219 C 176.003906 332.242188 159.726562 332.703125 158.050781 323.882812 C 156.996094 317.316406 163.507812 307.429688 168.128906 301.621094 Z M 194.496094 303.039062 C 196.15625 311.847656 212.445312 311.402344 213.851562 302.605469 C 214.933594 296.054688 208.921875 286.464844 204.570312 280.777344 C 199.9375 286.585938 193.429688 296.472656 194.496094 303.039062 Z M 53.367188 99.316406 C 56.148438 111.40625 67.132812 120.386719 79.910156 120.386719 L 277.890625 120.386719 C 276.433594 119.054688 275.132812 117.578125 273.988281 115.96875 C 272.839844 114.355469 271.878906 112.640625 271.097656 110.824219 C 270.320312 109.007812 269.738281 107.132812 269.359375 105.191406 C 268.976562 103.25 268.804688 101.292969 268.84375 99.316406 Z M 268.84375 89.359375 C 268.867188 85.335938 272.164062 81.808594 276.3125 81.824219 L 284.632812 81.824219 C 285.0625 81.824219 285.488281 81.859375 285.914062 81.933594 C 286.335938 82.007812 286.75 82.117188 287.15625 82.261719 C 287.5625 82.40625 287.949219 82.585938 288.324219 82.796875 C 288.699219 83.011719 289.054688 83.253906 289.386719 83.523438 C 289.71875 83.796875 290.027344 84.09375 290.308594 84.421875 C 290.589844 84.746094 290.839844 85.09375 291.0625 85.460938 C 291.285156 85.828125 291.476562 86.214844 291.632812 86.613281 C 291.789062 87.015625 291.910156 87.425781 291.992188 87.847656 C 292.292969 88.683594 292.089844 97.101562 292.144531 98.167969 C 292.414062 107.554688 306.148438 107.527344 306.339844 98.085938 L 306.339844 70.828125 L 52.652344 70.828125 L 52.652344 91.914062 L 268.84375 91.914062 Z M 313.769531 60.628906 L 313.769531 98.167969 C 313.78125 103.707031 310.390625 109.148438 305.285156 111.351562 C 295.964844 115.863281 284.539062 108.488281 284.742188 98.167969 L 284.742188 89.359375 L 276.324219 89.238281 L 276.242188 98.925781 C 277.378906 130.679688 321.441406 124.925781 321.980469 95.613281 L 322.347656 60.628906 Z M 204.246094 169.894531 C 204.25 171.15625 204.128906 172.410156 203.882812 173.648438 C 203.632812 174.886719 203.265625 176.089844 202.777344 177.257812 C 202.289062 178.421875 201.691406 179.527344 200.980469 180.574219 C 200.269531 181.621094 199.464844 182.585938 198.5625 183.46875 C 198.238281 183.914062 175.597656 205.769531 176.273438 205.675781 C 174.824219 207.703125 174.105469 209.964844 174.113281 212.457031 L 174.113281 230.949219 L 204.546875 230.949219 C 204.355469 223.761719 204.085938 215.710938 209.652344 210.296875 C 215.554688 204.191406 234.707031 181.050781 234.9375 180.714844 C 235.019531 180.605469 235.300781 180.28125 235.398438 180.1875 C 237.140625 178.28125 238.21875 175.566406 238.300781 172.703125 L 238.707031 154.574219 L 204.246094 154.574219 Z M 202.277344 147.1875 L 240.773438 147.1875 L 256.023438 127.804688 L 186.054688 127.804688 Z M 211.5 256.976562 C 211.828125 256.980469 212.140625 256.921875 212.441406 256.800781 C 212.738281 256.675781 213.003906 256.5 213.234375 256.269531 C 213.460938 256.039062 213.636719 255.773438 213.757812 255.472656 C 213.878906 255.171875 213.9375 254.859375 213.933594 254.53125 L 213.933594 240.78125 C 213.9375 240.457031 213.878906 240.144531 213.753906 239.84375 C 213.632812 239.546875 213.457031 239.28125 213.230469 239.050781 C 213 238.820312 212.738281 238.644531 212.4375 238.519531 C 212.136719 238.394531 211.824219 238.335938 211.5 238.335938 L 170.410156 238.335938 C 168.398438 238.335938 165.386719 237.863281 165.265625 240.78125 L 165.265625 254.53125 C 165.265625 254.855469 165.328125 255.167969 165.449219 255.46875 C 165.574219 255.769531 165.75 256.03125 165.980469 256.261719 C 166.210938 256.492188 166.472656 256.667969 166.773438 256.792969 C 167.074219 256.914062 167.386719 256.976562 167.710938 256.976562 Z M 211.5 256.976562 " fill-opacity="1" fill-rule="nonzero"/></g></svg>