<svg xmlns="http://www.w3.org/2000/svg" xmlns:xlink="http://www.w3.org/1999/xlink" width="500" zoomAndPan="magnify" viewBox="0 0 375 374.999991" height="500" preserveAspectRatio="xMidYMid meet" version="1.0"><defs><linearGradient id="serviceSunset" x1="0%" y1="0%" x2="100%" y2="100%"><stop offset="0%" stop-color="#fcd34d"/><stop offset="50%" stop-color="#fb923c"/><stop offset="100%" stop-color="#f43f5e"/></linearGradient><clipPath id="c06b234faf"><path d="M 53.4375 31.460938 L 321.9375 31.460938 L 321.9375 331.460938 L 53.4375 331.460938 Z M 53.4375 31.460938 " clip-rule="nonzero"/></clipPath></defs><g clip-path="url(#c06b234faf)"><path fill="url(#serviceSunset)" d="M 219.796875 50.335938 L 209.617188 44.691406 C 193.589844 35.804688 173.492188 39.769531 162.042969 54.078125 C 155.203125 62.632812 152.160156 73.613281 153.621094 84.46875 C 155.082031 95.324219 160.921875 105.109375 169.785156 111.546875 L 174.769531 115.171875 C 193.457031 128.746094 201.28125 152.222656 195.46875 173.75 C 194.855469 176.015625 192.519531 177.359375 190.253906 176.746094 C 187.984375 176.136719 186.640625 173.796875 187.253906 171.53125 C 192.164062 153.351562 185.550781 133.523438 169.769531 122.054688 L 164.78125 118.429688 C 154.039062 110.625 146.957031 98.765625 145.1875 85.605469 C 143.414062 72.445312 147.105469 59.132812 155.398438 48.761719 C 169.4375 31.214844 194.089844 26.347656 213.742188 37.246094 L 223.8125 42.832031 L 224.167969 42.164062 C 225.230469 40.183594 227.035156 38.703125 229.191406 38.050781 C 231.34375 37.398438 233.667969 37.628906 235.648438 38.691406 L 268.851562 56.46875 C 269.519531 55.683594 270.464844 55.144531 271.539062 55.007812 L 271.539062 50.957031 C 271.539062 42.738281 278.210938 36.066406 286.425781 36.066406 C 294.644531 36.066406 301.316406 42.738281 301.316406 50.957031 L 301.316406 55.007812 C 303.402344 55.277344 305.011719 57.0625 305.011719 59.226562 L 305.011719 131.894531 C 305.011719 134.054688 303.402344 135.839844 301.316406 136.113281 L 301.316406 140.164062 C 301.316406 146.902344 296.828125 152.601562 290.679688 154.433594 L 290.679688 162.417969 C 296.105469 164.207031 300.027344 169.316406 300.027344 175.335938 L 300.027344 246.183594 C 300.027344 252.203125 296.105469 257.316406 290.679688 259.105469 L 290.679688 266.46875 L 291.21875 266.46875 C 294.4375 266.46875 297.464844 268.003906 299.367188 270.601562 C 301.265625 273.199219 301.816406 276.546875 300.84375 279.617188 L 298.011719 288.550781 C 296.769531 292.46875 293.136719 295.128906 289.027344 295.128906 L 283.824219 295.128906 C 279.71875 295.128906 276.082031 292.46875 274.839844 288.550781 L 272.007812 279.617188 C 271.039062 276.546875 271.585938 273.199219 273.488281 270.601562 C 275.390625 268.003906 278.414062 266.46875 281.632812 266.46875 L 282.171875 266.46875 L 282.171875 259.105469 C 276.746094 257.316406 272.824219 252.203125 272.824219 246.183594 L 272.824219 175.335938 C 272.824219 169.316406 276.746094 164.207031 282.171875 162.417969 L 282.171875 154.433594 C 276.023438 152.601562 271.539062 146.902344 271.539062 140.164062 L 271.539062 136.113281 C 269.453125 135.839844 267.839844 134.054688 267.839844 131.894531 L 267.839844 113.746094 L 253.40625 108.425781 L 230.582031 108.425781 C 228.230469 108.425781 226.328125 106.519531 226.328125 104.171875 C 226.328125 101.824219 228.230469 99.917969 230.582031 99.917969 L 254.167969 99.917969 C 254.667969 99.917969 255.167969 100.007812 255.636719 100.179688 L 267.839844 104.679688 L 267.839844 87.40625 L 222.550781 63.15625 C 220.566406 62.09375 219.085938 60.289062 218.4375 58.136719 C 217.785156 55.980469 218.015625 53.65625 219.078125 51.675781 Z M 292.804688 136.148438 L 280.046875 136.148438 L 280.046875 140.164062 C 280.046875 143.683594 282.90625 146.542969 286.425781 146.542969 C 289.945312 146.542969 292.804688 143.683594 292.804688 140.164062 Z M 291.21875 274.980469 L 281.632812 274.980469 C 281.128906 274.980469 280.652344 275.21875 280.355469 275.628906 C 280.054688 276.035156 279.96875 276.5625 280.121094 277.042969 L 282.953125 285.980469 C 283.074219 286.363281 283.425781 286.621094 283.824219 286.621094 L 289.027344 286.621094 C 289.425781 286.621094 289.777344 286.363281 289.898438 285.980469 L 292.730469 277.042969 C 292.882812 276.5625 292.796875 276.035156 292.5 275.628906 C 292.199219 275.21875 291.726562 274.980469 291.21875 274.980469 Z M 276.351562 110.863281 L 276.351562 127.640625 C 276.351562 127.640625 296.503906 127.640625 296.503906 127.640625 L 296.503906 63.480469 L 276.324219 63.480469 C 276.1875 64.800781 275.433594 65.992188 274.28125 66.683594 C 272.996094 67.449219 271.40625 67.488281 270.085938 66.78125 L 231.65625 46.207031 L 229.304688 50.597656 C 229.285156 50.636719 229.265625 50.671875 229.246094 50.710938 L 226.59375 55.667969 L 274.101562 81.109375 C 275.488281 81.847656 276.351562 83.289062 276.351562 84.859375 L 276.351562 110.703125 C 276.351562 110.757812 276.351562 110.808594 276.351562 110.863281 Z M 286.425781 170.246094 C 283.617188 170.246094 281.335938 172.527344 281.335938 175.335938 L 281.335938 246.183594 C 281.335938 248.992188 283.617188 251.273438 286.425781 251.273438 C 289.234375 251.273438 291.515625 248.992188 291.515625 246.183594 L 291.515625 175.335938 C 291.515625 172.527344 289.234375 170.246094 286.425781 170.246094 Z M 280.046875 54.96875 L 292.804688 54.96875 L 292.804688 50.957031 C 292.804688 47.433594 289.945312 44.578125 286.425781 44.578125 C 282.90625 44.578125 280.046875 47.433594 280.046875 50.957031 Z M 282.171875 303.316406 C 282.171875 300.96875 284.078125 299.0625 286.425781 299.0625 C 288.773438 299.0625 290.679688 300.96875 290.679688 303.316406 L 290.679688 327.476562 C 290.679688 329.824219 288.773438 331.730469 286.425781 331.730469 C 284.078125 331.730469 282.171875 329.824219 282.171875 327.476562 Z M 297.183594 306.324219 C 295.523438 304.664062 295.523438 301.96875 297.183594 300.308594 C 298.84375 298.648438 301.539062 298.648438 303.199219 300.308594 L 320.285156 317.390625 C 321.945312 319.050781 321.945312 321.75 320.285156 323.410156 C 318.625 325.070312 315.925781 325.070312 314.265625 323.410156 Z M 269.652344 300.308594 C 271.3125 298.648438 274.007812 298.648438 275.671875 300.308594 C 277.332031 301.96875 277.332031 304.664062 275.671875 306.324219 L 258.585938 323.410156 C 256.925781 325.070312 254.230469 325.070312 252.570312 323.410156 C 250.90625 321.75 250.90625 319.050781 252.570312 317.390625 Z M 82.429688 323.300781 C 79.554688 327.378906 74.808594 330.042969 69.441406 330.042969 L 69.351562 330.042969 C 60.578125 330.042969 53.46875 322.933594 53.46875 314.164062 L 53.46875 295.199219 C 53.46875 286.515625 60.441406 279.457031 69.09375 279.320312 L 91.34375 176.199219 C 93.960938 164.070312 102.945312 154.664062 114.335938 151.179688 C 114.390625 151.160156 114.449219 151.144531 114.503906 151.128906 C 117.574219 150.207031 120.820312 149.714844 124.15625 149.714844 L 149.777344 149.714844 C 165.585938 149.714844 179.253906 160.746094 182.589844 176.199219 L 204.839844 279.320312 C 213.492188 279.457031 220.464844 286.515625 220.464844 295.199219 L 220.464844 314.164062 C 220.464844 322.933594 213.355469 330.042969 204.585938 330.042969 L 204.496094 330.042969 C 199.125 330.042969 194.378906 327.378906 191.503906 323.300781 C 186.894531 325.863281 181.652344 327.253906 176.246094 327.253906 L 97.6875 327.253906 C 92.28125 327.253906 87.042969 325.863281 82.429688 323.300781 Z M 204.585938 287.828125 L 204.496094 287.828125 C 200.425781 287.828125 197.125 291.128906 197.125 295.199219 L 197.125 314.164062 C 197.125 318.234375 200.425781 321.535156 204.496094 321.535156 L 204.585938 321.535156 C 208.65625 321.535156 211.957031 318.234375 211.957031 314.164062 L 211.957031 295.199219 C 211.957031 291.128906 208.65625 287.828125 204.585938 287.828125 Z M 69.441406 287.828125 L 69.351562 287.828125 C 65.277344 287.828125 61.980469 291.128906 61.980469 295.199219 L 61.980469 314.164062 C 61.980469 318.234375 65.277344 321.535156 69.351562 321.535156 L 69.441406 321.535156 C 73.511719 321.535156 76.8125 318.234375 76.8125 314.164062 L 76.8125 295.199219 C 76.8125 291.128906 73.511719 287.828125 69.441406 287.828125 Z M 154.027344 158.585938 C 152.640625 158.347656 151.222656 158.222656 149.777344 158.222656 L 124.15625 158.222656 C 122.714844 158.222656 121.292969 158.347656 119.910156 158.582031 L 119.910156 186.140625 L 154.027344 186.140625 Z M 77.347656 281.425781 C 82.113281 284.167969 85.320312 289.308594 85.320312 295.199219 L 85.320312 314.164062 C 85.320312 314.480469 85.3125 314.792969 85.292969 315.105469 C 88.949219 317.453125 93.242188 318.742188 97.6875 318.742188 L 176.25 318.742188 C 180.695312 318.742188 184.984375 317.453125 188.640625 315.105469 C 188.625 314.792969 188.613281 314.480469 188.613281 314.164062 L 188.613281 295.199219 C 188.613281 289.308594 191.824219 284.167969 196.589844 281.425781 L 174.269531 177.996094 C 172.757812 170.976562 168.386719 165.175781 162.535156 161.714844 L 162.535156 190.394531 C 162.535156 192.746094 160.628906 194.652344 158.28125 194.652344 L 115.652344 194.652344 C 113.304688 194.652344 111.398438 192.746094 111.398438 190.394531 L 111.398438 161.710938 C 105.550781 165.175781 101.179688 170.976562 99.664062 177.996094 Z M 115.652344 250.988281 C 113.304688 250.988281 111.398438 249.082031 111.398438 246.734375 C 111.398438 244.382812 113.304688 242.476562 115.652344 242.476562 L 158.28125 242.476562 C 160.628906 242.476562 162.535156 244.382812 162.535156 246.734375 C 162.535156 249.082031 160.628906 250.988281 158.28125 250.988281 Z M 123.945312 233.347656 C 121.59375 233.347656 119.6875 231.441406 119.6875 229.089844 C 119.6875 226.742188 121.59375 224.835938 123.945312 224.835938 L 149.992188 224.835938 C 152.339844 224.835938 154.246094 226.742188 154.246094 229.089844 C 154.246094 231.441406 152.339844 233.347656 149.992188 233.347656 Z M 102.089844 268.628906 C 99.742188 268.628906 97.832031 266.722656 97.832031 264.375 C 97.832031 262.023438 99.742188 260.117188 102.089844 260.117188 L 171.84375 260.117188 C 174.195312 260.117188 176.101562 262.023438 176.101562 264.375 C 176.101562 266.722656 174.195312 268.628906 171.84375 268.628906 Z M 102.089844 268.628906 " fill-opacity="1" fill-rule="evenodd"/></g></svg>