<svg xmlns="http://www.w3.org/2000/svg" xmlns:xlink="http://www.w3.org/1999/xlink" width="500" zoomAndPan="magnify" viewBox="0 0 375 374.999991" height="500" preserveAspectRatio="xMidYMid meet" version="1.0"><defs><linearGradient id="serviceSunset" x1="0%" y1="0%" x2="100%" y2="100%"><stop offset="0%" stop-color="#fcd34d"/><stop offset="50%" stop-color="#fb923c"/><stop offset="100%" stop-color="#f43f5e"/></linearGradient><clipPath id="1f82e6502e"><path d="M 50.808594 48 L 324.558594 48 L 324.558594 326.960938 L 50.808594 326.960938 Z M 50.808594 48 " clip-rule="nonzero"/></clipPath></defs><g clip-path="url(#1f82e6502e)"><path fill="url(#serviceSunset)" d="M 255.433594 280.007812 C 253.253906 280.007812 251.484375 278.238281 251.484375 276.058594 C 251.484375 273.875 253.253906 272.105469 255.433594 272.105469 L 284.535156 272.105469 C 285.769531 272.105469 286.933594 272.683594 287.679688 273.664062 L 323.339844 320.578125 C 324.246094 321.773438 324.398438 323.378906 323.734375 324.726562 C 323.066406 326.070312 321.695312 326.921875 320.191406 326.921875 L 54.746094 326.921875 C 53.242188 326.921875 51.871094 326.070312 51.203125 324.726562 C 50.539062 323.378906 50.691406 321.773438 51.597656 320.578125 L 87.257812 273.664062 C 88.003906 272.683594 89.167969 272.105469 90.402344 272.105469 L 119.503906 272.105469 C 121.683594 272.105469 123.453125 273.875 123.453125 276.058594 C 123.453125 278.238281 121.683594 280.007812 119.503906 280.007812 L 92.359375 280.007812 L 62.710938 319.019531 L 312.226562 319.019531 L 282.574219 280.007812 Z M 129.484375 271.0625 C 127.585938 269.128906 126.707031 267.054688 126.707031 265.125 C 126.707031 262.804688 127.804688 260.414062 130.359375 258.292969 C 132.246094 256.722656 135.117188 255.199219 138.828125 253.851562 C 139.011719 251.675781 140.320312 249.375 143.199219 247.457031 C 147.035156 244.898438 154.472656 242.625 164.074219 241.234375 L 164.074219 232.011719 C 164.074219 225.28125 169.417969 219.796875 176.097656 219.578125 L 176.097656 209.929688 L 175.890625 209.929688 C 168.242188 209.929688 162.042969 203.730469 162.042969 196.082031 L 162.042969 131.769531 C 162.042969 129.46875 162.957031 127.261719 164.585938 125.632812 C 166.210938 124.007812 168.417969 123.09375 170.722656 123.09375 L 177.890625 123.09375 L 177.890625 105.636719 C 175.023438 103.785156 172.917969 100.8125 172.234375 97.265625 L 170.199219 86.683594 L 147.074219 86.683594 C 144.894531 86.683594 143.121094 84.914062 143.121094 82.734375 C 143.121094 80.554688 144.894531 78.78125 147.074219 78.78125 L 168.675781 78.78125 L 168.171875 76.164062 L 141.578125 76.164062 C 135.832031 76.164062 131.167969 71.5 131.167969 65.753906 C 131.167969 60.007812 135.832031 55.34375 141.578125 55.34375 L 165.753906 55.34375 C 166.179688 54.171875 166.804688 53.066406 167.617188 52.082031 C 169.714844 49.542969 172.835938 48.070312 176.132812 48.070312 L 198.804688 48.070312 C 202.101562 48.070312 205.222656 49.542969 207.320312 52.082031 C 208.132812 53.066406 208.757812 54.171875 209.183594 55.34375 L 233.359375 55.34375 C 239.105469 55.34375 243.769531 60.007812 243.769531 65.753906 C 243.769531 71.5 239.105469 76.164062 233.359375 76.164062 L 206.765625 76.164062 L 206.261719 78.78125 L 227.863281 78.78125 C 230.042969 78.78125 231.816406 80.554688 231.816406 82.734375 C 231.816406 84.914062 230.042969 86.683594 227.863281 86.683594 L 204.738281 86.683594 L 202.703125 97.265625 C 202.019531 100.8125 199.914062 103.785156 197.046875 105.636719 L 197.046875 123.09375 L 204.214844 123.09375 C 206.515625 123.09375 208.722656 124.007812 210.351562 125.632812 C 211.980469 127.261719 212.894531 129.46875 212.894531 131.769531 L 212.894531 196.082031 C 212.894531 203.730469 206.695312 209.929688 199.046875 209.929688 L 198.839844 209.929688 L 198.839844 219.578125 C 205.519531 219.796875 210.863281 225.28125 210.863281 232.011719 L 210.863281 241.234375 C 220.464844 242.625 227.902344 244.898438 231.738281 247.457031 C 234.617188 249.375 235.925781 251.675781 236.109375 253.851562 C 239.820312 255.199219 242.6875 256.722656 244.578125 258.292969 C 247.132812 260.414062 248.230469 262.804688 248.230469 265.125 C 248.230469 267.054688 247.351562 269.128906 245.453125 271.0625 C 247.351562 272.996094 248.230469 275.070312 248.230469 277 C 248.230469 278.746094 247.621094 280.492188 246.273438 282.144531 C 244.933594 283.78125 242.699219 285.417969 239.59375 286.859375 C 239.285156 287 238.960938 287.144531 238.632812 287.285156 L 238.632812 293.140625 C 238.632812 295.324219 236.859375 297.09375 234.679688 297.09375 C 232.5 297.09375 230.730469 295.324219 230.730469 293.140625 L 230.730469 289.921875 C 229.488281 290.25 228.1875 290.566406 226.828125 290.867188 L 226.828125 296.429688 C 226.828125 298.609375 225.058594 300.378906 222.878906 300.378906 C 220.695312 300.378906 218.925781 298.609375 218.925781 296.429688 L 218.925781 292.34375 C 217.660156 292.542969 216.355469 292.726562 215.027344 292.902344 L 215.027344 298.242188 C 215.027344 300.421875 213.253906 302.195312 211.074219 302.195312 C 208.894531 302.195312 207.121094 300.421875 207.121094 298.242188 L 207.121094 293.765625 C 205.84375 293.878906 204.542969 293.980469 203.222656 294.070312 L 203.222656 299.21875 C 203.222656 301.398438 201.453125 303.167969 199.273438 303.167969 C 197.089844 303.167969 195.320312 301.398438 195.320312 299.21875 L 195.320312 294.472656 C 194.03125 294.515625 192.730469 294.550781 191.417969 294.570312 L 191.417969 299.511719 C 191.417969 301.695312 189.648438 303.464844 187.46875 303.464844 C 185.289062 303.464844 183.515625 301.695312 183.515625 299.511719 L 183.515625 294.570312 C 182.203125 294.550781 180.902344 294.515625 179.617188 294.472656 L 179.617188 299.21875 C 179.617188 301.398438 177.847656 303.167969 175.664062 303.167969 C 173.484375 303.167969 171.714844 301.398438 171.714844 299.21875 L 171.714844 294.070312 C 170.394531 293.980469 169.09375 293.878906 167.8125 293.765625 L 167.8125 298.242188 C 167.8125 300.421875 166.042969 302.195312 163.863281 302.195312 C 161.679688 302.195312 159.910156 300.421875 159.910156 298.242188 L 159.910156 292.902344 C 158.578125 292.726562 157.277344 292.542969 156.011719 292.34375 L 156.011719 296.429688 C 156.011719 298.609375 154.238281 300.378906 152.058594 300.378906 C 149.878906 300.378906 148.109375 298.609375 148.109375 296.429688 L 148.109375 290.867188 C 146.75 290.566406 145.449219 290.25 144.207031 289.921875 L 144.207031 293.140625 C 144.207031 295.324219 142.4375 297.09375 140.257812 297.09375 C 138.074219 297.09375 136.304688 295.324219 136.304688 293.140625 L 136.304688 287.285156 C 135.972656 287.144531 135.652344 287 135.34375 286.859375 C 132.238281 285.417969 130.003906 283.78125 128.664062 282.144531 C 127.3125 280.492188 126.707031 278.746094 126.707031 277 C 126.707031 275.070312 127.585938 272.996094 129.484375 271.0625 Z M 177.351562 82.050781 L 179.996094 95.769531 C 180.445312 98.101562 182.484375 99.789062 184.859375 99.789062 L 190.078125 99.789062 C 192.449219 99.789062 194.492188 98.101562 194.941406 95.769531 L 197.582031 82.050781 C 197.59375 82.007812 197.601562 81.960938 197.609375 81.917969 L 201.886719 59.707031 C 202.066406 58.785156 201.824219 57.835938 201.226562 57.113281 C 200.628906 56.390625 199.742188 55.972656 198.804688 55.972656 L 176.132812 55.972656 C 175.195312 55.972656 174.308594 56.390625 173.710938 57.113281 C 173.113281 57.835938 172.871094 58.785156 173.050781 59.707031 L 177.328125 81.917969 C 177.335938 81.960938 177.34375 82.007812 177.351562 82.050781 Z M 164.277344 249.1875 C 157.789062 250.164062 152.496094 251.523438 149.078125 253.191406 C 148.375 253.53125 147.621094 254.074219 147.132812 254.449219 C 148.644531 255.78125 151.628906 256.796875 155.523438 257.816406 C 163.449219 259.894531 174.832031 261.171875 187.46875 261.171875 C 200.105469 261.171875 211.488281 259.894531 219.414062 257.816406 C 223.308594 256.796875 226.292969 255.78125 227.804688 254.449219 C 227.316406 254.074219 226.5625 253.53125 225.859375 253.191406 C 222.4375 251.523438 217.148438 250.164062 210.660156 249.1875 C 209.84375 252.761719 206.644531 255.425781 202.824219 255.425781 L 172.113281 255.425781 C 168.292969 255.425781 165.09375 252.761719 164.277344 249.1875 Z M 142.644531 260.886719 C 140.003906 261.757812 137.84375 262.707031 136.265625 263.742188 C 135.699219 264.113281 135.222656 264.488281 134.871094 264.878906 C 134.8125 264.945312 134.746094 265.035156 134.695312 265.113281 C 134.835938 265.292969 135.097656 265.613281 135.328125 265.808594 C 136.027344 266.410156 136.953125 266.972656 138.0625 267.523438 L 138.070312 267.527344 C 146.949219 271.929688 165.753906 274.824219 187.46875 274.824219 C 209.183594 274.824219 227.984375 271.929688 236.867188 267.527344 L 236.871094 267.523438 C 237.984375 266.972656 238.910156 266.410156 239.609375 265.808594 C 239.839844 265.613281 240.101562 265.292969 240.242188 265.113281 C 240.1875 265.035156 240.125 264.945312 240.066406 264.878906 C 239.714844 264.488281 239.238281 264.113281 238.671875 263.742188 C 237.09375 262.707031 234.929688 261.757812 232.292969 260.886719 C 230.628906 262.09375 228.34375 263.253906 225.484375 264.242188 C 217.121094 267.128906 203.210938 269.074219 187.46875 269.074219 C 171.726562 269.074219 157.816406 267.128906 149.449219 264.242188 C 146.589844 263.253906 144.308594 262.09375 142.644531 260.886719 Z M 222.359375 283.753906 C 226.015625 283.042969 229.289062 282.222656 232.082031 281.304688 C 235.058594 280.328125 237.445312 279.28125 239.070312 278.109375 C 239.421875 277.855469 239.730469 277.601562 239.980469 277.335938 C 240.066406 277.246094 240.167969 277.113281 240.242188 277.007812 C 240.097656 276.828125 239.835938 276.511719 239.609375 276.316406 C 239.273438 276.027344 238.890625 275.75 238.457031 275.480469 C 228.316406 279.738281 209.28125 282.726562 187.46875 282.726562 C 165.65625 282.726562 146.621094 279.738281 136.476562 275.480469 C 136.046875 275.75 135.660156 276.027344 135.328125 276.316406 C 135.097656 276.511719 134.839844 276.828125 134.695312 277.007812 C 134.769531 277.113281 134.871094 277.246094 134.957031 277.335938 C 135.207031 277.601562 135.515625 277.855469 135.867188 278.109375 C 137.492188 279.28125 139.878906 280.328125 142.855469 281.304688 C 145.648438 282.222656 148.921875 283.042969 152.578125 283.753906 C 152.734375 283.777344 152.886719 283.804688 153.035156 283.84375 C 156.414062 284.484375 160.113281 285.035156 164.066406 285.472656 C 164.222656 285.480469 164.375 285.5 164.527344 285.523438 C 168.078125 285.910156 171.824219 286.207031 175.726562 286.40625 C 175.820312 286.40625 175.914062 286.410156 176.007812 286.417969 C 179.707031 286.605469 183.539062 286.699219 187.46875 286.699219 C 191.398438 286.699219 195.230469 286.605469 198.929688 286.417969 C 199.023438 286.410156 199.117188 286.40625 199.210938 286.40625 C 203.113281 286.207031 206.859375 285.910156 210.410156 285.523438 C 210.5625 285.5 210.714844 285.480469 210.871094 285.472656 C 214.824219 285.035156 218.523438 284.484375 221.902344 283.84375 C 222.050781 283.804688 222.203125 283.777344 222.359375 283.753906 Z M 202.960938 244.660156 L 202.960938 232.011719 C 202.960938 229.503906 200.929688 227.472656 198.417969 227.472656 L 176.519531 227.472656 C 174.007812 227.472656 171.976562 229.503906 171.976562 232.011719 L 171.976562 244.660156 C 171.976562 244.691406 171.976562 244.726562 171.976562 244.757812 L 171.976562 247.386719 C 171.976562 247.460938 172.039062 247.523438 172.113281 247.523438 L 202.824219 247.523438 C 202.898438 247.523438 202.960938 247.460938 202.960938 247.386719 L 202.960938 244.757812 C 202.960938 244.726562 202.960938 244.691406 202.960938 244.660156 Z M 184 219.570312 L 190.9375 219.570312 L 190.9375 209.929688 L 184 209.929688 Z M 169.945312 147.367188 L 169.945312 196.082031 C 169.945312 199.367188 172.609375 202.027344 175.890625 202.027344 L 199.046875 202.027344 C 202.328125 202.027344 204.992188 199.367188 204.992188 196.082031 L 204.992188 147.367188 L 202.015625 147.367188 L 202.015625 155.191406 C 202.015625 157.375 200.246094 159.144531 198.0625 159.144531 L 176.375 159.144531 C 174.195312 159.144531 172.425781 157.375 172.425781 155.191406 C 172.425781 155.191406 172.425781 147.367188 172.425781 147.367188 Z M 185.792969 123.09375 L 189.144531 123.09375 L 189.144531 107.691406 L 185.792969 107.691406 Z M 204.992188 139.464844 L 204.992188 131.769531 C 204.992188 131.566406 204.910156 131.367188 204.765625 131.222656 C 204.617188 131.078125 204.421875 130.996094 204.214844 130.996094 L 170.722656 130.996094 C 170.515625 130.996094 170.320312 131.078125 170.171875 131.222656 C 170.027344 131.367188 169.945312 131.566406 169.945312 131.769531 L 169.945312 139.464844 L 176.375 139.464844 C 178.558594 139.464844 180.328125 141.234375 180.328125 143.414062 C 180.328125 143.414062 180.328125 151.242188 180.328125 151.242188 C 180.328125 151.242188 194.113281 151.242188 194.113281 151.242188 L 194.113281 143.414062 C 194.113281 141.234375 195.882812 139.464844 198.0625 139.464844 Z M 166.648438 68.261719 L 165.683594 63.246094 L 141.578125 63.246094 C 140.191406 63.246094 139.070312 64.371094 139.070312 65.753906 C 139.070312 67.140625 140.191406 68.261719 141.578125 68.261719 Z M 209.253906 63.246094 L 208.289062 68.261719 L 233.359375 68.261719 C 234.742188 68.261719 235.867188 67.140625 235.867188 65.753906 C 235.867188 64.371094 234.742188 63.246094 233.359375 63.246094 Z M 209.253906 63.246094 " fill-opacity="1" fill-rule="evenodd"/></g></svg>