<svg xmlns="http://www.w3.org/2000/svg" xmlns:xlink="http://www.w3.org/1999/xlink" width="500" zoomAndPan="magnify" viewBox="0 0 375 374.999991" height="500" preserveAspectRatio="xMidYMid meet" version="1.0"><defs><linearGradient id="serviceSunset" x1="0%" y1="0%" x2="100%" y2="100%"><stop offset="0%" stop-color="#fcd34d"/><stop offset="50%" stop-color="#fb923c"/><stop offset="100%" stop-color="#f43f5e"/></linearGradient><clipPath id="51505004af"><path d="M 78.398438 47.921875 L 296.648438 47.921875 L 296.648438 326.921875 L 78.398438 326.921875 Z M 78.398438 47.921875 " clip-rule="nonzero"/></clipPath></defs><g clip-path="url(#51505004af)"><path fill="url(#serviceSunset)" d="M 287.917969 47.953125 L 92.085938 47.953125 C 87.320312 47.953125 83.441406 51.828125 83.441406 56.597656 L 83.441406 266.085938 C 80.402344 268.710938 78.566406 272.5 78.390625 276.519531 C 78.21875 280.597656 79.773438 284.589844 82.660156 287.476562 C 82.910156 287.730469 83.175781 287.96875 83.441406 288.199219 L 83.441406 318.402344 C 83.441406 323.167969 87.320312 327.042969 92.085938 327.042969 L 287.917969 327.042969 C 292.683594 327.042969 296.5625 323.167969 296.5625 318.402344 L 296.5625 56.597656 C 296.5625 51.828125 292.683594 47.953125 287.917969 47.953125 Z M 290.863281 318.402344 C 290.863281 320.027344 289.542969 321.347656 287.917969 321.347656 L 92.085938 321.347656 C 90.460938 321.347656 89.136719 320.027344 89.136719 318.402344 L 89.136719 291.234375 C 90.386719 291.574219 91.683594 291.757812 92.996094 291.757812 C 93.203125 291.757812 93.410156 291.753906 93.621094 291.742188 C 96.609375 291.617188 99.472656 290.5625 101.824219 288.777344 L 101.824219 306.136719 C 101.824219 307.710938 103.101562 308.984375 104.675781 308.984375 L 275.328125 308.984375 C 276.902344 308.984375 278.175781 307.710938 278.175781 306.136719 L 278.175781 68.859375 C 278.175781 67.285156 276.902344 66.011719 275.328125 66.011719 L 104.675781 66.011719 C 103.101562 66.011719 101.824219 67.285156 101.824219 68.859375 L 101.824219 250.609375 L 89.136719 261.289062 L 89.136719 56.597656 C 89.136719 54.972656 90.460938 53.648438 92.085938 53.648438 L 287.917969 53.648438 C 289.542969 53.648438 290.863281 54.972656 290.863281 56.597656 Z M 107.523438 282.574219 L 142.433594 241.089844 C 147.402344 235.1875 154.625 231.757812 162.320312 231.609375 L 148.925781 218.214844 C 148.035156 217.328125 148.035156 215.882812 148.925781 214.996094 C 149.816406 214.105469 151.257812 214.105469 152.148438 214.996094 L 168.75 231.597656 L 168.765625 231.597656 L 193.1875 256.019531 C 194.703125 257.535156 196.71875 258.371094 198.859375 258.371094 C 201 258.371094 203.011719 257.535156 204.527344 256.019531 L 208.300781 252.246094 C 211.425781 249.121094 211.425781 244.035156 208.300781 240.910156 L 129.226562 161.835938 C 127.714844 160.320312 125.699219 159.488281 123.558594 159.488281 C 121.417969 159.488281 119.402344 160.320312 117.890625 161.835938 L 114.117188 165.609375 C 112.601562 167.121094 111.765625 169.136719 111.765625 171.277344 C 111.765625 173.417969 112.601562 175.433594 114.117188 176.949219 L 138.539062 201.371094 L 138.539062 207.308594 C 138.539062 215.191406 135.082031 222.625 129.046875 227.703125 L 107.523438 245.816406 L 107.523438 71.707031 L 272.480469 71.707031 L 272.480469 303.289062 L 107.523438 303.289062 Z M 107.523438 282.574219 " fill-opacity="1" fill-rule="nonzero"/></g><path fill="url(#serviceSunset)" d="M 204.339844 82.457031 C 205.097656 81.082031 204.59375 79.347656 203.21875 78.589844 C 201.839844 77.832031 200.105469 78.335938 199.347656 79.714844 L 198.175781 81.847656 C 185.464844 104.960938 169.5625 126.132812 150.914062 144.78125 L 137.921875 157.773438 C 136.808594 158.886719 136.808594 160.691406 137.921875 161.800781 C 138.480469 162.359375 139.207031 162.636719 139.9375 162.636719 C 140.664062 162.636719 141.394531 162.359375 141.949219 161.800781 L 154.941406 148.808594 C 173.972656 129.78125 190.195312 108.175781 203.167969 84.59375 Z M 204.339844 82.457031 " fill-opacity="1" fill-rule="nonzero"/><path fill="url(#serviceSunset)" d="M 265.964844 162.144531 L 266.730469 160.757812 C 267.488281 159.378906 266.984375 157.644531 265.605469 156.886719 C 264.230469 156.128906 262.496094 156.632812 261.738281 158.011719 L 260.972656 159.402344 C 250.789062 177.914062 238.050781 194.878906 223.109375 209.820312 L 206.539062 226.390625 C 205.425781 227.503906 205.425781 229.308594 206.539062 230.417969 C 207.09375 230.976562 207.824219 231.253906 208.554688 231.253906 C 209.28125 231.253906 210.011719 230.976562 210.566406 230.417969 L 227.136719 213.847656 C 242.460938 198.527344 255.523438 181.132812 265.964844 162.144531 Z M 265.964844 162.144531 " fill-opacity="1" fill-rule="nonzero"/><path fill="url(#serviceSunset)" d="M 262.566406 275.496094 L 245.03125 293.03125 C 243.917969 294.144531 243.917969 295.945312 245.03125 297.058594 C 245.585938 297.613281 246.316406 297.890625 247.046875 297.890625 C 247.773438 297.890625 248.503906 297.613281 249.058594 297.058594 L 266.59375 279.523438 C 267.707031 278.410156 267.707031 276.605469 266.59375 275.496094 C 265.480469 274.382812 263.679688 274.382812 262.566406 275.496094 Z M 262.566406 275.496094 " fill-opacity="1" fill-rule="nonzero"/><path fill="url(#serviceSunset)" d="M 263.65625 256.898438 C 262.542969 255.785156 260.742188 255.785156 259.628906 256.898438 L 226.433594 290.089844 C 225.320312 291.203125 225.320312 293.007812 226.433594 294.117188 C 226.988281 294.675781 227.71875 294.953125 228.449219 294.953125 C 229.175781 294.953125 229.90625 294.675781 230.460938 294.117188 L 263.65625 260.925781 C 264.769531 259.8125 264.769531 258.007812 263.65625 256.898438 Z M 263.65625 256.898438 " fill-opacity="1" fill-rule="nonzero"/><path fill="url(#serviceSunset)" d="M 208.011719 174.914062 C 209.886719 166.4375 216.15625 159.4375 224.375 156.644531 C 225.933594 156.117188 226.984375 154.652344 226.984375 153.007812 C 226.984375 151.359375 225.933594 149.898438 224.375 149.367188 C 216.15625 146.574219 209.886719 139.574219 208.011719 131.101562 L 206.386719 123.742188 C 205.992188 121.96875 204.449219 120.730469 202.632812 120.730469 C 200.816406 120.730469 199.269531 121.96875 198.878906 123.742188 L 197.25 131.101562 C 195.378906 139.574219 189.105469 146.574219 180.886719 149.367188 C 179.328125 149.898438 178.28125 151.359375 178.28125 153.007812 C 178.28125 154.652344 179.328125 156.117188 180.886719 156.644531 C 189.105469 159.4375 195.378906 166.4375 197.25 174.914062 L 198.878906 182.269531 C 199.269531 184.042969 200.816406 185.285156 202.632812 185.285156 C 204.449219 185.285156 205.992188 184.042969 206.386719 182.269531 Z M 199.613281 155.285156 C 198.355469 155.285156 197.335938 154.265625 197.335938 153.007812 C 197.335938 151.75 198.355469 150.726562 199.613281 150.726562 L 200.351562 150.726562 L 200.351562 148.738281 C 200.351562 147.480469 201.375 146.460938 202.632812 146.460938 C 203.890625 146.460938 204.910156 147.480469 204.910156 148.738281 L 204.910156 150.726562 L 205.648438 150.726562 C 206.910156 150.726562 207.929688 151.75 207.929688 153.007812 C 207.929688 154.265625 206.910156 155.285156 205.648438 155.285156 L 204.910156 155.285156 L 204.910156 157.273438 C 204.910156 158.53125 203.890625 159.550781 202.632812 159.550781 C 201.375 159.550781 200.351562 158.53125 200.351562 157.273438 L 200.351562 155.285156 Z M 199.613281 155.285156 " fill-opacity="1" fill-rule="nonzero"/><path fill="url(#serviceSunset)" d="M 223.746094 129.25 C 229.941406 131.351562 234.664062 136.628906 236.078125 143.015625 L 237.347656 148.746094 C 237.714844 150.417969 239.171875 151.585938 240.882812 151.585938 C 242.597656 151.585938 244.050781 150.417969 244.421875 148.746094 L 245.6875 143.015625 C 247.101562 136.628906 251.828125 131.351562 258.023438 129.246094 C 259.492188 128.746094 260.480469 127.367188 260.480469 125.816406 C 260.480469 124.261719 259.492188 122.882812 258.019531 122.386719 C 251.828125 120.28125 247.101562 115.003906 245.6875 108.617188 L 244.421875 102.886719 C 244.050781 101.214844 242.597656 100.046875 240.882812 100.046875 C 239.171875 100.046875 237.714844 101.214844 237.347656 102.886719 L 236.078125 108.617188 C 234.664062 115.007812 229.941406 120.28125 223.746094 122.386719 C 222.277344 122.882812 221.289062 124.261719 221.289062 125.816406 C 221.285156 127.367188 222.273438 128.746094 223.746094 129.25 Z M 245.355469 125.816406 C 245.355469 127.046875 244.378906 128.042969 243.164062 128.085938 L 243.164062 128.917969 C 243.164062 130.175781 242.140625 131.195312 240.882812 131.195312 C 239.625 131.195312 238.605469 130.175781 238.605469 128.917969 L 238.605469 128.085938 C 237.386719 128.042969 236.410156 127.046875 236.410156 125.816406 C 236.410156 124.585938 237.386719 123.59375 238.605469 123.546875 L 238.605469 122.71875 C 238.605469 121.460938 239.625 120.4375 240.882812 120.4375 C 242.140625 120.4375 243.164062 121.460938 243.164062 122.71875 L 243.164062 123.546875 C 244.378906 123.59375 245.355469 124.589844 245.355469 125.816406 Z M 245.355469 125.816406 " fill-opacity="1" fill-rule="nonzero"/></svg>