<svg xmlns="http://www.w3.org/2000/svg" xmlns:xlink="http://www.w3.org/1999/xlink" width="500" zoomAndPan="magnify" viewBox="0 0 375 374.999991" height="500" preserveAspectRatio="xMidYMid meet" version="1.0"><defs><clipPath id="e0ec42f556"><path d="M 65 62 L 317 62 L 317 314.253906 L 65 314.253906 Z M 65 62 " clip-rule="nonzero"/></clipPath></defs><g clip-path="url(#e0ec42f556)"><path fill="#ffffff" d="M 312.449219 267.765625 L 273.648438 228.964844 C 267.8125 223.128906 258.339844 223.128906 252.503906 228.964844 L 234 247.464844 C 205.925781 230.808594 148.371094 173.308594 131.714844 145.179688 L 150.21875 126.679688 C 156.054688 120.84375 156.054688 111.367188 150.21875 105.535156 L 111.46875 66.785156 C 105.632812 60.949219 96.109375 60.949219 90.273438 66.785156 C 60.25 96.855469 56.710938 144.484375 82.195312 178.59375 C 82.242188 178.644531 126.53125 241.730469 187.222656 287.015625 C 195.351562 291.753906 214.851562 314.042969 251.855469 314.042969 C 274.597656 314.042969 296.390625 305.019531 312.449219 288.960938 C 318.285156 283.074219 318.285156 273.648438 312.449219 267.765625 Z M 312.449219 267.765625 " fill-opacity="1" fill-rule="nonzero"/></g><path fill="#ffffff" d="M 252.851562 191.660156 C 255.597656 191.660156 257.839844 189.417969 257.839844 186.671875 C 257.839844 150.914062 228.765625 121.839844 193.007812 121.839844 C 190.265625 121.839844 188.019531 124.085938 188.019531 126.828125 C 188.019531 129.570312 190.265625 131.816406 193.007812 131.816406 C 223.28125 131.816406 247.867188 156.402344 247.867188 186.671875 C 247.867188 189.417969 250.058594 191.660156 252.851562 191.660156 Z M 252.851562 191.660156 " fill-opacity="1" fill-rule="nonzero"/><path fill="#ffffff" d="M 186.425781 146.425781 C 183.683594 146.425781 181.4375 148.671875 181.4375 151.414062 C 181.4375 154.15625 183.683594 156.402344 186.425781 156.402344 C 206.722656 156.402344 223.230469 172.910156 223.230469 193.207031 C 223.230469 195.949219 225.472656 198.195312 228.214844 198.195312 C 230.960938 198.195312 233.203125 195.949219 233.203125 193.207031 C 233.203125 167.421875 212.207031 146.425781 186.425781 146.425781 Z M 186.425781 146.425781 " fill-opacity="1" fill-rule="nonzero"/><path fill="#ffffff" d="M 184.578125 101.34375 C 236.296875 101.34375 278.335938 143.386719 278.335938 195.101562 C 278.335938 197.84375 280.582031 200.089844 283.324219 200.089844 C 286.066406 200.089844 288.3125 197.84375 288.3125 195.101562 C 288.3125 137.898438 241.78125 91.371094 184.578125 91.371094 C 181.835938 91.371094 179.59375 93.613281 179.59375 96.355469 C 179.59375 99.101562 181.835938 101.34375 184.578125 101.34375 Z M 184.578125 101.34375 " fill-opacity="1" fill-rule="nonzero"/></svg>