<svg xmlns="http://www.w3.org/2000/svg" xmlns:xlink="http://www.w3.org/1999/xlink" width="500" zoomAndPan="magnify" viewBox="0 0 375 374.999991" height="500" preserveAspectRatio="xMidYMid meet" version="1.0"><defs><clipPath id="a4e3367cf0"><path d="M 38 66.121094 L 323 66.121094 L 323 311.371094 L 38 311.371094 Z M 38 66.121094 " clip-rule="nonzero"/></clipPath></defs><g clip-path="url(#a4e3367cf0)"><path fill="#ffffff" d="M 249.597656 93.050781 L 276.261719 105.289062 C 266.488281 120.085938 278.964844 141.058594 296.78125 139.113281 L 296.78125 157.785156 C 296.78125 160.511719 298.394531 162.851562 300.710938 163.945312 L 300.710938 247.609375 C 298.097656 248.539062 296.21875 251.011719 296.21875 253.9375 L 296.21875 274.996094 C 296.21875 278.71875 299.246094 281.746094 302.964844 281.746094 L 315.953125 281.746094 C 319.675781 281.746094 322.699219 278.71875 322.699219 274.996094 L 322.699219 253.9375 C 322.699219 251.015625 320.824219 248.546875 318.222656 247.609375 L 318.222656 163.570312 C 320.160156 162.367188 321.460938 160.234375 321.460938 157.785156 L 321.460938 75.972656 C 321.460938 71.40625 317.886719 67.589844 313.320312 67.289062 L 297.582031 66.261719 C 292.789062 65.851562 288.34375 69.953125 288.3125 74.785156 C 288.3125 74.785156 288.203125 80.332031 288.203125 80.332031 L 260.972656 67.8125 C 258.488281 66.628906 255.40625 67.136719 253.425781 69.007812 L 225.496094 69.007812 C 209.21875 69.007812 195.972656 82.25 195.972656 98.53125 L 195.972656 173.0625 C 195.972656 174.78125 197.363281 176.167969 199.078125 176.167969 C 200.796875 176.167969 202.183594 174.78125 202.183594 173.0625 L 202.183594 98.53125 C 202.183594 85.675781 212.640625 75.21875 225.496094 75.21875 L 250.0625 75.21875 L 247.339844 81.425781 L 225.492188 81.425781 C 216.0625 81.425781 208.390625 89.101562 208.390625 98.53125 L 208.390625 257.007812 C 208.390625 269.878906 197.929688 280.355469 185.074219 280.355469 L 164.035156 280.355469 L 164.035156 274.148438 L 185.074219 274.148438 C 194.507812 274.148438 202.179688 266.457031 202.179688 257.007812 L 202.179688 191.398438 C 202.117188 187.347656 196.042969 187.289062 195.972656 191.398438 C 195.972656 191.398438 195.972656 257.007812 195.972656 257.007812 C 195.972656 263.035156 191.085938 267.9375 185.074219 267.9375 L 164.035156 267.9375 L 164.035156 225.820312 C 164.035156 225.519531 163.992188 225.226562 163.90625 224.9375 L 139.21875 141.996094 C 138.910156 140.964844 138.09375 140.203125 137.089844 139.917969 L 137.089844 130.390625 C 137.089844 118.195312 127.171875 108.277344 114.980469 108.277344 L 88.773438 108.277344 C 76.578125 108.277344 66.660156 118.195312 66.660156 130.390625 L 66.660156 139.777344 C 65.0625 139.621094 63.425781 140.359375 62.972656 141.996094 C 62.972656 141.996094 38.28125 224.9375 38.28125 224.9375 C 38.191406 225.226562 38.148438 225.519531 38.148438 225.820312 L 38.148438 308.761719 C 38.148438 310.476562 39.535156 311.863281 41.253906 311.863281 L 77.457031 311.863281 C 79.171875 311.863281 80.5625 310.476562 80.5625 308.761719 L 80.5625 305.007812 L 121.628906 305.007812 L 121.628906 308.761719 C 121.628906 310.476562 123.015625 311.863281 124.734375 311.863281 L 160.9375 311.863281 C 162.652344 311.863281 164.039062 310.476562 164.039062 308.761719 L 164.039062 286.566406 L 185.078125 286.566406 C 201.359375 286.566406 214.601562 273.308594 214.601562 257.011719 L 214.601562 98.53125 C 214.601562 92.519531 219.488281 87.632812 225.496094 87.632812 L 245.695312 87.632812 C 245.972656 89.945312 247.375 92.050781 249.609375 93.050781 Z M 296.777344 132.921875 C 283.390625 134.714844 274.03125 118.679688 281.976562 107.910156 L 296.777344 114.703125 Z M 316.484375 253.933594 L 316.484375 274.996094 C 316.484375 275.292969 316.246094 275.535156 315.949219 275.535156 L 302.957031 275.535156 C 302.660156 275.535156 302.421875 275.292969 302.421875 274.996094 L 302.421875 253.933594 C 302.421875 253.636719 302.660156 253.398438 302.957031 253.398438 C 303.007812 253.371094 303.832031 253.421875 303.855469 253.398438 C 303.855469 253.398438 315.0625 253.398438 315.0625 253.398438 C 315.507812 253.433594 316.492188 253.207031 316.484375 253.933594 Z M 306.914062 247.191406 L 306.914062 164.613281 L 312.007812 164.613281 L 312.007812 247.191406 Z M 251.875 86.527344 L 252.214844 85.746094 C 252.214844 85.746094 252.21875 85.738281 252.222656 85.734375 L 257.445312 73.824219 C 257.652344 73.394531 257.984375 73.3125 258.367188 73.457031 C 258.367188 73.457031 289.914062 87.960938 289.914062 87.960938 C 291.863281 88.933594 294.328125 87.367188 294.316406 85.199219 C 294.316406 85.199219 294.511719 74.945312 294.511719 74.945312 C 294.519531 73.558594 295.792969 72.339844 297.179688 72.460938 L 312.902344 73.488281 C 314.238281 73.574219 315.242188 74.644531 315.242188 75.976562 L 315.242188 157.789062 C 315.242188 158.128906 314.964844 158.40625 314.625 158.40625 L 303.601562 158.40625 C 303.257812 158.40625 302.984375 158.132812 302.984375 157.789062 C 302.980469 146.550781 302.988281 123.960938 302.984375 112.71875 C 302.984375 111.503906 302.277344 110.40625 301.179688 109.898438 C 301.132812 109.886719 282.414062 101.261719 282.367188 101.265625 L 252.160156 87.398438 C 251.851562 87.261719 251.722656 86.871094 251.871094 86.53125 Z M 72.863281 130.386719 C 72.863281 121.617188 79.996094 114.484375 88.765625 114.484375 L 114.972656 114.484375 C 123.742188 114.484375 130.875 121.617188 130.875 130.386719 L 130.875 139.773438 L 122.390625 139.773438 L 122.390625 130.386719 C 122.390625 126.300781 119.0625 122.972656 114.972656 122.972656 L 88.765625 122.972656 C 84.675781 122.972656 81.347656 126.296875 81.347656 130.386719 L 81.347656 139.773438 L 72.863281 139.773438 Z M 116.183594 130.386719 L 116.183594 139.773438 L 87.558594 139.773438 L 87.558594 130.386719 C 87.558594 129.699219 88.078125 129.179688 88.765625 129.179688 L 114.972656 129.179688 C 115.660156 129.179688 116.183594 129.699219 116.183594 130.386719 Z M 121.617188 298.796875 L 80.554688 298.796875 L 80.554688 255.671875 L 121.617188 255.671875 Z M 157.820312 246.886719 L 148.59375 246.886719 C 146.875 246.886719 145.488281 248.277344 145.488281 249.992188 C 145.488281 251.707031 146.875 253.097656 148.59375 253.097656 L 157.820312 253.097656 L 157.820312 265.578125 L 148.59375 265.578125 C 146.875 265.578125 145.488281 266.96875 145.488281 268.683594 C 145.488281 270.398438 146.875 271.789062 148.59375 271.789062 L 157.820312 271.789062 L 157.820312 283.414062 C 157.820312 283.414062 157.824219 284.257812 157.820312 284.296875 L 148.59375 284.296875 C 146.875 284.296875 145.488281 285.683594 145.488281 287.398438 C 145.488281 289.117188 146.875 290.503906 148.59375 290.503906 L 157.820312 290.503906 L 157.820312 305.652344 L 127.828125 305.652344 C 127.828125 305.652344 127.820312 301.914062 127.828125 301.898438 C 127.828125 301.898438 127.828125 252.566406 127.828125 252.566406 C 127.828125 250.847656 126.441406 249.460938 124.722656 249.460938 C 124.71875 249.460938 77.449219 249.460938 77.445312 249.460938 C 75.730469 249.460938 74.34375 250.847656 74.34375 252.566406 L 74.34375 305.652344 L 44.347656 305.652344 L 44.347656 290.503906 L 55.339844 290.503906 C 57.054688 290.503906 58.441406 289.117188 58.441406 287.398438 C 58.441406 285.683594 57.054688 284.296875 55.339844 284.296875 L 44.347656 284.296875 L 44.347656 271.789062 L 55.339844 271.789062 C 57.054688 271.789062 58.441406 270.398438 58.441406 268.683594 C 58.441406 266.96875 57.054688 265.578125 55.339844 265.578125 L 44.347656 265.578125 L 44.347656 253.097656 L 55.339844 253.097656 C 57.054688 253.097656 58.441406 251.707031 58.441406 249.992188 C 58.441406 248.277344 57.054688 246.886719 55.339844 246.886719 L 44.347656 246.886719 L 44.347656 226.269531 L 68.253906 145.984375 L 133.917969 145.984375 L 157.820312 226.269531 Z M 157.820312 246.886719 " fill-opacity="1" fill-rule="nonzero"/></g><path fill="#ffffff" d="M 129.515625 194.488281 L 72.65625 194.488281 C 70.941406 194.488281 69.554688 195.875 69.554688 197.589844 L 69.554688 222.207031 C 69.554688 223.921875 70.941406 225.308594 72.65625 225.308594 L 129.511719 225.308594 C 131.230469 225.308594 132.617188 223.921875 132.617188 222.207031 L 132.617188 197.589844 C 132.617188 195.875 131.230469 194.488281 129.511719 194.488281 Z M 126.414062 219.101562 L 75.765625 219.101562 L 75.765625 200.695312 L 126.414062 200.695312 Z M 126.414062 219.101562 " fill-opacity="1" fill-rule="nonzero"/><path fill="#ffffff" d="M 101.082031 187.390625 C 110.914062 187.390625 118.90625 179.394531 118.90625 169.570312 C 118.070312 145.980469 84.09375 145.988281 83.261719 169.570312 C 83.261719 179.394531 91.253906 187.390625 101.082031 187.390625 Z M 101.082031 157.953125 C 116.433594 158.445312 116.429688 180.695312 101.082031 181.179688 C 85.734375 180.691406 85.742188 158.441406 101.082031 157.953125 Z M 101.082031 157.953125 " fill-opacity="1" fill-rule="nonzero"/><path fill="#ffffff" d="M 199.070312 185.328125 C 199.902344 185.351562 200.671875 185 201.273438 184.429688 C 202.652344 183.125 202.382812 180.648438 200.777344 179.648438 C 200.621094 179.523438 200.4375 179.429688 200.25 179.367188 C 200.0625 179.273438 199.875 179.214844 199.691406 179.179688 C 198.667969 178.964844 197.578125 179.304688 196.867188 180.046875 C 195.691406 181.207031 195.660156 183.277344 196.867188 184.425781 C 197.46875 184.996094 198.238281 185.351562 199.070312 185.324219 Z M 199.070312 185.328125 " fill-opacity="1" fill-rule="nonzero"/></svg>