<svg xmlns="http://www.w3.org/2000/svg" xmlns:xlink="http://www.w3.org/1999/xlink" width="500" zoomAndPan="magnify" viewBox="0 0 375 374.999991" height="500" preserveAspectRatio="xMidYMid meet" version="1.0"><defs><clipPath id="77d861c2c0"><path d="M 45.617188 44.578125 L 329.117188 44.578125 L 329.117188 330.328125 L 45.617188 330.328125 Z M 45.617188 44.578125 " clip-rule="nonzero"/></clipPath></defs><path fill="#ffffff" d="M 90.855469 210.027344 L 113.421875 210.027344 C 116.550781 210.027344 119.089844 207.492188 119.089844 204.363281 L 119.089844 181.796875 C 119.089844 178.667969 116.550781 176.128906 113.421875 176.128906 L 90.855469 176.128906 C 87.730469 176.128906 85.191406 178.667969 85.191406 181.796875 L 85.191406 204.363281 C 85.191406 207.492188 87.730469 210.027344 90.855469 210.027344 Z M 90.855469 210.027344 " fill-opacity="1" fill-rule="nonzero"/><path fill="#ffffff" d="M 90.855469 256.679688 L 113.421875 256.679688 C 116.550781 256.679688 119.089844 254.144531 119.089844 251.015625 L 119.089844 228.449219 C 119.089844 225.320312 116.550781 222.78125 113.421875 222.78125 L 90.855469 222.78125 C 87.730469 222.78125 85.191406 225.320312 85.191406 228.449219 L 85.191406 251.015625 C 85.191406 254.144531 87.730469 256.679688 90.855469 256.679688 Z M 90.855469 256.679688 " fill-opacity="1" fill-rule="nonzero"/><path fill="#ffffff" d="M 90.855469 303.332031 L 113.421875 303.332031 C 116.550781 303.332031 119.089844 300.796875 119.089844 297.664062 L 119.089844 275.101562 C 119.089844 271.972656 116.550781 269.433594 113.421875 269.433594 L 90.855469 269.433594 C 87.730469 269.433594 85.191406 271.972656 85.191406 275.101562 L 85.191406 297.664062 C 85.191406 300.796875 87.730469 303.332031 90.855469 303.332031 Z M 90.855469 303.332031 " fill-opacity="1" fill-rule="nonzero"/><path fill="#ffffff" d="M 147.761719 210.027344 L 170.328125 210.027344 C 173.457031 210.027344 175.992188 207.492188 175.992188 204.363281 L 175.992188 181.796875 C 175.992188 178.667969 173.457031 176.128906 170.328125 176.128906 L 147.761719 176.128906 C 144.632812 176.128906 142.09375 178.667969 142.09375 181.796875 L 142.09375 204.363281 C 142.097656 207.492188 144.632812 210.027344 147.761719 210.027344 Z M 147.761719 210.027344 " fill-opacity="1" fill-rule="nonzero"/><path fill="#ffffff" d="M 147.761719 256.679688 L 170.328125 256.679688 C 173.457031 256.679688 175.992188 254.144531 175.992188 251.015625 L 175.992188 228.449219 C 175.992188 225.320312 173.457031 222.78125 170.328125 222.78125 L 147.761719 222.78125 C 144.632812 222.78125 142.09375 225.320312 142.09375 228.449219 L 142.09375 251.015625 C 142.097656 254.144531 144.632812 256.679688 147.761719 256.679688 Z M 147.761719 256.679688 " fill-opacity="1" fill-rule="nonzero"/><path fill="#ffffff" d="M 147.761719 303.332031 L 170.328125 303.332031 C 173.457031 303.332031 175.992188 300.796875 175.992188 297.664062 L 175.992188 275.101562 C 175.992188 271.972656 173.457031 269.433594 170.328125 269.433594 L 147.761719 269.433594 C 144.632812 269.433594 142.09375 271.972656 142.09375 275.101562 L 142.09375 297.664062 C 142.097656 300.796875 144.632812 303.332031 147.761719 303.332031 Z M 147.761719 303.332031 " fill-opacity="1" fill-rule="nonzero"/><path fill="#ffffff" d="M 204.664062 210.027344 L 227.230469 210.027344 C 230.359375 210.027344 232.898438 207.492188 232.898438 204.363281 L 232.898438 181.796875 C 232.898438 178.667969 230.359375 176.128906 227.230469 176.128906 L 204.664062 176.128906 C 201.535156 176.128906 199 178.667969 199 181.796875 L 199 204.363281 C 199 207.492188 201.535156 210.027344 204.664062 210.027344 Z M 204.664062 210.027344 " fill-opacity="1" fill-rule="nonzero"/><path fill="#ffffff" d="M 227.230469 269.433594 L 204.664062 269.433594 C 201.535156 269.433594 199 271.972656 199 275.101562 L 199 297.664062 C 199 300.792969 201.535156 303.332031 204.664062 303.332031 L 227.230469 303.332031 C 230.359375 303.332031 232.898438 300.796875 232.898438 297.664062 L 232.898438 275.101562 C 232.894531 271.972656 230.359375 269.433594 227.230469 269.433594 Z M 227.230469 269.433594 " fill-opacity="1" fill-rule="nonzero"/><path fill="#ffffff" d="M 261.570312 210.027344 L 284.136719 210.027344 C 287.261719 210.027344 289.800781 207.492188 289.800781 204.363281 L 289.800781 181.796875 C 289.800781 178.667969 287.265625 176.128906 284.136719 176.128906 L 261.570312 176.128906 C 258.441406 176.128906 255.902344 178.667969 255.902344 181.796875 L 255.902344 204.363281 C 255.902344 207.492188 258.441406 210.027344 261.570312 210.027344 Z M 261.570312 210.027344 " fill-opacity="1" fill-rule="nonzero"/><path fill="#ffffff" d="M 261.570312 256.679688 L 284.136719 256.679688 C 287.261719 256.679688 289.800781 254.144531 289.800781 251.015625 L 289.800781 228.449219 C 289.800781 225.320312 287.265625 222.78125 284.136719 222.78125 L 261.570312 222.78125 C 258.441406 222.78125 255.902344 225.320312 255.902344 228.449219 L 255.902344 251.015625 C 255.902344 254.144531 258.441406 256.679688 261.570312 256.679688 Z M 261.570312 256.679688 " fill-opacity="1" fill-rule="nonzero"/><g clip-path="url(#77d861c2c0)"><path fill="#ffffff" d="M 262.816406 44.707031 C 257.5 44.707031 253.191406 49.015625 253.191406 54.332031 L 253.191406 73.667969 L 122.296875 73.667969 L 122.296875 54.332031 C 122.296875 49.015625 117.988281 44.707031 112.671875 44.707031 C 107.355469 44.707031 103.046875 49.015625 103.046875 54.332031 L 103.046875 73.667969 L 72.71875 73.667969 C 57.773438 73.667969 45.617188 85.824219 45.617188 100.769531 L 45.617188 303.191406 C 45.617188 318.136719 57.773438 330.292969 72.71875 330.292969 L 302.277344 330.292969 C 317.21875 330.292969 329.375 318.136719 329.375 303.191406 L 329.375 100.769531 C 329.375 85.824219 317.21875 73.667969 302.277344 73.667969 L 272.441406 73.667969 L 272.441406 54.332031 C 272.441406 49.015625 268.132812 44.707031 262.816406 44.707031 Z M 103.046875 87.472656 L 103.046875 99.421875 C 103.046875 104.738281 107.355469 109.046875 112.671875 109.046875 C 117.988281 109.046875 122.296875 104.738281 122.296875 99.421875 L 122.296875 87.472656 C 125.78125 90.289062 128.015625 94.59375 128.015625 99.421875 C 128.015625 107.898438 121.144531 114.765625 112.671875 114.765625 C 104.199219 114.765625 97.328125 107.898438 97.328125 99.421875 C 97.328125 94.59375 99.558594 90.289062 103.046875 87.472656 Z M 316.023438 303.191406 C 316.023438 310.773438 309.855469 316.941406 302.277344 316.941406 L 72.71875 316.941406 C 65.136719 316.941406 58.96875 310.773438 58.96875 303.191406 L 58.96875 162.523438 L 316.023438 162.523438 Z M 278.160156 99.421875 C 278.160156 107.898438 271.289062 114.765625 262.816406 114.765625 C 254.34375 114.765625 247.472656 107.898438 247.472656 99.421875 C 247.472656 94.59375 249.703125 90.289062 253.191406 87.472656 L 253.191406 99.421875 C 253.191406 104.738281 257.5 109.046875 262.816406 109.046875 C 268.128906 109.046875 272.4375 104.738281 272.4375 99.421875 L 272.4375 87.472656 C 275.925781 90.289062 278.160156 94.59375 278.160156 99.421875 Z M 278.160156 99.421875 " fill-opacity="1" fill-rule="nonzero"/></g><path fill="#ffffff" d="M 214.164062 259.671875 L 241.050781 232.78125 C 243.660156 230.175781 243.660156 225.949219 241.050781 223.339844 C 238.445312 220.734375 234.21875 220.734375 231.613281 223.339844 L 214.164062 240.789062 L 207.15625 233.78125 C 204.550781 231.175781 200.320312 231.175781 197.714844 233.78125 C 195.105469 236.390625 195.105469 240.617188 197.714844 243.222656 Z M 214.164062 259.671875 " fill-opacity="1" fill-rule="nonzero"/></svg>