<svg xmlns="http://www.w3.org/2000/svg" xmlns:xlink="http://www.w3.org/1999/xlink" width="1250" zoomAndPan="magnify" viewBox="0 0 937.5 374.999991" height="500" preserveAspectRatio="xMidYMid meet" version="1.0"><defs><clipPath id="9957075fd1"><path d="M 910 257 L 928.839844 257 L 928.839844 332 L 910 332 Z M 910 257 " clip-rule="nonzero"/></clipPath></defs><path fill="#c1272d" d="M 21.234375 315.542969 C 12 305.625 20.265625 264.972656 32.902344 262.65625 C 40.191406 261.339844 64.007812 250.425781 65.949219 248.773438 C 80.039062 235.554688 220.976562 127.128906 217.089844 120.851562 C 216.121094 119.535156 136.417969 135.066406 128.152344 136.0625 C 106.765625 138.375 94.128906 134.742188 78.585938 119.535156 C 67.402344 108.960938 39.707031 90.773438 37.757812 75.902344 C 36.304688 63.671875 52.828125 48.46875 67.402344 55.742188 C 88.304688 67.3125 105.796875 64.667969 129.121094 64.003906 C 178.203125 62.351562 224.863281 52.433594 274.921875 58.378906 C 285.613281 59.699219 308.945312 61.6875 318.667969 68.953125 C 325.953125 74.578125 336.15625 95.734375 322.550781 100.027344 C 316.234375 102.011719 310.402344 110.933594 305.058594 114.90625 C 298.257812 120.851562 289.023438 123.828125 280.273438 127.140625 C 264.234375 133.085938 251.113281 139.703125 238.476562 149.613281 C 209.804688 171.757812 98.992188 257.375 112.605469 264.972656 C 133.992188 276.539062 175.304688 267.617188 198.628906 265.96875 L 199.113281 265.96875 C 232.652344 264.972656 240.425781 269.929688 271.53125 261.671875 C 275.417969 260.351562 309.925781 258.695312 334.710938 244.480469 C 347.832031 236.875 331.796875 286.128906 327.910156 289.4375 C 308.953125 304.96875 324.023438 317.203125 298.75 324.144531 C 270.078125 332.082031 179.199219 338.359375 150.523438 327.121094 C 133.5 320.171875 41.644531 337.03125 21.234375 315.542969 Z M 21.234375 315.542969 " fill-opacity="1" fill-rule="nonzero"/><path fill="#c1272d" d="M 355.597656 186.300781 C 360.453125 157.875 363.371094 130.109375 365.316406 101.679688 C 366.285156 93.085938 359.484375 51.4375 385.726562 51.105469 C 403.21875 51.105469 420.71875 54.085938 438.210938 58.710938 C 455.703125 63.339844 461.535156 63.339844 480.003906 61.027344 C 493.125 59.375 582.550781 47.476562 590.320312 57.0625 C 592.753906 60.039062 583.035156 67.96875 582.054688 68.628906 C 568.933594 75.570312 547.0625 70.945312 532.488281 75.570312 C 521.316406 79.203125 501.867188 82.179688 489.230469 83.507812 C 479.027344 84.503906 473.191406 142.015625 470.761719 150.277344 C 468.328125 159.53125 454.238281 176.0625 475.132812 173.746094 C 479.503906 173.414062 531.511719 169.449219 527.617188 174.742188 C 518.382812 186.972656 519.84375 183.003906 498.941406 185.648438 C 479.019531 188.625 460.0625 188.957031 452.777344 201.511719 C 452.777344 201.511719 453.261719 202.507812 456.175781 199.863281 C 464.929688 206.472656 427.503906 237.878906 446.457031 242.503906 C 451.320312 249.445312 440.625 257.714844 448.40625 264.980469 C 458.125 274.566406 470.277344 285.804688 489.230469 286.800781 C 511.101562 288.449219 534.914062 280.523438 555.328125 275.5625 C 563.101562 273.910156 600.042969 266.96875 579.632812 274.566406 C 603.9375 277.210938 546.585938 301.335938 541.238281 303.328125 C 526.171875 309.273438 505.761719 309.605469 489.722656 315.890625 C 472.230469 323.164062 447.929688 322.832031 428.488281 322.832031 C 335.179688 322.816406 348.308594 227.621094 355.597656 186.300781 Z M 355.597656 186.300781 " fill-opacity="1" fill-rule="nonzero"/><path fill="#c1272d" d="M 788.617188 303.972656 C 779.867188 292.40625 778.414062 276.871094 772.578125 264.640625 C 764.808594 248.441406 756.542969 231.914062 747.304688 216.382812 C 738.554688 201.179688 729.320312 185.972656 721.0625 170.769531 C 719.117188 166.472656 696.277344 129.121094 698.222656 127.792969 C 681.703125 141.34375 700.65625 169.773438 691.90625 186.632812 C 690.9375 188.617188 696.277344 187.296875 695.792969 188.949219 C 695.308594 195.226562 692.390625 201.511719 694.335938 207.457031 C 698.222656 219.027344 689.480469 232.910156 692.390625 244.8125 C 696.277344 261.671875 706.972656 287.121094 683.640625 299.023438 C 679.269531 301.335938 677.808594 304.644531 675.375 307.617188 C 672.941406 310.261719 663.222656 303.652344 662.253906 309.597656 C 661.769531 315.875 641.84375 327.445312 631.632812 321.167969 C 633.085938 321.5 634.550781 321.828125 636.003906 321.167969 C 634.550781 320.171875 632.601562 319.847656 631.632812 321.167969 C 616.5625 313.5625 609.761719 295.714844 609.277344 284.144531 C 608.792969 274.226562 605.875 264.640625 605.875 254.730469 C 605.875 243.492188 611.222656 226.964844 606.359375 216.382812 C 602.957031 210.4375 604.414062 193.574219 606.84375 187.296875 C 609.761719 178.707031 608.296875 166.472656 607.328125 157.882812 C 604.414062 138.375 609.761719 117.21875 611.214844 97.390625 C 612.183594 84.171875 595.175781 46.820312 639.40625 56.074219 C 675.367188 56.40625 685.570312 73.265625 701.125 89.464844 C 715.214844 104.007812 721.53125 121.523438 731.738281 137.066406 L 766.242188 201.1875 L 785.683594 234.902344 L 790.546875 189.945312 L 814.851562 75.902344 C 815.820312 64.003906 812.417969 55.078125 829.433594 50.121094 C 844.503906 45.492188 896.503906 63.339844 906.222656 58.378906 C 913.023438 55.402344 918.375 61.359375 923.714844 64.003906 C 935.378906 69.949219 903.304688 96.0625 900.386719 104.988281 C 896.015625 117.550781 893.101562 130.769219 890.667969 143.660156 C 888.722656 155.890625 890.667969 170.761719 885.320312 182.328125 C 876.085938 202.492188 890.183594 224.972656 886.773438 244.800781 C 881.917969 270.585938 889.207031 296.703125 868.789062 320.503906 C 859.554688 331.410156 840.113281 333.722656 825.53125 329.09375 C 815.828125 333.066406 790.554688 307.285156 788.617188 303.972656 Z M 696.277344 127.460938 L 695.792969 125.148438 C 695.792969 126.46875 695.296875 128.449219 696.277344 127.460938 Z M 696.277344 127.460938 " fill-opacity="1" fill-rule="nonzero"/><g clip-path="url(#9957075fd1)"><path fill="#190a0b" d="M 1162.699219 331.449219 C 1162.808594 330.074219 1159.304688 328.710938 1164.746094 328.058594 C 1181.882812 326.6875 1195.667969 331.238281 1212.808594 329.859375 C 1213.199219 329.121094 1213.625 328.378906 1214.035156 327.632812 C 1227.308594 328.523438 1241.125 329.707031 1255.242188 330.695312 C 1281.230469 330.269531 1307.082031 329.640625 1332.820312 328.789062 C 1332.148438 327.980469 1331.824219 327.230469 1334.386719 326.925781 C 1345.089844 326.289062 1359.921875 327.011719 1375.289062 327.179688 C 1377.558594 327.042969 1379.828125 326.898438 1382.066406 326.773438 C 1383.808594 326.289062 1384.257812 325.503906 1384.539062 325.027344 C 1391.488281 325.078125 1397.660156 325.257812 1403.390625 325.480469 C 1478.808594 320.800781 1555.386719 315.347656 1638.390625 309.9375 C 1655.933594 307.820312 1673.492188 305.703125 1690.40625 304.699219 C 1715.464844 303.746094 1747.457031 305.070312 1771.886719 305.226562 C 1768.109375 297.390625 1827.660156 293.316406 1815.738281 285.429688 C 1832.023438 285.53125 1856.488281 285.695312 1857.730469 283.472656 C 1861.488281 276.804688 1873.996094 269.082031 1917.238281 264.894531 C 1934.167969 263.890625 1960.179688 266.589844 1966.140625 265.21875 C 1975.53125 263.050781 1944.175781 260.617188 1953.566406 258.4375 C 1827.730469 256.542969 1706.578125 259.910156 1579.882812 260.359375 C 1536.769531 264.011719 1245.898438 266.714844 1171.183594 265.472656 C 1168.914062 265.515625 1166.660156 265.550781 1164.398438 265.601562 C 1123.640625 265.335938 1074.140625 266.128906 1039.660156 269.257812 C 1023.851562 271.164062 1007.769531 273.476562 991.757812 275.707031 C 999.207031 276.964844 1006.113281 278.234375 1012.097656 279.484375 C 995.789062 279.382812 979.496094 279.269531 973.238281 280.71875 C 938.535156 284.214844 958.222656 288.058594 971.597656 293.351562 C 981.214844 295.648438 968.238281 299.289062 983.289062 301.609375 C 972.449219 301.542969 967.011719 301.507812 956.128906 301.429688 C 954.894531 303.660156 989.582031 300.164062 982.054688 303.828125 C 971.605469 303.023438 959.90625 304.425781 949.054688 304.355469 C 952.820312 307.359375 986.664062 305.34375 985.007812 308.3125 C 979.148438 309.019531 954.488281 304.398438 952.40625 308.101562 C 951.996094 308.847656 962.855469 308.910156 968.289062 308.949219 C 934.863281 310.21875 916.453125 313.824219 946.988281 317.738281 C 936.390625 317.671875 921.410156 316.164062 910.199219 316.71875 C 910.210938 316.742188 910.261719 316.75 910.285156 316.777344 C 915.882812 316.878906 925.523438 317.601562 930.6875 317.636719 C 924.34375 317.59375 917.964844 317.550781 911.605469 317.515625 C 912.609375 318.035156 913.746094 318.539062 914.945312 319.046875 C 919.691406 319.480469 924.46875 319.832031 929.429688 319.863281 C 925.21875 319.839844 920.992188 319.804688 916.757812 319.78125 C 919.921875 320.96875 923.570312 322.128906 927.566406 323.199219 C 942.625 325.53125 957.054688 328.96875 965.203125 329.019531 C 1030.953125 330.5 1096.992188 331.476562 1162.699219 331.449219 Z M 1162.699219 331.449219 " fill-opacity="1" fill-rule="nonzero"/></g></svg>
