<svg xmlns="http://www.w3.org/2000/svg" xmlns:xlink="http://www.w3.org/1999/xlink" width="500" zoomAndPan="magnify" viewBox="0 0 375 374.999991" height="500" preserveAspectRatio="xMidYMid meet" version="1.0"><defs><clipPath id="562d7921a5"><path d="M 27.441406 28.109375 L 347.691406 28.109375 L 347.691406 346.859375 L 27.441406 346.859375 Z M 27.441406 28.109375 " clip-rule="nonzero"/></clipPath></defs><g clip-path="url(#562d7921a5)"><path fill="#0e5a36" d="M 128.425781 320.21875 L 128.425781 287.757812 C 128.425781 287.46875 128.453125 287.183594 128.511719 286.902344 C 128.566406 286.621094 128.648438 286.347656 128.757812 286.082031 C 128.871094 285.816406 129.003906 285.566406 129.164062 285.328125 C 129.324219 285.089844 129.507812 284.867188 129.710938 284.664062 C 129.914062 284.464844 130.136719 284.28125 130.375 284.125 C 130.613281 283.964844 130.867188 283.832031 131.132812 283.722656 C 131.398438 283.613281 131.671875 283.53125 131.953125 283.476562 C 132.234375 283.417969 132.519531 283.394531 132.808594 283.394531 L 271.210938 283.394531 L 271.210938 243.328125 C 199.207031 235.164062 199.242188 134.714844 271.210938 126.585938 L 271.210938 74.203125 C 271.210938 48.78125 250.511719 28.109375 225.074219 28.109375 L 67.769531 28.109375 C 72.824219 33.433594 75.777344 40.25 75.792969 47.914062 C 75.953125 135.773438 75.390625 232.921875 75.101562 320.234375 C 76.195312 354.394531 125.136719 355.9375 128.347656 321.886719 C 128.414062 321.332031 128.441406 320.777344 128.425781 320.21875 Z M 238.394531 241.742188 C 244.125 241.835938 244.15625 250.386719 238.394531 250.484375 L 184.125 250.484375 C 183.824219 250.5 183.527344 250.488281 183.234375 250.445312 C 182.9375 250.402344 182.648438 250.332031 182.367188 250.230469 C 182.085938 250.128906 181.820312 250 181.566406 249.84375 C 181.308594 249.6875 181.074219 249.503906 180.855469 249.300781 C 180.640625 249.097656 180.445312 248.871094 180.273438 248.625 C 180.101562 248.382812 179.957031 248.121094 179.835938 247.847656 C 179.71875 247.574219 179.628906 247.292969 179.570312 247 C 179.507812 246.707031 179.480469 246.410156 179.480469 246.113281 C 179.480469 245.8125 179.507812 245.519531 179.570312 245.226562 C 179.628906 244.933594 179.71875 244.648438 179.835938 244.375 C 179.957031 244.101562 180.101562 243.84375 180.273438 243.597656 C 180.445312 243.351562 180.640625 243.128906 180.855469 242.921875 C 181.074219 242.71875 181.308594 242.539062 181.566406 242.382812 C 181.820312 242.226562 182.085938 242.097656 182.367188 241.996094 C 182.648438 241.894531 182.9375 241.820312 183.234375 241.777344 C 183.527344 241.734375 183.824219 241.722656 184.125 241.742188 Z M 180.191406 189.519531 C 180.191406 189.234375 180.222656 188.949219 180.277344 188.667969 C 180.332031 188.386719 180.414062 188.117188 180.523438 187.851562 C 180.632812 187.585938 180.769531 187.335938 180.929688 187.097656 C 181.085938 186.859375 181.269531 186.636719 181.472656 186.433594 C 181.675781 186.234375 181.894531 186.050781 182.132812 185.894531 C 182.371094 185.734375 182.621094 185.597656 182.886719 185.488281 C 183.152344 185.378906 183.425781 185.296875 183.707031 185.242188 C 183.988281 185.1875 184.269531 185.15625 184.558594 185.15625 L 205.082031 185.15625 C 205.367188 185.15625 205.652344 185.1875 205.933594 185.242188 C 206.214844 185.296875 206.488281 185.378906 206.75 185.488281 C 207.015625 185.597656 207.269531 185.734375 207.507812 185.894531 C 207.746094 186.050781 207.964844 186.234375 208.167969 186.433594 C 208.371094 186.636719 208.550781 186.859375 208.710938 187.097656 C 208.871094 187.335938 209.003906 187.585938 209.113281 187.851562 C 209.222656 188.117188 209.304688 188.386719 209.363281 188.667969 C 209.417969 188.949219 209.445312 189.234375 209.445312 189.519531 C 209.445312 189.804688 209.417969 190.089844 209.363281 190.371094 C 209.304688 190.652344 209.222656 190.925781 209.113281 191.191406 C 209.003906 191.453125 208.871094 191.707031 208.710938 191.945312 C 208.550781 192.183594 208.371094 192.402344 208.167969 192.605469 C 207.964844 192.808594 207.746094 192.988281 207.507812 193.148438 C 207.269531 193.304688 207.015625 193.441406 206.75 193.550781 C 206.488281 193.660156 206.214844 193.742188 205.933594 193.796875 C 205.652344 193.855469 205.367188 193.882812 205.082031 193.882812 L 184.558594 193.882812 C 184.269531 193.882812 183.988281 193.855469 183.707031 193.796875 C 183.425781 193.742188 183.152344 193.660156 182.886719 193.550781 C 182.621094 193.441406 182.371094 193.304688 182.132812 193.148438 C 181.894531 192.988281 181.675781 192.808594 181.472656 192.605469 C 181.269531 192.402344 181.085938 192.183594 180.929688 191.945312 C 180.769531 191.707031 180.632812 191.453125 180.523438 191.191406 C 180.414062 190.925781 180.332031 190.652344 180.277344 190.371094 C 180.222656 190.089844 180.191406 189.804688 180.191406 189.519531 Z M 184.125 75.035156 L 238.394531 75.035156 C 238.679688 75.035156 238.964844 75.066406 239.246094 75.121094 C 239.527344 75.175781 239.800781 75.257812 240.066406 75.367188 C 240.328125 75.480469 240.582031 75.613281 240.820312 75.773438 C 241.058594 75.929688 241.277344 76.113281 241.480469 76.316406 C 241.683594 76.515625 241.863281 76.738281 242.023438 76.976562 C 242.183594 77.214844 242.316406 77.464844 242.425781 77.730469 C 242.535156 77.996094 242.621094 78.265625 242.675781 78.546875 C 242.730469 78.828125 242.757812 79.113281 242.757812 79.398438 C 242.757812 79.6875 242.730469 79.96875 242.675781 80.25 C 242.621094 80.53125 242.535156 80.804688 242.425781 81.070312 C 242.316406 81.332031 242.183594 81.585938 242.023438 81.824219 C 241.863281 82.0625 241.683594 82.28125 241.480469 82.484375 C 241.277344 82.6875 241.058594 82.867188 240.820312 83.027344 C 240.582031 83.1875 240.328125 83.320312 240.066406 83.429688 C 239.800781 83.539062 239.527344 83.621094 239.246094 83.679688 C 238.964844 83.734375 238.679688 83.761719 238.394531 83.761719 L 184.125 83.761719 C 178.394531 83.683594 178.363281 75.132812 184.125 75.035156 Z M 183.675781 128.558594 L 205.964844 128.558594 C 211.691406 128.652344 211.707031 137.203125 205.964844 137.296875 L 183.675781 137.296875 C 177.945312 137.203125 177.929688 128.652344 183.675781 128.558594 Z M 98.753906 69.855469 C 98.957031 69.65625 99.179688 69.472656 99.417969 69.316406 C 99.65625 69.15625 99.910156 69.023438 100.171875 68.914062 C 100.4375 68.804688 100.710938 68.722656 100.992188 68.667969 C 101.273438 68.609375 101.558594 68.582031 101.84375 68.582031 C 102.132812 68.582031 102.414062 68.609375 102.695312 68.667969 C 102.976562 68.722656 103.25 68.804688 103.515625 68.914062 C 103.78125 69.023438 104.03125 69.15625 104.269531 69.316406 C 104.507812 69.472656 104.730469 69.65625 104.933594 69.855469 L 106.972656 71.894531 L 120.738281 85.636719 L 149.445312 63.167969 L 156.363281 57.746094 C 160.855469 54.25 166.25 61.082031 161.753906 64.628906 L 123.066406 94.910156 C 122.644531 95.238281 122.183594 95.480469 121.671875 95.636719 C 121.164062 95.796875 120.644531 95.859375 120.109375 95.828125 C 119.578125 95.792969 119.070312 95.667969 118.582031 95.449219 C 118.097656 95.230469 117.667969 94.933594 117.289062 94.554688 L 98.753906 76.03125 C 98.554688 75.828125 98.371094 75.609375 98.214844 75.367188 C 98.054688 75.128906 97.921875 74.878906 97.8125 74.613281 C 97.703125 74.347656 97.621094 74.078125 97.566406 73.796875 C 97.507812 73.515625 97.480469 73.230469 97.480469 72.945312 C 97.480469 72.65625 97.507812 72.375 97.566406 72.09375 C 97.621094 71.8125 97.703125 71.539062 97.8125 71.273438 C 97.921875 71.007812 98.054688 70.757812 98.214844 70.519531 C 98.371094 70.28125 98.554688 70.058594 98.753906 69.855469 Z M 98.753906 126.457031 C 98.957031 126.253906 99.179688 126.074219 99.417969 125.914062 C 99.65625 125.757812 99.910156 125.621094 100.171875 125.515625 C 100.4375 125.40625 100.710938 125.320312 100.992188 125.265625 C 101.273438 125.210938 101.558594 125.183594 101.84375 125.183594 C 102.132812 125.183594 102.414062 125.210938 102.695312 125.265625 C 102.976562 125.320312 103.25 125.40625 103.515625 125.515625 C 103.78125 125.621094 104.03125 125.757812 104.269531 125.914062 C 104.507812 126.074219 104.730469 126.253906 104.933594 126.457031 L 106.972656 128.492188 L 120.738281 142.238281 L 149.445312 119.753906 L 156.363281 114.347656 C 160.855469 110.851562 166.25 117.667969 161.753906 121.210938 L 123.066406 151.492188 C 122.648438 151.820312 122.183594 152.066406 121.675781 152.226562 C 121.167969 152.386719 120.644531 152.449219 120.113281 152.417969 C 119.582031 152.386719 119.074219 152.261719 118.585938 152.046875 C 118.097656 151.828125 117.667969 151.53125 117.289062 151.15625 L 98.753906 132.632812 C 98.554688 132.429688 98.371094 132.207031 98.214844 131.96875 C 98.054688 131.730469 97.921875 131.480469 97.8125 131.214844 C 97.703125 130.949219 97.621094 130.675781 97.566406 130.394531 C 97.507812 130.113281 97.480469 129.832031 97.480469 129.542969 C 97.480469 129.257812 97.507812 128.972656 97.566406 128.691406 C 97.621094 128.410156 97.703125 128.140625 97.8125 127.875 C 97.921875 127.609375 98.054688 127.359375 98.214844 127.117188 C 98.371094 126.878906 98.554688 126.660156 98.753906 126.457031 Z M 98.753906 183.054688 C 98.957031 182.851562 99.179688 182.671875 99.417969 182.511719 C 99.65625 182.351562 99.90625 182.214844 100.171875 182.105469 C 100.4375 181.992188 100.710938 181.910156 100.992188 181.855469 C 101.273438 181.796875 101.558594 181.769531 101.84375 181.769531 C 102.132812 181.769531 102.417969 181.796875 102.699219 181.855469 C 102.980469 181.910156 103.253906 181.992188 103.519531 182.105469 C 103.78125 182.214844 104.035156 182.351562 104.273438 182.511719 C 104.511719 182.671875 104.730469 182.851562 104.933594 183.054688 L 106.972656 185.078125 L 120.738281 198.839844 L 149.445312 176.351562 L 156.363281 170.929688 C 160.855469 167.449219 166.25 174.265625 161.753906 177.8125 L 123.066406 208.09375 C 122.648438 208.421875 122.183594 208.667969 121.671875 208.828125 C 121.164062 208.984375 120.644531 209.050781 120.109375 209.015625 C 119.578125 208.984375 119.070312 208.859375 118.582031 208.636719 C 118.097656 208.417969 117.664062 208.117188 117.289062 207.738281 L 98.753906 189.214844 C 98.554688 189.011719 98.375 188.792969 98.214844 188.554688 C 98.054688 188.316406 97.921875 188.066406 97.8125 187.800781 C 97.703125 187.539062 97.621094 187.265625 97.566406 186.984375 C 97.511719 186.703125 97.484375 186.421875 97.484375 186.136719 C 97.484375 185.851562 97.511719 185.566406 97.566406 185.285156 C 97.621094 185.007812 97.703125 184.734375 97.8125 184.46875 C 97.921875 184.207031 98.054688 183.953125 98.214844 183.71875 C 98.375 183.480469 98.554688 183.257812 98.753906 183.054688 Z M 120.386719 265.605469 C 119.179688 265.613281 118.144531 265.191406 117.289062 264.339844 L 98.753906 245.816406 C 94.742188 241.757812 100.890625 235.613281 104.933594 239.640625 L 120.738281 255.421875 L 149.445312 232.953125 L 156.363281 227.53125 C 156.589844 227.355469 156.832031 227.203125 157.085938 227.070312 C 157.34375 226.941406 157.609375 226.839844 157.886719 226.761719 C 158.164062 226.683594 158.445312 226.636719 158.730469 226.613281 C 159.015625 226.59375 159.300781 226.597656 159.585938 226.632812 C 159.871094 226.667969 160.152344 226.730469 160.421875 226.820312 C 160.695312 226.910156 160.957031 227.023438 161.207031 227.164062 C 161.457031 227.308594 161.691406 227.472656 161.910156 227.65625 C 162.125 227.84375 162.324219 228.050781 162.5 228.277344 C 162.679688 228.503906 162.832031 228.742188 162.960938 229 C 163.089844 229.257812 163.195312 229.523438 163.269531 229.800781 C 163.347656 230.074219 163.398438 230.355469 163.417969 230.644531 C 163.441406 230.929688 163.433594 231.214844 163.398438 231.5 C 163.363281 231.785156 163.300781 232.0625 163.214844 232.335938 C 163.125 232.609375 163.007812 232.867188 162.867188 233.117188 C 162.726562 233.367188 162.5625 233.601562 162.375 233.820312 C 162.1875 234.039062 161.980469 234.234375 161.753906 234.410156 L 123.066406 264.675781 C 122.28125 265.300781 121.386719 265.609375 120.386719 265.605469 Z M 67.046875 47.914062 L 67.046875 136.0625 L 27.476562 136.0625 L 27.476562 47.914062 C 27.25 37.296875 36.621094 27.898438 47.230469 28.125 C 58.15625 28.125 67.046875 36.992188 67.046875 47.914062 Z M 317.023438 292.117188 L 317.023438 303.441406 C 317.023438 327.386719 297.511719 346.859375 273.535156 346.859375 L 125.054688 346.859375 C 131.988281 340.761719 136.496094 332.007812 137.042969 322.769531 C 137.332031 322.816406 137.105469 293.144531 137.171875 292.132812 L 275.574219 292.132812 C 275.621094 292.101562 316.960938 292.132812 317.023438 292.117188 Z M 343.210938 172.550781 C 343.179688 172.566406 327.390625 182.558594 327.359375 182.558594 C 314.007812 191.027344 300.613281 199.476562 287.175781 207.898438 C 285.988281 208.574219 284.785156 209.085938 283.4375 209.183594 C 280.933594 209.632812 278.335938 208.847656 276.296875 207.355469 C 268.949219 201.742188 260.363281 195.085938 253.6875 189.808594 C 249.53125 186.699219 248.824219 180.472656 252.179688 176.417969 C 255.113281 172.070312 261.613281 171.15625 265.675781 174.429688 C 265.707031 174.460938 278.511719 184.339844 278.511719 184.386719 C 281.816406 187.308594 286.742188 187.210938 290.417969 184.757812 C 296.066406 181.550781 314.183594 169.40625 325.191406 161.964844 C 332.429688 156.738281 339.988281 150.722656 345.988281 159.480469 C 348.492188 163.328125 348.605469 168.863281 343.210938 172.550781 Z M 289.601562 216.480469 C 301.457031 209.648438 312.789062 201.949219 324.375 194.796875 C 310.941406 252.96875 227.464844 245.125 225.734375 184.949219 C 225.894531 136.097656 289.457031 116.769531 316.832031 157.058594 C 307.042969 163.617188 297.285156 170.242188 287.371094 176.433594 C 286.34375 176.929688 285.011719 178.277344 284.0625 177.636719 L 271.128906 167.59375 C 263.523438 161.148438 250.703125 163.074219 245.199219 171.1875 C 236.742188 182.351562 242.855469 194.265625 253.621094 200.875 C 264.613281 208.238281 275.15625 222.976562 289.601562 216.480469 Z M 289.601562 216.480469 " fill-opacity="1" fill-rule="nonzero"/></g></svg>