<svg xmlns="http://www.w3.org/2000/svg" xmlns:xlink="http://www.w3.org/1999/xlink" width="500" zoomAndPan="magnify" viewBox="0 0 375 374.999991" height="500" preserveAspectRatio="xMidYMid meet" version="1.0"><defs><clipPath id="34362a5387"><path d="M 77 18 L 298 18 L 298 356.886719 L 77 356.886719 Z M 77 18 " clip-rule="nonzero"/></clipPath></defs><g clip-path="url(#34362a5387)"><path fill="#0e5a36" d="M 228.316406 255.441406 L 276.296875 180.851562 C 297.464844 147.953125 298.886719 107.835938 280.097656 73.519531 C 261.304688 39.199219 226.730469 18.695312 187.566406 18.695312 C 148.398438 18.695312 113.828125 39.199219 95.035156 73.519531 C 76.242188 107.785156 77.667969 147.902344 98.835938 180.851562 L 146.765625 255.390625 C 104.746094 262.824219 77.984375 281.484375 77.984375 303.996094 C 78.039062 334.148438 124.066406 356.078125 187.566406 356.078125 C 251.066406 356.078125 297.09375 334.148438 297.09375 303.996094 C 297.09375 281.378906 270.386719 262.769531 228.316406 255.441406 Z M 233.066406 118.0625 C 233.066406 143.050781 212.640625 163.402344 187.566406 163.402344 C 162.492188 163.402344 142.066406 143.050781 142.066406 118.0625 C 142.066406 93.023438 162.492188 72.621094 187.566406 72.621094 C 212.640625 72.621094 233.066406 92.972656 233.066406 118.0625 Z M 180.070312 307.15625 C 181.707031 309.742188 184.503906 311.269531 187.566406 311.269531 C 190.679688 311.269531 193.476562 309.742188 195.0625 307.210938 L 213.113281 279.113281 C 251.964844 283.699219 271.441406 297.511719 271.441406 303.996094 C 271.441406 311.902344 242.882812 330.457031 187.566406 330.457031 C 132.25 330.457031 103.691406 311.902344 103.691406 303.996094 C 103.691406 297.511719 123.167969 283.753906 162.019531 279.113281 Z M 180.070312 307.15625 " fill-opacity="1" fill-rule="nonzero"/></g></svg>