<svg xmlns="http://www.w3.org/2000/svg" xmlns:xlink="http://www.w3.org/1999/xlink" width="800" zoomAndPan="magnify" viewBox="0 0 600 675.000002" height="900" preserveAspectRatio="xMidYMid meet" version="1.0"><defs><filter x="0%" y="0%" width="100%" height="100%" id="7141a0ae81"><feColorMatrix values="0 0 0 0 1 0 0 0 0 1 0 0 0 0 1 0 0 0 1 0" color-interpolation-filters="sRGB"/></filter><clipPath id="f89057a715"><path d="M 77 59 L 599.554688 59 L 599.554688 633 L 77 633 Z M 77 59 " clip-rule="nonzero"/></clipPath><mask id="7832a725e2"><g filter="url(#7141a0ae81)"><rect x="-60" width="720" fill="#000000" y="-67.5" height="810.000002" fill-opacity="0.35"/></g></mask><clipPath id="78c09b9344"><path d="M 0.417969 0.910156 L 522.554688 0.910156 L 522.554688 573.0625 L 0.417969 573.0625 Z M 0.417969 0.910156 " clip-rule="nonzero"/></clipPath><clipPath id="23959e9f3e"><rect x="0" width="523" y="0" height="574"/></clipPath></defs><g clip-path="url(#f89057a715)"><g mask="url(#7832a725e2)"><g transform="matrix(1, 0, 0, 1, 77, 59)"><g clip-path="url(#23959e9f3e)"><g clip-path="url(#78c09b9344)"><path fill="#000000" d="M 49.625 25.515625 L 49.625 50.117188 L 25.019531 50.117188 C 3.28125 50.117188 0.417969 50.15625 0.417969 50.402344 C 0.417969 50.648438 3.28125 50.6875 25.019531 50.6875 L 49.625 50.6875 L 49.625 129.074219 L 25.019531 129.074219 C 3.28125 129.074219 0.417969 129.113281 0.417969 129.359375 C 0.417969 129.605469 3.28125 129.644531 25.019531 129.644531 L 49.625 129.644531 L 49.625 207.839844 L 25.019531 207.839844 C 3.28125 207.839844 0.417969 207.878906 0.417969 208.125 C 0.417969 208.375 3.28125 208.410156 25.019531 208.410156 L 49.625 208.410156 L 49.625 286.796875 L 25.019531 286.796875 C 8.753906 286.796875 0.417969 286.855469 0.417969 286.988281 C 0.417969 287.121094 8.753906 287.179688 25.019531 287.179688 L 49.625 287.179688 L 49.625 365.5625 L 25.019531 365.5625 C 3.28125 365.5625 0.417969 365.601562 0.417969 365.847656 C 0.417969 366.097656 3.28125 366.136719 25.019531 366.136719 L 49.625 366.136719 L 49.625 444.328125 L 25.019531 444.328125 C 3.28125 444.328125 0.417969 444.367188 0.417969 444.617188 C 0.417969 444.863281 3.28125 444.902344 25.019531 444.902344 L 49.625 444.902344 L 49.625 523.285156 L 25.019531 523.285156 C 3.28125 523.285156 0.417969 523.324219 0.417969 523.574219 C 0.417969 523.820312 3.28125 523.859375 25.019531 523.859375 L 49.625 523.859375 L 49.625 548.460938 C 49.625 570.203125 49.660156 573.0625 49.910156 573.0625 C 50.15625 573.0625 50.195312 570.203125 50.195312 548.460938 L 50.195312 523.859375 L 128.582031 523.859375 L 128.582031 548.460938 C 128.582031 570.203125 128.617188 573.0625 128.867188 573.0625 C 129.113281 573.0625 129.152344 570.203125 129.152344 548.460938 L 129.152344 523.859375 L 207.347656 523.859375 L 207.347656 548.460938 C 207.347656 570.203125 207.386719 573.0625 207.632812 573.0625 C 207.882812 573.0625 207.917969 570.203125 207.917969 548.460938 L 207.917969 523.859375 L 286.304688 523.859375 L 286.304688 548.460938 C 286.304688 564.730469 286.359375 573.0625 286.496094 573.0625 C 286.628906 573.0625 286.683594 564.730469 286.683594 548.460938 L 286.683594 523.859375 L 365.070312 523.859375 L 365.070312 548.460938 C 365.070312 570.203125 365.109375 573.0625 365.355469 573.0625 C 365.605469 573.0625 365.640625 570.203125 365.640625 548.460938 L 365.640625 523.859375 L 443.835938 523.859375 L 443.835938 548.460938 C 443.835938 570.203125 443.875 573.0625 444.121094 573.0625 C 444.371094 573.0625 444.410156 570.203125 444.410156 548.460938 L 444.410156 523.859375 L 522.792969 523.859375 L 522.792969 548.460938 C 522.792969 570.203125 522.832031 573.0625 523.078125 573.0625 C 523.328125 573.0625 523.367188 570.203125 523.367188 548.460938 L 523.367188 523.859375 L 547.96875 523.859375 C 569.710938 523.859375 572.570312 523.820312 572.570312 523.574219 C 572.570312 523.324219 569.710938 523.285156 547.96875 523.285156 L 523.367188 523.285156 L 523.367188 444.902344 L 547.96875 444.902344 C 569.710938 444.902344 572.570312 444.863281 572.570312 444.617188 C 572.570312 444.367188 569.710938 444.328125 547.96875 444.328125 L 523.367188 444.328125 L 523.367188 366.136719 L 547.96875 366.136719 C 569.710938 366.136719 572.570312 366.097656 572.570312 365.847656 C 572.570312 365.601562 569.710938 365.5625 547.96875 365.5625 L 523.367188 365.5625 L 523.367188 287.179688 L 547.96875 287.179688 C 564.238281 287.179688 572.570312 287.121094 572.570312 286.988281 C 572.570312 286.855469 564.238281 286.796875 547.96875 286.796875 L 523.367188 286.796875 L 523.367188 208.410156 L 547.96875 208.410156 C 569.710938 208.410156 572.570312 208.375 572.570312 208.125 C 572.570312 207.878906 569.710938 207.839844 547.96875 207.839844 L 523.367188 207.839844 L 523.367188 129.644531 L 547.96875 129.644531 C 569.710938 129.644531 572.570312 129.605469 572.570312 129.359375 C 572.570312 129.113281 569.710938 129.074219 547.96875 129.074219 L 523.367188 129.074219 L 523.367188 50.6875 L 547.96875 50.6875 C 569.710938 50.6875 572.570312 50.648438 572.570312 50.402344 C 572.570312 50.15625 569.710938 50.117188 547.96875 50.117188 L 523.367188 50.117188 L 523.367188 25.515625 C 523.367188 3.773438 523.328125 0.910156 523.078125 0.910156 C 522.832031 0.910156 522.792969 3.773438 522.792969 25.515625 L 522.792969 50.117188 L 444.410156 50.117188 L 444.410156 25.515625 C 444.410156 3.773438 444.371094 0.910156 444.121094 0.910156 C 443.875 0.910156 443.835938 3.773438 443.835938 25.515625 L 443.835938 50.117188 L 365.640625 50.117188 L 365.640625 25.515625 C 365.640625 3.773438 365.605469 0.910156 365.355469 0.910156 C 365.109375 0.910156 365.070312 3.773438 365.070312 25.515625 L 365.070312 50.117188 L 286.683594 50.117188 L 286.683594 25.515625 C 286.683594 9.246094 286.628906 0.910156 286.496094 0.910156 C 286.359375 0.910156 286.304688 9.246094 286.304688 25.515625 L 286.304688 50.117188 L 207.917969 50.117188 L 207.917969 25.515625 C 207.917969 3.773438 207.882812 0.910156 207.632812 0.910156 C 207.386719 0.910156 207.347656 3.773438 207.347656 25.515625 L 207.347656 50.117188 L 129.152344 50.117188 L 129.152344 25.515625 C 129.152344 3.773438 129.113281 0.910156 128.867188 0.910156 C 128.617188 0.910156 128.582031 3.773438 128.582031 25.515625 L 128.582031 50.117188 L 50.195312 50.117188 L 50.195312 25.515625 C 50.195312 3.773438 50.15625 0.910156 49.910156 0.910156 C 49.660156 0.910156 49.625 3.773438 49.625 25.515625 Z M 128.582031 89.882812 L 128.582031 129.074219 L 50.195312 129.074219 L 50.195312 50.6875 L 128.582031 50.6875 Z M 207.347656 89.882812 L 207.347656 129.074219 L 129.152344 129.074219 L 129.152344 50.6875 L 207.347656 50.6875 Z M 286.304688 89.882812 L 286.304688 129.074219 L 207.917969 129.074219 L 207.917969 50.6875 L 286.304688 50.6875 Z M 365.070312 89.882812 L 365.070312 129.074219 L 286.683594 129.074219 L 286.683594 50.6875 L 365.070312 50.6875 Z M 443.835938 89.882812 L 443.835938 129.074219 L 365.640625 129.074219 L 365.640625 50.6875 L 443.835938 50.6875 Z M 522.792969 89.882812 L 522.792969 129.074219 L 444.410156 129.074219 L 444.410156 50.6875 L 522.792969 50.6875 Z M 128.582031 168.742188 L 128.582031 207.839844 L 50.195312 207.839844 L 50.195312 129.644531 L 128.582031 129.644531 Z M 207.347656 168.742188 L 207.347656 207.839844 L 129.152344 207.839844 L 129.152344 129.644531 L 207.347656 129.644531 Z M 286.304688 168.742188 L 286.304688 207.839844 L 207.917969 207.839844 L 207.917969 129.644531 L 286.304688 129.644531 Z M 365.070312 168.742188 L 365.070312 207.839844 L 286.683594 207.839844 L 286.683594 129.644531 L 365.070312 129.644531 Z M 443.835938 168.742188 L 443.835938 207.839844 L 365.640625 207.839844 L 365.640625 129.644531 L 443.835938 129.644531 Z M 522.792969 168.742188 L 522.792969 207.839844 L 444.410156 207.839844 L 444.410156 129.644531 L 522.792969 129.644531 Z M 128.582031 247.605469 L 128.582031 286.796875 L 50.195312 286.796875 L 50.195312 208.410156 L 128.582031 208.410156 Z M 207.347656 247.605469 L 207.347656 286.796875 L 129.152344 286.796875 L 129.152344 208.410156 L 207.347656 208.410156 Z M 286.304688 247.128906 L 286.304688 285.824219 L 285.828125 286.320312 L 285.332031 286.796875 L 207.917969 286.796875 L 207.917969 208.410156 L 286.304688 208.410156 Z M 365.070312 247.605469 L 365.070312 286.796875 L 287.65625 286.796875 L 287.164062 286.320312 L 286.683594 285.824219 L 286.683594 208.410156 L 365.070312 208.410156 Z M 443.835938 247.605469 L 443.835938 286.796875 L 365.640625 286.796875 L 365.640625 208.410156 L 443.835938 208.410156 Z M 522.792969 247.605469 L 522.792969 286.796875 L 444.410156 286.796875 L 444.410156 208.410156 L 522.792969 208.410156 Z M 128.582031 326.371094 L 128.582031 365.5625 L 50.195312 365.5625 L 50.195312 287.179688 L 128.582031 287.179688 Z M 207.347656 326.371094 L 207.347656 365.5625 L 129.152344 365.5625 L 129.152344 287.179688 L 207.347656 287.179688 Z M 285.828125 287.65625 L 286.304688 288.152344 L 286.304688 365.5625 L 207.917969 365.5625 L 207.917969 287.179688 L 285.332031 287.179688 Z M 365.070312 326.371094 L 365.070312 365.5625 L 286.683594 365.5625 L 286.683594 288.152344 L 287.125 287.675781 L 287.542969 287.214844 L 326.316406 287.195312 L 365.070312 287.179688 Z M 443.835938 326.371094 L 443.835938 365.5625 L 365.640625 365.5625 L 365.640625 287.179688 L 443.835938 287.179688 Z M 522.792969 326.371094 L 522.792969 365.5625 L 444.410156 365.5625 L 444.410156 287.179688 L 522.792969 287.179688 Z M 128.582031 405.230469 L 128.582031 444.328125 L 50.195312 444.328125 L 50.195312 366.136719 L 128.582031 366.136719 Z M 207.347656 405.230469 L 207.347656 444.328125 L 129.152344 444.328125 L 129.152344 366.136719 L 207.347656 366.136719 Z M 286.304688 405.230469 L 286.304688 444.328125 L 207.917969 444.328125 L 207.917969 366.136719 L 286.304688 366.136719 Z M 365.070312 405.230469 L 365.070312 444.328125 L 286.683594 444.328125 L 286.683594 366.136719 L 365.070312 366.136719 Z M 443.835938 405.230469 L 443.835938 444.328125 L 365.640625 444.328125 L 365.640625 366.136719 L 443.835938 366.136719 Z M 522.792969 405.230469 L 522.792969 444.328125 L 444.410156 444.328125 L 444.410156 366.136719 L 522.792969 366.136719 Z M 128.582031 484.09375 L 128.582031 523.285156 L 50.195312 523.285156 L 50.195312 444.902344 L 128.582031 444.902344 Z M 207.347656 484.09375 L 207.347656 523.285156 L 129.152344 523.285156 L 129.152344 444.902344 L 207.347656 444.902344 Z M 286.304688 484.09375 L 286.304688 523.285156 L 207.917969 523.285156 L 207.917969 444.902344 L 286.304688 444.902344 Z M 365.070312 484.09375 L 365.070312 523.285156 L 286.683594 523.285156 L 286.683594 444.902344 L 365.070312 444.902344 Z M 443.835938 484.09375 L 443.835938 523.285156 L 365.640625 523.285156 L 365.640625 444.902344 L 443.835938 444.902344 Z M 522.792969 484.09375 L 522.792969 523.285156 L 444.410156 523.285156 L 444.410156 444.902344 L 522.792969 444.902344 Z M 522.792969 484.09375 " fill-opacity="1" fill-rule="nonzero"/></g></g></g></g></g></svg>