<svg xmlns="http://www.w3.org/2000/svg" xmlns:xlink="http://www.w3.org/1999/xlink" width="500" zoomAndPan="magnify" viewBox="0 0 375 374.999991" height="500" preserveAspectRatio="xMidYMid meet" version="1.0"><defs><clipPath id="3d01f40b7b"><path d="M 141 137 L 262.5 137 L 262.5 229 L 141 229 Z M 141 137 " clip-rule="nonzero"/></clipPath><clipPath id="38cce3eb98"><path d="M 112.5 118.226562 L 252 118.226562 L 252 256.976562 L 112.5 256.976562 Z M 112.5 118.226562 " clip-rule="nonzero"/></clipPath><clipPath id="e26c0a3b2e"><path d="M 73.363281 59 L 301.363281 59 L 301.363281 337.273438 L 73.363281 337.273438 Z M 73.363281 59 " clip-rule="nonzero"/></clipPath><clipPath id="a39681b67b"><path d="M 135 29.023438 L 240 29.023438 L 240 93 L 135 93 Z M 135 29.023438 " clip-rule="nonzero"/></clipPath></defs><g clip-path="url(#3d01f40b7b)"><path fill="#ffffff" d="M 164.4375 210.125 L 179.640625 227.457031 L 180.179688 228.070312 L 262.242188 155.859375 L 246.5 137.917969 L 182.089844 194.59375 L 159.628906 168.996094 L 141.96875 184.527344 Z M 164.4375 210.125 " fill-opacity="1" fill-rule="nonzero"/></g><g clip-path="url(#38cce3eb98)"><path fill="#ffffff" d="M 233.96875 239.632812 L 130.0625 239.632812 L 130.0625 135.570312 L 233.96875 135.570312 L 233.96875 138.539062 L 248.339844 125.925781 C 245.234375 121.285156 239.964844 118.226562 233.96875 118.226562 L 130.0625 118.226562 C 120.5 118.226562 112.746094 125.992188 112.746094 135.570312 L 112.746094 239.632812 C 112.746094 249.210938 120.5 256.976562 130.0625 256.976562 L 233.96875 256.976562 C 243.535156 256.976562 251.285156 249.210938 251.285156 239.632812 L 251.285156 175.765625 L 233.96875 191 Z M 233.96875 239.632812 " fill-opacity="1" fill-rule="nonzero"/></g><g clip-path="url(#e26c0a3b2e)"><path fill="#ffffff" d="M 277.464844 83.738281 C 267.042969 81.480469 258.808594 83.398438 249.847656 82.386719 C 249.121094 74.832031 248.675781 67.527344 249.808594 59.972656 C 260.78125 59.246094 271.15625 59.648438 282.238281 59.609375 C 294.183594 59.566406 301.445312 69.363281 301.460938 81.242188 L 301.601562 198.625 L 301.324219 319.039062 C 301.300781 328.648438 293.101562 337.273438 283.089844 337.289062 L 93.214844 337.507812 C 83.003906 337.519531 73.769531 329.929688 73.75 319.320312 L 73.378906 81.367188 C 73.359375 69.078125 80.359375 59.617188 93.0625 59.5625 C 103.953125 59.511719 114.53125 59.390625 125.6875 59.953125 C 126.320312 67.527344 126.210938 74.820312 125.746094 82.585938 C 117.074219 83.371094 109.183594 81.777344 100.445312 83.203125 C 97.265625 83.726562 96.855469 89.164062 96.867188 92.125 L 97.050781 163.769531 L 97.0625 229.847656 L 96.84375 308.78125 C 97.464844 310.730469 97.738281 314.269531 100.699219 314.265625 L 277.328125 314.167969 L 277.449219 83.730469 Z M 277.464844 83.738281 " fill-opacity="1" fill-rule="nonzero"/></g><g clip-path="url(#a39681b67b)"><path fill="#ffffff" d="M 232.550781 92.132812 L 142.679688 92.1875 C 138.480469 92.1875 135.816406 88.835938 135.816406 84.921875 L 135.832031 57.3125 C 135.835938 45.648438 155.582031 52.945312 164.210938 49.929688 C 166.792969 34.972656 180.960938 25.167969 195.144531 30.464844 C 203.40625 33.550781 208.300781 41.195312 211.027344 49.726562 C 218.898438 52.972656 239.351562 45.574219 239.347656 57.3125 L 239.339844 84.914062 C 239.339844 88.914062 236.835938 92.132812 232.550781 92.132812 Z M 196.105469 51 C 196.105469 46.191406 192.207031 42.289062 187.390625 42.289062 C 182.574219 42.289062 178.671875 46.191406 178.671875 51 C 178.671875 55.8125 182.574219 59.714844 187.390625 59.714844 C 192.207031 59.714844 196.105469 55.8125 196.105469 51 Z M 196.105469 51 " fill-opacity="1" fill-rule="nonzero"/></g><path fill="#ffffff" d="M 252.453125 148.359375 L 186.890625 148.566406 C 183.652344 148.578125 181.769531 145.890625 181.300781 144.082031 C 180.585938 141.351562 182.632812 137.71875 186.730469 137.710938 L 251 137.578125 C 254.695312 137.570312 257.417969 139.710938 257.550781 142.558594 C 257.640625 144.554688 256.105469 148.355469 252.449219 148.363281 Z M 252.453125 148.359375 " fill-opacity="1" fill-rule="nonzero"/><path fill="#ffffff" d="M 250.957031 264.808594 L 184.933594 264.574219 C 181.644531 264.558594 180.886719 260.3125 181.320312 258.480469 C 181.960938 255.808594 184.808594 253.859375 188.550781 253.863281 L 250.867188 253.917969 C 254.332031 253.917969 256.972656 256.515625 257.332031 258.582031 C 257.96875 262.214844 255.175781 264.828125 250.960938 264.808594 Z M 250.957031 264.808594 " fill-opacity="1" fill-rule="nonzero"/><path fill="#ffffff" d="M 251.019531 206.570312 L 186.707031 206.539062 C 183.390625 206.539062 181.246094 204.082031 181.195312 201.449219 C 181.152344 199.320312 183.195312 195.65625 186.9375 195.660156 L 252.058594 195.796875 C 255.578125 195.804688 257.515625 199.527344 257.535156 201.519531 C 257.558594 204.519531 254.808594 206.570312 251.027344 206.570312 Z M 251.019531 206.570312 " fill-opacity="1" fill-rule="nonzero"/><path fill="#ffffff" d="M 136.007812 277.566406 C 131.707031 277.714844 120.820312 265.167969 118.5625 261.433594 C 117.128906 259.066406 118.191406 256.804688 119.742188 255.675781 C 121.410156 254.460938 124.015625 253.804688 126.042969 255.472656 L 135.660156 263.382812 C 144.285156 257.890625 154.398438 236.328125 162.542969 242.210938 C 163.976562 243.25 165.175781 246.835938 163.21875 249.101562 L 141.332031 274.355469 C 139.746094 276.183594 137.949219 277.5 136.007812 277.566406 Z M 136.007812 277.566406 " fill-opacity="1" fill-rule="nonzero"/><path fill="#ffffff" d="M 140.144531 159.433594 C 134.71875 165.714844 125.5625 153.488281 119.695312 146.632812 C 117.84375 144.46875 117.789062 141.695312 118.707031 140.332031 C 123.890625 132.601562 132.40625 145.617188 136.464844 147.027344 C 142.875 141.3125 155.476562 120.378906 161.949219 125.394531 C 164.332031 127.238281 165.144531 130.480469 163.019531 132.949219 L 140.148438 159.4375 Z M 140.144531 159.433594 " fill-opacity="1" fill-rule="nonzero"/><path fill="#ffffff" d="M 134.816406 219.539062 C 131.308594 217.46875 115.4375 203.925781 118.734375 198.867188 C 120.03125 196.878906 123.730469 195.304688 126 197.160156 L 135.78125 205.164062 L 154.609375 185.050781 C 157.042969 182.453125 159.992188 181.925781 162.15625 183.765625 C 164.511719 185.757812 165.269531 188.914062 162.90625 191.585938 L 141.601562 215.6875 C 140.3125 217.140625 137.121094 220.90625 134.804688 219.539062 Z M 134.816406 219.539062 " fill-opacity="1" fill-rule="nonzero"/></svg>