<svg xmlns="http://www.w3.org/2000/svg" xmlns:xlink="http://www.w3.org/1999/xlink" width="500" zoomAndPan="magnify" viewBox="0 0 375 374.999991" height="500" preserveAspectRatio="xMidYMid meet" version="1.0"><defs><clipPath id="8109ef6557"><path d="M 23.632812 23.632812 L 351.382812 23.632812 L 351.382812 351.382812 L 23.632812 351.382812 Z M 23.632812 23.632812 " clip-rule="nonzero"/></clipPath></defs><g clip-path="url(#8109ef6557)"><path fill="#B3E240" d="M 117.933594 256.976562 C 169.828125 308.871094 227.15625 335.316406 267.859375 348.554688 C 297.382812 358.15625 329.089844 341.769531 339.183594 312.410156 L 350.273438 280.082031 C 353.503906 270.675781 348.929688 260.386719 339.804688 256.46875 L 279.902344 230.796875 C 271.460938 227.175781 261.664062 229.058594 255.175781 235.5625 L 223.734375 267.007812 C 223.734375 267.007812 192.519531 254.375 156.539062 218.390625 C 120.558594 182.410156 107.925781 151.179688 107.925781 151.179688 L 139.367188 119.738281 C 145.839844 113.25 147.722656 103.46875 144.117188 95.027344 L 118.441406 35.109375 C 114.527344 25.984375 104.222656 21.410156 94.832031 24.640625 L 62.503906 35.730469 C 33.125 45.824219 16.742188 77.511719 26.359375 107.054688 C 39.597656 147.753906 66.042969 205.070312 117.933594 256.976562 Z M 117.933594 256.976562 " fill-opacity="1" fill-rule="nonzero"/></g></svg>