<svg xmlns="http://www.w3.org/2000/svg" xmlns:xlink="http://www.w3.org/1999/xlink" width="500" zoomAndPan="magnify" viewBox="0 0 375 374.999991" height="500" preserveAspectRatio="xMidYMid meet" version="1.0"><defs><linearGradient id="whyChooseSunset" x1="0%" y1="0%" x2="100%" y2="100%"><stop offset="0%" stop-color="#fcd34d"/><stop offset="50%" stop-color="#fb923c"/><stop offset="100%" stop-color="#f43f5e"/></linearGradient><clipPath id="c80dad9734"><path d="M 50 49.886719 L 325 49.886719 L 325 325.136719 L 50 325.136719 Z M 50 49.886719 " clip-rule="nonzero"/></clipPath></defs><g clip-path="url(#c80dad9734)"><path fill="url(#whyChooseSunset)" d="M 173.285156 104.929688 C 172.59375 104.824219 171.960938 104.574219 171.382812 104.183594 C 170.800781 103.796875 170.332031 103.300781 169.96875 102.703125 C 169.609375 102.101562 169.410156 101.445312 169.371094 100.746094 C 169.328125 100.042969 169.449219 99.371094 169.730469 98.726562 C 169.984375 98.042969 170.179688 97.347656 170.324219 96.636719 C 170.464844 95.925781 170.554688 95.207031 170.589844 94.480469 C 170.621094 93.753906 170.601562 93.03125 170.523438 92.308594 C 170.445312 91.585938 170.3125 90.875 170.125 90.171875 C 169.9375 89.472656 169.699219 88.789062 169.410156 88.125 C 169.117188 87.457031 168.777344 86.820312 168.386719 86.207031 C 167.996094 85.59375 167.5625 85.015625 167.085938 84.46875 C 166.609375 83.921875 166.089844 83.414062 165.535156 82.949219 C 164.980469 82.480469 164.390625 82.058594 163.769531 81.679688 C 163.148438 81.304688 162.503906 80.976562 161.832031 80.699219 C 161.160156 80.421875 160.472656 80.195312 159.769531 80.023438 C 159.0625 79.851562 158.347656 79.734375 157.625 79.671875 C 156.902344 79.605469 156.179688 79.597656 155.453125 79.648438 C 154.730469 79.695312 154.011719 79.796875 153.304688 79.957031 C 152.59375 80.113281 151.902344 80.324219 151.226562 80.589844 C 150.550781 80.851562 149.898438 81.167969 149.269531 81.53125 C 148.679688 81.917969 148.03125 82.148438 147.332031 82.222656 C 146.628906 82.296875 145.949219 82.207031 145.289062 81.957031 C 144.636719 81.722656 144.066406 81.359375 143.582031 80.859375 C 143.101562 80.359375 142.753906 79.777344 142.542969 79.113281 C 142.3125 78.421875 142.027344 77.75 141.691406 77.097656 C 141.355469 76.449219 140.96875 75.832031 140.53125 75.242188 C 140.097656 74.65625 139.617188 74.105469 139.09375 73.59375 C 138.574219 73.078125 138.011719 72.613281 137.417969 72.1875 C 136.820312 71.765625 136.191406 71.390625 135.535156 71.066406 C 134.878906 70.746094 134.203125 70.472656 133.503906 70.257812 C 132.804688 70.042969 132.09375 69.882812 131.367188 69.777344 C 130.644531 69.675781 129.917969 69.628906 129.183594 69.640625 C 128.445312 69.632812 127.710938 69.679688 126.976562 69.789062 C 126.246094 69.898438 125.527344 70.0625 124.824219 70.285156 C 124.121094 70.511719 123.4375 70.789062 122.777344 71.121094 C 122.117188 71.457031 121.488281 71.839844 120.890625 72.273438 C 120.292969 72.710938 119.734375 73.1875 119.210938 73.714844 C 118.691406 74.238281 118.214844 74.800781 117.785156 75.402344 C 117.355469 76.003906 116.976562 76.636719 116.648438 77.300781 C 116.316406 77.960938 116.042969 78.644531 115.828125 79.351562 C 115.617188 80.015625 115.269531 80.59375 114.785156 81.09375 C 114.300781 81.59375 113.734375 81.960938 113.078125 82.195312 C 112.417969 82.445312 111.738281 82.535156 111.039062 82.457031 C 110.335938 82.382812 109.691406 82.152344 109.101562 81.769531 C 108.472656 81.402344 107.820312 81.089844 107.144531 80.824219 C 106.464844 80.5625 105.773438 80.351562 105.066406 80.191406 C 104.355469 80.035156 103.640625 79.933594 102.914062 79.882812 C 102.191406 79.835938 101.464844 79.84375 100.742188 79.90625 C 100.019531 79.96875 99.304688 80.085938 98.601562 80.261719 C 97.894531 80.433594 97.207031 80.65625 96.535156 80.9375 C 95.863281 81.214844 95.21875 81.542969 94.597656 81.917969 C 93.976562 82.296875 93.390625 82.71875 92.835938 83.183594 C 92.277344 83.652344 91.761719 84.15625 91.28125 84.703125 C 90.804688 85.25 90.371094 85.832031 89.980469 86.445312 C 89.59375 87.054688 89.25 87.695312 88.960938 88.359375 C 88.667969 89.027344 88.429688 89.707031 88.242188 90.410156 C 88.054688 91.113281 87.925781 91.824219 87.847656 92.546875 C 87.769531 93.269531 87.746094 93.992188 87.78125 94.71875 C 87.8125 95.441406 87.902344 96.160156 88.046875 96.871094 C 88.1875 97.585938 88.386719 98.28125 88.636719 98.960938 C 88.890625 99.609375 89 100.28125 88.957031 100.976562 C 88.914062 101.675781 88.730469 102.328125 88.398438 102.941406 C 88.039062 103.539062 87.566406 104.03125 86.988281 104.421875 C 86.40625 104.8125 85.773438 105.058594 85.082031 105.167969 C 84.367188 105.292969 83.667969 105.46875 82.980469 105.699219 C 82.292969 105.929688 81.625 106.210938 80.980469 106.542969 C 80.335938 106.875 79.722656 107.253906 79.136719 107.679688 C 78.546875 108.105469 77.996094 108.574219 77.484375 109.085938 C 76.96875 109.59375 76.496094 110.140625 76.0625 110.726562 C 75.632812 111.308594 75.25 111.921875 74.910156 112.5625 C 74.574219 113.203125 74.289062 113.867188 74.050781 114.554688 C 73.816406 115.242188 73.632812 115.941406 73.503906 116.652344 C 73.375 117.367188 73.304688 118.085938 73.285156 118.8125 C 73.265625 119.535156 73.304688 120.257812 73.394531 120.976562 C 73.488281 121.695312 73.632812 122.40625 73.832031 123.101562 C 74.035156 123.800781 74.285156 124.476562 74.589844 125.136719 C 74.894531 125.792969 75.246094 126.425781 75.648438 127.027344 C 76.050781 127.632812 76.492188 128.203125 76.980469 128.738281 C 77.46875 129.277344 77.996094 129.773438 78.558594 130.226562 C 79.125 130.683594 79.71875 131.09375 80.347656 131.457031 C 80.636719 131.632812 80.90625 131.835938 81.15625 132.070312 C 81.402344 132.300781 81.621094 132.558594 81.816406 132.839844 C 82.007812 133.121094 82.167969 133.417969 82.296875 133.730469 C 82.425781 134.046875 82.515625 134.371094 82.574219 134.707031 C 82.632812 135.039062 82.65625 135.378906 82.640625 135.71875 C 82.628906 136.054688 82.578125 136.390625 82.492188 136.71875 C 82.40625 137.046875 82.285156 137.363281 82.132812 137.667969 C 81.976562 137.96875 81.792969 138.253906 81.578125 138.515625 C 81.113281 139.070312 80.695312 139.660156 80.320312 140.277344 C 79.945312 140.898438 79.617188 141.542969 79.339844 142.210938 C 79.066406 142.882812 78.839844 143.566406 78.667969 144.273438 C 78.5 144.976562 78.382812 145.6875 78.320312 146.410156 C 78.257812 147.132812 78.25 147.851562 78.296875 148.574219 C 78.34375 149.296875 78.449219 150.011719 78.605469 150.71875 C 78.761719 151.425781 78.972656 152.117188 79.234375 152.792969 C 79.496094 153.46875 79.808594 154.117188 80.171875 154.746094 C 80.535156 155.375 80.941406 155.96875 81.394531 156.535156 C 81.851562 157.097656 82.34375 157.625 82.878906 158.113281 C 83.410156 158.605469 83.980469 159.050781 84.582031 159.453125 C 85.183594 159.855469 85.8125 160.207031 86.46875 160.515625 C 87.125 160.820312 87.800781 161.074219 88.496094 161.277344 C 89.191406 161.480469 89.898438 161.628906 90.617188 161.722656 C 91.335938 161.820312 92.054688 161.859375 92.78125 161.84375 C 93.503906 161.828125 94.222656 161.757812 94.9375 161.632812 C 95.203125 161.585938 95.472656 161.585938 95.742188 161.632812 L 95.742188 239.363281 C 95.738281 239.816406 95.796875 240.257812 95.921875 240.691406 C 96.042969 241.125 96.226562 241.53125 96.464844 241.914062 C 96.703125 242.296875 96.992188 242.636719 97.328125 242.9375 C 97.664062 243.234375 98.035156 243.480469 98.441406 243.675781 C 98.847656 243.867188 99.269531 243.996094 99.710938 244.070312 C 100.152344 244.140625 100.597656 244.148438 101.042969 244.09375 C 101.484375 244.039062 101.914062 243.925781 102.324219 243.75 C 102.738281 243.574219 103.117188 243.34375 103.464844 243.058594 L 129.089844 222.074219 L 154.667969 243.058594 C 155.554688 243.769531 156.566406 244.117188 157.699219 244.101562 C 158.410156 244.097656 159.085938 243.953125 159.738281 243.675781 C 160.144531 243.480469 160.515625 243.234375 160.851562 242.9375 C 161.1875 242.636719 161.476562 242.296875 161.714844 241.914062 C 161.953125 241.53125 162.136719 241.125 162.257812 240.691406 C 162.382812 240.257812 162.441406 239.816406 162.4375 239.363281 L 162.4375 161.632812 C 162.4375 161.632812 162.4375 161.632812 162.4375 161.394531 C 162.722656 161.347656 163.007812 161.347656 163.289062 161.394531 C 164.003906 161.519531 164.722656 161.589844 165.445312 161.605469 C 166.171875 161.621094 166.890625 161.582031 167.609375 161.488281 C 168.328125 161.394531 169.035156 161.246094 169.730469 161.042969 C 170.425781 160.839844 171.101562 160.585938 171.757812 160.277344 C 172.414062 159.972656 173.042969 159.617188 173.644531 159.214844 C 174.246094 158.8125 174.816406 158.367188 175.347656 157.878906 C 175.882812 157.390625 176.375 156.863281 176.832031 156.296875 C 177.285156 155.730469 177.691406 155.136719 178.054688 154.507812 C 178.417969 153.882812 178.730469 153.230469 178.992188 152.554688 C 179.253906 151.882812 179.464844 151.191406 179.621094 150.484375 C 179.777344 149.777344 179.882812 149.0625 179.929688 148.339844 C 179.976562 147.617188 179.96875 146.894531 179.90625 146.171875 C 179.84375 145.453125 179.726562 144.738281 179.558594 144.035156 C 179.386719 143.332031 179.160156 142.644531 178.886719 141.976562 C 178.609375 141.304688 178.28125 140.660156 177.90625 140.042969 C 177.53125 139.421875 177.113281 138.835938 176.648438 138.277344 C 176.433594 138.015625 176.25 137.734375 176.09375 137.429688 C 175.941406 137.128906 175.820312 136.8125 175.734375 136.484375 C 175.648438 136.152344 175.597656 135.820312 175.585938 135.480469 C 175.570312 135.140625 175.59375 134.804688 175.652344 134.46875 C 175.710938 134.132812 175.800781 133.808594 175.929688 133.496094 C 176.058594 133.179688 176.21875 132.882812 176.410156 132.601562 C 176.605469 132.320312 176.824219 132.066406 177.070312 131.832031 C 177.320312 131.601562 177.589844 131.394531 177.878906 131.222656 C 178.507812 130.855469 179.101562 130.445312 179.667969 129.992188 C 180.230469 129.535156 180.757812 129.039062 181.246094 128.503906 C 181.734375 127.964844 182.175781 127.394531 182.578125 126.792969 C 182.980469 126.1875 183.332031 125.554688 183.636719 124.898438 C 183.941406 124.238281 184.191406 123.5625 184.394531 122.867188 C 184.59375 122.167969 184.738281 121.460938 184.832031 120.742188 C 184.921875 120.023438 184.960938 119.300781 184.941406 118.574219 C 184.921875 117.851562 184.851562 117.128906 184.722656 116.417969 C 184.59375 115.703125 184.410156 115.003906 184.175781 114.316406 C 183.9375 113.632812 183.652344 112.96875 183.316406 112.324219 C 182.976562 111.683594 182.59375 111.070312 182.164062 110.488281 C 181.730469 109.90625 181.257812 109.359375 180.742188 108.847656 C 180.230469 108.335938 179.679688 107.867188 179.089844 107.441406 C 178.503906 107.015625 177.890625 106.636719 177.246094 106.304688 C 176.601562 105.972656 175.933594 105.691406 175.246094 105.460938 C 174.558594 105.230469 173.859375 105.054688 173.144531 104.929688 Z M 131.980469 212.316406 C 131.558594 211.976562 131.089844 211.714844 130.578125 211.53125 C 130.066406 211.351562 129.539062 211.257812 128.996094 211.257812 C 128.453125 211.257812 127.925781 211.351562 127.410156 211.53125 C 126.898438 211.714844 126.433594 211.976562 126.011719 212.316406 L 105.121094 229.371094 L 105.121094 177.265625 C 106.433594 178.394531 107.902344 179.261719 109.527344 179.871094 C 111.054688 180.441406 112.632812 180.742188 114.261719 180.769531 C 115.324219 180.765625 116.367188 180.640625 117.398438 180.394531 C 118.429688 180.152344 119.421875 179.792969 120.367188 179.320312 C 121.316406 178.847656 122.199219 178.273438 123.015625 177.597656 C 123.832031 176.921875 124.5625 176.164062 125.207031 175.320312 C 125.425781 175.0625 125.675781 174.828125 125.949219 174.621094 C 126.222656 174.417969 126.511719 174.242188 126.824219 174.097656 C 127.132812 173.953125 127.457031 173.847656 127.789062 173.773438 C 128.125 173.699219 128.464844 173.664062 128.804688 173.664062 C 129.148438 173.664062 129.484375 173.699219 129.820312 173.773438 C 130.152344 173.847656 130.476562 173.953125 130.789062 174.097656 C 131.097656 174.242188 131.390625 174.417969 131.664062 174.621094 C 131.933594 174.828125 132.183594 175.0625 132.40625 175.320312 C 132.847656 175.917969 133.335938 176.472656 133.867188 176.988281 C 134.398438 177.507812 134.964844 177.976562 135.574219 178.402344 C 136.179688 178.828125 136.820312 179.203125 137.484375 179.523438 C 138.152344 179.847656 138.84375 180.117188 139.550781 180.328125 C 140.261719 180.539062 140.984375 180.695312 141.722656 180.789062 C 142.457031 180.886719 143.195312 180.921875 143.933594 180.898438 C 144.675781 180.875 145.410156 180.792969 146.136719 180.652344 C 146.867188 180.511719 147.578125 180.3125 148.273438 180.058594 C 149.898438 179.449219 151.367188 178.582031 152.679688 177.453125 L 152.679688 229.558594 Z M 173.285156 122.835938 C 172.824219 123.09375 172.375 123.375 171.945312 123.679688 C 171.515625 123.988281 171.101562 124.316406 170.707031 124.667969 C 170.316406 125.023438 169.941406 125.394531 169.589844 125.789062 C 169.238281 126.183594 168.90625 126.59375 168.601562 127.027344 C 168.296875 127.457031 168.015625 127.902344 167.757812 128.367188 C 167.5 128.828125 167.269531 129.304688 167.066406 129.789062 C 166.863281 130.277344 166.6875 130.777344 166.539062 131.285156 C 166.390625 131.792969 166.273438 132.304688 166.183594 132.824219 C 166.09375 133.347656 166.03125 133.871094 166 134.398438 C 165.964844 134.925781 165.964844 135.453125 165.992188 135.980469 C 166.019531 136.511719 166.074219 137.035156 166.160156 137.554688 C 166.246094 138.078125 166.359375 138.59375 166.5 139.101562 C 166.644531 139.609375 166.816406 140.109375 167.015625 140.601562 C 167.210938 141.089844 167.4375 141.566406 167.6875 142.03125 C 167.941406 142.496094 168.21875 142.945312 168.519531 143.378906 C 168.820312 143.8125 169.148438 144.230469 169.496094 144.625 C 169.765625 145 169.972656 145.398438 170.125 145.832031 C 170.277344 146.265625 170.367188 146.710938 170.386719 147.167969 C 170.410156 147.625 170.367188 148.078125 170.257812 148.523438 C 170.152344 148.96875 169.980469 149.390625 169.75 149.785156 C 169.519531 150.183594 169.238281 150.539062 168.902344 150.851562 C 168.570312 151.167969 168.199219 151.425781 167.789062 151.632812 C 167.378906 151.839844 166.949219 151.984375 166.496094 152.0625 C 166.046875 152.144531 165.59375 152.160156 165.136719 152.109375 C 164.617188 152.007812 164.097656 151.9375 163.570312 151.890625 C 163.042969 151.847656 162.515625 151.832031 161.984375 151.847656 C 161.457031 151.863281 160.929688 151.90625 160.40625 151.980469 C 159.882812 152.054688 159.363281 152.15625 158.851562 152.289062 C 158.339844 152.421875 157.835938 152.582031 157.34375 152.769531 C 156.847656 152.957031 156.367188 153.171875 155.894531 153.410156 C 155.425781 153.652344 154.96875 153.921875 154.527344 154.214844 C 154.089844 154.503906 153.664062 154.820312 153.261719 155.160156 C 152.855469 155.5 152.46875 155.863281 152.105469 156.246094 C 151.738281 156.628906 151.398438 157.027344 151.078125 157.449219 C 150.757812 157.871094 150.460938 158.308594 150.191406 158.761719 C 149.917969 159.214844 149.671875 159.683594 149.453125 160.164062 C 149.234375 160.648438 149.042969 161.136719 148.878906 161.640625 C 148.714844 162.144531 148.578125 162.652344 148.472656 163.171875 C 148.363281 163.691406 148.285156 164.210938 148.238281 164.738281 C 148.1875 165.265625 148.167969 165.792969 148.179688 166.320312 C 148.148438 166.777344 148.050781 167.214844 147.890625 167.644531 C 147.730469 168.070312 147.515625 168.464844 147.242188 168.828125 C 146.96875 169.195312 146.648438 169.511719 146.28125 169.785156 C 145.917969 170.054688 145.519531 170.269531 145.09375 170.425781 C 144.664062 170.585938 144.222656 170.679688 143.769531 170.710938 C 143.316406 170.738281 142.863281 170.703125 142.421875 170.605469 C 141.976562 170.503906 141.554688 170.34375 141.15625 170.125 C 140.757812 169.902344 140.398438 169.628906 140.078125 169.304688 C 139.746094 168.890625 139.394531 168.5 139.019531 168.125 C 138.640625 167.75 138.246094 167.398438 137.832031 167.070312 C 137.414062 166.738281 136.984375 166.433594 136.535156 166.152344 C 136.082031 165.871094 135.621094 165.617188 135.140625 165.386719 C 134.664062 165.15625 134.175781 164.953125 133.671875 164.78125 C 133.171875 164.605469 132.664062 164.460938 132.148438 164.34375 C 131.628906 164.222656 131.109375 164.136719 130.582031 164.078125 C 130.054688 164.019531 129.523438 163.988281 128.996094 163.988281 C 128.464844 163.988281 127.9375 164.019531 127.410156 164.078125 C 126.882812 164.136719 126.359375 164.222656 125.84375 164.34375 C 125.324219 164.460938 124.816406 164.605469 124.316406 164.78125 C 123.816406 164.953125 123.324219 165.15625 122.847656 165.386719 C 122.371094 165.617188 121.90625 165.871094 121.457031 166.152344 C 121.007812 166.433594 120.574219 166.738281 120.160156 167.070312 C 119.742188 167.398438 119.347656 167.75 118.972656 168.125 C 118.597656 168.5 118.242188 168.890625 117.910156 169.304688 C 117.589844 169.628906 117.230469 169.902344 116.832031 170.125 C 116.433594 170.34375 116.015625 170.503906 115.570312 170.605469 C 115.125 170.703125 114.675781 170.738281 114.21875 170.710938 C 113.765625 170.679688 113.324219 170.585938 112.898438 170.425781 C 112.46875 170.269531 112.074219 170.054688 111.707031 169.785156 C 111.34375 169.511719 111.023438 169.195312 110.75 168.828125 C 110.476562 168.464844 110.257812 168.070312 110.097656 167.644531 C 109.9375 167.214844 109.84375 166.777344 109.808594 166.320312 C 109.820312 165.792969 109.800781 165.265625 109.753906 164.738281 C 109.703125 164.210938 109.625 163.691406 109.519531 163.171875 C 109.410156 162.652344 109.273438 162.144531 109.109375 161.640625 C 108.945312 161.136719 108.753906 160.648438 108.535156 160.164062 C 108.316406 159.683594 108.070312 159.214844 107.800781 158.761719 C 107.527344 158.308594 107.234375 157.871094 106.914062 157.449219 C 106.59375 157.027344 106.25 156.628906 105.886719 156.246094 C 105.519531 155.863281 105.136719 155.5 104.730469 155.160156 C 104.324219 154.820312 103.902344 154.503906 103.460938 154.214844 C 103.019531 153.921875 102.566406 153.652344 102.09375 153.410156 C 101.625 153.171875 101.140625 152.957031 100.648438 152.769531 C 100.152344 152.582031 99.648438 152.421875 99.136719 152.289062 C 98.625 152.15625 98.105469 152.054688 97.582031 151.980469 C 97.058594 151.90625 96.53125 151.863281 96.003906 151.847656 C 95.476562 151.832031 94.949219 151.847656 94.421875 151.890625 C 93.894531 151.9375 93.371094 152.007812 92.851562 152.109375 C 92.398438 152.160156 91.941406 152.144531 91.492188 152.0625 C 91.039062 151.984375 90.609375 151.839844 90.199219 151.632812 C 89.792969 151.425781 89.417969 151.167969 89.085938 150.851562 C 88.753906 150.539062 88.46875 150.183594 88.238281 149.785156 C 88.007812 149.390625 87.839844 148.96875 87.730469 148.523438 C 87.621094 148.078125 87.578125 147.625 87.601562 147.167969 C 87.625 146.710938 87.710938 146.265625 87.863281 145.832031 C 88.015625 145.398438 88.226562 145 88.496094 144.625 C 88.84375 144.226562 89.167969 143.8125 89.46875 143.378906 C 89.769531 142.941406 90.046875 142.492188 90.296875 142.027344 C 90.546875 141.5625 90.773438 141.085938 90.96875 140.59375 C 91.167969 140.101562 91.339844 139.601562 91.480469 139.09375 C 91.621094 138.585938 91.734375 138.070312 91.820312 137.546875 C 91.902344 137.023438 91.960938 136.5 91.984375 135.972656 C 92.011719 135.441406 92.007812 134.914062 91.972656 134.386719 C 91.941406 133.859375 91.878906 133.335938 91.785156 132.8125 C 91.695312 132.292969 91.574219 131.78125 91.425781 131.273438 C 91.277344 130.765625 91.097656 130.265625 90.894531 129.78125 C 90.691406 129.292969 90.457031 128.816406 90.199219 128.355469 C 89.945312 127.894531 89.660156 127.449219 89.351562 127.015625 C 89.046875 126.585938 88.714844 126.175781 88.363281 125.78125 C 88.007812 125.386719 87.632812 125.015625 87.238281 124.664062 C 86.84375 124.3125 86.429688 123.984375 86 123.679688 C 85.566406 123.371094 85.121094 123.09375 84.65625 122.835938 C 84.238281 122.617188 83.859375 122.335938 83.53125 121.996094 C 83.199219 121.65625 82.929688 121.273438 82.71875 120.847656 C 82.511719 120.421875 82.375 119.976562 82.308594 119.503906 C 82.242188 119.035156 82.253906 118.566406 82.335938 118.101562 C 82.40625 117.625 82.550781 117.171875 82.773438 116.742188 C 82.992188 116.3125 83.277344 115.933594 83.625 115.597656 C 83.972656 115.265625 84.363281 114.996094 84.800781 114.789062 C 85.238281 114.585938 85.695312 114.457031 86.171875 114.40625 C 86.703125 114.332031 87.230469 114.230469 87.75 114.101562 C 88.273438 113.96875 88.78125 113.808594 89.285156 113.617188 C 89.785156 113.429688 90.277344 113.210938 90.753906 112.96875 C 91.230469 112.722656 91.695312 112.449219 92.140625 112.152344 C 92.585938 111.855469 93.015625 111.535156 93.425781 111.1875 C 93.835938 110.84375 94.226562 110.476562 94.59375 110.085938 C 94.964844 109.695312 95.308594 109.285156 95.632812 108.855469 C 95.953125 108.425781 96.25 107.980469 96.523438 107.519531 C 96.792969 107.054688 97.039062 106.578125 97.257812 106.089844 C 97.472656 105.597656 97.664062 105.097656 97.824219 104.585938 C 97.984375 104.074219 98.117188 103.554688 98.21875 103.027344 C 98.320312 102.5 98.394531 101.96875 98.433594 101.433594 C 98.476562 100.898438 98.488281 100.363281 98.46875 99.828125 C 98.453125 99.289062 98.402344 98.757812 98.324219 98.226562 C 98.242188 97.695312 98.136719 97.171875 97.996094 96.652344 C 97.859375 96.132812 97.691406 95.625 97.496094 95.125 C 97.292969 94.6875 97.167969 94.226562 97.125 93.746094 C 97.078125 93.265625 97.113281 92.789062 97.230469 92.320312 C 97.347656 91.851562 97.535156 91.414062 97.800781 91.011719 C 98.066406 90.605469 98.390625 90.257812 98.773438 89.960938 C 99.132812 89.632812 99.535156 89.371094 99.984375 89.179688 C 100.429688 88.988281 100.898438 88.875 101.382812 88.839844 C 101.871094 88.804688 102.347656 88.851562 102.816406 88.980469 C 103.289062 89.105469 103.722656 89.308594 104.125 89.582031 C 104.578125 89.855469 105.046875 90.105469 105.527344 90.324219 C 106.007812 90.546875 106.5 90.742188 107 90.90625 C 107.503906 91.074219 108.011719 91.210938 108.53125 91.320312 C 109.046875 91.429688 109.570312 91.511719 110.097656 91.5625 C 110.625 91.613281 111.152344 91.636719 111.679688 91.628906 C 112.210938 91.621094 112.738281 91.582031 113.261719 91.515625 C 113.785156 91.449219 114.304688 91.351562 114.820312 91.230469 C 115.335938 91.105469 115.839844 90.949219 116.335938 90.769531 C 116.835938 90.589844 117.320312 90.378906 117.792969 90.144531 C 118.265625 89.910156 118.726562 89.648438 119.171875 89.363281 C 119.617188 89.074219 120.042969 88.765625 120.453125 88.429688 C 120.863281 88.09375 121.253906 87.738281 121.625 87.363281 C 121.992188 86.984375 122.34375 86.585938 122.667969 86.167969 C 122.992188 85.753906 123.296875 85.316406 123.574219 84.867188 C 123.851562 84.417969 124.101562 83.953125 124.328125 83.472656 C 124.550781 82.996094 124.75 82.503906 124.921875 82.003906 C 125.058594 81.542969 125.265625 81.113281 125.542969 80.722656 C 125.820312 80.328125 126.152344 79.988281 126.542969 79.707031 C 126.933594 79.421875 127.359375 79.210938 127.820312 79.070312 C 128.277344 78.925781 128.75 78.863281 129.230469 78.878906 C 129.714844 78.863281 130.183594 78.925781 130.644531 79.070312 C 131.105469 79.210938 131.53125 79.421875 131.921875 79.707031 C 132.308594 79.988281 132.644531 80.328125 132.921875 80.722656 C 133.199219 81.113281 133.40625 81.542969 133.542969 82.003906 C 133.714844 82.503906 133.910156 82.996094 134.136719 83.472656 C 134.363281 83.953125 134.613281 84.417969 134.890625 84.867188 C 135.167969 85.316406 135.46875 85.753906 135.796875 86.167969 C 136.121094 86.585938 136.46875 86.984375 136.839844 87.363281 C 137.210938 87.738281 137.601562 88.09375 138.011719 88.429688 C 138.421875 88.765625 138.847656 89.074219 139.292969 89.363281 C 139.738281 89.648438 140.195312 89.910156 140.671875 90.144531 C 141.144531 90.378906 141.628906 90.589844 142.125 90.769531 C 142.625 90.949219 143.128906 91.105469 143.644531 91.230469 C 144.15625 91.351562 144.675781 91.449219 145.203125 91.515625 C 145.726562 91.582031 146.253906 91.621094 146.78125 91.628906 C 147.3125 91.636719 147.839844 91.613281 148.367188 91.5625 C 148.894531 91.511719 149.414062 91.429688 149.933594 91.320312 C 150.449219 91.210938 150.960938 91.074219 151.460938 90.90625 C 151.964844 90.742188 152.457031 90.546875 152.9375 90.324219 C 153.417969 90.105469 153.882812 89.855469 154.335938 89.582031 C 154.742188 89.3125 155.175781 89.113281 155.648438 88.988281 C 156.117188 88.863281 156.59375 88.816406 157.078125 88.851562 C 157.5625 88.886719 158.03125 89 158.476562 89.1875 C 158.925781 89.378906 159.328125 89.636719 159.691406 89.960938 C 160.074219 90.257812 160.398438 90.605469 160.664062 91.011719 C 160.925781 91.414062 161.117188 91.851562 161.234375 92.320312 C 161.351562 92.789062 161.386719 93.265625 161.339844 93.746094 C 161.292969 94.226562 161.171875 94.6875 160.96875 95.125 C 160.777344 95.621094 160.613281 96.125 160.480469 96.636719 C 160.34375 97.148438 160.238281 97.664062 160.160156 98.191406 C 160.082031 98.714844 160.035156 99.242188 160.015625 99.769531 C 159.996094 100.300781 160.007812 100.828125 160.050781 101.359375 C 160.089844 101.886719 160.160156 102.410156 160.257812 102.929688 C 160.359375 103.453125 160.488281 103.964844 160.644531 104.472656 C 160.800781 104.976562 160.984375 105.472656 161.195312 105.957031 C 161.410156 106.445312 161.648438 106.914062 161.914062 107.375 C 162.179688 107.832031 162.46875 108.277344 162.78125 108.703125 C 163.097656 109.128906 163.433594 109.535156 163.796875 109.925781 C 164.15625 110.3125 164.535156 110.679688 164.9375 111.027344 C 165.339844 111.375 165.757812 111.695312 166.195312 111.996094 C 166.632812 112.292969 167.085938 112.566406 167.554688 112.816406 C 168.019531 113.066406 168.5 113.285156 168.996094 113.480469 C 169.488281 113.675781 169.988281 113.84375 170.5 113.980469 C 171.011719 114.121094 171.53125 114.230469 172.054688 114.308594 C 172.488281 114.4375 172.898438 114.625 173.277344 114.871094 C 173.660156 115.117188 174 115.410156 174.296875 115.753906 C 174.59375 116.09375 174.839844 116.472656 175.027344 116.886719 C 175.214844 117.296875 175.34375 117.730469 175.40625 118.179688 C 175.472656 118.628906 175.472656 119.078125 175.40625 119.527344 C 175.34375 119.976562 175.21875 120.40625 175.03125 120.820312 C 174.839844 121.230469 174.597656 121.609375 174.300781 121.953125 C 174.003906 122.296875 173.667969 122.589844 173.285156 122.835938 Z M 128.996094 97.257812 C 128.089844 97.257812 127.1875 97.300781 126.289062 97.390625 C 125.386719 97.480469 124.496094 97.613281 123.605469 97.789062 C 122.71875 97.964844 121.84375 98.183594 120.976562 98.445312 C 120.113281 98.710938 119.261719 99.011719 118.425781 99.359375 C 117.589844 99.707031 116.773438 100.09375 115.976562 100.519531 C 115.179688 100.945312 114.402344 101.410156 113.652344 101.910156 C 112.898438 102.414062 112.175781 102.953125 111.476562 103.527344 C 110.777344 104.101562 110.105469 104.707031 109.46875 105.347656 C 108.828125 105.984375 108.222656 106.65625 107.648438 107.355469 C 107.074219 108.054688 106.535156 108.777344 106.03125 109.53125 C 105.53125 110.28125 105.066406 111.058594 104.640625 111.855469 C 104.214844 112.652344 103.828125 113.46875 103.480469 114.304688 C 103.132812 115.140625 102.832031 115.992188 102.566406 116.855469 C 102.304688 117.722656 102.085938 118.597656 101.910156 119.484375 C 101.734375 120.375 101.601562 121.265625 101.511719 122.167969 C 101.421875 123.066406 101.378906 123.96875 101.378906 124.875 C 101.378906 125.777344 101.421875 126.679688 101.511719 127.582031 C 101.601562 128.480469 101.734375 129.375 101.910156 130.261719 C 102.085938 131.148438 102.304688 132.023438 102.566406 132.890625 C 102.832031 133.757812 103.132812 134.605469 103.480469 135.441406 C 103.828125 136.277344 104.214844 137.09375 104.640625 137.890625 C 105.066406 138.691406 105.53125 139.464844 106.03125 140.214844 C 106.535156 140.96875 107.074219 141.695312 107.648438 142.394531 C 108.222656 143.09375 108.828125 143.761719 109.46875 144.402344 C 110.105469 145.039062 110.777344 145.648438 111.476562 146.222656 C 112.175781 146.796875 112.898438 147.332031 113.652344 147.835938 C 114.402344 148.339844 115.179688 148.804688 115.976562 149.230469 C 116.773438 149.65625 117.589844 150.042969 118.425781 150.386719 C 119.261719 150.734375 120.113281 151.039062 120.976562 151.300781 C 121.84375 151.5625 122.71875 151.78125 123.605469 151.960938 C 124.496094 152.136719 125.386719 152.269531 126.289062 152.355469 C 127.1875 152.445312 128.089844 152.488281 128.996094 152.488281 C 129.898438 152.488281 130.800781 152.445312 131.703125 152.355469 C 132.601562 152.269531 133.496094 152.136719 134.382812 151.960938 C 135.269531 151.78125 136.144531 151.5625 137.011719 151.300781 C 137.878906 151.039062 138.726562 150.734375 139.5625 150.386719 C 140.398438 150.042969 141.214844 149.65625 142.011719 149.230469 C 142.8125 148.804688 143.585938 148.339844 144.335938 147.835938 C 145.089844 147.332031 145.816406 146.796875 146.515625 146.222656 C 147.214844 145.648438 147.882812 145.039062 148.523438 144.402344 C 149.160156 143.761719 149.769531 143.09375 150.34375 142.394531 C 150.917969 141.695312 151.453125 140.96875 151.957031 140.214844 C 152.460938 139.464844 152.925781 138.691406 153.351562 137.890625 C 153.777344 137.09375 154.164062 136.277344 154.507812 135.441406 C 154.855469 134.605469 155.160156 133.757812 155.421875 132.890625 C 155.683594 132.023438 155.902344 131.148438 156.082031 130.261719 C 156.257812 129.375 156.390625 128.480469 156.476562 127.582031 C 156.566406 126.679688 156.609375 125.777344 156.609375 124.875 C 156.609375 123.96875 156.5625 123.066406 156.472656 122.167969 C 156.382812 121.269531 156.25 120.375 156.074219 119.488281 C 155.894531 118.601562 155.675781 117.726562 155.410156 116.863281 C 155.148438 115.996094 154.84375 115.148438 154.496094 114.3125 C 154.148438 113.476562 153.761719 112.660156 153.335938 111.863281 C 152.910156 111.066406 152.445312 110.292969 151.941406 109.542969 C 151.441406 108.789062 150.902344 108.066406 150.328125 107.367188 C 149.753906 106.667969 149.148438 106 148.507812 105.359375 C 147.871094 104.722656 147.199219 104.113281 146.5 103.539062 C 145.804688 102.96875 145.078125 102.429688 144.328125 101.925781 C 143.574219 101.421875 142.800781 100.960938 142.003906 100.53125 C 141.207031 100.105469 140.390625 99.71875 139.554688 99.371094 C 138.722656 99.027344 137.871094 98.71875 137.007812 98.457031 C 136.140625 98.195312 135.265625 97.972656 134.378906 97.796875 C 133.492188 97.617188 132.601562 97.484375 131.699219 97.394531 C 130.800781 97.304688 129.898438 97.257812 128.996094 97.257812 Z M 128.996094 143.015625 C 128.402344 143.015625 127.808594 142.988281 127.214844 142.929688 C 126.625 142.871094 126.039062 142.785156 125.457031 142.667969 C 124.871094 142.550781 124.296875 142.40625 123.726562 142.234375 C 123.160156 142.0625 122.601562 141.863281 122.050781 141.636719 C 121.503906 141.40625 120.964844 141.152344 120.441406 140.875 C 119.917969 140.59375 119.410156 140.289062 118.914062 139.957031 C 118.421875 139.628906 117.945312 139.273438 117.484375 138.898438 C 117.027344 138.519531 116.585938 138.121094 116.167969 137.703125 C 115.746094 137.28125 115.347656 136.84375 114.96875 136.382812 C 114.59375 135.925781 114.238281 135.445312 113.910156 134.953125 C 113.578125 134.460938 113.273438 133.949219 112.996094 133.425781 C 112.714844 132.902344 112.460938 132.367188 112.234375 131.816406 C 112.007812 131.269531 111.804688 130.707031 111.632812 130.140625 C 111.460938 129.570312 111.316406 128.996094 111.199219 128.414062 C 111.085938 127.832031 111 127.242188 110.941406 126.652344 C 110.882812 126.0625 110.851562 125.46875 110.851562 124.875 C 110.851562 124.28125 110.882812 123.6875 110.941406 123.09375 C 111 122.503906 111.085938 121.917969 111.199219 121.335938 C 111.316406 120.75 111.460938 120.175781 111.632812 119.605469 C 111.804688 119.039062 112.007812 118.480469 112.234375 117.929688 C 112.460938 117.382812 112.714844 116.84375 112.996094 116.320312 C 113.273438 115.796875 113.578125 115.289062 113.910156 114.792969 C 114.238281 114.300781 114.59375 113.824219 114.96875 113.363281 C 115.347656 112.90625 115.746094 112.464844 116.167969 112.046875 C 116.585938 111.625 117.027344 111.226562 117.484375 110.847656 C 117.945312 110.472656 118.421875 110.117188 118.914062 109.789062 C 119.410156 109.457031 119.917969 109.152344 120.441406 108.875 C 120.964844 108.59375 121.503906 108.339844 122.050781 108.113281 C 122.601562 107.886719 123.160156 107.683594 123.726562 107.511719 C 124.296875 107.339844 124.871094 107.195312 125.457031 107.078125 C 126.039062 106.964844 126.625 106.878906 127.214844 106.820312 C 127.808594 106.761719 128.402344 106.730469 128.996094 106.730469 C 129.589844 106.730469 130.183594 106.761719 130.773438 106.820312 C 131.363281 106.878906 131.953125 106.964844 132.535156 107.078125 C 133.117188 107.195312 133.691406 107.339844 134.261719 107.511719 C 134.828125 107.683594 135.390625 107.886719 135.9375 108.113281 C 136.488281 108.339844 137.023438 108.59375 137.546875 108.875 C 138.070312 109.152344 138.582031 109.457031 139.074219 109.789062 C 139.566406 110.117188 140.046875 110.472656 140.503906 110.847656 C 140.964844 111.226562 141.402344 111.625 141.824219 112.046875 C 142.242188 112.464844 142.640625 112.90625 143.019531 113.363281 C 143.394531 113.824219 143.75 114.300781 144.078125 114.792969 C 144.410156 115.289062 144.714844 115.796875 144.996094 116.320312 C 145.273438 116.84375 145.527344 117.382812 145.757812 117.929688 C 145.984375 118.480469 146.183594 119.039062 146.355469 119.605469 C 146.527344 120.175781 146.671875 120.75 146.789062 121.335938 C 146.90625 121.917969 146.992188 122.503906 147.050781 123.09375 C 147.109375 123.6875 147.136719 124.28125 147.136719 124.875 C 147.140625 125.46875 147.109375 126.0625 147.054688 126.65625 C 146.996094 127.25 146.910156 127.839844 146.796875 128.421875 C 146.683594 129.007812 146.539062 129.585938 146.367188 130.15625 C 146.195312 130.726562 145.996094 131.289062 145.769531 131.839844 C 145.542969 132.390625 145.292969 132.929688 145.011719 133.453125 C 144.730469 133.980469 144.429688 134.492188 144.097656 134.988281 C 143.769531 135.484375 143.414062 135.960938 143.039062 136.425781 C 142.660156 136.886719 142.261719 137.328125 141.84375 137.75 C 141.421875 138.171875 140.984375 138.574219 140.523438 138.953125 C 140.0625 139.332031 139.585938 139.6875 139.09375 140.019531 C 138.597656 140.351562 138.089844 140.660156 137.5625 140.941406 C 137.039062 141.222656 136.503906 141.480469 135.953125 141.707031 C 135.402344 141.9375 134.84375 142.140625 134.273438 142.3125 C 133.703125 142.488281 133.125 142.632812 132.542969 142.753906 C 131.957031 142.871094 131.371094 142.957031 130.777344 143.019531 C 130.183594 143.078125 129.589844 143.109375 128.996094 143.109375 Z M 308.996094 184.320312 L 273.566406 172.667969 C 271.757812 172.097656 269.910156 171.703125 268.023438 171.484375 L 268.023438 115.164062 C 268.027344 113.269531 267.667969 111.449219 266.945312 109.703125 C 266.222656 107.953125 265.195312 106.410156 263.855469 105.074219 L 212.554688 53.820312 C 211.203125 52.53125 209.660156 51.546875 207.921875 50.863281 C 206.183594 50.183594 204.378906 49.859375 202.511719 49.886719 L 64.335938 49.886719 C 63.402344 49.886719 62.480469 49.980469 61.5625 50.160156 C 60.648438 50.34375 59.761719 50.613281 58.898438 50.96875 C 58.035156 51.328125 57.214844 51.765625 56.441406 52.285156 C 55.664062 52.800781 54.945312 53.390625 54.289062 54.050781 C 53.628906 54.710938 53.039062 55.429688 52.519531 56.203125 C 52 56.980469 51.5625 57.800781 51.207031 58.660156 C 50.851562 59.523438 50.582031 60.410156 50.398438 61.328125 C 50.214844 62.242188 50.125 63.167969 50.125 64.097656 L 50.125 310.417969 C 50.125 311.351562 50.214844 312.277344 50.398438 313.191406 C 50.582031 314.105469 50.851562 314.996094 51.207031 315.855469 C 51.5625 316.71875 52 317.539062 52.519531 318.3125 C 53.039062 319.089844 53.628906 319.808594 54.289062 320.46875 C 54.945312 321.128906 55.664062 321.714844 56.441406 322.234375 C 57.214844 322.753906 58.035156 323.191406 58.898438 323.546875 C 59.761719 323.90625 60.648438 324.175781 61.5625 324.355469 C 62.480469 324.539062 63.402344 324.628906 64.335938 324.628906 L 256.75 324.628906 C 257.035156 324.652344 257.316406 324.652344 257.601562 324.628906 C 259.472656 325.0625 261.367188 325.285156 263.285156 325.292969 C 266.261719 325.300781 269.164062 324.839844 271.992188 323.90625 C 274.820312 322.976562 277.429688 321.621094 279.816406 319.84375 L 305.917969 299.761719 C 307.382812 298.660156 308.78125 297.480469 310.109375 296.21875 C 311.441406 294.957031 312.691406 293.625 313.863281 292.21875 C 315.039062 290.808594 316.128906 289.339844 317.132812 287.808594 C 318.132812 286.273438 319.046875 284.6875 319.867188 283.050781 C 320.683594 281.410156 321.40625 279.730469 322.03125 278.007812 C 322.65625 276.285156 323.179688 274.53125 323.597656 272.75 C 324.019531 270.964844 324.335938 269.164062 324.546875 267.34375 C 324.761719 265.523438 324.867188 263.699219 324.867188 261.867188 L 324.867188 206.207031 C 324.878906 205.007812 324.792969 203.816406 324.617188 202.628906 C 324.4375 201.441406 324.167969 200.277344 323.804688 199.132812 C 323.441406 197.992188 322.992188 196.882812 322.453125 195.8125 C 321.914062 194.742188 321.296875 193.71875 320.59375 192.746094 C 319.894531 191.769531 319.121094 190.859375 318.277344 190.007812 C 317.429688 189.15625 316.523438 188.378906 315.554688 187.671875 C 314.585938 186.964844 313.570312 186.335938 312.5 185.792969 C 311.433594 185.246094 310.328125 184.789062 309.1875 184.417969 Z M 254.949219 109.574219 L 213.3125 109.574219 C 213 109.574219 212.691406 109.542969 212.386719 109.484375 C 212.082031 109.421875 211.785156 109.332031 211.5 109.214844 C 211.210938 109.09375 210.9375 108.949219 210.679688 108.773438 C 210.421875 108.601562 210.183594 108.40625 209.960938 108.1875 C 209.742188 107.964844 209.546875 107.726562 209.375 107.46875 C 209.199219 107.210938 209.054688 106.9375 208.9375 106.648438 C 208.816406 106.363281 208.726562 106.066406 208.667969 105.761719 C 208.605469 105.457031 208.574219 105.148438 208.574219 104.835938 L 208.574219 63.246094 Z M 59.597656 310.417969 L 59.597656 64.097656 C 59.597656 63.789062 59.628906 63.480469 59.691406 63.175781 C 59.75 62.871094 59.839844 62.574219 59.960938 62.285156 C 60.078125 62 60.222656 61.726562 60.398438 61.46875 C 60.570312 61.207031 60.765625 60.96875 60.988281 60.75 C 61.207031 60.53125 61.445312 60.332031 61.703125 60.160156 C 61.964844 59.988281 62.234375 59.84375 62.523438 59.722656 C 62.8125 59.605469 63.105469 59.515625 63.410156 59.453125 C 63.71875 59.390625 64.023438 59.363281 64.335938 59.363281 L 199.101562 59.363281 L 199.101562 104.835938 C 199.101562 105.769531 199.191406 106.695312 199.375 107.609375 C 199.554688 108.523438 199.824219 109.414062 200.183594 110.273438 C 200.539062 111.136719 200.976562 111.957031 201.496094 112.730469 C 202.015625 113.507812 202.605469 114.226562 203.261719 114.886719 C 203.921875 115.546875 204.640625 116.132812 205.417969 116.652344 C 206.191406 117.171875 207.011719 117.609375 207.875 117.964844 C 208.734375 118.324219 209.625 118.59375 210.539062 118.773438 C 211.453125 118.957031 212.378906 119.046875 213.3125 119.046875 L 258.550781 119.046875 L 258.550781 171.484375 C 256.597656 171.71875 254.6875 172.148438 252.816406 172.765625 L 217.386719 184.417969 C 216.246094 184.789062 215.140625 185.246094 214.074219 185.792969 C 213.003906 186.335938 211.984375 186.964844 211.015625 187.671875 C 210.046875 188.378906 209.140625 189.15625 208.296875 190.007812 C 207.453125 190.859375 206.679688 191.769531 205.976562 192.746094 C 205.277344 193.71875 204.65625 194.742188 204.121094 195.8125 C 203.582031 196.882812 203.128906 197.992188 202.769531 199.132812 C 202.40625 200.277344 202.136719 201.441406 201.957031 202.628906 C 201.777344 203.816406 201.695312 205.007812 201.707031 206.207031 L 201.707031 262.054688 C 201.707031 263.886719 201.8125 265.714844 202.023438 267.535156 C 202.238281 269.351562 202.554688 271.15625 202.972656 272.9375 C 203.394531 274.722656 203.917969 276.472656 204.542969 278.195312 C 205.167969 279.917969 205.886719 281.601562 206.707031 283.238281 C 207.527344 284.878906 208.4375 286.464844 209.441406 287.996094 C 210.445312 289.53125 211.535156 291 212.707031 292.40625 C 213.882812 293.8125 215.132812 295.148438 216.460938 296.410156 C 217.792969 297.671875 219.1875 298.851562 220.652344 299.949219 L 240.738281 315.15625 L 64.335938 315.15625 C 64.023438 315.15625 63.71875 315.125 63.410156 315.066406 C 63.105469 315.003906 62.8125 314.914062 62.523438 314.796875 C 62.234375 314.675781 61.964844 314.53125 61.703125 314.355469 C 61.445312 314.183594 61.207031 313.988281 60.988281 313.769531 C 60.765625 313.546875 60.570312 313.308594 60.398438 313.050781 C 60.222656 312.792969 60.078125 312.519531 59.960938 312.230469 C 59.839844 311.945312 59.75 311.648438 59.691406 311.34375 C 59.628906 311.039062 59.597656 310.730469 59.597656 310.417969 Z M 315.390625 262.054688 C 315.382812 264.976562 315.042969 267.859375 314.367188 270.699219 C 313.691406 273.542969 312.699219 276.269531 311.390625 278.882812 C 310.085938 281.496094 308.496094 283.925781 306.628906 286.171875 C 304.761719 288.417969 302.660156 290.421875 300.328125 292.183594 L 274.132812 311.839844 C 273.355469 312.417969 272.535156 312.933594 271.671875 313.378906 C 270.8125 313.828125 269.921875 314.203125 269 314.507812 C 268.078125 314.8125 267.136719 315.042969 266.179688 315.195312 C 265.222656 315.351562 264.257812 315.429688 263.285156 315.429688 C 262.316406 315.429688 261.351562 315.351562 260.394531 315.195312 C 259.433594 315.042969 258.496094 314.8125 257.574219 314.507812 C 256.652344 314.203125 255.761719 313.828125 254.898438 313.378906 C 254.039062 312.933594 253.21875 312.417969 252.4375 311.839844 L 226.242188 292.183594 C 223.910156 290.421875 221.8125 288.417969 219.945312 286.171875 C 218.074219 283.925781 216.488281 281.496094 215.179688 278.882812 C 213.875 276.269531 212.882812 273.542969 212.207031 270.699219 C 211.53125 267.859375 211.191406 264.976562 211.179688 262.054688 L 211.179688 206.207031 C 211.179688 205.511719 211.234375 204.820312 211.34375 204.136719 C 211.453125 203.449219 211.613281 202.777344 211.828125 202.117188 C 212.042969 201.453125 212.308594 200.816406 212.625 200.195312 C 212.9375 199.578125 213.300781 198.988281 213.707031 198.425781 C 214.117188 197.863281 214.566406 197.335938 215.054688 196.84375 C 215.546875 196.351562 216.074219 195.902344 216.632812 195.492188 C 217.195312 195.082031 217.785156 194.722656 218.40625 194.40625 C 219.023438 194.089844 219.664062 193.820312 220.324219 193.605469 L 255.753906 181.953125 C 258.191406 181.089844 260.703125 180.632812 263.285156 180.578125 C 265.84375 180.570312 268.339844 180.964844 270.769531 181.765625 L 306.25 193.417969 C 306.917969 193.636719 307.566406 193.90625 308.191406 194.226562 C 308.816406 194.546875 309.410156 194.914062 309.976562 195.332031 C 310.542969 195.746094 311.074219 196.203125 311.566406 196.703125 C 312.0625 197.203125 312.511719 197.738281 312.921875 198.3125 C 313.328125 198.882812 313.691406 199.484375 314.003906 200.113281 C 314.316406 200.742188 314.578125 201.390625 314.789062 202.0625 C 314.996094 202.730469 315.152344 203.414062 315.253906 204.109375 C 315.355469 204.804688 315.402344 205.503906 315.390625 206.207031 Z M 282.660156 233.253906 C 282.878906 233.472656 283.074219 233.714844 283.246094 233.972656 C 283.417969 234.230469 283.5625 234.5 283.679688 234.789062 C 283.796875 235.074219 283.886719 235.371094 283.949219 235.671875 C 284.007812 235.976562 284.039062 236.285156 284.039062 236.59375 C 284.039062 236.902344 284.007812 237.210938 283.949219 237.515625 C 283.886719 237.820312 283.796875 238.113281 283.679688 238.398438 C 283.5625 238.6875 283.417969 238.957031 283.246094 239.21875 C 283.074219 239.476562 282.878906 239.714844 282.660156 239.933594 L 266.316406 256.277344 C 265.796875 256.792969 265.226562 257.257812 264.613281 257.664062 C 264 258.070312 263.355469 258.414062 262.671875 258.691406 C 261.992188 258.972656 261.292969 259.183594 260.570312 259.328125 C 259.847656 259.46875 259.121094 259.539062 258.382812 259.539062 C 257.648438 259.539062 256.917969 259.46875 256.199219 259.328125 C 255.476562 259.183594 254.773438 258.972656 254.09375 258.691406 C 253.414062 258.414062 252.765625 258.070312 252.152344 257.664062 C 251.539062 257.257812 250.972656 256.792969 250.449219 256.277344 L 242.113281 247.9375 C 241.894531 247.71875 241.699219 247.480469 241.527344 247.222656 C 241.355469 246.964844 241.210938 246.691406 241.09375 246.40625 C 240.976562 246.117188 240.886719 245.824219 240.824219 245.519531 C 240.765625 245.214844 240.734375 244.910156 240.734375 244.597656 C 240.734375 244.289062 240.765625 243.984375 240.824219 243.679688 C 240.886719 243.375 240.976562 243.078125 241.09375 242.792969 C 241.210938 242.507812 241.355469 242.234375 241.527344 241.976562 C 241.699219 241.71875 241.894531 241.480469 242.113281 241.261719 C 242.332031 241.042969 242.570312 240.847656 242.828125 240.675781 C 243.085938 240.503906 243.359375 240.359375 243.644531 240.242188 C 243.933594 240.121094 244.226562 240.03125 244.53125 239.972656 C 244.835938 239.914062 245.140625 239.882812 245.453125 239.882812 C 245.761719 239.882812 246.070312 239.914062 246.371094 239.972656 C 246.675781 240.03125 246.972656 240.121094 247.257812 240.242188 C 247.542969 240.359375 247.816406 240.503906 248.074219 240.675781 C 248.332031 240.847656 248.570312 241.042969 248.792969 241.261719 L 257.175781 249.597656 C 257.335938 249.757812 257.519531 249.882812 257.730469 249.96875 C 257.9375 250.054688 258.15625 250.097656 258.382812 250.097656 C 258.609375 250.097656 258.828125 250.054688 259.039062 249.96875 C 259.246094 249.882812 259.433594 249.757812 259.589844 249.597656 L 275.933594 233.253906 C 276.152344 233.03125 276.394531 232.835938 276.652344 232.660156 C 276.914062 232.484375 277.1875 232.335938 277.476562 232.21875 C 277.765625 232.097656 278.0625 232.007812 278.367188 231.945312 C 278.675781 231.882812 278.984375 231.851562 279.296875 231.851562 C 279.609375 231.851562 279.917969 231.882812 280.226562 231.945312 C 280.53125 232.007812 280.832031 232.097656 281.117188 232.21875 C 281.40625 232.335938 281.679688 232.484375 281.941406 232.660156 C 282.199219 232.835938 282.441406 233.03125 282.660156 233.253906 Z M 294.40625 204.121094 L 270.722656 196.355469 C 268.292969 195.542969 265.800781 195.140625 263.238281 195.140625 C 260.679688 195.140625 258.183594 195.542969 255.753906 196.355469 L 232.070312 204.121094 C 231.242188 204.398438 230.4375 204.738281 229.660156 205.136719 C 228.886719 205.539062 228.144531 206 227.441406 206.519531 C 226.738281 207.039062 226.078125 207.605469 225.464844 208.230469 C 224.851562 208.851562 224.289062 209.515625 223.777344 210.226562 C 223.269531 210.9375 222.820312 211.683594 222.425781 212.464844 C 222.035156 213.246094 221.707031 214.054688 221.441406 214.886719 C 221.175781 215.71875 220.976562 216.566406 220.84375 217.429688 C 220.710938 218.296875 220.648438 219.164062 220.652344 220.039062 L 220.652344 257.367188 C 220.664062 259.925781 220.964844 262.449219 221.554688 264.941406 C 222.148438 267.429688 223.019531 269.820312 224.164062 272.109375 C 225.3125 274.398438 226.703125 276.523438 228.34375 278.492188 C 229.984375 280.457031 231.824219 282.210938 233.871094 283.75 L 251.300781 296.871094 C 252.160156 297.511719 253.066406 298.082031 254.019531 298.578125 C 254.96875 299.074219 255.953125 299.492188 256.972656 299.828125 C 257.992188 300.167969 259.03125 300.421875 260.089844 300.59375 C 261.148438 300.765625 262.214844 300.851562 263.285156 300.851562 C 264.359375 300.851562 265.425781 300.765625 266.484375 300.59375 C 267.542969 300.421875 268.582031 300.167969 269.601562 299.828125 C 270.617188 299.492188 271.601562 299.074219 272.554688 298.578125 C 273.503906 298.082031 274.410156 297.511719 275.269531 296.871094 L 292.703125 283.75 C 294.746094 282.210938 296.589844 280.457031 298.230469 278.492188 C 299.867188 276.523438 301.261719 274.398438 302.40625 272.109375 C 303.554688 269.820312 304.421875 267.429688 305.015625 264.941406 C 305.609375 262.449219 305.910156 259.925781 305.917969 257.367188 L 305.917969 220.039062 C 305.921875 219.160156 305.855469 218.289062 305.722656 217.421875 C 305.585938 216.554688 305.386719 215.707031 305.117188 214.871094 C 304.847656 214.035156 304.515625 213.226562 304.121094 212.445312 C 303.726562 211.664062 303.269531 210.917969 302.753906 210.207031 C 302.242188 209.496094 301.675781 208.828125 301.054688 208.207031 C 300.4375 207.585938 299.773438 207.019531 299.066406 206.5 C 298.355469 205.984375 297.609375 205.527344 296.832031 205.128906 C 296.050781 204.730469 295.242188 204.394531 294.40625 204.121094 Z M 296.445312 257.367188 C 296.445312 259.203125 296.234375 261.019531 295.8125 262.808594 C 295.390625 264.597656 294.765625 266.3125 293.945312 267.957031 C 293.121094 269.601562 292.121094 271.128906 290.945312 272.542969 C 289.765625 273.953125 288.441406 275.210938 286.972656 276.3125 L 269.539062 289.433594 C 269.085938 289.765625 268.609375 290.0625 268.105469 290.320312 C 267.605469 290.574219 267.089844 290.792969 266.554688 290.96875 C 266.019531 291.140625 265.472656 291.273438 264.917969 291.363281 C 264.363281 291.453125 263.800781 291.496094 263.238281 291.496094 C 262.675781 291.496094 262.117188 291.453125 261.5625 291.363281 C 261.003906 291.273438 260.460938 291.140625 259.925781 290.96875 C 259.390625 290.792969 258.871094 290.574219 258.371094 290.320312 C 257.871094 290.0625 257.394531 289.765625 256.9375 289.433594 L 239.601562 276.171875 C 238.132812 275.066406 236.808594 273.808594 235.628906 272.398438 C 234.449219 270.988281 233.449219 269.460938 232.628906 267.816406 C 231.804688 266.171875 231.183594 264.453125 230.761719 262.664062 C 230.339844 260.875 230.128906 259.0625 230.128906 257.222656 L 230.128906 220.039062 C 230.121094 219.269531 230.238281 218.519531 230.472656 217.785156 C 230.707031 217.054688 231.050781 216.378906 231.5 215.753906 C 231.953125 215.132812 232.492188 214.597656 233.113281 214.148438 C 233.738281 213.695312 234.417969 213.355469 235.148438 213.121094 L 258.832031 205.355469 C 260.371094 204.839844 261.949219 204.585938 263.570312 204.597656 C 265.191406 204.582031 266.769531 204.835938 268.308594 205.355469 L 291.992188 213.121094 C 292.671875 213.402344 293.292969 213.777344 293.859375 214.25 C 294.425781 214.71875 294.90625 215.265625 295.304688 215.882812 C 295.703125 216.5 295.996094 217.164062 296.191406 217.871094 C 296.386719 218.582031 296.472656 219.304688 296.445312 220.039062 Z M 178.023438 263.050781 C 178.023438 263.359375 177.992188 263.667969 177.929688 263.972656 C 177.871094 264.277344 177.78125 264.574219 177.660156 264.863281 C 177.542969 265.148438 177.394531 265.421875 177.222656 265.679688 C 177.050781 265.941406 176.855469 266.179688 176.632812 266.398438 C 176.414062 266.617188 176.175781 266.816406 175.917969 266.988281 C 175.65625 267.160156 175.386719 267.308594 175.097656 267.425781 C 174.808594 267.546875 174.515625 267.636719 174.210938 267.695312 C 173.902344 267.757812 173.597656 267.785156 173.285156 267.785156 L 78.546875 267.785156 C 78.234375 267.785156 77.925781 267.757812 77.621094 267.695312 C 77.316406 267.636719 77.019531 267.546875 76.734375 267.425781 C 76.445312 267.308594 76.171875 267.160156 75.914062 266.988281 C 75.65625 266.816406 75.417969 266.617188 75.195312 266.398438 C 74.976562 266.179688 74.78125 265.941406 74.609375 265.679688 C 74.433594 265.421875 74.289062 265.148438 74.171875 264.863281 C 74.050781 264.574219 73.960938 264.277344 73.902344 263.972656 C 73.839844 263.667969 73.808594 263.359375 73.808594 263.050781 C 73.808594 262.738281 73.839844 262.429688 73.902344 262.125 C 73.960938 261.820312 74.050781 261.523438 74.171875 261.238281 C 74.289062 260.949219 74.433594 260.675781 74.609375 260.417969 C 74.78125 260.160156 74.976562 259.921875 75.195312 259.699219 C 75.417969 259.480469 75.65625 259.285156 75.914062 259.109375 C 76.171875 258.9375 76.445312 258.792969 76.734375 258.671875 C 77.019531 258.554688 77.316406 258.464844 77.621094 258.402344 C 77.925781 258.34375 78.234375 258.3125 78.546875 258.3125 L 173.285156 258.3125 C 173.597656 258.3125 173.902344 258.34375 174.210938 258.402344 C 174.515625 258.464844 174.808594 258.554688 175.097656 258.671875 C 175.386719 258.792969 175.65625 258.9375 175.917969 259.109375 C 176.175781 259.285156 176.414062 259.480469 176.632812 259.699219 C 176.855469 259.921875 177.050781 260.160156 177.222656 260.417969 C 177.394531 260.675781 177.542969 260.949219 177.660156 261.238281 C 177.78125 261.523438 177.871094 261.820312 177.929688 262.125 C 177.992188 262.429688 178.023438 262.738281 178.023438 263.050781 Z M 178.023438 281.996094 C 178.023438 282.308594 177.992188 282.617188 177.929688 282.921875 C 177.871094 283.226562 177.78125 283.523438 177.660156 283.808594 C 177.542969 284.097656 177.394531 284.371094 177.222656 284.628906 C 177.050781 284.886719 176.855469 285.125 176.632812 285.347656 C 176.414062 285.566406 176.175781 285.761719 175.917969 285.9375 C 175.65625 286.109375 175.386719 286.253906 175.097656 286.375 C 174.808594 286.492188 174.515625 286.582031 174.210938 286.644531 C 173.902344 286.703125 173.597656 286.734375 173.285156 286.734375 L 78.546875 286.734375 C 78.234375 286.734375 77.925781 286.703125 77.621094 286.644531 C 77.316406 286.582031 77.019531 286.492188 76.734375 286.375 C 76.445312 286.253906 76.171875 286.109375 75.914062 285.9375 C 75.65625 285.761719 75.417969 285.566406 75.195312 285.347656 C 74.976562 285.125 74.78125 284.886719 74.609375 284.628906 C 74.433594 284.371094 74.289062 284.097656 74.171875 283.808594 C 74.050781 283.523438 73.960938 283.226562 73.902344 282.921875 C 73.839844 282.617188 73.808594 282.308594 73.808594 281.996094 C 73.808594 281.6875 73.839844 281.378906 73.902344 281.074219 C 73.960938 280.769531 74.050781 280.472656 74.171875 280.183594 C 74.289062 279.898438 74.433594 279.625 74.609375 279.367188 C 74.78125 279.105469 74.976562 278.867188 75.195312 278.648438 C 75.417969 278.429688 75.65625 278.230469 75.914062 278.058594 C 76.171875 277.886719 76.445312 277.738281 76.734375 277.621094 C 77.019531 277.5 77.316406 277.410156 77.621094 277.351562 C 77.925781 277.289062 78.234375 277.261719 78.546875 277.261719 L 173.285156 277.261719 C 173.597656 277.261719 173.902344 277.289062 174.210938 277.351562 C 174.515625 277.410156 174.808594 277.5 175.097656 277.621094 C 175.386719 277.738281 175.65625 277.886719 175.917969 278.058594 C 176.175781 278.230469 176.414062 278.429688 176.632812 278.648438 C 176.855469 278.867188 177.050781 279.105469 177.222656 279.367188 C 177.394531 279.625 177.542969 279.898438 177.660156 280.183594 C 177.78125 280.472656 177.871094 280.769531 177.929688 281.074219 C 177.992188 281.378906 178.023438 281.6875 178.023438 281.996094 Z M 178.023438 300.945312 C 178.023438 301.257812 177.992188 301.5625 177.929688 301.867188 C 177.871094 302.175781 177.78125 302.46875 177.660156 302.757812 C 177.542969 303.046875 177.394531 303.316406 177.222656 303.578125 C 177.050781 303.835938 176.855469 304.074219 176.632812 304.292969 C 176.414062 304.515625 176.175781 304.710938 175.917969 304.882812 C 175.65625 305.054688 175.386719 305.203125 175.097656 305.320312 C 174.808594 305.441406 174.515625 305.53125 174.210938 305.589844 C 173.902344 305.652344 173.597656 305.683594 173.285156 305.683594 L 78.546875 305.683594 C 78.234375 305.683594 77.925781 305.652344 77.621094 305.589844 C 77.316406 305.53125 77.019531 305.441406 76.734375 305.320312 C 76.445312 305.203125 76.171875 305.054688 75.914062 304.882812 C 75.65625 304.710938 75.417969 304.515625 75.195312 304.292969 C 74.976562 304.074219 74.78125 303.835938 74.609375 303.578125 C 74.433594 303.316406 74.289062 303.046875 74.171875 302.757812 C 74.050781 302.46875 73.960938 302.175781 73.902344 301.867188 C 73.839844 301.5625 73.808594 301.257812 73.808594 300.945312 C 73.808594 300.632812 73.839844 300.324219 73.902344 300.019531 C 73.960938 299.714844 74.050781 299.417969 74.171875 299.132812 C 74.289062 298.84375 74.433594 298.570312 74.609375 298.3125 C 74.78125 298.054688 74.976562 297.816406 75.195312 297.59375 C 75.417969 297.375 75.65625 297.179688 75.914062 297.007812 C 76.171875 296.832031 76.445312 296.6875 76.734375 296.570312 C 77.019531 296.449219 77.316406 296.359375 77.621094 296.300781 C 77.925781 296.238281 78.234375 296.207031 78.546875 296.207031 L 173.285156 296.207031 C 173.597656 296.207031 173.902344 296.238281 174.210938 296.300781 C 174.515625 296.359375 174.808594 296.449219 175.097656 296.570312 C 175.386719 296.6875 175.65625 296.832031 175.917969 297.007812 C 176.175781 297.179688 176.414062 297.375 176.632812 297.59375 C 176.855469 297.816406 177.050781 298.054688 177.222656 298.3125 C 177.394531 298.570312 177.542969 298.84375 177.660156 299.132812 C 177.78125 299.417969 177.871094 299.714844 177.929688 300.019531 C 177.992188 300.324219 178.023438 300.632812 178.023438 300.945312 Z M 178.023438 300.945312 " fill-opacity="1" fill-rule="nonzero"/></g></svg>