<svg xmlns="http://www.w3.org/2000/svg" xmlns:xlink="http://www.w3.org/1999/xlink" width="500" zoomAndPan="magnify" viewBox="0 0 375 374.999991" height="500" preserveAspectRatio="xMidYMid meet" version="1.0"><defs><linearGradient id="whyChooseSunset" x1="0%" y1="0%" x2="100%" y2="100%"><stop offset="0%" stop-color="#fcd34d"/><stop offset="50%" stop-color="#fb923c"/><stop offset="100%" stop-color="#f43f5e"/></linearGradient><clipPath id="d74849b45e"><path d="M 46.132812 51 L 328.882812 51 L 328.882812 324.507812 L 46.132812 324.507812 Z M 46.132812 51 " clip-rule="nonzero"/></clipPath></defs><g clip-path="url(#d74849b45e)"><path fill="url(#whyChooseSunset)" d="M 321.175781 156.242188 C 322.976562 157.972656 325.847656 157.925781 327.578125 156.117188 C 328.417969 155.238281 328.84375 154.109375 328.859375 152.976562 L 328.859375 127.21875 C 328.859375 125.8125 328.214844 124.554688 327.210938 123.722656 L 253.375 52.453125 C 251.617188 50.765625 248.839844 50.769531 247.09375 52.453125 L 232.859375 66.195312 L 129.414062 66.195312 C 128.199219 66.195312 127.097656 66.675781 126.277344 67.453125 L 80.453125 104.644531 C 78.515625 106.222656 78.21875 109.078125 79.796875 111.011719 C 80.6875 112.109375 81.996094 112.679688 83.308594 112.703125 L 103.128906 112.703125 L 103.128906 177.503906 L 58.710938 213.550781 C 56.777344 215.128906 56.480469 217.984375 58.054688 219.917969 C 58.945312 221.015625 60.253906 221.585938 61.566406 221.609375 L 81.074219 221.609375 L 81.074219 315.113281 L 50.675781 315.113281 C 48.167969 315.113281 46.132812 317.148438 46.132812 319.660156 C 46.132812 322.167969 48.167969 324.203125 50.675781 324.203125 L 217.273438 324.203125 C 217.292969 324.203125 217.316406 324.203125 217.328125 324.203125 L 283.132812 324.203125 C 283.15625 324.203125 283.175781 324.203125 283.191406 324.203125 L 324.296875 324.203125 C 326.808594 324.203125 328.84375 322.167969 328.84375 319.660156 C 328.84375 317.148438 326.808594 315.113281 324.296875 315.113281 L 305.121094 315.113281 L 305.121094 140.761719 Z M 250.238281 62.015625 L 319.769531 129.128906 L 319.769531 142.296875 L 303.929688 127.007812 C 303.792969 126.867188 303.660156 126.734375 303.511719 126.605469 L 253.375 78.21875 C 251.628906 76.535156 248.851562 76.527344 247.09375 78.21875 L 196.957031 126.613281 C 196.808594 126.734375 196.675781 126.867188 196.546875 127.007812 L 180.707031 142.296875 L 180.707031 129.136719 L 198.867188 111.605469 C 199.015625 111.480469 199.164062 111.339844 199.296875 111.191406 Z M 131.003906 75.285156 L 223.441406 75.285156 L 194.097656 103.613281 L 96.097656 103.613281 Z M 184.679688 112.703125 L 173.027344 123.957031 C 172.101562 124.84375 171.632812 126.03125 171.621094 127.21875 L 171.621094 152.976562 C 171.621094 155.484375 173.65625 157.523438 176.164062 157.523438 C 177.515625 157.523438 178.722656 156.933594 179.558594 156.003906 L 195.339844 140.769531 L 195.339844 175.113281 L 112.21875 175.113281 L 112.21875 164.660156 L 142.753906 164.660156 C 145.261719 164.660156 147.296875 162.625 147.296875 160.117188 L 147.296875 127.707031 C 147.296875 125.199219 145.261719 123.164062 142.753906 123.164062 L 112.21875 123.164062 L 112.21875 112.703125 Z M 112.21875 132.246094 L 138.207031 132.246094 L 138.207031 155.5625 L 112.21875 155.5625 Z M 74.359375 212.527344 L 109.265625 184.195312 L 195.339844 184.195312 L 195.339844 212.527344 Z M 90.171875 315.113281 L 90.171875 221.617188 L 195.339844 221.617188 L 195.339844 315.113281 Z M 270.269531 240.296875 L 270.269531 240.316406 C 274.582031 244.628906 277.515625 250.320312 278.347656 256.636719 L 254.785156 256.636719 L 254.785156 232.351562 C 260.777344 233.320312 266.15625 236.183594 270.269531 240.296875 Z M 254.785156 315.113281 L 254.785156 265.722656 L 278.601562 265.722656 L 278.601562 315.113281 Z M 245.695312 256.632812 L 222.128906 256.632812 C 222.960938 250.304688 225.894531 244.617188 230.207031 240.3125 C 234.328125 236.191406 239.707031 233.320312 245.695312 232.34375 Z M 221.875 265.722656 L 245.695312 265.722656 L 245.695312 315.113281 L 221.875 315.113281 Z M 296.046875 315.113281 L 287.691406 315.113281 L 287.691406 261.175781 C 287.691406 261.035156 287.683594 260.894531 287.671875 260.757812 C 287.683594 260.625 287.691406 260.484375 287.691406 260.347656 C 287.691406 250.042969 283.480469 240.679688 276.6875 233.898438 C 269.894531 227.109375 260.53125 222.894531 250.246094 222.894531 C 239.941406 222.894531 230.574219 227.109375 223.789062 233.894531 L 223.789062 233.914062 C 217.003906 240.699219 212.792969 250.058594 212.792969 260.355469 C 212.792969 260.496094 212.796875 260.632812 212.8125 260.773438 C 212.796875 260.90625 212.792969 261.050781 212.792969 261.191406 L 212.792969 315.128906 L 204.429688 315.128906 L 204.429688 132 L 250.238281 87.78125 L 296.046875 132 Z M 222.546875 131.554688 L 222.546875 180.464844 L 217.328125 180.464844 C 214.820312 180.464844 212.785156 182.5 212.785156 185.011719 L 212.785156 203.71875 C 212.785156 206.226562 214.820312 208.265625 217.328125 208.265625 L 283.148438 208.265625 C 285.65625 208.265625 287.691406 206.226562 287.691406 203.71875 L 287.691406 185.011719 C 287.691406 182.5 285.65625 180.464844 283.148438 180.464844 L 277.929688 180.464844 L 277.929688 131.554688 C 277.929688 129.042969 275.894531 127.007812 273.386719 127.007812 L 227.089844 127.007812 C 224.582031 127.007812 222.546875 129.042969 222.546875 131.554688 Z M 278.601562 199.167969 L 221.875 199.167969 L 221.875 189.546875 L 278.601562 189.546875 Z M 268.839844 180.464844 L 254.785156 180.464844 L 254.785156 136.097656 L 268.84375 136.097656 L 268.84375 180.464844 Z M 231.636719 136.097656 L 245.695312 136.097656 L 245.695312 180.464844 L 231.636719 180.464844 Z M 173.160156 240.269531 L 112.34375 240.269531 C 109.835938 240.269531 107.800781 242.304688 107.800781 244.8125 L 107.800781 292.253906 C 107.800781 294.765625 109.835938 296.800781 112.34375 296.800781 L 173.160156 296.800781 C 175.667969 296.800781 177.703125 294.765625 177.703125 292.253906 L 177.703125 244.8125 C 177.703125 242.304688 175.667969 240.269531 173.160156 240.269531 Z M 116.890625 249.359375 L 138.207031 249.359375 L 138.207031 287.710938 L 116.890625 287.710938 Z M 168.613281 287.710938 L 147.296875 287.710938 L 147.296875 249.359375 L 168.613281 249.359375 Z M 168.613281 287.710938 " fill-opacity="1" fill-rule="nonzero"/></g></svg>