<svg xmlns="http://www.w3.org/2000/svg" xmlns:xlink="http://www.w3.org/1999/xlink" width="500" zoomAndPan="magnify" viewBox="0 0 375 374.999991" height="500" preserveAspectRatio="xMidYMid meet" version="1.0"><defs><linearGradient id="serviceSunset" x1="0%" y1="0%" x2="100%" y2="100%"><stop offset="0%" stop-color="#fcd34d"/><stop offset="50%" stop-color="#fb923c"/><stop offset="100%" stop-color="#f43f5e"/></linearGradient><clipPath id="7701f2d684"><path d="M 61.253906 44.445312 L 314 44.445312 L 314 330.195312 L 61.253906 330.195312 Z M 61.253906 44.445312 " clip-rule="nonzero"/></clipPath></defs><g clip-path="url(#7701f2d684)"><path fill="url(#serviceSunset)" d="M 285.550781 314.050781 L 285.550781 67.320312 L 292.675781 67.320312 L 292.675781 44.445312 L 81.941406 44.445312 L 81.941406 67.320312 L 89.066406 67.320312 L 89.066406 314.425781 L 61.691406 314.425781 L 61.691406 330.546875 L 162.558594 330.546875 L 162.558594 248.054688 L 212.429688 248.054688 L 212.429688 330.546875 L 313.296875 330.546875 L 313.296875 314.425781 L 285.550781 314.425781 Z M 143.4375 224.058594 L 116.8125 224.058594 L 116.8125 197.433594 L 143.4375 197.433594 Z M 143.4375 166.6875 L 116.8125 166.6875 L 116.8125 140.0625 L 143.4375 140.0625 Z M 143.4375 109.316406 L 116.8125 109.316406 L 116.8125 82.316406 L 143.4375 82.316406 Z M 200.808594 224.058594 L 174.183594 224.058594 L 174.183594 197.433594 L 200.808594 197.433594 C 200.808594 197.433594 200.808594 224.058594 200.808594 224.058594 Z M 200.808594 166.6875 L 174.183594 166.6875 L 174.183594 140.0625 L 200.808594 140.0625 C 200.808594 140.0625 200.808594 166.6875 200.808594 166.6875 Z M 200.808594 109.316406 L 174.183594 109.316406 L 174.183594 82.316406 L 200.808594 82.316406 C 200.808594 82.316406 200.808594 109.316406 200.808594 109.316406 Z M 258.175781 224.058594 L 231.179688 224.058594 L 231.179688 197.433594 L 258.175781 197.433594 Z M 258.175781 166.6875 L 231.179688 166.6875 L 231.179688 140.0625 L 258.175781 140.0625 Z M 258.175781 109.316406 L 231.179688 109.316406 L 231.179688 82.316406 L 258.175781 82.316406 Z M 258.175781 109.316406 " fill-opacity="1" fill-rule="nonzero"/></g></svg>