<svg xmlns="http://www.w3.org/2000/svg" xmlns:xlink="http://www.w3.org/1999/xlink" width="500" zoomAndPan="magnify" viewBox="0 0 375 374.999991" height="500" preserveAspectRatio="xMidYMid meet" version="1.0"><defs><clipPath id="9da5dbe661"><path d="M 12.078125 175 L 190 175 L 190 305 L 12.078125 305 Z M 12.078125 175 " clip-rule="nonzero"/></clipPath><clipPath id="1afb64ddf0"><path d="M 165 210 L 363.078125 210 L 363.078125 340 L 165 340 Z M 165 210 " clip-rule="nonzero"/></clipPath></defs><g clip-path="url(#9da5dbe661)"><path fill="#0e5a36" d="M 189.34375 202.246094 C 182.351562 191.542969 173.578125 182.535156 163 175.75 C 161.527344 174.796875 159.597656 174.941406 158.1875 175.980469 C 144.957031 185.667969 128.652344 191.394531 111.019531 191.394531 C 93.371094 191.394531 77.066406 185.667969 63.832031 175.980469 C 62.402344 174.941406 60.496094 174.796875 59 175.75 C 27.699219 195.898438 12.125 235.363281 12.125 280.71875 C 12.125 300.035156 87.292969 307.460938 144.933594 302.9375 C 147.570312 260.195312 163.3125 224.632812 189.34375 202.246094 Z M 189.34375 202.246094 " fill-opacity="1" fill-rule="nonzero"/></g><path fill="#0e5a36" d="M 152.773438 69.625 C 154.140625 70.996094 155.4375 72.425781 156.664062 73.921875 C 157.894531 75.417969 159.042969 76.972656 160.117188 78.578125 C 161.195312 80.1875 162.1875 81.847656 163.097656 83.554688 C 164.011719 85.257812 164.835938 87.007812 165.578125 88.792969 C 166.316406 90.582031 166.96875 92.402344 167.53125 94.253906 C 168.089844 96.105469 168.5625 97.980469 168.9375 99.878906 C 169.316406 101.777344 169.597656 103.6875 169.789062 105.613281 C 169.976562 107.539062 170.074219 109.46875 170.074219 111.402344 C 170.074219 113.339844 169.976562 115.269531 169.789062 117.195312 C 169.597656 119.121094 169.316406 121.03125 168.9375 122.929688 C 168.558594 124.828125 168.089844 126.703125 167.53125 128.554688 C 166.96875 130.40625 166.316406 132.226562 165.578125 134.015625 C 164.835938 135.800781 164.011719 137.546875 163.097656 139.253906 C 162.1875 140.960938 161.195312 142.621094 160.117188 144.226562 C 159.042969 145.835938 157.894531 147.390625 156.664062 148.886719 C 155.4375 150.382812 154.140625 151.8125 152.773438 153.179688 C 151.40625 154.550781 149.972656 155.847656 148.480469 157.074219 C 146.984375 158.304688 145.429688 159.453125 143.824219 160.527344 C 142.214844 161.605469 140.558594 162.597656 138.851562 163.511719 C 137.144531 164.421875 135.398438 165.25 133.613281 165.988281 C 131.824219 166.730469 130.003906 167.378906 128.152344 167.941406 C 126.304688 168.503906 124.429688 168.972656 122.53125 169.351562 C 120.632812 169.730469 118.722656 170.011719 116.796875 170.203125 C 114.871094 170.390625 112.941406 170.488281 111.007812 170.488281 C 109.074219 170.488281 107.144531 170.390625 105.21875 170.203125 C 103.292969 170.011719 101.382812 169.730469 99.484375 169.351562 C 97.589844 168.972656 95.714844 168.503906 93.863281 167.941406 C 92.011719 167.378906 90.191406 166.730469 88.40625 165.988281 C 86.617188 165.25 84.871094 164.421875 83.164062 163.511719 C 81.460938 162.597656 79.800781 161.605469 78.195312 160.527344 C 76.585938 159.453125 75.035156 158.304688 73.539062 157.074219 C 72.042969 155.847656 70.613281 154.550781 69.242188 153.179688 C 67.875 151.8125 66.578125 150.382812 65.351562 148.886719 C 64.125 147.390625 62.972656 145.835938 61.898438 144.226562 C 60.824219 142.621094 59.832031 140.960938 58.917969 139.253906 C 58.007812 137.546875 57.179688 135.800781 56.441406 134.015625 C 55.699219 132.226562 55.050781 130.40625 54.488281 128.554688 C 53.925781 126.703125 53.457031 124.828125 53.078125 122.929688 C 52.703125 121.03125 52.417969 119.121094 52.230469 117.195312 C 52.039062 115.269531 51.945312 113.339844 51.945312 111.402344 C 51.945312 109.46875 52.039062 107.539062 52.230469 105.613281 C 52.417969 103.6875 52.703125 101.777344 53.078125 99.878906 C 53.457031 97.980469 53.925781 96.105469 54.488281 94.253906 C 55.050781 92.402344 55.699219 90.582031 56.441406 88.792969 C 57.179688 87.007812 58.007812 85.257812 58.917969 83.554688 C 59.832031 81.847656 60.824219 80.1875 61.898438 78.578125 C 62.972656 76.972656 64.125 75.417969 65.351562 73.921875 C 66.578125 72.425781 67.875 70.996094 69.242188 69.625 C 70.613281 68.257812 72.042969 66.960938 73.539062 65.734375 C 75.035156 64.503906 76.585938 63.355469 78.195312 62.277344 C 79.800781 61.203125 81.460938 60.210938 83.164062 59.296875 C 84.871094 58.386719 86.617188 57.558594 88.40625 56.820312 C 90.191406 56.078125 92.011719 55.429688 93.863281 54.867188 C 95.714844 54.304688 97.589844 53.835938 99.484375 53.457031 C 101.382812 53.078125 103.292969 52.796875 105.21875 52.605469 C 107.144531 52.417969 109.074219 52.320312 111.007812 52.320312 C 112.941406 52.320312 114.871094 52.417969 116.796875 52.605469 C 118.722656 52.796875 120.632812 53.078125 122.53125 53.457031 C 124.429688 53.835938 126.304688 54.304688 128.152344 54.867188 C 130.003906 55.429688 131.824219 56.078125 133.613281 56.820312 C 135.398438 57.558594 137.144531 58.386719 138.851562 59.296875 C 140.558594 60.210938 142.214844 61.203125 143.824219 62.277344 C 145.429688 63.355469 146.984375 64.503906 148.480469 65.734375 C 149.972656 66.960938 151.40625 68.257812 152.773438 69.625 Z M 152.773438 69.625 " fill-opacity="1" fill-rule="nonzero"/><g clip-path="url(#1afb64ddf0)"><path fill="#0e5a36" d="M 316.148438 211.015625 C 314.667969 210.0625 312.75 210.207031 311.324219 211.25 C 298.105469 220.933594 281.785156 226.667969 264.164062 226.667969 C 246.515625 226.667969 230.214844 220.933594 216.976562 211.246094 C 215.554688 210.203125 213.636719 210.0625 212.15625 211.015625 C 180.839844 231.167969 165.269531 270.625 165.269531 315.996094 C 165.269531 347.339844 363.035156 347.339844 363.035156 315.996094 C 363.035156 270.625 347.464844 231.167969 316.148438 211.015625 Z M 316.148438 211.015625 " fill-opacity="1" fill-rule="nonzero"/></g><path fill="#0e5a36" d="M 323.214844 146.675781 C 323.214844 148.609375 323.121094 150.542969 322.933594 152.46875 C 322.742188 154.390625 322.460938 156.304688 322.082031 158.203125 C 321.703125 160.101562 321.234375 161.976562 320.671875 163.828125 C 320.113281 165.679688 319.460938 167.496094 318.722656 169.285156 C 317.980469 171.074219 317.15625 172.820312 316.242188 174.527344 C 315.332031 176.234375 314.335938 177.890625 313.261719 179.5 C 312.1875 181.109375 311.035156 182.660156 309.808594 184.15625 C 308.582031 185.652344 307.285156 187.085938 305.917969 188.453125 C 304.550781 189.820312 303.117188 191.117188 301.621094 192.347656 C 300.128906 193.574219 298.574219 194.726562 296.96875 195.800781 C 295.359375 196.875 293.703125 197.871094 291.996094 198.78125 C 290.289062 199.695312 288.542969 200.519531 286.753906 201.261719 C 284.96875 202 283.148438 202.652344 281.296875 203.214844 C 279.445312 203.773438 277.574219 204.246094 275.675781 204.621094 C 273.777344 205 271.867188 205.285156 269.941406 205.472656 C 268.015625 205.664062 266.085938 205.757812 264.152344 205.757812 C 262.21875 205.757812 260.289062 205.664062 258.363281 205.472656 C 256.4375 205.285156 254.527344 205 252.628906 204.621094 C 250.734375 204.246094 248.859375 203.773438 247.007812 203.214844 C 245.15625 202.652344 243.335938 202 241.550781 201.261719 C 239.761719 200.519531 238.015625 199.695312 236.308594 198.78125 C 234.605469 197.871094 232.945312 196.875 231.339844 195.800781 C 229.730469 194.726562 228.179688 193.574219 226.683594 192.347656 C 225.1875 191.117188 223.757812 189.820312 222.386719 188.453125 C 221.019531 187.085938 219.722656 185.652344 218.496094 184.15625 C 217.269531 182.660156 216.117188 181.109375 215.042969 179.5 C 213.96875 177.890625 212.976562 176.234375 212.0625 174.527344 C 211.152344 172.820312 210.324219 171.074219 209.585938 169.285156 C 208.84375 167.496094 208.195312 165.679688 207.632812 163.828125 C 207.070312 161.976562 206.601562 160.101562 206.222656 158.203125 C 205.847656 156.304688 205.5625 154.390625 205.375 152.46875 C 205.183594 150.542969 205.089844 148.609375 205.089844 146.675781 C 205.089844 144.742188 205.183594 142.808594 205.375 140.886719 C 205.5625 138.960938 205.847656 137.046875 206.222656 135.148438 C 206.601562 133.25 207.070312 131.375 207.632812 129.523438 C 208.195312 127.671875 208.84375 125.855469 209.585938 124.066406 C 210.324219 122.277344 211.152344 120.53125 212.0625 118.824219 C 212.976562 117.117188 213.96875 115.460938 215.042969 113.851562 C 216.117188 112.242188 217.269531 110.691406 218.496094 109.195312 C 219.722656 107.699219 221.019531 106.265625 222.386719 104.898438 C 223.757812 103.53125 225.1875 102.234375 226.683594 101.003906 C 228.179688 99.777344 229.730469 98.625 231.339844 97.550781 C 232.945312 96.476562 234.605469 95.484375 236.308594 94.570312 C 238.015625 93.65625 239.761719 92.832031 241.550781 92.089844 C 243.335938 91.351562 245.15625 90.699219 247.007812 90.136719 C 248.859375 89.578125 250.734375 89.105469 252.628906 88.730469 C 254.527344 88.351562 256.4375 88.066406 258.363281 87.878906 C 260.289062 87.6875 262.21875 87.59375 264.152344 87.59375 C 266.085938 87.59375 268.015625 87.6875 269.941406 87.878906 C 271.867188 88.066406 273.777344 88.351562 275.675781 88.730469 C 277.574219 89.105469 279.445312 89.578125 281.296875 90.136719 C 283.148438 90.699219 284.96875 91.351562 286.753906 92.089844 C 288.542969 92.832031 290.289062 93.65625 291.996094 94.570312 C 293.703125 95.484375 295.359375 96.476562 296.96875 97.550781 C 298.574219 98.625 300.128906 99.777344 301.621094 101.003906 C 303.117188 102.234375 304.550781 103.53125 305.917969 104.898438 C 307.285156 106.265625 308.582031 107.699219 309.808594 109.195312 C 311.035156 110.691406 312.1875 112.242188 313.261719 113.851562 C 314.335938 115.460938 315.332031 117.117188 316.242188 118.824219 C 317.15625 120.53125 317.980469 122.277344 318.722656 124.066406 C 319.460938 125.855469 320.113281 127.671875 320.671875 129.523438 C 321.234375 131.375 321.703125 133.25 322.082031 135.148438 C 322.460938 137.046875 322.742188 138.960938 322.933594 140.886719 C 323.121094 142.808594 323.214844 144.742188 323.214844 146.675781 Z M 323.214844 146.675781 " fill-opacity="1" fill-rule="nonzero"/></svg>