<svg xmlns="http://www.w3.org/2000/svg" xmlns:xlink="http://www.w3.org/1999/xlink" width="500" zoomAndPan="magnify" viewBox="0 0 375 374.999991" height="500" preserveAspectRatio="xMidYMid meet" version="1.0"><path fill="#0e5a36" d="M 102.792969 113.417969 L 162.621094 67.894531 C 164.628906 66.371094 166.722656 64.980469 168.90625 63.726562 C 171.089844 62.46875 173.339844 61.355469 175.667969 60.382812 C 177.992188 59.414062 180.367188 58.59375 182.796875 57.925781 C 185.222656 57.253906 187.683594 56.742188 190.179688 56.386719 C 192.671875 56.027344 195.175781 55.828125 197.695312 55.789062 C 200.214844 55.75 202.726562 55.871094 205.230469 56.152344 C 207.734375 56.429688 210.207031 56.867188 212.65625 57.460938 C 215.105469 58.054688 217.503906 58.800781 219.859375 59.699219 L 315.242188 96.085938 C 321.507812 98.445312 327.988281 99.609375 334.683594 99.585938 L 350.375 99.585938 C 350.929688 99.582031 351.476562 99.636719 352.015625 99.742188 C 352.558594 99.847656 353.082031 100.007812 353.59375 100.222656 C 354.101562 100.433594 354.585938 100.695312 355.042969 101.003906 C 355.5 101.3125 355.921875 101.664062 356.308594 102.054688 C 356.695312 102.449219 357.039062 102.875 357.339844 103.339844 C 357.640625 103.800781 357.894531 104.289062 358.097656 104.800781 C 358.300781 105.3125 358.453125 105.839844 358.550781 106.382812 C 358.648438 106.925781 358.691406 107.472656 358.679688 108.027344 L 358.679688 224.640625 C 358.679688 225.183594 358.625 225.71875 358.519531 226.253906 C 358.414062 226.785156 358.257812 227.300781 358.050781 227.804688 C 357.839844 228.304688 357.585938 228.78125 357.285156 229.230469 C 356.984375 229.683594 356.640625 230.101562 356.257812 230.484375 C 355.875 230.867188 355.457031 231.210938 355.003906 231.511719 C 354.554688 231.8125 354.078125 232.066406 353.574219 232.277344 C 353.074219 232.484375 352.558594 232.640625 352.023438 232.746094 C 351.492188 232.851562 350.953125 232.90625 350.410156 232.90625 L 329.675781 232.90625 C 328.1875 232.910156 326.746094 233.160156 325.34375 233.660156 C 323.945312 234.15625 322.667969 234.875 321.511719 235.8125 L 316.785156 239.664062 C 316.492188 239.894531 316.167969 240.0625 315.808594 240.167969 C 315.453125 240.269531 315.089844 240.304688 314.71875 240.265625 C 314.347656 240.226562 314 240.117188 313.671875 239.941406 C 313.34375 239.761719 313.0625 239.53125 312.824219 239.242188 L 201.679688 104.207031 C 201.34375 103.796875 200.972656 103.421875 200.570312 103.074219 C 200.167969 102.730469 199.738281 102.421875 199.28125 102.152344 C 198.828125 101.882812 198.351562 101.652344 197.855469 101.464844 C 197.359375 101.277344 196.847656 101.132812 196.328125 101.035156 C 195.808594 100.9375 195.28125 100.886719 194.75 100.878906 C 194.21875 100.871094 193.695312 100.910156 193.171875 100.996094 C 192.648438 101.082031 192.132812 101.210938 191.632812 101.386719 C 191.132812 101.5625 190.652344 101.777344 190.1875 102.039062 L 139.257812 130.578125 C 136.730469 131.988281 134.078125 133.09375 131.296875 133.890625 C 128.515625 134.6875 125.683594 135.160156 122.792969 135.300781 C 119.902344 135.445312 117.035156 135.253906 114.191406 134.734375 C 111.34375 134.214844 108.597656 133.378906 105.945312 132.222656 C 105.511719 132.039062 105.089844 131.824219 104.683594 131.585938 C 104.273438 131.34375 103.882812 131.082031 103.511719 130.792969 C 103.136719 130.503906 102.78125 130.195312 102.445312 129.863281 C 102.109375 129.527344 101.796875 129.175781 101.503906 128.804688 C 101.214844 128.433594 100.945312 128.046875 100.703125 127.640625 C 100.460938 127.234375 100.242188 126.816406 100.050781 126.382812 C 99.863281 125.953125 99.699219 125.511719 99.5625 125.058594 C 99.429688 124.605469 99.320312 124.144531 99.242188 123.679688 C 99.164062 123.214844 99.117188 122.746094 99.097656 122.273438 C 99.078125 121.800781 99.085938 121.332031 99.125 120.859375 C 99.164062 120.390625 99.234375 119.921875 99.332031 119.460938 C 99.429688 119 99.554688 118.542969 99.710938 118.097656 C 99.863281 117.652344 100.046875 117.214844 100.253906 116.792969 C 100.464844 116.367188 100.695312 115.960938 100.957031 115.566406 C 101.21875 115.171875 101.5 114.792969 101.808594 114.433594 C 102.113281 114.074219 102.441406 113.738281 102.792969 113.417969 Z M 24.324219 232.835938 L 42.261719 232.835938 L 54.765625 217.53125 C 55.691406 216.410156 56.691406 215.355469 57.761719 214.371094 C 58.832031 213.382812 59.960938 212.476562 61.15625 211.644531 C 62.351562 210.8125 63.59375 210.066406 64.890625 209.402344 C 66.1875 208.742188 67.523438 208.167969 68.894531 207.691406 C 70.269531 207.210938 71.667969 206.824219 73.09375 206.535156 C 74.519531 206.246094 75.960938 206.054688 77.414062 205.960938 C 78.863281 205.871094 80.316406 205.875 81.769531 205.980469 C 83.21875 206.085938 84.65625 206.289062 86.082031 206.589844 C 87.503906 206.890625 88.902344 207.285156 90.269531 207.777344 C 91.640625 208.269531 92.96875 208.851562 94.261719 209.523438 C 95.550781 210.195312 96.789062 210.953125 97.976562 211.792969 C 99.164062 212.632812 100.289062 213.550781 101.351562 214.546875 C 102.414062 215.542969 103.402344 216.605469 104.320312 217.734375 C 105.234375 218.863281 106.070312 220.050781 106.828125 221.292969 C 107.582031 222.535156 108.25 223.824219 108.828125 225.160156 C 109.410156 226.496094 109.894531 227.863281 110.289062 229.261719 C 111.605469 229.625 112.894531 230.070312 114.152344 230.601562 C 115.414062 231.128906 116.632812 231.734375 117.816406 232.417969 C 119 233.105469 120.132812 233.863281 121.21875 234.691406 C 122.304688 235.523438 123.332031 236.417969 124.300781 237.378906 C 125.269531 238.34375 126.175781 239.363281 127.015625 240.441406 C 127.851562 241.519531 128.621094 242.644531 129.3125 243.824219 C 130.007812 245 130.625 246.214844 131.164062 247.472656 C 131.703125 248.726562 132.15625 250.011719 132.53125 251.324219 C 134.476562 251.890625 136.355469 252.636719 138.160156 253.558594 C 139.964844 254.484375 141.667969 255.566406 143.265625 256.816406 C 144.863281 258.0625 146.332031 259.449219 147.667969 260.976562 C 149 262.503906 150.179688 264.140625 151.203125 265.894531 C 154.597656 266.425781 157.824219 267.46875 160.882812 269.03125 C 163.941406 270.59375 166.679688 272.59375 169.101562 275.035156 C 170.339844 276.332031 171.464844 277.722656 172.480469 279.203125 C 173.492188 280.6875 174.378906 282.238281 175.140625 283.863281 C 175.902344 285.488281 176.527344 287.164062 177.019531 288.890625 C 177.507812 290.617188 177.855469 292.371094 178.0625 294.15625 C 178.269531 295.9375 178.328125 297.726562 178.246094 299.519531 C 178.160156 301.3125 177.933594 303.085938 177.5625 304.84375 C 177.191406 306.597656 176.679688 308.3125 176.03125 309.984375 C 175.378906 311.660156 174.601562 313.269531 173.691406 314.816406 L 172.007812 317.792969 C 171.925781 317.886719 171.925781 317.980469 172.007812 318.074219 C 172.75 318.589844 173.527344 319.050781 174.339844 319.453125 C 175.148438 319.855469 175.984375 320.195312 176.847656 320.472656 C 177.710938 320.753906 178.585938 320.964844 179.480469 321.113281 C 180.371094 321.261719 181.273438 321.34375 182.175781 321.355469 C 183.082031 321.371094 183.984375 321.320312 184.882812 321.199219 C 185.777344 321.082031 186.664062 320.894531 187.53125 320.644531 C 188.402344 320.394531 189.25 320.082031 190.074219 319.703125 C 190.894531 319.328125 191.6875 318.894531 192.445312 318.398438 C 193.207031 317.90625 193.921875 317.359375 194.601562 316.757812 C 195.277344 316.15625 195.90625 315.507812 196.488281 314.816406 C 197.070312 314.121094 197.597656 313.390625 198.070312 312.617188 C 198.542969 311.84375 198.953125 311.042969 199.308594 310.207031 C 199.660156 309.375 199.949219 308.519531 200.175781 307.644531 C 200.402344 306.765625 200.5625 305.878906 200.65625 304.976562 C 200.75 304.078125 200.777344 303.175781 200.738281 302.269531 C 200.695312 301.367188 200.589844 300.46875 200.417969 299.582031 C 200.371094 299.492188 200.363281 299.398438 200.394531 299.300781 C 200.421875 299.203125 200.480469 299.128906 200.570312 299.078125 C 200.65625 299.027344 200.75 299.011719 200.851562 299.035156 C 200.949219 299.058594 201.027344 299.113281 201.082031 299.195312 L 202.449219 300.527344 C 203.214844 301.292969 204.039062 301.984375 204.921875 302.609375 C 205.804688 303.230469 206.734375 303.773438 207.710938 304.234375 C 208.6875 304.699219 209.699219 305.074219 210.742188 305.363281 C 211.78125 305.652344 212.839844 305.851562 213.917969 305.960938 C 214.992188 306.066406 216.070312 306.082031 217.148438 306.007812 C 218.226562 305.929688 219.289062 305.761719 220.339844 305.5 C 221.386719 305.238281 222.40625 304.894531 223.398438 304.457031 C 224.386719 304.023438 225.332031 303.507812 226.234375 302.910156 C 226.957031 302.402344 227.640625 301.847656 228.285156 301.246094 C 228.929688 300.640625 229.523438 299.996094 230.074219 299.304688 C 230.625 298.617188 231.121094 297.890625 231.566406 297.128906 C 232.011719 296.367188 232.402344 295.578125 232.730469 294.757812 C 233.0625 293.941406 233.332031 293.101562 233.542969 292.246094 C 233.753906 291.390625 233.898438 290.523438 233.984375 289.644531 C 234.070312 288.765625 234.089844 287.886719 234.046875 287.003906 C 234.003906 286.125 233.898438 285.25 233.730469 284.382812 C 233.683594 284.292969 233.675781 284.199219 233.707031 284.101562 C 233.734375 284.003906 233.792969 283.929688 233.882812 283.878906 C 233.96875 283.828125 234.0625 283.8125 234.164062 283.835938 C 234.261719 283.859375 234.339844 283.914062 234.394531 284 L 235.761719 285.328125 C 236.527344 286.089844 237.347656 286.78125 238.230469 287.402344 C 239.113281 288.023438 240.042969 288.566406 241.019531 289.027344 C 241.996094 289.488281 243 289.863281 244.042969 290.152344 C 245.082031 290.441406 246.136719 290.640625 247.210938 290.746094 C 248.285156 290.855469 249.363281 290.871094 250.4375 290.792969 C 251.515625 290.71875 252.578125 290.550781 253.625 290.292969 C 254.671875 290.03125 255.691406 289.6875 256.679688 289.253906 C 257.667969 288.820312 258.609375 288.304688 259.511719 287.710938 C 260.246094 287.207031 260.9375 286.65625 261.589844 286.054688 C 262.242188 285.453125 262.847656 284.804688 263.40625 284.113281 C 263.964844 283.421875 264.472656 282.695312 264.925781 281.933594 C 265.375 281.167969 265.773438 280.375 266.109375 279.554688 C 266.445312 278.730469 266.722656 277.890625 266.9375 277.027344 C 267.152344 276.167969 267.304688 275.292969 267.390625 274.410156 C 267.480469 273.527344 267.503906 272.640625 267.460938 271.753906 C 267.421875 270.867188 267.316406 269.988281 267.148438 269.113281 C 267.101562 269.023438 267.09375 268.929688 267.125 268.832031 C 267.152344 268.734375 267.210938 268.660156 267.300781 268.609375 C 267.386719 268.558594 267.480469 268.546875 267.582031 268.570312 C 267.679688 268.589844 267.757812 268.644531 267.8125 268.730469 L 269.355469 270.199219 C 270.078125 270.917969 270.855469 271.574219 271.6875 272.167969 C 272.519531 272.757812 273.394531 273.277344 274.3125 273.726562 C 275.230469 274.175781 276.175781 274.546875 277.15625 274.839844 C 278.132812 275.132812 279.128906 275.34375 280.140625 275.476562 C 281.152344 275.605469 282.171875 275.652344 283.191406 275.617188 C 284.210938 275.582031 285.222656 275.460938 286.222656 275.261719 C 287.222656 275.058594 288.203125 274.777344 289.15625 274.417969 C 290.109375 274.054688 291.03125 273.621094 291.914062 273.105469 C 292.492188 272.761719 293.050781 272.382812 293.589844 271.976562 C 294.128906 271.566406 294.640625 271.132812 295.132812 270.667969 C 295.621094 270.203125 296.085938 269.710938 296.519531 269.195312 C 296.957031 268.679688 297.363281 268.144531 297.738281 267.582031 C 298.113281 267.023438 298.457031 266.441406 298.769531 265.84375 C 299.082031 265.246094 299.363281 264.632812 299.605469 264 C 299.851562 263.371094 300.058594 262.730469 300.234375 262.078125 C 300.40625 261.425781 300.546875 260.765625 300.644531 260.101562 C 300.746094 259.433594 300.8125 258.761719 300.839844 258.085938 C 300.867188 257.410156 300.855469 256.738281 300.808594 256.066406 C 300.761719 255.390625 300.675781 254.722656 300.554688 254.058594 C 300.433594 253.394531 300.273438 252.738281 300.082031 252.09375 C 299.886719 251.445312 299.660156 250.8125 299.394531 250.191406 C 299.132812 249.566406 298.835938 248.964844 298.503906 248.375 C 298.175781 247.785156 297.8125 247.21875 297.417969 246.667969 C 297.027344 246.121094 296.601562 245.59375 296.152344 245.089844 L 284.941406 231.574219 L 194.355469 121.367188 C 194.132812 121.09375 193.871094 120.871094 193.566406 120.691406 C 193.265625 120.511719 192.941406 120.390625 192.59375 120.324219 C 192.246094 120.261719 191.902344 120.257812 191.554688 120.316406 C 191.207031 120.375 190.878906 120.492188 190.574219 120.667969 L 147.277344 144.902344 C 145.5625 145.863281 143.800781 146.726562 141.992188 147.496094 C 140.183594 148.265625 138.335938 148.9375 136.457031 149.503906 C 134.574219 150.074219 132.667969 150.539062 130.734375 150.902344 C 128.800781 151.265625 126.855469 151.519531 124.894531 151.671875 C 122.933594 151.824219 120.972656 151.867188 119.007812 151.804688 C 117.042969 151.742188 115.085938 151.574219 113.140625 151.296875 C 111.191406 151.023438 109.265625 150.644531 107.363281 150.160156 C 105.457031 149.675781 103.582031 149.089844 101.742188 148.402344 C 99.707031 147.691406 97.777344 146.765625 95.949219 145.621094 C 94.121094 144.480469 92.441406 143.152344 90.910156 141.640625 C 89.375 140.125 88.027344 138.460938 86.867188 136.648438 C 85.703125 134.835938 84.753906 132.917969 84.015625 130.894531 C 83.425781 128.808594 83.050781 126.691406 82.882812 124.53125 C 82.714844 122.375 82.757812 120.222656 83.015625 118.074219 C 83.273438 115.925781 83.742188 113.820312 84.417969 111.765625 C 85.09375 109.707031 85.960938 107.738281 87.027344 105.855469 C 87.113281 105.695312 87.1875 105.535156 87.25 105.367188 C 87.316406 105.199219 87.367188 105.03125 87.410156 104.855469 C 87.453125 104.683594 87.480469 104.507812 87.5 104.328125 C 87.519531 104.148438 87.527344 103.972656 87.523438 103.792969 C 87.519531 103.613281 87.5 103.4375 87.472656 103.257812 C 87.445312 103.082031 87.410156 102.910156 87.359375 102.738281 C 87.308594 102.566406 87.246094 102.398438 87.175781 102.234375 C 87.101562 102.070312 87.019531 101.910156 86.929688 101.757812 C 86.835938 101.605469 86.734375 101.457031 86.621094 101.320312 C 86.511719 101.179688 86.390625 101.046875 86.261719 100.921875 C 86.132812 100.796875 85.996094 100.683594 85.855469 100.574219 C 85.710938 100.46875 85.5625 100.371094 85.40625 100.285156 C 85.25 100.199219 85.085938 100.121094 84.921875 100.054688 C 84.753906 99.988281 84.585938 99.933594 84.410156 99.890625 C 84.238281 99.84375 84.0625 99.8125 83.886719 99.789062 C 83.707031 99.769531 83.527344 99.757812 83.351562 99.761719 L 24.324219 99.761719 C 23.78125 99.757812 23.242188 99.808594 22.707031 99.914062 C 22.175781 100.019531 21.65625 100.171875 21.152344 100.378906 C 20.648438 100.585938 20.167969 100.839844 19.714844 101.140625 C 19.261719 101.441406 18.84375 101.785156 18.457031 102.167969 C 18.070312 102.554688 17.726562 102.972656 17.425781 103.421875 C 17.121094 103.875 16.867188 104.351562 16.65625 104.855469 C 16.449219 105.355469 16.289062 105.875 16.183594 106.410156 C 16.078125 106.941406 16.023438 107.480469 16.023438 108.027344 L 16.023438 224.640625 C 16.027344 225.179688 16.085938 225.71875 16.195312 226.246094 C 16.304688 226.777344 16.464844 227.292969 16.675781 227.789062 C 16.886719 228.289062 17.144531 228.761719 17.449219 229.210938 C 17.753906 229.65625 18.097656 230.070312 18.484375 230.453125 C 18.867188 230.832031 19.285156 231.171875 19.738281 231.46875 C 20.191406 231.765625 20.667969 232.019531 21.167969 232.222656 C 21.667969 232.425781 22.183594 232.582031 22.714844 232.683594 C 23.25 232.785156 23.785156 232.835938 24.324219 232.835938 Z M 87.589844 224.464844 C 86.761719 224.003906 85.902344 223.617188 85.003906 223.308594 C 84.109375 222.996094 83.195312 222.769531 82.257812 222.621094 C 81.324219 222.472656 80.382812 222.410156 79.433594 222.429688 C 78.488281 222.449219 77.546875 222.554688 76.621094 222.738281 C 75.691406 222.925781 74.785156 223.191406 73.902344 223.539062 C 73.023438 223.886719 72.179688 224.308594 71.371094 224.804688 C 70.566406 225.300781 69.808594 225.867188 69.101562 226.496094 C 68.394531 227.128906 67.75 227.816406 67.167969 228.5625 L 55.011719 243.480469 C 54.6875 243.875 54.386719 244.285156 54.105469 244.710938 C 53.824219 245.136719 53.5625 245.578125 53.324219 246.027344 C 53.085938 246.480469 52.871094 246.941406 52.679688 247.414062 C 52.484375 247.886719 52.316406 248.367188 52.171875 248.859375 C 52.027344 249.347656 51.910156 249.84375 51.8125 250.34375 C 51.71875 250.84375 51.648438 251.351562 51.601562 251.859375 C 51.558594 252.367188 51.539062 252.875 51.542969 253.386719 C 51.546875 253.898438 51.578125 254.40625 51.636719 254.914062 C 51.691406 255.421875 51.773438 255.925781 51.878906 256.421875 C 51.984375 256.921875 52.117188 257.414062 52.269531 257.902344 C 52.425781 258.386719 52.605469 258.867188 52.808594 259.335938 C 53.011719 259.800781 53.234375 260.261719 53.484375 260.707031 C 53.730469 261.152344 54 261.585938 54.292969 262.003906 C 54.582031 262.421875 54.894531 262.828125 55.226562 263.214844 C 55.554688 263.605469 55.90625 263.976562 56.273438 264.328125 C 56.640625 264.683594 57.027344 265.015625 57.429688 265.332031 L 59.285156 266.769531 C 59.886719 267.242188 60.519531 267.667969 61.183594 268.042969 C 61.847656 268.421875 62.535156 268.75 63.246094 269.023438 C 63.960938 269.300781 64.6875 269.519531 65.433594 269.6875 C 66.179688 269.855469 66.933594 269.964844 67.695312 270.019531 C 68.457031 270.074219 69.222656 270.070312 69.984375 270.011719 C 70.746094 269.953125 71.496094 269.835938 72.242188 269.664062 C 72.988281 269.492188 73.714844 269.269531 74.425781 268.988281 C 75.136719 268.707031 75.824219 268.375 76.484375 267.996094 C 76.765625 267.804688 77.046875 267.808594 77.324219 268.007812 C 77.601562 268.207031 77.695312 268.46875 77.605469 268.800781 C 77.328125 270.195312 77.25 271.605469 77.363281 273.023438 C 77.476562 274.441406 77.78125 275.820312 78.273438 277.152344 C 78.769531 278.488281 79.433594 279.730469 80.273438 280.882812 C 81.113281 282.03125 82.089844 283.046875 83.210938 283.929688 L 84.714844 285.117188 C 85.878906 286.035156 87.148438 286.769531 88.523438 287.320312 C 89.898438 287.871094 91.324219 288.21875 92.800781 288.363281 C 94.273438 288.503906 95.738281 288.4375 97.195312 288.160156 C 98.648438 287.882812 100.035156 287.40625 101.355469 286.730469 C 101.640625 286.589844 101.910156 286.613281 102.171875 286.792969 C 102.429688 286.972656 102.542969 287.222656 102.511719 287.535156 C 102.359375 288.855469 102.375 290.171875 102.5625 291.488281 C 102.75 292.804688 103.097656 294.074219 103.609375 295.300781 C 104.121094 296.527344 104.78125 297.667969 105.585938 298.726562 C 106.390625 299.785156 107.316406 300.722656 108.359375 301.542969 L 109.410156 302.347656 C 110.589844 303.269531 111.875 304.007812 113.265625 304.5625 C 114.65625 305.117188 116.097656 305.464844 117.585938 305.601562 C 119.078125 305.742188 120.558594 305.671875 122.027344 305.382812 C 123.496094 305.097656 124.894531 304.613281 126.226562 303.925781 C 126.355469 303.84375 126.496094 303.800781 126.644531 303.796875 C 126.796875 303.789062 126.941406 303.820312 127.078125 303.886719 C 127.210938 303.953125 127.320312 304.050781 127.40625 304.175781 C 127.492188 304.300781 127.542969 304.4375 127.558594 304.589844 C 127.871094 306.523438 128.527344 308.332031 129.523438 310.019531 C 130.523438 311.707031 131.792969 313.152344 133.335938 314.359375 L 134.003906 314.886719 C 134.445312 315.234375 134.90625 315.554688 135.386719 315.855469 C 135.863281 316.152344 136.359375 316.421875 136.867188 316.667969 C 137.375 316.914062 137.894531 317.128906 138.425781 317.320312 C 138.957031 317.507812 139.496094 317.667969 140.042969 317.800781 C 140.59375 317.933594 141.144531 318.035156 141.707031 318.105469 C 142.265625 318.175781 142.824219 318.21875 143.390625 318.230469 C 143.953125 318.242188 144.515625 318.222656 145.078125 318.175781 C 145.640625 318.128906 146.199219 318.046875 146.75 317.941406 C 147.304688 317.832031 147.851562 317.695312 148.390625 317.527344 C 148.925781 317.359375 149.457031 317.164062 149.972656 316.941406 C 150.492188 316.71875 150.996094 316.464844 151.484375 316.1875 C 151.976562 315.910156 152.449219 315.605469 152.910156 315.277344 C 153.367188 314.949219 153.804688 314.597656 154.226562 314.222656 C 154.648438 313.847656 155.046875 313.449219 155.421875 313.03125 C 155.800781 312.613281 156.15625 312.171875 156.484375 311.71875 C 156.816406 311.261719 157.121094 310.789062 157.402344 310.296875 L 159.679688 306.304688 C 160.144531 305.519531 160.542969 304.703125 160.875 303.851562 C 161.203125 303 161.460938 302.128906 161.640625 301.230469 C 161.824219 300.335938 161.929688 299.433594 161.960938 298.519531 C 161.992188 297.609375 161.945312 296.699219 161.820312 295.796875 C 161.699219 294.890625 161.5 294.003906 161.226562 293.132812 C 160.953125 292.257812 160.609375 291.417969 160.195312 290.605469 C 159.78125 289.789062 159.300781 289.015625 158.753906 288.285156 C 158.210938 287.550781 157.605469 286.871094 156.945312 286.238281 C 156.382812 285.726562 155.785156 285.261719 155.152344 284.835938 C 154.519531 284.414062 153.859375 284.035156 153.171875 283.707031 C 152.484375 283.378906 151.777344 283.105469 151.050781 282.878906 C 150.324219 282.652344 149.585938 282.480469 148.832031 282.363281 C 148.078125 282.246094 147.324219 282.183594 146.5625 282.175781 C 145.800781 282.167969 145.042969 282.214844 144.289062 282.320312 C 143.535156 282.421875 142.789062 282.578125 142.058594 282.789062 C 141.328125 283 140.617188 283.261719 139.921875 283.578125 C 139.761719 283.664062 139.601562 283.65625 139.453125 283.550781 C 139.300781 283.449219 139.234375 283.304688 139.257812 283.121094 C 139.289062 282.480469 139.285156 281.839844 139.238281 281.199219 C 139.191406 280.558594 139.105469 279.921875 138.980469 279.289062 C 138.855469 278.660156 138.691406 278.039062 138.488281 277.429688 C 138.285156 276.820312 138.042969 276.226562 137.769531 275.644531 C 137.492188 275.0625 137.179688 274.503906 136.832031 273.960938 C 136.488281 273.417969 136.109375 272.902344 135.699219 272.40625 C 135.285156 271.914062 134.847656 271.445312 134.378906 271.003906 C 133.910156 270.566406 133.414062 270.15625 132.894531 269.777344 C 132.375 269.398438 131.835938 269.054688 131.273438 268.742188 C 130.710938 268.433594 130.128906 268.15625 129.53125 267.917969 C 128.9375 267.679688 128.328125 267.476562 127.703125 267.3125 C 127.082031 267.152344 126.453125 267.027344 125.816406 266.941406 C 125.179688 266.855469 124.539062 266.8125 123.894531 266.804688 C 123.253906 266.800781 122.609375 266.832031 121.972656 266.90625 C 121.332031 266.980469 120.703125 267.09375 120.078125 267.246094 C 119.453125 267.398438 118.839844 267.589844 118.238281 267.820312 C 115.925781 268.238281 116.417969 266.207031 116.417969 266.207031 C 116.722656 265.472656 116.96875 264.714844 117.152344 263.941406 C 117.339844 263.164062 117.46875 262.378906 117.535156 261.585938 C 117.597656 260.789062 117.601562 259.996094 117.546875 259.199219 C 117.488281 258.402344 117.371094 257.617188 117.191406 256.839844 C 117.011719 256.0625 116.777344 255.304688 116.480469 254.5625 C 116.183594 253.824219 115.832031 253.109375 115.425781 252.421875 C 115.019531 251.738281 114.5625 251.085938 114.054688 250.472656 C 113.550781 249.855469 112.996094 249.28125 112.402344 248.75 C 111.804688 248.222656 111.171875 247.738281 110.503906 247.308594 C 109.832031 246.875 109.132812 246.496094 108.40625 246.171875 C 107.675781 245.847656 106.925781 245.578125 106.15625 245.371094 C 105.386719 245.160156 104.605469 245.011719 103.8125 244.925781 C 103.019531 244.835938 102.226562 244.808594 101.429688 244.84375 C 100.632812 244.878906 99.84375 244.976562 99.058594 245.132812 C 98.277344 245.289062 97.511719 245.503906 96.765625 245.78125 C 96.015625 246.054688 95.292969 246.386719 94.59375 246.773438 C 92.878906 247.019531 93.089844 245.40625 93.089844 245.40625 C 93.589844 244.539062 94.003906 243.628906 94.328125 242.679688 C 94.65625 241.726562 94.882812 240.753906 95.019531 239.761719 C 95.152344 238.765625 95.1875 237.765625 95.125 236.765625 C 95.066406 235.761719 94.90625 234.773438 94.652344 233.804688 C 94.394531 232.832031 94.050781 231.894531 93.609375 230.992188 C 93.171875 230.089844 92.648438 229.238281 92.042969 228.4375 C 91.4375 227.636719 90.761719 226.902344 90.011719 226.234375 C 89.261719 225.5625 88.453125 224.976562 87.589844 224.464844 Z M 87.589844 224.464844 " fill-opacity="1" fill-rule="nonzero"/></svg>