<svg xmlns="http://www.w3.org/2000/svg" xmlns:xlink="http://www.w3.org/1999/xlink" width="500" zoomAndPan="magnify" viewBox="0 0 375 374.999991" height="500" preserveAspectRatio="xMidYMid meet" version="1.0"><defs><linearGradient id="whyChooseSunset" x1="0%" y1="0%" x2="100%" y2="100%"><stop offset="0%" stop-color="#fcd34d"/><stop offset="50%" stop-color="#fb923c"/><stop offset="100%" stop-color="#f43f5e"/></linearGradient><clipPath id="0617ec483d"><path d="M 47.488281 47.488281 L 327.238281 47.488281 L 327.238281 327.238281 L 47.488281 327.238281 Z M 47.488281 47.488281 " clip-rule="nonzero"/></clipPath></defs><g clip-path="url(#0617ec483d)"><path fill="url(#whyChooseSunset)" d="M 301.371094 220.015625 L 301.371094 92.316406 C 301.371094 79.726562 291.152344 69.507812 278.5625 69.507812 L 258.066406 69.507812 L 258.066406 66.628906 C 258.066406 56.070312 249.429688 47.488281 238.875 47.488281 C 228.316406 47.488281 219.734375 56.070312 219.734375 66.628906 L 219.734375 69.507812 L 193.597656 69.507812 L 193.597656 66.628906 C 193.597656 56.070312 185.015625 47.488281 174.457031 47.488281 C 163.898438 47.488281 155.320312 56.070312 155.320312 66.628906 L 155.320312 69.507812 L 129.179688 69.507812 L 129.179688 66.628906 C 129.179688 56.070312 120.597656 47.488281 110.042969 47.488281 C 99.484375 47.488281 90.789062 56.070312 90.789062 66.628906 L 90.789062 69.507812 L 70.296875 69.507812 C 57.707031 69.507812 47.488281 79.726562 47.488281 92.316406 L 47.488281 281.496094 C 47.488281 294.085938 57.707031 304.363281 70.296875 304.363281 L 222.164062 304.363281 C 232.890625 318.417969 249.824219 327.507812 268.851562 327.507812 C 301.199219 327.507812 327.507812 301.199219 327.507812 268.851562 C 327.507812 248.527344 317.121094 230.574219 301.371094 220.015625 Z M 233.285156 66.628906 C 233.285156 63.523438 235.824219 61.039062 238.875 61.039062 C 241.921875 61.039062 244.460938 63.523438 244.460938 66.628906 L 244.460938 69.507812 L 233.226562 69.507812 L 233.226562 66.628906 Z M 168.8125 66.628906 C 168.8125 63.523438 171.351562 61.039062 174.402344 61.039062 C 177.449219 61.039062 179.988281 63.523438 179.988281 66.628906 L 179.988281 69.507812 L 168.753906 69.507812 L 168.753906 66.628906 Z M 104.339844 66.628906 C 104.339844 63.578125 106.9375 61.039062 109.929688 61.039062 C 113.035156 61.039062 115.519531 63.523438 115.519531 66.628906 L 115.519531 69.507812 L 104.28125 69.507812 C 104.339844 69.507812 104.339844 66.628906 104.339844 66.628906 Z M 70.296875 83.054688 L 90.789062 83.054688 L 90.789062 86.21875 C 90.789062 96.773438 99.371094 105.355469 109.929688 105.355469 C 113.65625 105.355469 116.703125 102.308594 116.703125 98.582031 C 116.703125 94.855469 113.65625 91.804688 109.929688 91.804688 C 106.878906 91.804688 104.339844 89.265625 104.339844 86.21875 L 104.339844 83.054688 L 155.261719 83.054688 L 155.261719 86.21875 C 155.261719 96.773438 163.84375 105.355469 174.402344 105.355469 C 178.128906 105.355469 181.175781 102.308594 181.175781 98.582031 C 181.175781 94.855469 178.128906 91.804688 174.402344 91.804688 C 171.296875 91.804688 168.8125 89.324219 168.8125 86.21875 L 168.8125 83.054688 L 219.734375 83.054688 L 219.734375 86.21875 C 219.734375 96.773438 228.316406 105.355469 238.875 105.355469 C 242.597656 105.355469 245.648438 102.308594 245.648438 98.582031 C 245.648438 94.855469 242.597656 91.804688 238.875 91.804688 C 235.769531 91.804688 233.285156 89.324219 233.285156 86.21875 L 233.285156 83.054688 L 278.5625 83.054688 C 283.699219 83.054688 287.820312 87.234375 287.820312 92.316406 L 287.820312 114.105469 L 61.039062 114.105469 L 61.039062 92.316406 C 61.039062 87.234375 65.214844 83.054688 70.296875 83.054688 Z M 70.296875 290.8125 C 65.160156 290.8125 61.039062 286.632812 61.039062 281.554688 L 61.039062 127.65625 L 287.820312 127.65625 L 287.820312 213.296875 C 282.34375 211.4375 276.527344 210.363281 270.433594 210.195312 L 270.433594 153.171875 C 270.433594 149.449219 267.382812 146.398438 263.65625 146.398438 L 85.199219 146.398438 C 81.476562 146.398438 78.425781 149.449219 78.425781 153.171875 L 78.425781 265.351562 C 78.425781 269.078125 81.476562 272.125 85.199219 272.125 L 210.308594 272.125 C 210.644531 278.730469 212.113281 284.996094 214.484375 290.8125 Z M 181.175781 258.519531 L 181.175781 234.695312 L 212.226562 234.695312 L 212.226562 253.324219 C 211.773438 255.019531 211.378906 256.769531 211.039062 258.519531 Z M 256.882812 183.773438 L 225.777344 183.773438 L 225.777344 159.949219 L 256.882812 159.949219 Z M 212.28125 183.773438 L 181.230469 183.773438 L 181.230469 159.949219 L 212.28125 159.949219 Z M 181.175781 197.320312 L 212.226562 197.320312 L 212.226562 221.144531 L 181.175781 221.144531 Z M 167.625 221.144531 L 136.574219 221.144531 L 136.574219 197.320312 L 167.625 197.320312 Z M 167.625 183.773438 L 136.574219 183.773438 L 136.574219 159.949219 L 167.625 159.949219 Z M 123.027344 183.773438 L 91.976562 183.773438 L 91.976562 159.949219 L 123.082031 159.949219 L 123.082031 183.773438 Z M 91.976562 197.320312 L 123.082031 197.320312 L 123.082031 221.144531 L 91.976562 221.144531 Z M 91.976562 234.695312 L 123.082031 234.695312 L 123.082031 258.519531 L 91.976562 258.519531 Z M 136.574219 234.695312 L 167.625 234.695312 L 167.625 258.519531 L 136.574219 258.519531 Z M 234.75 221.144531 L 225.832031 221.144531 L 225.832031 197.320312 L 256.9375 197.320312 L 256.9375 211.4375 C 248.753906 213.074219 241.246094 216.460938 234.75 221.144531 Z M 268.851562 313.960938 C 243.953125 313.960938 223.742188 293.691406 223.742188 268.851562 C 223.742188 243.953125 243.953125 223.742188 268.851562 223.742188 C 293.746094 223.742188 313.960938 243.953125 313.960938 268.851562 C 313.960938 293.691406 293.746094 313.960938 268.851562 313.960938 Z M 268.851562 313.960938 " fill-opacity="1" fill-rule="nonzero"/></g><path fill="url(#whyChooseSunset)" d="M 285.054688 270.375 L 275.625 264.898438 L 275.625 243.21875 C 275.625 239.492188 272.578125 236.445312 268.851562 236.445312 C 265.125 236.445312 262.078125 239.492188 262.078125 243.21875 L 262.078125 268.792969 C 262.078125 271.222656 263.375 273.425781 265.464844 274.664062 L 278.277344 282.0625 C 279.351562 282.683594 280.539062 282.964844 281.667969 282.964844 C 283.980469 282.964844 286.296875 281.78125 287.539062 279.578125 C 289.402344 276.417969 288.273438 272.238281 285.054688 270.375 Z M 285.054688 270.375 " fill-opacity="1" fill-rule="nonzero"/></svg>