<svg xmlns="http://www.w3.org/2000/svg" xmlns:xlink="http://www.w3.org/1999/xlink" width="500" zoomAndPan="magnify" viewBox="0 0 375 374.999991" height="500" preserveAspectRatio="xMidYMid meet" version="1.0"><defs><linearGradient id="whyChooseSunset" x1="0%" y1="0%" x2="100%" y2="100%"><stop offset="0%" stop-color="#fcd34d"/><stop offset="50%" stop-color="#fb923c"/><stop offset="100%" stop-color="#f43f5e"/></linearGradient><clipPath id="60af0b926c"><path d="M 51.535156 51.535156 L 323.785156 51.535156 L 323.785156 323.785156 L 51.535156 323.785156 Z M 51.535156 51.535156 " clip-rule="nonzero"/></clipPath></defs><g clip-path="url(#60af0b926c)"><path fill="url(#whyChooseSunset)" d="M 318.316406 75.835938 L 304.710938 70.28125 L 299.15625 56.675781 L 299.148438 56.660156 C 298.839844 55.902344 298.425781 55.207031 297.90625 54.570312 C 297.390625 53.9375 296.789062 53.390625 296.109375 52.933594 C 295.429688 52.476562 294.695312 52.128906 293.914062 51.890625 C 293.128906 51.652344 292.328125 51.535156 291.507812 51.535156 C 290.6875 51.535156 289.886719 51.65625 289.105469 51.894531 C 288.320312 52.132812 287.589844 52.484375 286.910156 52.941406 C 286.230469 53.398438 285.628906 53.945312 285.113281 54.578125 C 284.597656 55.214844 284.183594 55.914062 283.875 56.671875 L 278.304688 70.28125 L 264.667969 75.847656 C 263.910156 76.152344 263.210938 76.566406 262.578125 77.082031 C 261.941406 77.597656 261.394531 78.199219 260.941406 78.878906 C 260.488281 79.558594 260.144531 80.292969 259.910156 81.078125 C 259.675781 81.863281 259.5625 82.664062 259.570312 83.484375 C 259.570312 84.519531 259.757812 85.523438 260.128906 86.488281 L 154.546875 86.488281 C 153.707031 86.488281 152.867188 86.53125 152.027344 86.617188 C 151.191406 86.699219 150.359375 86.824219 149.535156 86.988281 C 148.710938 87.152344 147.894531 87.359375 147.089844 87.605469 C 146.285156 87.847656 145.496094 88.132812 144.71875 88.457031 C 143.941406 88.777344 143.179688 89.136719 142.441406 89.535156 C 141.699219 89.933594 140.976562 90.363281 140.277344 90.832031 C 139.578125 91.300781 138.902344 91.800781 138.253906 92.335938 C 137.601562 92.871094 136.980469 93.433594 136.386719 94.03125 C 135.792969 94.625 135.226562 95.246094 134.691406 95.898438 C 134.160156 96.546875 133.660156 97.222656 133.191406 97.921875 C 132.722656 98.621094 132.292969 99.34375 131.894531 100.085938 C 131.5 100.828125 131.136719 101.585938 130.816406 102.363281 C 130.492188 103.140625 130.210938 103.933594 129.964844 104.738281 C 129.722656 105.542969 129.515625 106.359375 129.351562 107.183594 C 129.1875 108.007812 129.0625 108.839844 128.980469 109.675781 C 128.898438 110.515625 128.855469 111.351562 128.855469 112.195312 L 128.855469 117.941406 C 126.953125 117.761719 125.078125 117.917969 123.234375 118.414062 C 121.214844 118.949219 119.371094 119.851562 117.710938 121.125 C 116.050781 122.394531 114.699219 123.9375 113.65625 125.75 L 73.632812 195.082031 C 72.425781 197.164062 71.339844 199.304688 70.371094 201.507812 C 69.402344 203.710938 68.5625 205.960938 67.847656 208.253906 C 67.128906 210.550781 66.542969 212.878906 66.085938 215.242188 C 65.628906 217.605469 65.308594 219.984375 65.117188 222.382812 C 64.925781 224.78125 64.867188 227.179688 64.945312 229.585938 C 65.023438 231.988281 65.234375 234.378906 65.578125 236.761719 C 65.921875 239.140625 66.398438 241.496094 67.003906 243.824219 C 67.613281 246.152344 68.347656 248.4375 69.207031 250.683594 L 52.050781 280.425781 C 51.796875 280.867188 51.632812 281.339844 51.566406 281.84375 C 51.5 282.351562 51.535156 282.851562 51.667969 283.34375 C 51.796875 283.835938 52.019531 284.285156 52.332031 284.6875 C 52.640625 285.09375 53.015625 285.421875 53.457031 285.679688 L 118.015625 322.945312 C 118.457031 323.199219 118.929688 323.359375 119.433594 323.425781 C 119.941406 323.492188 120.441406 323.460938 120.933594 323.328125 C 121.425781 323.195312 121.875 322.972656 122.277344 322.664062 C 122.683594 322.351562 123.011719 321.976562 123.269531 321.535156 L 140.425781 291.8125 C 144.660156 291.140625 148.792969 290.058594 152.8125 288.5625 C 156.835938 287.070312 160.671875 285.195312 164.320312 282.9375 C 167.96875 280.679688 171.359375 278.085938 174.492188 275.15625 C 177.621094 272.222656 180.433594 269.007812 182.925781 265.515625 L 234.019531 265.515625 C 234.769531 266.222656 235.621094 266.765625 236.574219 267.152344 L 250.1875 272.71875 L 255.746094 286.316406 C 256.054688 287.074219 256.464844 287.773438 256.980469 288.410156 C 257.496094 289.050781 258.09375 289.597656 258.773438 290.058594 C 259.453125 290.515625 260.1875 290.867188 260.96875 291.105469 C 261.753906 291.347656 262.554688 291.46875 263.375 291.46875 C 264.195312 291.46875 265 291.351562 265.785156 291.109375 C 266.570312 290.871094 267.300781 290.523438 267.980469 290.066406 C 268.664062 289.609375 269.261719 289.0625 269.777344 288.425781 C 270.296875 287.789062 270.710938 287.089844 271.019531 286.332031 L 276.585938 272.71875 L 290.195312 267.152344 C 291.316406 266.699219 292.289062 266.03125 293.117188 265.144531 C 293.941406 264.261719 294.542969 263.242188 294.921875 262.09375 C 295.898438 261.53125 296.832031 260.90625 297.726562 260.222656 C 298.621094 259.539062 299.464844 258.800781 300.261719 258.003906 C 301.058594 257.210938 301.800781 256.367188 302.488281 255.476562 C 303.175781 254.585938 303.800781 253.652344 304.367188 252.679688 C 304.933594 251.707031 305.433594 250.699219 305.867188 249.660156 C 306.300781 248.621094 306.664062 247.558594 306.960938 246.472656 C 307.253906 245.386719 307.480469 244.285156 307.628906 243.171875 C 307.78125 242.054688 307.859375 240.933594 307.867188 239.808594 L 307.867188 112.195312 C 307.871094 109.785156 307.539062 107.421875 306.871094 105.105469 C 306.203125 102.789062 305.222656 100.613281 303.9375 98.578125 L 304.707031 96.6875 L 318.300781 91.125 C 319.0625 90.816406 319.761719 90.40625 320.398438 89.886719 C 321.039062 89.371094 321.585938 88.773438 322.046875 88.09375 C 322.503906 87.414062 322.855469 86.679688 323.09375 85.894531 C 323.335938 85.109375 323.453125 84.308594 323.457031 83.484375 C 323.457031 82.664062 323.335938 81.863281 323.097656 81.078125 C 322.859375 80.292969 322.511719 79.558594 322.054688 78.878906 C 321.59375 78.195312 321.046875 77.597656 320.410156 77.078125 C 319.773438 76.5625 319.074219 76.148438 318.316406 75.835938 Z M 137.515625 284.464844 C 136.921875 284.542969 136.378906 284.75 135.882812 285.082031 C 135.386719 285.414062 134.992188 285.835938 134.691406 286.351562 L 118.53125 314.355469 L 60.636719 280.9375 L 76.796875 252.917969 C 77.097656 252.402344 77.265625 251.847656 77.304688 251.253906 C 77.34375 250.660156 77.25 250.085938 77.023438 249.535156 C 76.179688 247.511719 75.453125 245.449219 74.84375 243.339844 C 74.238281 241.234375 73.753906 239.101562 73.394531 236.941406 C 73.03125 234.777344 72.796875 232.601562 72.683594 230.414062 C 72.574219 228.222656 72.589844 226.035156 72.730469 223.847656 C 72.871094 221.660156 73.136719 219.488281 73.527344 217.332031 C 73.921875 215.175781 74.433594 213.050781 75.070312 210.953125 C 75.707031 208.855469 76.464844 206.800781 77.335938 204.789062 C 78.210938 202.78125 79.195312 200.828125 80.292969 198.929688 L 120.320312 129.597656 C 120.582031 129.132812 120.886719 128.703125 121.234375 128.296875 C 121.585938 127.894531 121.96875 127.53125 122.390625 127.203125 C 122.8125 126.875 123.261719 126.59375 123.738281 126.355469 C 124.214844 126.117188 124.710938 125.929688 125.222656 125.789062 C 125.738281 125.648438 126.261719 125.5625 126.792969 125.523438 C 127.324219 125.488281 127.855469 125.503906 128.382812 125.574219 C 128.910156 125.640625 129.425781 125.761719 129.933594 125.933594 C 130.4375 126.101562 130.917969 126.320312 131.382812 126.589844 C 131.84375 126.855469 132.273438 127.164062 132.671875 127.515625 C 133.074219 127.867188 133.433594 128.253906 133.757812 128.679688 C 134.082031 129.101562 134.359375 129.554688 134.59375 130.03125 C 134.828125 130.511719 135.015625 131.007812 135.148438 131.523438 C 135.285156 132.039062 135.371094 132.5625 135.402344 133.09375 C 135.433594 133.625 135.414062 134.15625 135.339844 134.683594 C 135.265625 135.210938 135.144531 135.726562 134.96875 136.230469 C 134.792969 136.734375 134.570312 137.214844 134.300781 137.675781 L 115.136719 170.878906 C 115.003906 171.101562 114.894531 171.328125 114.804688 171.570312 C 114.714844 171.8125 114.652344 172.058594 114.613281 172.3125 C 114.574219 172.566406 114.5625 172.824219 114.574219 173.078125 C 114.585938 173.335938 114.625 173.589844 114.6875 173.839844 C 114.75 174.085938 114.839844 174.328125 114.949219 174.558594 C 115.0625 174.792969 115.195312 175.007812 115.351562 175.214844 C 115.503906 175.417969 115.679688 175.605469 115.871094 175.777344 C 116.0625 175.945312 116.269531 176.097656 116.492188 176.222656 C 116.714844 176.351562 116.949219 176.457031 117.191406 176.539062 C 117.4375 176.621094 117.6875 176.679688 117.941406 176.710938 C 118.195312 176.742188 118.453125 176.746094 118.707031 176.726562 C 118.964844 176.707031 119.214844 176.664062 119.460938 176.59375 C 119.710938 176.523438 119.949219 176.429688 120.175781 176.3125 C 120.40625 176.195312 120.621094 176.058594 120.820312 175.894531 C 121.019531 175.734375 121.203125 175.558594 121.367188 175.359375 C 121.53125 175.164062 121.675781 174.949219 121.800781 174.726562 L 140.960938 141.519531 L 150.375 125.246094 C 150.636719 124.785156 150.945312 124.359375 151.296875 123.960938 C 151.644531 123.558594 152.03125 123.199219 152.449219 122.878906 C 152.871094 122.554688 153.320312 122.277344 153.796875 122.042969 C 154.269531 121.808594 154.765625 121.621094 155.277344 121.484375 C 155.789062 121.347656 156.308594 121.261719 156.839844 121.226562 C 157.367188 121.191406 157.894531 121.210938 158.417969 121.28125 C 158.945312 121.347656 159.457031 121.46875 159.960938 121.640625 C 160.460938 121.808594 160.941406 122.027344 161.402344 122.292969 C 161.863281 122.558594 162.289062 122.867188 162.6875 123.214844 C 163.085938 123.566406 163.449219 123.949219 163.769531 124.371094 C 164.09375 124.792969 164.371094 125.238281 164.605469 125.714844 C 164.839844 126.191406 165.027344 126.683594 165.164062 127.195312 C 165.300781 127.707031 165.386719 128.230469 165.421875 128.757812 C 165.453125 129.285156 165.4375 129.8125 165.367188 130.339844 C 165.296875 130.863281 165.179688 131.378906 165.007812 131.878906 C 164.835938 132.382812 164.621094 132.863281 164.355469 133.320312 L 139.761719 175.90625 C 139.632812 176.125 139.527344 176.351562 139.441406 176.59375 C 139.355469 176.832031 139.296875 177.078125 139.261719 177.332031 C 139.226562 177.582031 139.214844 177.835938 139.230469 178.089844 C 139.246094 178.34375 139.285156 178.59375 139.347656 178.839844 C 139.414062 179.085938 139.5 179.324219 139.613281 179.554688 C 139.722656 179.78125 139.855469 180 140.011719 180.199219 C 140.164062 180.402344 140.335938 180.589844 140.527344 180.757812 C 140.71875 180.925781 140.925781 181.074219 141.144531 181.199219 C 141.367188 181.328125 141.597656 181.433594 141.839844 181.511719 C 142.078125 181.59375 142.328125 181.652344 142.578125 181.683594 C 142.832031 181.714844 143.085938 181.722656 143.339844 181.707031 C 143.59375 181.6875 143.84375 181.644531 144.085938 181.578125 C 144.332031 181.511719 144.570312 181.421875 144.796875 181.304688 C 145.023438 181.191406 145.238281 181.054688 145.4375 180.898438 C 145.640625 180.742188 145.824219 180.566406 145.988281 180.375 C 146.152344 180.179688 146.300781 179.972656 146.421875 179.75 L 171.015625 137.167969 L 171.023438 137.15625 L 177.738281 125.511719 C 178.003906 125.058594 178.316406 124.632812 178.664062 124.238281 C 179.015625 123.84375 179.402344 123.488281 179.820312 123.167969 C 180.242188 122.851562 180.691406 122.574219 181.164062 122.34375 C 181.640625 122.113281 182.132812 121.929688 182.640625 121.796875 C 183.152344 121.660156 183.671875 121.578125 184.195312 121.542969 C 184.722656 121.511719 185.25 121.527344 185.773438 121.597656 C 186.296875 121.667969 186.804688 121.789062 187.304688 121.957031 C 187.804688 122.128906 188.285156 122.34375 188.742188 122.609375 C 189.199219 122.871094 189.625 123.175781 190.023438 123.523438 C 190.421875 123.871094 190.78125 124.253906 191.101562 124.671875 C 191.425781 125.089844 191.703125 125.535156 191.9375 126.007812 C 192.171875 126.480469 192.359375 126.972656 192.5 127.480469 C 192.636719 127.992188 192.726562 128.507812 192.765625 129.035156 C 192.800781 129.5625 192.789062 130.085938 192.722656 130.609375 C 192.65625 131.132812 192.539062 131.644531 192.375 132.148438 C 192.210938 132.648438 191.996094 133.128906 191.734375 133.585938 L 184.449219 146.195312 C 184.425781 146.238281 184.40625 146.285156 184.382812 146.328125 L 154.472656 198.125 C 154.339844 198.34375 154.230469 198.574219 154.144531 198.816406 C 154.058594 199.054688 153.996094 199.300781 153.957031 199.554688 C 153.921875 199.808594 153.910156 200.0625 153.921875 200.320312 C 153.9375 200.574219 153.972656 200.828125 154.039062 201.074219 C 154.101562 201.324219 154.1875 201.5625 154.300781 201.792969 C 154.410156 202.023438 154.542969 202.238281 154.699219 202.445312 C 154.855469 202.648438 155.027344 202.835938 155.21875 203.003906 C 155.410156 203.171875 155.617188 203.320312 155.839844 203.449219 C 156.0625 203.578125 156.292969 203.683594 156.535156 203.765625 C 156.777344 203.84375 157.027344 203.902344 157.28125 203.933594 C 157.535156 203.96875 157.789062 203.972656 158.046875 203.953125 C 158.300781 203.9375 158.550781 203.890625 158.796875 203.824219 C 159.042969 203.753906 159.28125 203.664062 159.511719 203.546875 C 159.738281 203.429688 159.953125 203.292969 160.152344 203.132812 C 160.355469 202.972656 160.535156 202.796875 160.703125 202.601562 C 160.867188 202.40625 161.011719 202.195312 161.132812 201.972656 L 191.199219 149.90625 C 191.46875 149.457031 191.785156 149.039062 192.140625 148.652344 C 192.496094 148.261719 192.882812 147.914062 193.308594 147.601562 C 193.730469 147.289062 194.179688 147.023438 194.65625 146.800781 C 195.128906 146.574219 195.621094 146.402344 196.132812 146.273438 C 196.640625 146.144531 197.160156 146.070312 197.683594 146.042969 C 198.207031 146.015625 198.730469 146.039062 199.25 146.117188 C 199.769531 146.191406 200.277344 146.316406 200.773438 146.492188 C 201.269531 146.664062 201.742188 146.886719 202.195312 147.152344 C 202.648438 147.421875 203.070312 147.730469 203.460938 148.078125 C 203.855469 148.429688 204.210938 148.8125 204.527344 149.234375 C 204.84375 149.652344 205.117188 150.097656 205.347656 150.570312 C 205.578125 151.042969 205.757812 151.53125 205.894531 152.039062 C 206.027344 152.546875 206.113281 153.066406 206.144531 153.589844 C 206.179688 154.113281 206.160156 154.636719 206.09375 155.15625 C 206.023438 155.675781 205.90625 156.1875 205.738281 156.683594 C 205.570312 157.183594 205.355469 157.660156 205.09375 158.117188 L 180.871094 200.074219 L 180.859375 200.089844 L 163.460938 230.238281 C 163.328125 230.457031 163.214844 230.6875 163.128906 230.929688 C 163.039062 231.167969 162.976562 231.417969 162.941406 231.671875 C 162.902344 231.925781 162.890625 232.179688 162.902344 232.433594 C 162.914062 232.691406 162.953125 232.945312 163.015625 233.191406 C 163.078125 233.441406 163.167969 233.679688 163.277344 233.910156 C 163.390625 234.144531 163.523438 234.359375 163.679688 234.566406 C 163.832031 234.769531 164.007812 234.957031 164.199219 235.125 C 164.390625 235.296875 164.597656 235.445312 164.820312 235.574219 C 165.042969 235.703125 165.273438 235.804688 165.519531 235.886719 C 165.761719 235.96875 166.011719 236.027344 166.265625 236.058594 C 166.519531 236.089844 166.773438 236.097656 167.03125 236.078125 C 167.285156 236.058594 167.539062 236.015625 167.785156 235.945312 C 168.03125 235.875 168.269531 235.78125 168.496094 235.664062 C 168.726562 235.546875 168.941406 235.410156 169.140625 235.25 C 169.339844 235.089844 169.523438 234.914062 169.6875 234.714844 C 169.855469 234.519531 169.996094 234.308594 170.121094 234.082031 L 187.519531 203.9375 L 187.527344 203.921875 C 187.847656 203.375 188.222656 202.863281 188.644531 202.386719 C 189.066406 201.914062 189.527344 201.484375 190.035156 201.097656 C 190.539062 200.714844 191.078125 200.382812 191.652344 200.105469 C 192.222656 199.828125 192.816406 199.605469 193.429688 199.445312 C 194.042969 199.28125 194.667969 199.183594 195.300781 199.140625 C 195.9375 199.101562 196.566406 199.125 197.199219 199.210938 C 197.828125 199.292969 198.441406 199.4375 199.042969 199.644531 C 199.644531 199.847656 200.21875 200.109375 200.769531 200.429688 C 201.320312 200.746094 201.835938 201.117188 202.3125 201.535156 C 202.789062 201.953125 203.222656 202.414062 203.609375 202.917969 C 203.996094 203.421875 204.328125 203.960938 204.613281 204.53125 C 204.894531 205.097656 205.117188 205.691406 205.28125 206.304688 C 205.449219 206.917969 205.550781 207.539062 205.597656 208.175781 C 205.640625 208.808594 205.621094 209.441406 205.539062 210.070312 C 205.457031 210.699219 205.316406 211.316406 205.117188 211.917969 C 204.914062 212.523438 204.65625 213.097656 204.339844 213.652344 L 179.703125 256.328125 C 178.609375 258.230469 177.410156 260.058594 176.105469 261.820312 C 174.800781 263.582031 173.402344 265.265625 171.902344 266.863281 C 170.40625 268.464844 168.820312 269.972656 167.148438 271.390625 C 165.476562 272.808594 163.730469 274.125 161.90625 275.34375 C 160.082031 276.558594 158.195312 277.664062 156.246094 278.664062 C 154.292969 279.664062 152.292969 280.546875 150.238281 281.3125 C 148.183594 282.082031 146.09375 282.726562 143.96875 283.253906 C 141.839844 283.78125 139.6875 284.183594 137.515625 284.464844 Z M 287.632812 259.621094 C 287.605469 259.832031 287.492188 259.96875 287.289062 260.03125 L 272.183594 266.210938 C 271.1875 266.617188 270.488281 267.316406 270.078125 268.3125 L 263.894531 283.433594 C 263.859375 283.542969 263.796875 283.632812 263.703125 283.695312 C 263.605469 283.761719 263.5 283.785156 263.386719 283.773438 C 263.269531 283.785156 263.164062 283.757812 263.066406 283.691406 C 262.96875 283.621094 262.90625 283.53125 262.875 283.417969 L 256.695312 268.3125 C 256.289062 267.316406 255.585938 266.617188 254.589844 266.210938 L 239.46875 260.023438 C 239.359375 259.992188 239.273438 259.925781 239.210938 259.832031 C 239.144531 259.738281 239.121094 259.632812 239.128906 259.519531 C 239.121094 259.402344 239.148438 259.292969 239.214844 259.195312 C 239.28125 259.101562 239.375 259.035156 239.488281 259.003906 L 254.589844 252.824219 C 255.585938 252.417969 256.289062 251.71875 256.695312 250.722656 L 262.882812 235.601562 C 262.972656 235.375 263.144531 235.261719 263.386719 235.261719 C 263.632812 235.261719 263.800781 235.375 263.894531 235.601562 L 263.898438 235.617188 L 270.078125 250.722656 C 270.488281 251.71875 271.1875 252.417969 272.183594 252.824219 L 287.292969 259.007812 C 287.496094 259.070312 287.609375 259.210938 287.632812 259.421875 C 287.628906 259.488281 287.632812 259.554688 287.632812 259.621094 Z M 300.171875 239.808594 C 300.167969 241.175781 300.007812 242.527344 299.695312 243.859375 C 299.382812 245.191406 298.925781 246.472656 298.320312 247.699219 C 297.71875 248.925781 296.984375 250.070312 296.125 251.132812 C 295.261719 252.195312 294.289062 253.148438 293.210938 253.988281 C 292.367188 253.058594 291.363281 252.355469 290.199219 251.882812 L 276.589844 246.316406 L 271.023438 232.707031 C 270.714844 231.949219 270.300781 231.25 269.785156 230.613281 C 269.265625 229.976562 268.667969 229.429688 267.988281 228.972656 C 267.308594 228.515625 266.578125 228.167969 265.792969 227.925781 C 265.007812 227.6875 264.207031 227.570312 263.386719 227.570312 C 262.570312 227.570312 261.765625 227.6875 260.984375 227.925781 C 260.199219 228.167969 259.46875 228.515625 258.789062 228.972656 C 258.105469 229.429688 257.507812 229.976562 256.992188 230.613281 C 256.476562 231.25 256.0625 231.949219 255.753906 232.707031 L 250.1875 246.316406 L 236.589844 251.875 C 235.960938 252.128906 235.375 252.453125 234.828125 252.847656 C 234.28125 253.246094 233.789062 253.703125 233.355469 254.222656 C 232.921875 254.742188 232.554688 255.304688 232.261719 255.914062 C 231.96875 256.523438 231.75 257.15625 231.613281 257.820312 L 187.730469 257.820312 L 211.011719 217.496094 C 211.800781 216.128906 212.394531 214.679688 212.789062 213.152344 C 213.183594 211.625 213.371094 210.070312 213.34375 208.492188 C 213.316406 206.914062 213.078125 205.371094 212.632812 203.855469 C 212.183594 202.34375 211.542969 200.917969 210.707031 199.578125 C 209.871094 198.238281 208.871094 197.035156 207.707031 195.96875 C 206.546875 194.902344 205.261719 194.007812 203.855469 193.292969 C 202.449219 192.574219 200.972656 192.058594 199.425781 191.742188 C 197.878906 191.425781 196.320312 191.324219 194.746094 191.433594 L 211.761719 161.957031 C 212.457031 160.75 212.984375 159.476562 213.339844 158.128906 C 213.699219 156.785156 213.875 155.414062 213.867188 154.023438 C 213.863281 152.632812 213.675781 151.261719 213.308594 149.921875 C 212.941406 148.578125 212.40625 147.304688 211.699219 146.105469 C 210.996094 144.902344 210.144531 143.816406 209.152344 142.839844 C 208.160156 141.863281 207.058594 141.035156 205.84375 140.351562 C 204.632812 139.667969 203.351562 139.152344 202 138.808594 C 200.652344 138.464844 199.28125 138.300781 197.890625 138.320312 L 198.40625 137.429688 C 198.917969 136.53125 199.339844 135.59375 199.671875 134.617188 C 200 133.640625 200.234375 132.636719 200.367188 131.613281 C 200.5 130.589844 200.53125 129.5625 200.464844 128.535156 C 200.394531 127.503906 200.226562 126.492188 199.960938 125.492188 C 199.691406 124.496094 199.332031 123.535156 198.875 122.609375 C 198.417969 121.683594 197.878906 120.808594 197.25 119.988281 C 196.621094 119.171875 195.921875 118.417969 195.144531 117.738281 C 194.371094 117.054688 193.539062 116.453125 192.644531 115.9375 C 191.753906 115.417969 190.816406 114.992188 189.839844 114.65625 C 188.863281 114.320312 187.863281 114.085938 186.839844 113.945312 C 185.820312 113.808594 184.792969 113.769531 183.761719 113.832031 C 182.730469 113.894531 181.71875 114.058594 180.71875 114.320312 C 179.71875 114.582031 178.757812 114.941406 177.828125 115.390625 C 176.898438 115.84375 176.023438 116.378906 175.203125 117.003906 C 174.378906 117.628906 173.625 118.324219 172.9375 119.097656 C 172.25 119.867188 171.648438 120.699219 171.125 121.589844 C 170.445312 120.371094 169.621094 119.265625 168.648438 118.265625 C 167.675781 117.269531 166.589844 116.414062 165.390625 115.703125 C 164.191406 114.996094 162.921875 114.453125 161.578125 114.082031 C 160.234375 113.707031 158.867188 113.515625 157.476562 113.507812 C 156.082031 113.496094 154.710938 113.667969 153.363281 114.023438 C 152.015625 114.375 150.738281 114.898438 149.527344 115.59375 C 148.320312 116.285156 147.222656 117.125 146.234375 118.109375 C 145.25 119.089844 144.40625 120.1875 143.710938 121.394531 L 141.074219 125.953125 C 139.945312 123.917969 138.4375 122.21875 136.546875 120.855469 L 136.546875 112.191406 C 136.550781 111.601562 136.578125 111.015625 136.636719 110.429688 C 136.695312 109.84375 136.78125 109.257812 136.898438 108.679688 C 137.011719 108.101562 137.15625 107.53125 137.328125 106.96875 C 137.496094 106.402344 137.695312 105.847656 137.921875 105.304688 C 138.148438 104.757812 138.398438 104.226562 138.675781 103.707031 C 138.957031 103.1875 139.257812 102.683594 139.585938 102.191406 C 139.914062 101.703125 140.261719 101.230469 140.636719 100.773438 C 141.011719 100.316406 141.40625 99.878906 141.824219 99.464844 C 142.238281 99.046875 142.675781 98.652344 143.132812 98.277344 C 143.585938 97.902344 144.058594 97.550781 144.550781 97.222656 C 145.039062 96.894531 145.546875 96.59375 146.066406 96.3125 C 146.585938 96.035156 147.117188 95.78125 147.660156 95.558594 C 148.207031 95.332031 148.757812 95.132812 149.324219 94.960938 C 149.886719 94.789062 150.457031 94.644531 151.035156 94.527344 C 151.613281 94.414062 152.199219 94.324219 152.785156 94.265625 C 153.371094 94.207031 153.957031 94.179688 154.546875 94.179688 L 272.183594 94.179688 L 278.304688 96.683594 L 283.871094 110.289062 C 284.183594 111.046875 284.597656 111.742188 285.113281 112.378906 C 285.632812 113.011719 286.234375 113.558594 286.914062 114.015625 C 287.59375 114.472656 288.324219 114.820312 289.109375 115.058594 C 289.894531 115.296875 290.695312 115.414062 291.515625 115.414062 C 292.332031 115.414062 293.132812 115.296875 293.917969 115.058594 C 294.703125 114.820312 295.433594 114.472656 296.113281 114.015625 C 296.796875 113.558594 297.394531 113.011719 297.914062 112.378906 C 298.429688 111.742188 298.84375 111.046875 299.15625 110.289062 L 299.816406 108.675781 C 300.050781 109.835938 300.171875 111.007812 300.175781 112.191406 Z M 315.40625 83.996094 L 300.300781 90.175781 C 299.304688 90.582031 298.605469 91.285156 298.195312 92.285156 L 296.09375 97.4375 C 296.070312 97.484375 296.054688 97.535156 296.035156 97.582031 L 292.042969 107.363281 C 292.007812 107.476562 291.941406 107.570312 291.839844 107.636719 C 291.738281 107.707031 291.628906 107.734375 291.507812 107.726562 C 291.390625 107.738281 291.285156 107.710938 291.191406 107.644531 C 291.09375 107.582031 291.027344 107.496094 290.992188 107.386719 L 284.816406 92.28125 C 284.40625 91.285156 283.707031 90.582031 282.710938 90.175781 L 274.539062 86.832031 C 274.460938 86.796875 274.382812 86.765625 274.300781 86.734375 L 267.601562 83.996094 C 267.492188 83.960938 267.40625 83.894531 267.34375 83.800781 C 267.28125 83.703125 267.253906 83.597656 267.265625 83.484375 C 267.242188 83.222656 267.351562 83.046875 267.601562 82.957031 L 282.707031 76.792969 C 283.707031 76.386719 284.40625 75.683594 284.816406 74.6875 L 291 59.566406 C 291.035156 59.457031 291.097656 59.371094 291.191406 59.304688 C 291.289062 59.242188 291.394531 59.214844 291.507812 59.226562 C 291.628906 59.21875 291.738281 59.246094 291.835938 59.3125 C 291.9375 59.382812 292.003906 59.472656 292.039062 59.589844 L 298.199219 74.683594 C 298.605469 75.683594 299.308594 76.386719 300.304688 76.792969 L 315.394531 82.949219 C 315.511719 82.984375 315.605469 83.050781 315.675781 83.152344 C 315.746094 83.25 315.773438 83.363281 315.765625 83.484375 C 315.773438 83.601562 315.746094 83.707031 315.679688 83.804688 C 315.613281 83.902344 315.519531 83.964844 315.40625 83.996094 Z M 206.226562 303.960938 L 210.320312 314 C 210.59375 314.65625 210.957031 315.261719 211.410156 315.816406 C 211.863281 316.367188 212.386719 316.839844 212.980469 317.234375 C 213.574219 317.632812 214.214844 317.933594 214.894531 318.140625 C 215.578125 318.347656 216.277344 318.449219 216.992188 318.449219 C 217.707031 318.445312 218.402344 318.339844 219.085938 318.132812 C 219.769531 317.925781 220.40625 317.621094 221 317.222656 C 221.589844 316.824219 222.113281 316.351562 222.5625 315.796875 C 223.015625 315.246094 223.375 314.636719 223.648438 313.976562 L 227.734375 303.960938 L 237.742188 299.871094 C 238.402344 299.601562 239.011719 299.242188 239.566406 298.789062 C 240.121094 298.339844 240.597656 297.816406 240.996094 297.222656 C 241.394531 296.628906 241.699219 295.988281 241.90625 295.304688 C 242.117188 294.621094 242.21875 293.921875 242.21875 293.207031 C 242.21875 292.492188 242.117188 291.789062 241.90625 291.105469 C 241.699219 290.421875 241.394531 289.785156 240.996094 289.191406 C 240.59375 288.597656 240.117188 288.074219 239.5625 287.625 C 239.007812 287.171875 238.398438 286.8125 237.738281 286.542969 L 227.734375 282.457031 L 223.648438 272.4375 L 223.636719 272.417969 C 223.367188 271.757812 223.003906 271.152344 222.550781 270.601562 C 222.097656 270.050781 221.574219 269.574219 220.980469 269.179688 C 220.386719 268.785156 219.746094 268.480469 219.0625 268.277344 C 218.382812 268.070312 217.683594 267.96875 216.96875 267.96875 C 216.253906 267.96875 215.558594 268.074219 214.875 268.28125 C 214.191406 268.492188 213.554688 268.792969 212.960938 269.191406 C 212.371094 269.589844 211.847656 270.066406 211.398438 270.617188 C 210.945312 271.171875 210.585938 271.777344 210.3125 272.4375 L 206.226562 282.457031 L 196.1875 286.550781 C 195.527344 286.824219 194.921875 287.1875 194.371094 287.636719 C 193.820312 288.089844 193.347656 288.613281 192.949219 289.207031 C 192.554688 289.800781 192.253906 290.441406 192.046875 291.125 C 191.839844 291.808594 191.738281 292.503906 191.738281 293.21875 C 191.742188 293.933594 191.84375 294.632812 192.054688 295.3125 C 192.261719 295.996094 192.566406 296.632812 192.964844 297.226562 C 193.363281 297.816406 193.835938 298.339844 194.390625 298.792969 C 194.941406 299.242188 195.550781 299.605469 196.210938 299.875 Z M 210.632812 288.96875 C 211.628906 288.558594 212.332031 287.855469 212.738281 286.859375 L 216.980469 276.460938 L 221.21875 286.859375 C 221.625 287.855469 222.328125 288.558594 223.324219 288.964844 L 233.710938 293.203125 L 223.324219 297.441406 C 222.328125 297.851562 221.625 298.554688 221.21875 299.550781 L 216.980469 309.949219 L 212.742188 299.550781 C 212.332031 298.550781 211.628906 297.851562 210.632812 297.441406 L 200.234375 293.203125 Z M 277.457031 121.136719 L 267.433594 117.035156 L 263.347656 107.035156 C 263.078125 106.375 262.71875 105.765625 262.265625 105.207031 C 261.816406 104.652344 261.292969 104.175781 260.699219 103.773438 C 260.105469 103.375 259.46875 103.070312 258.78125 102.859375 C 258.097656 102.652344 257.398438 102.546875 256.683594 102.546875 C 255.964844 102.546875 255.265625 102.648438 254.582031 102.859375 C 253.898438 103.066406 253.257812 103.371094 252.664062 103.769531 C 252.070312 104.167969 251.546875 104.644531 251.09375 105.203125 C 250.640625 105.757812 250.28125 106.367188 250.011719 107.027344 L 245.925781 117.039062 L 235.953125 121.125 C 235.289062 121.390625 234.675781 121.75 234.117188 122.199219 C 233.558594 122.648438 233.078125 123.171875 232.675781 123.765625 C 232.273438 124.359375 231.96875 124.996094 231.757812 125.683594 C 231.546875 126.367188 231.441406 127.070312 231.4375 127.785156 C 231.4375 128.503906 231.539062 129.203125 231.746094 129.890625 C 231.953125 130.578125 232.257812 131.21875 232.65625 131.8125 C 233.058594 132.410156 233.535156 132.933594 234.089844 133.386719 C 234.648438 133.835938 235.257812 134.199219 235.921875 134.46875 L 245.925781 138.554688 L 250.011719 148.5625 C 250.28125 149.226562 250.644531 149.835938 251.09375 150.390625 C 251.546875 150.945312 252.070312 151.421875 252.664062 151.820312 C 253.257812 152.21875 253.894531 152.523438 254.578125 152.730469 C 255.265625 152.941406 255.964844 153.042969 256.679688 153.042969 C 257.394531 153.042969 258.09375 152.9375 258.777344 152.730469 C 259.460938 152.519531 260.101562 152.21875 260.695312 151.816406 C 261.289062 151.417969 261.8125 150.941406 262.261719 150.386719 C 262.714844 149.832031 263.074219 149.222656 263.34375 148.5625 L 267.429688 138.558594 L 277.46875 134.460938 C 278.128906 134.1875 278.734375 133.824219 279.285156 133.375 C 279.835938 132.921875 280.308594 132.398438 280.703125 131.804688 C 281.101562 131.210938 281.402344 130.570312 281.609375 129.890625 C 281.816406 129.207031 281.917969 128.507812 281.917969 127.792969 C 281.917969 127.082031 281.8125 126.382812 281.605469 125.699219 C 281.394531 125.019531 281.09375 124.382812 280.695312 123.789062 C 280.296875 123.195312 279.824219 122.675781 279.269531 122.222656 C 278.71875 121.769531 278.113281 121.410156 277.453125 121.136719 Z M 263.03125 132.042969 C 262.03125 132.449219 261.328125 133.148438 260.921875 134.148438 L 256.683594 144.53125 L 252.445312 134.148438 C 252.039062 133.152344 251.335938 132.449219 250.339844 132.042969 L 239.953125 127.800781 L 250.34375 123.542969 C 251.335938 123.132812 252.039062 122.433594 252.445312 121.4375 L 256.683594 111.050781 L 260.921875 121.4375 C 261.328125 122.433594 262.03125 123.136719 263.027344 123.542969 L 273.429688 127.800781 Z M 263.03125 132.042969 " fill-opacity="1" fill-rule="nonzero"/></g></svg>