<svg xmlns="http://www.w3.org/2000/svg" xmlns:xlink="http://www.w3.org/1999/xlink" width="1000" zoomAndPan="magnify" viewBox="0 0 750 749.999995" height="1000" preserveAspectRatio="xMidYMid meet" version="1.0"><defs><clipPath id="f78d1be7f4"><path d="M 26.667969 24.617188 L 705 24.617188 L 705 725.339844 L 26.667969 725.339844 Z M 26.667969 24.617188 " clip-rule="nonzero"/></clipPath><clipPath id="48f115ec4a"><path d="M 624.597656 374 L 723.296875 374 L 723.296875 616 L 624.597656 616 Z M 624.597656 374 " clip-rule="nonzero"/></clipPath></defs><g clip-path="url(#f78d1be7f4)"><path fill="#c81d2a" d="M 557.121094 664.09375 C 553.980469 665.984375 550.804688 667.28125 547.730469 668.570312 C 544.738281 669.777344 541.773438 670.976562 538.765625 672.191406 L 548.679688 666.394531 C 550.328125 665.40625 552.011719 664.480469 553.628906 663.449219 L 558.476562 660.347656 C 562.648438 657.679688 567 655.128906 570.976562 652.484375 C 571.875 651.914062 573.082031 652.394531 572.964844 652.492188 C 567.957031 656.675781 562.207031 661.121094 557.121094 664.09375 Z M 530.386719 681.660156 C 529.355469 682.550781 528.183594 683.484375 526.847656 684.460938 C 525.492188 685.40625 523.941406 686.351562 522.195312 687.367188 C 520.449219 688.378906 518.492188 689.441406 516.292969 690.558594 C 514.097656 691.671875 511.679688 692.886719 508.894531 693.960938 L 497.648438 698.484375 C 493.878906 699.953125 490.023438 701.191406 486.210938 702.542969 L 480.464844 704.515625 C 478.535156 705.121094 476.585938 705.667969 474.644531 706.242188 C 470.753906 707.363281 466.875 708.53125 462.960938 709.578125 C 455.082031 711.414062 447.234375 713.449219 439.246094 714.722656 L 433.269531 715.777344 L 430.285156 716.292969 C 429.289062 716.457031 428.28125 716.5625 427.285156 716.695312 C 423.277344 717.179688 419.269531 717.667969 415.265625 718.15625 C 391.308594 720.609375 367.300781 719.835938 343.847656 716.765625 C 342.371094 716.621094 340.960938 716.320312 339.597656 716.003906 C 338.234375 715.6875 336.914062 715.335938 335.617188 714.972656 C 333.015625 714.242188 330.496094 713.449219 327.863281 712.753906 C 330.667969 712.609375 333.265625 712.300781 335.96875 712.085938 C 337.324219 711.980469 338.703125 711.894531 340.152344 711.863281 C 341.601562 711.839844 343.121094 711.851562 344.761719 711.859375 C 349.421875 711.949219 354.566406 712.160156 359.71875 712.476562 C 364.871094 712.585938 370.03125 712.773438 374.722656 713.101562 L 377.390625 713.28125 L 380.066406 713.339844 L 385.410156 713.429688 C 388.976562 713.449219 392.546875 713.570312 396.113281 713.453125 C 399.683594 713.285156 403.25 713.117188 406.816406 712.945312 L 412.167969 712.640625 L 417.5 712.078125 L 428.164062 710.867188 C 431.703125 710.367188 435.222656 709.71875 438.75 709.121094 C 445.824219 708.03125 452.769531 706.269531 459.734375 704.640625 L 462.34375 704.011719 L 464.921875 703.269531 L 470.070312 701.769531 L 475.214844 700.242188 C 476.925781 699.730469 478.644531 699.234375 480.320312 698.617188 C 487.050781 696.203125 493.84375 693.976562 500.386719 691.09375 C 503.675781 689.703125 506.984375 688.363281 510.238281 686.898438 L 519.882812 682.261719 C 521.480469 681.476562 523.09375 680.71875 524.679688 679.910156 L 529.375 677.355469 L 538.480469 672.347656 C 536.472656 675.222656 534.492188 678.121094 530.386719 681.660156 Z M 432.117188 692.859375 C 433.40625 691.4375 437.664062 689.734375 442.671875 686.917969 C 448.804688 687.242188 452.425781 687.4375 456.042969 687.628906 C 451.203125 689.429688 446.738281 691.496094 441.207031 692.960938 C 439.171875 693.460938 431.628906 693.386719 432.117188 692.859375 Z M 490.316406 686.253906 C 494.273438 684.332031 497.707031 682.558594 501.402344 680.972656 C 502.5 680.476562 505.175781 680.070312 507.4375 679.785156 C 509.691406 679.5 511.601562 679.492188 511.242188 680.128906 C 511.019531 680.527344 510.417969 681.113281 509.5625 681.804688 C 508.707031 682.5 507.601562 683.3125 506.316406 684.0625 C 503.769531 685.597656 500.660156 687.214844 497.996094 688.308594 C 493.234375 690.371094 487.15625 690.753906 476.175781 692.71875 C 481.851562 690.207031 486.320312 688.082031 490.316406 686.253906 Z M 273.742188 704.160156 L 268.710938 701.859375 L 275.027344 703.632812 C 274.59375 703.824219 274.171875 703.980469 273.742188 704.160156 Z M 157.441406 588.375 C 156.398438 587.242188 155.753906 585.964844 154.945312 584.753906 L 158.839844 588.0625 C 159.652344 589.238281 160.414062 590.46875 161.277344 591.605469 C 159.9375 590.585938 158.519531 589.527344 157.441406 588.375 Z M 150.308594 634.824219 C 148.917969 633.800781 147.578125 632.78125 146.351562 631.785156 C 145.738281 631.285156 145.148438 630.800781 144.601562 630.308594 C 144.070312 629.800781 143.574219 629.300781 143.117188 628.816406 C 140.902344 626.441406 139.261719 624.214844 137.796875 622.039062 C 137.085938 620.957031 136.382812 619.878906 135.679688 618.796875 C 134.96875 617.730469 134.273438 616.640625 133.566406 615.5 L 125.582031 607.625 L 132.71875 614.539062 L 134.9375 616.675781 L 137.257812 618.703125 C 138.800781 620.050781 140.339844 621.386719 141.851562 622.703125 C 144.863281 625.355469 147.726562 627.976562 150.414062 630.410156 C 154.148438 633.890625 155.945312 637.464844 158.726562 640.941406 C 156.039062 638.988281 153.09375 636.847656 150.308594 634.824219 Z M 103.296875 511.621094 C 102.878906 512.613281 100.878906 511.585938 98.851562 510.027344 C 97.816406 509.257812 96.839844 508.328125 96.066406 507.460938 C 95.289062 506.597656 94.695312 505.804688 94.484375 505.292969 C 93.277344 502.390625 92.070312 499.660156 90.863281 497.066406 C 90.238281 495.777344 89.707031 494.476562 89.160156 493.21875 C 88.605469 491.960938 88.054688 490.730469 87.515625 489.519531 C 86.414062 487.105469 85.308594 484.792969 84.191406 482.546875 C 83.109375 480.289062 82.152344 478.054688 81.121094 475.878906 C 80.09375 473.699219 79.074219 471.546875 78.0625 469.402344 L 77.296875 467.792969 L 76.609375 466.160156 C 76.152344 465.070312 75.695312 463.972656 75.238281 462.875 C 74.328125 460.671875 73.421875 458.445312 72.53125 456.15625 C 72.09375 455.011719 71.613281 453.859375 71.226562 452.671875 C 70.851562 451.46875 70.472656 450.261719 70.09375 449.035156 C 68.949219 445.246094 68.035156 436.292969 68.628906 433.332031 C 69.390625 428.398438 71.867188 428.652344 72.179688 422.839844 C 72.242188 421.03125 72.503906 419.585938 72.699219 418.496094 C 72.90625 417.398438 73.128906 416.644531 73.359375 416.1875 C 73.824219 415.273438 74.320312 415.546875 74.84375 416.683594 C 75.101562 417.253906 75.367188 418.042969 75.636719 419 C 75.890625 419.964844 76.175781 421.101562 76.53125 422.363281 C 77.207031 424.894531 77.910156 427.972656 78.621094 431.289062 C 78.914062 432.71875 79.210938 434.15625 79.507812 435.578125 C 79.855469 436.996094 80.199219 438.402344 80.535156 439.777344 C 81.175781 442.539062 81.792969 445.191406 82.347656 447.585938 C 82.847656 449.996094 83.445312 452.105469 83.914062 453.828125 C 84.378906 455.546875 84.738281 456.867188 84.953125 457.648438 C 85.640625 459.820312 86.289062 461.875 86.90625 463.816406 C 87.539062 465.753906 88.28125 467.539062 88.90625 469.25 C 90.203125 472.65625 91.355469 475.683594 92.402344 478.429688 C 94.726562 483.839844 96.53125 488.152344 97.917969 492.265625 C 99.328125 495.886719 100.800781 500.320312 101.832031 504.074219 C 102.074219 505.011719 102.308594 505.902344 102.523438 506.730469 C 102.75 507.542969 102.945312 508.289062 103.089844 508.945312 C 103.371094 510.257812 103.46875 511.214844 103.296875 511.621094 Z M 77.371094 546.566406 L 74.925781 541.027344 L 78.5625 546.476562 Z M 67.515625 392.414062 C 66.890625 400.453125 65.671875 405.296875 63.015625 400.414062 C 61.601562 397.769531 60.488281 394.160156 59.785156 389.902344 C 59.210938 385.636719 58.960938 380.726562 58.9375 375.507812 C 59.046875 370.292969 59.582031 364.773438 60.152344 359.28125 C 60.882812 353.789062 61.945312 348.328125 62.898438 343.1875 C 64 338.128906 65.253906 332.363281 66.300781 326.40625 C 66.972656 323.453125 67.617188 320.449219 68.21875 317.464844 C 68.859375 314.484375 69.292969 311.492188 69.996094 308.652344 C 78.417969 267.5625 95.265625 228.183594 119.125 193.589844 C 142.945312 158.96875 173.726562 129.105469 209.207031 106.300781 C 210.488281 105.464844 211.84375 104.574219 213.242188 103.65625 C 214.675781 102.796875 216.15625 101.910156 217.648438 101.015625 C 220.636719 99.21875 223.65625 97.34375 226.492188 95.578125 C 232.28125 92.273438 237.222656 89.21875 239.183594 87.339844 C 243.277344 83.730469 247.128906 80.789062 250.804688 78.417969 C 254.507812 76.113281 258.101562 74.550781 261.558594 73.335938 C 263.296875 72.746094 265 72.257812 266.703125 71.882812 C 268.429688 71.574219 270.140625 71.363281 271.859375 71.234375 C 275.296875 70.980469 278.742188 71.066406 282.316406 71.386719 C 284.378906 71.601562 288.835938 71.015625 293.132812 70.429688 C 295.289062 70.148438 297.394531 69.84375 299.179688 69.734375 C 300.972656 69.65625 302.414062 69.695312 303.199219 69.9375 C 309.0625 71.757812 310.398438 74.960938 313.519531 77.613281 L 305.457031 79.726562 L 301.4375 80.796875 L 297.464844 82.054688 C 292.171875 83.738281 286.847656 85.277344 281.628906 87.175781 C 279.976562 87.738281 278.3125 88.257812 276.585938 88.765625 C 274.859375 89.285156 273.058594 89.738281 271.210938 90.378906 C 267.503906 91.59375 263.363281 92.851562 258.511719 94.523438 C 255.304688 95.675781 251.90625 97.320312 248.355469 99.179688 C 247.46875 99.648438 246.570312 100.125 245.660156 100.609375 C 244.773438 101.136719 243.875 101.675781 242.96875 102.222656 C 241.15625 103.296875 239.300781 104.402344 237.429688 105.515625 C 235.558594 106.640625 233.597656 107.636719 231.699219 108.792969 C 229.789062 109.917969 227.839844 111 225.84375 112.003906 C 223.851562 113.011719 221.800781 113.933594 219.714844 114.761719 C 217.671875 115.671875 215.574219 116.46875 213.417969 117.132812 C 212.632812 117.371094 210.855469 118.542969 208.453125 120.285156 C 207.855469 120.726562 207.203125 121.179688 206.546875 121.703125 C 205.894531 122.238281 205.210938 122.804688 204.496094 123.394531 C 203.078125 124.578125 201.542969 125.859375 199.941406 127.203125 C 198.351562 128.558594 196.664062 129.917969 195.011719 131.378906 C 193.378906 132.859375 191.726562 134.355469 190.101562 135.828125 C 188.464844 137.289062 186.84375 138.714844 185.277344 140.058594 C 183.71875 141.410156 182.296875 142.785156 180.914062 143.960938 C 164.554688 157.957031 149.597656 173.894531 136.402344 190.992188 C 134.679688 193.074219 133.148438 195.296875 131.5625 197.476562 C 129.980469 199.660156 128.398438 201.839844 126.820312 204.019531 C 123.78125 208.453125 120.871094 212.960938 117.90625 217.414062 C 116.527344 219.699219 115.148438 221.984375 113.769531 224.261719 L 111.703125 227.675781 C 111.007812 228.808594 110.308594 229.941406 109.691406 231.117188 C 108.40625 233.4375 107.128906 235.753906 105.855469 238.066406 C 104.578125 240.378906 103.242188 242.65625 102.113281 245.023438 C 100.636719 248.003906 99.175781 250.945312 97.730469 253.867188 C 97.378906 254.601562 97.007812 255.324219 96.675781 256.066406 L 95.71875 258.300781 C 95.09375 259.792969 94.464844 261.273438 93.839844 262.753906 C 93.222656 264.238281 92.605469 265.71875 91.988281 267.195312 L 91.074219 269.40625 L 90.265625 271.65625 C 89.210938 274.664062 88.164062 277.660156 87.117188 280.648438 C 86.019531 283.625 85.21875 286.691406 84.335938 289.734375 C 83.484375 292.785156 82.570312 295.828125 81.792969 298.914062 C 81.097656 302.023438 80.398438 305.140625 79.691406 308.277344 C 79.347656 309.851562 79.003906 311.421875 78.65625 313.003906 C 78.386719 314.601562 78.117188 316.203125 77.847656 317.8125 C 77.523438 319.730469 77.175781 321.664062 76.804688 323.613281 C 76.457031 325.566406 75.96875 327.507812 75.695312 329.496094 C 75.058594 333.457031 74.339844 337.441406 73.585938 341.40625 C 73.15625 343.382812 72.949219 345.375 72.621094 347.351562 C 72.3125 349.320312 72.003906 351.285156 71.699219 353.230469 C 71.394531 355.171875 71.046875 357.097656 70.773438 359 C 70.542969 360.90625 70.316406 362.785156 70.097656 364.632812 C 68.894531 373.03125 68.335938 384.355469 67.515625 392.414062 Z M 93.933594 221.960938 C 94.617188 220.355469 95.445312 218.828125 96.199219 217.265625 C 97.757812 214.15625 99.363281 211.078125 101.101562 208.121094 C 103.605469 204.082031 106.355469 200.226562 109.054688 196.367188 C 110.378906 194.417969 111.871094 192.59375 113.3125 190.730469 L 117.660156 185.164062 C 115.621094 188.523438 113.585938 191.890625 111.449219 195.425781 C 109.480469 199.050781 107.414062 202.851562 105.160156 207.007812 C 103.90625 208.589844 102.816406 210.253906 101.671875 211.886719 C 100.542969 213.523438 99.417969 215.160156 98.292969 216.789062 C 97.171875 218.425781 96.03125 220.042969 94.941406 221.695312 L 91.8125 226.722656 C 92.519531 225.140625 93.222656 223.554688 93.933594 221.960938 Z M 141.832031 141.632812 C 142.992188 140.425781 144.363281 139.652344 145.667969 138.726562 L 143.851562 140.804688 L 142.117188 142.964844 L 138.394531 145.882812 C 139.53125 144.453125 140.613281 142.867188 141.832031 141.632812 Z M 183.710938 117.621094 C 183.875 117.488281 184.515625 117.734375 184.933594 117.808594 C 181.574219 120.585938 178.21875 123.359375 174.851562 126.148438 C 174.699219 126.269531 173.945312 126.046875 173.476562 125.992188 C 176.863281 123.1875 180.257812 120.382812 183.710938 117.621094 Z M 188.230469 87.832031 L 197.8125 81.824219 C 199.394531 80.800781 201.0625 79.929688 202.703125 79 L 207.640625 76.257812 C 214.164062 72.5 221.027344 69.378906 227.765625 66.046875 C 227.53125 67.175781 228.9375 67.773438 226.796875 69.515625 C 224.125 71.695312 221.285156 73.679688 218.3125 75.515625 L 216.058594 76.867188 L 213.816406 78.257812 C 212.304688 79.171875 210.769531 80.054688 209.207031 80.914062 C 207.648438 81.769531 206.066406 82.605469 204.46875 83.417969 C 202.859375 84.222656 201.25 85.011719 199.671875 85.878906 C 196.5 87.5625 193.28125 89.1875 190.066406 90.785156 C 188.214844 91.71875 186.992188 91.816406 185.53125 92.390625 C 186.335938 90.792969 186.992188 88.640625 188.230469 87.832031 Z M 296.097656 42.664062 L 298.082031 43.046875 L 293.726562 43.972656 Z M 355.28125 82.269531 C 355.042969 82.289062 354.800781 82.300781 354.558594 82.320312 C 354.6875 82.292969 354.8125 82.265625 354.9375 82.238281 C 354.976562 82.226562 355.097656 82.238281 355.28125 82.269531 Z M 362.96875 69.601562 C 364.804688 68.886719 367.8125 68.042969 371.339844 67.234375 C 373.105469 66.828125 375 66.433594 376.933594 66.0625 C 378.867188 65.757812 380.847656 65.539062 382.78125 65.339844 C 386.644531 64.945312 390.332031 64.75 393.109375 64.859375 C 396.160156 65.125 401.75 67.335938 400.835938 67.554688 C 399.167969 67.964844 397.417969 68.355469 395.640625 68.734375 C 394.75 68.917969 393.855469 69.105469 392.957031 69.292969 L 390.253906 69.960938 C 386.667969 70.832031 383.140625 71.691406 379.933594 72.46875 C 377.414062 72.144531 375.160156 72.082031 373.15625 71.988281 C 371.152344 71.898438 369.402344 71.824219 367.890625 71.757812 C 364.875 71.617188 362.820312 71.480469 361.625 71.1875 C 360.472656 70.972656 361.132812 70.292969 362.96875 69.601562 Z M 665 289.738281 C 665.632812 292.433594 666.539062 295.792969 667.269531 298.742188 C 667.929688 301.710938 668.3125 304.289062 668.207031 305.332031 C 667.859375 308.328125 666.378906 308.21875 665.160156 308.863281 C 664.933594 306.476562 664.695312 304.046875 664.46875 301.664062 C 664.1875 298.769531 663.730469 296.023438 663.574219 293.570312 C 663.386719 291.0625 664.488281 290.945312 665 289.738281 Z M 148.457031 191.527344 C 149.617188 189.613281 150.804688 187.695312 152.042969 185.777344 C 154.234375 182.53125 156.496094 179.230469 158.890625 175.859375 C 161.417969 172.613281 164.074219 169.296875 166.90625 165.886719 C 169.796875 162.535156 173.019531 159.25 176.386719 155.773438 C 176.8125 155.339844 177.242188 154.910156 177.671875 154.476562 C 178.125 154.0625 178.578125 153.648438 179.035156 153.226562 C 179.953125 152.398438 180.886719 151.558594 181.828125 150.707031 C 183.722656 149.011719 185.679688 147.292969 187.707031 145.546875 C 190.5 143.277344 193.15625 141.253906 195.566406 139.351562 C 196.78125 138.40625 197.941406 137.5 199.050781 136.640625 C 200.167969 135.785156 201.296875 135.050781 202.339844 134.3125 C 206.566406 131.433594 209.941406 129.105469 212.773438 127.714844 C 217.035156 125.644531 219.691406 125.160156 221.144531 126.511719 C 193.425781 144.011719 168.855469 166.027344 148.457031 191.527344 Z M 130.617188 208.710938 C 130.832031 206.894531 131.128906 205.117188 131.394531 203.304688 C 134.003906 200.320312 136.929688 196.414062 138.96875 194.835938 C 139.417969 194.484375 139.476562 195.203125 139.273438 196.21875 C 139.078125 197.238281 138.683594 198.585938 138.117188 199.441406 C 136.117188 202.496094 133.136719 205.578125 130.617188 208.710938 Z M 81.722656 345.898438 C 81.699219 344.339844 81.785156 342.792969 81.878906 341.238281 C 81.976562 339.679688 82.066406 338.117188 82.164062 336.554688 C 82.273438 334.988281 82.378906 333.414062 82.488281 331.835938 C 82.597656 330.253906 82.707031 328.664062 82.953125 327.085938 C 83.507812 323.003906 84.128906 319.398438 84.8125 316.253906 C 85.125 314.675781 85.550781 313.234375 86.003906 311.902344 C 86.445312 310.570312 86.894531 309.347656 87.355469 308.242188 C 89.21875 303.792969 91.117188 301.0625 93.328125 299.851562 C 93.578125 299.710938 93.832031 299.550781 94.082031 299.402344 C 89.574219 316.492188 86.558594 334.1875 85.210938 352.351562 C 85.164062 352.503906 85.121094 352.648438 85.070312 352.804688 C 84.523438 354.726562 83.960938 356.695312 83.398438 358.652344 C 82.917969 360.625 82.4375 362.578125 81.980469 364.453125 C 81.90625 362.902344 81.835938 361.359375 81.765625 359.8125 C 81.691406 358.265625 81.742188 356.726562 81.726562 355.183594 C 81.726562 352.085938 81.726562 348.996094 81.722656 345.898438 Z M 152.964844 592.171875 C 150.386719 589.859375 147.792969 587.558594 145.191406 585.09375 C 145.023438 584.917969 144.765625 583.550781 144.554688 582.742188 C 145.773438 584.011719 147.066406 585.195312 148.375 586.382812 C 149.667969 587.578125 150.96875 588.785156 152.265625 590.023438 C 152.480469 590.234375 152.730469 591.433594 152.964844 592.171875 Z M 618.101562 621.765625 C 616.167969 623.414062 614.429688 624.824219 612.882812 626.007812 C 611.335938 627.191406 609.980469 628.148438 608.8125 628.890625 C 607.621094 629.601562 606.609375 630.082031 605.804688 630.375 C 602.5625 631.539062 602.46875 629.519531 605.183594 624.859375 C 606.828125 621.800781 610.070312 617.511719 613.707031 612.890625 C 617.109375 608.390625 620.714844 603.453125 623.757812 599.078125 L 616.582031 605.449219 L 612.664062 608.898438 C 611.339844 610.03125 609.960938 611.097656 608.613281 612.195312 L 600.484375 618.703125 C 597.730469 620.808594 594.890625 622.804688 592.101562 624.84375 C 595.90625 618.917969 594.09375 617.097656 593.917969 614.085938 C 593.84375 612.601562 594.070312 610.730469 595.546875 607.933594 C 596.277344 606.527344 597.308594 604.882812 598.746094 602.914062 C 600.179688 600.945312 602.046875 598.679688 604.234375 595.828125 C 608.023438 591.011719 611.230469 586.582031 614.351562 581.726562 C 612.863281 583.226562 611.363281 584.707031 609.832031 586.164062 C 608.265625 587.582031 606.722656 589.019531 605.257812 590.542969 C 603.089844 592.777344 600.976562 595.066406 598.753906 597.246094 L 591.972656 603.679688 L 588.582031 606.890625 L 585.046875 609.945312 L 577.972656 616.050781 C 575.589844 618.058594 573.101562 619.929688 570.667969 621.867188 L 566.996094 624.761719 L 565.160156 626.199219 L 563.265625 627.558594 C 558.1875 631.160156 553.230469 634.929688 547.957031 638.234375 C 545.386719 639.917969 543.03125 641.816406 540.71875 643.777344 C 538.34375 645.625 536.003906 647.539062 533.558594 649.347656 C 537.554688 648.289062 541.851562 647.15625 545.472656 646.199219 C 549.925781 645.152344 553.707031 644.65625 557.835938 643.871094 C 552.019531 648.050781 545.765625 653.390625 540.230469 656.011719 C 538.699219 656.777344 537.039062 657.613281 535.3125 658.480469 C 533.582031 659.355469 531.78125 660.257812 529.894531 661.054688 C 526.164062 662.703125 522.339844 664.363281 518.867188 665.8125 C 511.8125 668.515625 506.082031 670.273438 505.242188 669.835938 C 499.117188 666.53125 484.648438 672.210938 463.382812 678.160156 C 444.230469 683.472656 424.574219 686.8125 404.828125 688.3125 C 385.074219 689.796875 365.25 689.527344 345.558594 687.5 C 336.71875 686.375 329.03125 685.175781 323.480469 683.28125 C 317.90625 681.503906 314.351562 679.785156 313.648438 677.929688 C 313.058594 676.453125 313.714844 675.066406 315.421875 673.988281 C 317.140625 672.867188 319.933594 671.960938 323.621094 671.546875 C 326.195312 671.25 328.949219 671.238281 331.824219 671.40625 C 334.714844 671.464844 337.726562 671.738281 340.785156 672.199219 C 346.894531 673.261719 353.28125 674.390625 359.304688 676.257812 C 361.753906 677.058594 364.445312 677.445312 367.195312 677.773438 C 369.941406 678.09375 372.746094 678.253906 375.449219 678.257812 C 376.796875 678.289062 378.121094 678.203125 379.398438 678.054688 C 380.675781 677.917969 381.902344 677.746094 383.066406 677.542969 C 385.382812 677.128906 387.433594 676.582031 389.054688 675.898438 C 392.222656 674.558594 386.835938 672.433594 384.738281 670.710938 C 384.335938 670.386719 380.214844 670.421875 378.917969 670.085938 C 377.410156 669.726562 376.121094 669.265625 375.050781 668.851562 C 373.976562 668.4375 373.121094 668.050781 372.488281 667.6875 C 372.15625 667.5 371.886719 667.320312 371.675781 667.148438 C 373.539062 667.179688 375.402344 667.21875 377.277344 667.21875 C 539.03125 667.21875 670.160156 536.089844 670.160156 374.335938 C 670.160156 351.953125 667.640625 330.164062 662.886719 309.222656 C 663.6875 309.5625 664.480469 309.855469 665.308594 310.367188 C 665.292969 310.222656 665.277344 310.066406 665.261719 309.914062 C 666.503906 311.535156 667.808594 313.304688 669.023438 315.148438 C 670.402344 317.300781 671.789062 319.46875 673.136719 321.574219 C 674.5 323.65625 675.847656 325.621094 677.152344 327.273438 C 678.453125 328.929688 679.585938 330.289062 680.753906 331.125 C 682.828125 332.644531 684.671875 334.480469 686.488281 338.097656 C 688.414062 341.703125 689.855469 347.140625 691.414062 355.855469 C 691.550781 356.613281 691.6875 357.347656 691.816406 358.0625 C 691.921875 358.769531 692.027344 359.457031 692.121094 360.125 C 692.324219 361.449219 692.53125 362.675781 692.734375 363.804688 C 693.148438 366.070312 693.570312 367.949219 693.996094 369.464844 C 694.847656 372.492188 695.71875 374.054688 696.578125 374.300781 C 698.292969 374.789062 699.96875 369.972656 701.25 361.019531 C 701.75 357.917969 702.015625 354.859375 702.347656 351.816406 C 702.683594 348.773438 703.019531 345.75 703.347656 342.742188 C 703.542969 341.234375 703.648438 339.734375 703.746094 338.238281 L 704.058594 333.734375 C 704.261719 330.71875 704.46875 327.710938 704.671875 324.695312 C 704.859375 318.667969 704.957031 312.570312 704.921875 306.308594 C 704.796875 303.195312 704.640625 300.039062 704.453125 296.832031 C 704.242188 293.625 704.125 290.335938 703.667969 287.054688 C 702.832031 280.46875 702.035156 273.550781 700.398438 266.46875 C 699.617188 262.910156 698.871094 259.234375 697.867188 255.535156 C 696.816406 251.847656 695.6875 248.0625 694.46875 244.179688 C 689.347656 228.761719 682.03125 211.945312 670.890625 194.136719 L 671.320312 195.507812 C 670.605469 196.121094 670.582031 198.214844 668.957031 197.015625 C 666.476562 195.273438 662.804688 191.28125 659.65625 188.304688 C 658.714844 184.664062 656.585938 180.058594 656.621094 178.027344 C 656.632812 176.738281 659.757812 179.425781 661.5 180.351562 C 662.386719 181.570312 663.203125 182.835938 664.011719 184.101562 L 666.453125 187.902344 L 671.320312 195.507812 C 671.320312 195.507812 670.917969 194.222656 670.902344 194.179688 C 668.09375 189.851562 665.304688 185.460938 662.414062 181.136719 C 657.515625 174.921875 652.589844 168.101562 647.503906 162.890625 C 645.597656 160.863281 643.351562 159.273438 641.0625 157.78125 C 638.742188 156.324219 636.300781 155.027344 634.144531 153.429688 C 631.976562 151.839844 630.054688 149.984375 628.613281 147.46875 C 627.160156 144.972656 626.070312 141.917969 625.734375 137.714844 C 625.683594 137.097656 624.898438 135.703125 623.613281 133.816406 C 622.972656 132.871094 622.203125 131.808594 621.34375 130.65625 C 620.460938 129.53125 619.449219 128.347656 618.390625 127.105469 C 616.257812 124.628906 613.859375 121.96875 611.460938 119.410156 C 610.28125 118.109375 609.019531 116.925781 607.804688 115.78125 C 606.59375 114.640625 605.414062 113.558594 604.308594 112.566406 C 570.722656 82.480469 531.027344 58.871094 488.050781 43.875 C 466.578125 36.363281 444.3125 30.992188 421.738281 27.878906 C 399.15625 24.765625 376.339844 23.886719 353.574219 25.226562 C 312.15625 27.515625 270.988281 37.835938 233.03125 54.980469 C 195.054688 72.128906 160.195312 96.078125 130.710938 125.402344 C 123.84375 132.363281 118.097656 140.332031 112.417969 148.222656 C 114.851562 146.445312 117.429688 144.5625 119.90625 142.757812 C 122.359375 140.972656 124.871094 139.507812 126.894531 138.445312 C 128.898438 137.433594 128.773438 140.539062 128.460938 140.871094 C 124.207031 145.203125 120.371094 149.925781 116.378906 154.503906 C 115.40625 155.664062 114.375 156.785156 113.449219 157.984375 L 110.632812 161.566406 L 105.027344 168.753906 C 104.074219 169.933594 103.199219 171.175781 102.324219 172.417969 L 99.6875 176.128906 L 94.429688 183.578125 L 89.511719 191.25 L 87.0625 195.09375 C 86.246094 196.371094 85.421875 197.648438 84.683594 198.976562 C 72.222656 219.847656 61.941406 242.035156 54.078125 265.054688 C 53.0625 268.089844 51.628906 270.957031 50.28125 273.851562 C 48.960938 276.753906 47.554688 279.640625 46.304688 282.601562 C 46.773438 279.746094 47.125 276.902344 47.558594 274.042969 L 47.902344 271.890625 C 48.046875 271.175781 48.210938 270.46875 48.382812 269.757812 C 48.722656 268.328125 49.113281 266.898438 49.574219 265.460938 C 50.59375 262.273438 51.695312 259.054688 52.839844 255.835938 C 54.09375 252.65625 55.425781 249.488281 56.71875 246.332031 C 59.207031 239.980469 62.15625 233.9375 64.488281 228.058594 C 64.996094 226.753906 65.496094 225.46875 65.992188 224.199219 C 66.511719 222.949219 67.011719 221.710938 67.496094 220.480469 C 68.460938 218.023438 69.355469 215.597656 70.222656 213.183594 C 71.871094 208.316406 73.808594 203.707031 75.835938 198.894531 C 70.285156 207.132812 64.878906 215.503906 60.46875 224.511719 C 37.726562 272.316406 26.15625 325.570312 26.683594 378.269531 C 26.710938 380.960938 26.734375 383.664062 26.761719 386.363281 L 26.773438 390.414062 L 26.785156 392.4375 L 26.878906 394.453125 C 27.128906 399.824219 27.398438 405.140625 27.824219 410.273438 C 28.464844 415.394531 29.234375 420.335938 30.246094 424.960938 C 30.714844 427.277344 31.394531 429.492188 32.132812 431.609375 C 32.863281 433.730469 33.664062 435.75 34.546875 437.65625 L 33.800781 427.167969 L 33.554688 416.683594 C 33.277344 409.726562 33.621094 402.773438 33.828125 395.894531 C 33.863281 394.738281 33.90625 393.3125 33.980469 392.128906 C 34.09375 390.949219 34.253906 390.015625 34.425781 389.867188 C 35.765625 388.730469 37.394531 385.914062 38.480469 389.019531 C 38.953125 390.558594 39.78125 394.875 40.453125 398.933594 C 41.109375 402.996094 41.609375 406.804688 41.527344 407.367188 C 40.847656 412.785156 40.792969 418.769531 40.921875 425.152344 C 41.054688 428.339844 41.410156 431.601562 41.75 434.953125 C 41.945312 436.632812 42.140625 438.324219 42.335938 440.03125 C 42.542969 441.738281 42.761719 443.46875 43.101562 445.1875 C 43.722656 448.632812 44.398438 452.140625 45.109375 455.675781 C 45.488281 457.4375 45.777344 459.230469 46.25 460.992188 C 46.707031 462.753906 47.160156 464.523438 47.613281 466.296875 C 48.546875 469.839844 49.4375 473.414062 50.445312 476.953125 C 51.535156 480.46875 52.628906 483.976562 53.707031 487.464844 C 55.195312 492.617188 56.980469 497.644531 57.46875 500.75 C 57.996094 503.839844 57.40625 504.953125 54.699219 501.949219 C 51.640625 498.527344 50.597656 499.074219 51.0625 502.449219 C 51.292969 504.136719 51.90625 506.527344 52.824219 509.460938 C 53.261719 510.941406 53.875 512.507812 54.554688 514.199219 C 55.230469 515.886719 55.984375 517.691406 56.800781 519.585938 C 59.964844 527.316406 63.886719 534.75 67.664062 542.265625 C 71.816406 549.570312 75.855469 556.976562 80.53125 563.945312 L 84.371094 569.871094 C 85.621094 571.863281 87.066406 573.726562 88.40625 575.660156 L 92.519531 581.398438 C 93.890625 583.308594 95.242188 585.234375 96.726562 587.058594 L 105.484375 598.121094 L 114.742188 608.765625 C 127.351562 622.714844 141.027344 635.679688 155.628906 647.515625 L 166.75 656.183594 L 178.261719 664.328125 C 180.164062 665.707031 182.148438 666.964844 184.132812 668.226562 L 190.082031 672.015625 C 192.074219 673.253906 194.023438 674.578125 196.070312 675.734375 L 202.1875 679.242188 L 208.320312 682.722656 C 210.351562 683.90625 212.488281 684.902344 214.570312 685.992188 L 220.859375 689.183594 C 222.957031 690.246094 225.042969 691.328125 227.203125 692.257812 L 240.085938 698.023438 C 244.445312 699.78125 248.839844 701.476562 253.21875 703.179688 C 270.863281 709.714844 289.007812 714.871094 307.433594 718.609375 C 325.882812 722.242188 344.597656 724.304688 363.304688 725.046875 L 377.34375 725.339844 L 391.375 724.949219 L 394.882812 724.835938 C 396.054688 724.78125 397.21875 724.667969 398.390625 724.585938 L 405.394531 724.039062 L 412.398438 723.464844 C 414.730469 723.230469 417.050781 722.890625 419.378906 722.601562 L 426.351562 721.6875 C 428.679688 721.382812 431.007812 721.09375 433.308594 720.640625 L 447.15625 718.109375 C 456.3125 716.050781 465.484375 714.003906 474.464844 711.25 C 517.195312 698.808594 557.386719 678.050781 592.304688 650.71875 C 596.371094 647.492188 600.335938 644.402344 603.773438 641.144531 C 607.253906 637.929688 610.515625 634.910156 613.238281 631.921875 C 615.929688 628.898438 618.226562 626.058594 620.007812 623.472656 C 620.902344 622.175781 621.664062 620.941406 622.289062 619.777344 C 622.808594 618.769531 623.179688 617.800781 623.472656 616.886719 C 622.683594 617.667969 621.914062 618.433594 621.144531 619.121094 C 620.078125 620.050781 619.0625 620.929688 618.101562 621.765625 " fill-opacity="1" fill-rule="nonzero"/></g><path fill="#c81d2a" d="M 623.472656 616.886719 C 623.769531 616.59375 624.058594 616.304688 624.363281 616.007812 C 624.242188 616.074219 623.632812 616.417969 623.632812 616.417969 C 623.589844 616.566406 623.519531 616.734375 623.472656 616.886719 " fill-opacity="1" fill-rule="nonzero"/><g clip-path="url(#48f115ec4a)"><path fill="#c81d2a" d="M 723.050781 385.359375 C 722.796875 382.140625 722.367188 379.5625 721.816406 377.714844 C 720.714844 374.019531 719.136719 373.246094 717.472656 375.933594 C 712.539062 383.851562 707.765625 391.863281 702.363281 397.636719 C 701.25 398.863281 700.09375 400.828125 698.921875 403.394531 C 698.328125 404.675781 697.765625 406.109375 697.128906 407.667969 C 696.460938 409.226562 695.785156 410.917969 695.105469 412.722656 C 694.425781 414.53125 693.746094 416.449219 693.058594 418.472656 C 692.359375 420.484375 691.742188 422.617188 690.910156 424.800781 C 689.316406 429.175781 687.800781 433.898438 686.171875 438.8125 C 684.363281 443.691406 682.691406 448.8125 680.878906 453.996094 C 679.90625 456.570312 678.949219 459.175781 678.015625 461.792969 C 677.050781 464.398438 676.230469 467.066406 675.160156 469.644531 C 671.21875 480.074219 667.246094 490.40625 663.59375 499.851562 C 662.035156 503.808594 661.503906 507.296875 660.429688 511.011719 C 661.953125 508.441406 663.457031 505.898438 664.96875 503.335938 C 665.71875 502.039062 666.472656 500.746094 667.230469 499.433594 C 667.605469 498.773438 667.984375 498.113281 668.363281 497.449219 C 668.707031 496.761719 669.050781 496.078125 669.398438 495.382812 C 672.253906 489.546875 675.261719 483.347656 677.703125 477.082031 C 677.144531 479.769531 676.796875 482.425781 676.195312 485.070312 C 675.582031 487.710938 674.886719 490.40625 673.921875 493.261719 C 667.816406 511.109375 660.148438 529.585938 649.894531 545.230469 C 647.847656 548.300781 646.078125 551.039062 644.5625 553.472656 C 643.011719 555.882812 641.605469 557.921875 640.503906 559.746094 C 638.273438 563.375 636.996094 565.960938 636.460938 567.734375 C 635.269531 571.1875 637.222656 571.503906 640.441406 570.226562 C 648.210938 566.933594 651.664062 568.425781 649.800781 576.089844 C 648.839844 579.894531 646.328125 585.066406 642.367188 591.890625 C 640.300781 595.234375 637.75 598.886719 634.828125 602.96875 C 634.085938 603.984375 633.328125 605.027344 632.546875 606.09375 C 631.714844 607.128906 630.863281 608.183594 629.988281 609.257812 C 628.300781 611.324219 626.507812 613.472656 624.613281 615.707031 C 627.925781 613.3125 631.222656 610.800781 634.421875 608.136719 C 637.777344 605.125 641.003906 601.933594 644.027344 598.59375 C 644.78125 597.757812 645.527344 596.914062 646.25 596.058594 C 646.945312 595.175781 647.625 594.28125 648.285156 593.378906 C 649.609375 591.578125 650.867188 589.734375 652.046875 587.855469 C 653.230469 585.980469 654.332031 584.070312 655.34375 582.128906 C 656.292969 580.140625 657.136719 578.113281 657.886719 576.058594 C 659.308594 572.105469 660.601562 568.414062 661.65625 564.742188 C 662.664062 561.035156 663.570312 557.449219 664.46875 553.863281 C 664.90625 552.066406 665.390625 550.300781 665.792969 548.472656 C 666.195312 546.632812 666.59375 544.785156 667 542.914062 C 667.808594 539.15625 668.792969 535.355469 669.734375 531.257812 C 670.511719 527.695312 671.460938 524.398438 672.699219 521.164062 C 673.304688 519.53125 674.050781 517.957031 674.746094 516.304688 C 675.449219 514.652344 676.238281 512.992188 677.125 511.292969 C 678.007812 509.589844 678.988281 507.851562 680.074219 506.042969 C 680.617188 505.140625 681.191406 504.21875 681.785156 503.277344 C 682.351562 502.332031 682.9375 501.355469 683.546875 500.339844 C 684.765625 498.332031 686.105469 496.222656 687.570312 493.988281 C 689.007812 491.742188 690.6875 489.410156 692.238281 486.824219 L 692.484375 485.160156 C 694.710938 482.300781 696.726562 480.0625 697.625 480.699219 C 698.074219 481.019531 698.242188 482.058594 698.011719 484.109375 C 697.894531 485.132812 697.679688 486.40625 697.347656 487.96875 C 697.015625 489.53125 696.59375 491.390625 695.890625 493.515625 C 694.972656 496.445312 693.980469 499.4375 692.945312 502.464844 C 692.425781 503.980469 691.894531 505.5 691.367188 507.027344 C 690.765625 508.527344 690.167969 510.03125 689.5625 511.53125 C 688.351562 514.542969 687.136719 517.554688 685.9375 520.539062 C 685.359375 522.046875 684.710938 523.503906 684.0625 524.945312 C 683.425781 526.398438 682.796875 527.84375 682.171875 529.265625 C 681.09375 531.765625 682.132812 533.066406 682.765625 533.855469 C 682.953125 534.09375 685.28125 530.847656 686.300781 528.890625 C 707.269531 488.0625 720.019531 442.757812 723.035156 396.839844 C 723.445312 392.441406 723.304688 388.578125 723.050781 385.359375 " fill-opacity="1" fill-rule="nonzero"/></g><path fill="#c81d2a" d="M 624.363281 616.007812 C 624.449219 615.90625 624.53125 615.808594 624.613281 615.707031 C 624.320312 615.917969 624.035156 616.144531 623.742188 616.351562 C 623.84375 616.296875 624.246094 616.070312 624.363281 616.007812 " fill-opacity="1" fill-rule="nonzero"/><path fill="#c81d2a" d="M 553.953125 609.167969 C 543.761719 616.375 533.328125 623.460938 522.320312 629.558594 C 516.9375 632.820312 511.265625 635.535156 505.742188 638.503906 C 502.957031 639.941406 500.085938 641.191406 497.273438 642.554688 C 494.441406 643.878906 491.65625 645.292969 488.765625 646.441406 C 485.441406 647.847656 482.15625 649.304688 478.96875 650.777344 C 475.738281 652.132812 472.574219 653.433594 469.578125 654.753906 C 468.082031 655.425781 466.617188 656.074219 465.195312 656.710938 C 463.761719 657.292969 462.367188 657.855469 461.019531 658.402344 C 458.335938 659.507812 455.863281 660.574219 453.667969 661.558594 C 451.484375 662.589844 449.523438 663.328125 447.921875 664.058594 C 446.324219 664.769531 445.070312 665.382812 444.222656 665.871094 C 442.535156 666.84375 442.496094 667.304688 444.640625 666.988281 C 451.84375 666.097656 459.484375 664.066406 467.304688 661.957031 C 471.15625 660.710938 475.050781 659.445312 478.941406 658.1875 C 480.902344 657.59375 482.789062 656.820312 484.691406 656.109375 C 486.597656 655.398438 488.492188 654.683594 490.375 653.976562 C 494.871094 652.421875 499.195312 650.226562 503.578125 648.277344 L 503.679688 648.449219 C 523.210938 639.429688 542.152344 628.527344 558.828125 615.261719 C 561.273438 613.253906 564.160156 610.179688 566.269531 607.566406 C 568.410156 604.988281 569.578125 602.632812 569.007812 602.417969 C 567.46875 601.886719 558.804688 605.476562 553.953125 609.167969 " fill-opacity="1" fill-rule="nonzero"/><path fill="#c81d2a" d="M 615.910156 549.019531 C 614.789062 550.175781 613.632812 551.367188 612.410156 552.628906 C 609.703125 555.460938 606.914062 558.816406 604.03125 562.25 C 601.039062 565.589844 598.046875 569.09375 595.195312 572.425781 C 592.867188 574.917969 589.46875 580.046875 589.929688 580.367188 C 590.976562 581.09375 593.445312 581.144531 596.6875 578.507812 C 599.625 576.222656 602.519531 573.113281 605.78125 569.730469 C 606.59375 568.875 607.417969 568 608.265625 567.109375 C 608.6875 566.660156 609.113281 566.207031 609.542969 565.75 C 609.953125 565.273438 610.367188 564.796875 610.78125 564.308594 C 612.460938 562.375 614.199219 560.367188 615.992188 558.289062 C 616.855469 556.808594 617.757812 555.347656 618.59375 553.824219 C 619.40625 552.289062 620.21875 550.742188 621.039062 549.195312 C 621.851562 547.644531 622.667969 546.097656 623.488281 544.542969 C 624.292969 542.984375 625.148438 541.460938 625.859375 539.847656 C 624.816406 540.960938 623.691406 541.949219 622.578125 542.925781 C 621.476562 543.90625 620.371094 544.878906 619.257812 545.867188 C 618.148438 546.863281 617.035156 547.898438 615.910156 549.019531 " fill-opacity="1" fill-rule="nonzero"/><path fill="#c81d2a" d="M 654.113281 474.878906 C 652.6875 477.070312 651.054688 479.574219 650.714844 480.710938 C 650.160156 482.464844 649.671875 484.171875 649.230469 485.859375 C 648.792969 487.542969 648.40625 489.199219 647.921875 490.796875 C 647.019531 494.039062 646.136719 497.230469 645.234375 500.480469 C 646.425781 499.03125 647.621094 497.582031 649.039062 495.863281 C 649.75 494.992188 650.519531 494.058594 651.371094 493.015625 C 652.21875 491.972656 653.191406 490.828125 654.148438 489.492188 C 655.464844 481.875 656.828125 475.707031 656.792969 471.183594 C 656.800781 470.816406 655.492188 472.667969 654.113281 474.878906 " fill-opacity="1" fill-rule="nonzero"/><path fill="#c81d2a" d="M 622.066406 596.425781 C 621.867188 596.296875 620.433594 597.429688 619.570312 597.984375 C 620.992188 598.140625 622.433594 598.296875 623.863281 598.4375 C 623.226562 597.773438 622.804688 596.914062 622.066406 596.425781 " fill-opacity="1" fill-rule="nonzero"/><path fill="#c81d2a" d="M 623.863281 598.4375 C 623.914062 598.488281 623.953125 598.546875 624.003906 598.59375 C 624.050781 598.566406 624.097656 598.546875 624.144531 598.53125 C 624.023438 598.707031 623.886719 598.898438 623.757812 599.078125 L 624.417969 598.496094 C 624.234375 598.476562 624.046875 598.453125 623.863281 598.4375 " fill-opacity="1" fill-rule="nonzero"/><path fill="#c81d2a" d="M 693.128906 485.808594 L 692.484375 485.160156 C 692.484375 485.160156 692.277344 486.613281 692.265625 486.714844 C 692.289062 486.609375 693.128906 485.808594 693.128906 485.808594 " fill-opacity="1" fill-rule="nonzero"/></svg>