<svg xmlns="http://www.w3.org/2000/svg" xmlns:xlink="http://www.w3.org/1999/xlink" width="500" zoomAndPan="magnify" viewBox="0 0 375 374.999991" height="500" preserveAspectRatio="xMidYMid meet" version="1.0"><defs><clipPath id="7d7eddea22"><path d="M 29.25 22.535156 L 345.75 22.535156 L 345.75 343.535156 L 29.25 343.535156 Z M 29.25 22.535156 " clip-rule="nonzero"/></clipPath></defs><g clip-path="url(#7d7eddea22)"><path fill="#c4262e" d="M 234.027344 225.5625 C 234.691406 225.5625 235.363281 225.605469 236.027344 225.660156 C 239.441406 219.714844 244.070312 214.632812 249.824219 210.847656 C 248.132812 179.234375 219.917969 179.234375 218.230469 210.847656 C 223.996094 214.65625 228.613281 219.714844 232.027344 225.660156 C 232.699219 225.597656 233.363281 225.5625 234.027344 225.5625 Z M 245.609375 228.5625 C 249.941406 230.996094 253.457031 234.722656 255.574219 239.234375 C 262.441406 239.234375 269.117188 240.6875 275.296875 243.789062 C 302.785156 225.894531 286.65625 200.582031 256.816406 217.886719 C 252.21875 220.558594 248.492188 224.164062 245.609375 228.5625 Z M 257.832031 248.988281 C 257.910156 254.1875 256.34375 259.011719 253.554688 262.980469 C 257.007812 268.90625 259.085938 275.480469 259.5 282.328125 C 269.800781 287.546875 278.183594 287.601562 283.519531 284.722656 C 287.445312 282.605469 289.542969 278.753906 289.390625 274.421875 C 289.09375 265.414062 280.558594 257.917969 272.714844 253.363281 C 268.175781 250.742188 263.03125 249.285156 257.832031 248.988281 Z M 246.273438 269.789062 C 242.070312 272.304688 237.128906 273.523438 232.027344 273.085938 C 228.613281 279.03125 223.980469 284.113281 218.230469 287.898438 C 218.816406 298.871094 222.667969 306.5625 228.175781 309.933594 C 232.550781 312.585938 236.808594 312.03125 240.914062 309.226562 C 248.625 303.929688 252.238281 287.035156 248.328125 274.828125 C 247.789062 273.105469 247.097656 271.417969 246.273438 269.789062 Z M 222.453125 270.183594 C 218.117188 267.75 214.601562 264.023438 212.484375 259.511719 C 205.617188 259.511719 198.945312 258.058594 192.761719 254.957031 C 165.234375 272.871094 181.4375 298.125 211.222656 280.859375 C 215.839844 278.207031 219.566406 274.582031 222.453125 270.183594 Z M 210.226562 249.757812 C 210.089844 240.792969 214.933594 232.761719 222.453125 228.566406 C 217.980469 221.742188 211.832031 217.480469 204.417969 214.558594 C 178.183594 204.214844 166.804688 228.902344 195.371094 245.382812 L 195.371094 245.402344 C 199.925781 248.027344 205.007812 249.460938 210.226562 249.757812 Z M 244.015625 239.394531 C 235.148438 230.527344 219.917969 236.839844 219.917969 249.382812 C 219.917969 261.898438 235.148438 268.21875 244.015625 259.351562 C 249.511719 253.835938 249.511719 244.910156 244.015625 239.394531 Z M 183.9375 249.382812 C 156.171875 228.132812 170.355469 197.1875 200.140625 203.234375 C 198.472656 190.109375 199.832031 176.878906 204.023438 164.71875 C 200.21875 160.554688 195.980469 156.789062 191.386719 153.507812 C 186.402344 149.957031 180.96875 146.933594 175.195312 144.578125 L 166.050781 144.601562 C 176.253906 158.417969 180.316406 173.957031 177.234375 191.0625 C 176.765625 193.671875 174.273438 195.417969 171.640625 194.945312 C 169.011719 194.476562 167.269531 191.964844 167.738281 189.351562 C 170.820312 172.207031 165.40625 157.546875 153.511719 144.59375 L 136.25 144.59375 C 124.378906 157.546875 118.964844 172.199219 122.042969 189.351562 C 122.515625 191.964844 120.769531 194.476562 118.140625 194.945312 C 115.507812 195.417969 112.996094 193.671875 112.527344 191.0625 C 109.464844 173.953125 113.507812 158.410156 123.734375 144.601562 L 114.566406 144.578125 C 99.949219 150.566406 87.46875 160.769531 78.675781 173.679688 C 57.914062 204.132812 60.71875 244.945312 85.382812 272.304688 L 169.128906 272.304688 C 170.003906 264.765625 174.589844 256.507812 183.9375 249.382812 Z M 208.988281 292.75 C 197.253906 297.640625 187.148438 297.070312 180.101562 293.320312 C 175.394531 290.808594 171.917969 286.847656 170.195312 281.996094 L 43.164062 281.996094 C 40.867188 281.996094 38.960938 283.898438 38.960938 286.195312 L 38.960938 304.269531 C 38.960938 306.570312 40.867188 308.472656 43.164062 308.472656 L 213.992188 308.472656 C 211.585938 304.269531 209.796875 299.007812 208.988281 292.75 Z M 259.085938 292.765625 C 258.261719 299.023438 256.496094 304.265625 254.082031 308.464844 C 274.820312 308.464844 295.558594 308.464844 316.304688 308.464844 C 318.601562 308.464844 320.484375 306.5625 320.484375 304.265625 L 320.484375 286.195312 C 320.484375 283.898438 318.601562 281.996094 316.304688 281.996094 L 297.855469 281.996094 C 296.148438 286.796875 292.734375 290.722656 288.082031 293.238281 C 281.023438 297.066406 270.882812 297.671875 259.085938 292.765625 Z M 244.9375 318.15625 C 238.167969 322.316406 229.941406 322.359375 223.160156 318.175781 L 100.183594 318.15625 L 100.183594 338.917969 C 100.183594 341.589844 98.023438 343.761719 95.339844 343.761719 L 57.5625 343.761719 C 54.878906 343.761719 52.71875 341.582031 52.71875 338.917969 L 52.71875 318.15625 L 43.164062 318.15625 C 35.507812 318.15625 29.269531 311.917969 29.269531 304.265625 L 29.269531 286.195312 C 29.269531 278.546875 35.507812 272.304688 43.164062 272.304688 L 72.910156 272.304688 C 39.902344 228.035156 54.425781 164.535156 103.617188 139.007812 C 98.890625 133.179688 99.179688 124.835938 104.269531 119.347656 C 98.632812 113.242188 98.984375 103.808594 105.035156 98.160156 C 91.910156 79.003906 94.265625 53.183594 110.726562 36.722656 C 129.601562 17.847656 160.191406 17.847656 179.050781 36.722656 C 195.53125 53.183594 197.886719 79.011719 184.761719 98.160156 C 190.804688 103.808594 191.15625 113.25 185.527344 119.347656 C 190.609375 124.84375 190.886719 133.199219 186.179688 139.007812 C 194.242188 143.210938 201.664062 148.601562 208.09375 154.996094 C 213.742188 143.636719 221.890625 133.980469 231.722656 126.996094 C 233.464844 125.746094 235.785156 125.839844 237.410156 127.074219 C 247.261719 134.097656 255.421875 143.8125 261.058594 155.253906 C 266.589844 166.476562 269.691406 179.449219 269.574219 193.0625 C 269.765625 192.945312 269.988281 192.828125 270.183594 192.710938 L 270.183594 192.730469 C 281.484375 186.039062 294.671875 182.3125 306.601562 181.523438 C 319.273438 180.679688 331.734375 182.894531 342.761719 187.898438 C 344.664062 188.683594 345.917969 190.648438 345.703125 192.808594 C 342.902344 222.519531 321.628906 248.082031 293.605469 259.054688 C 296.730469 263.46875 298.433594 268.003906 298.902344 272.296875 L 316.304688 272.296875 C 323.941406 272.296875 330.175781 278.535156 330.175781 286.191406 L 330.175781 304.265625 C 330.175781 311.914062 323.941406 318.15625 316.304688 318.15625 L 306.753906 318.15625 L 306.753906 338.917969 C 306.753906 341.589844 304.570312 343.761719 301.90625 343.761719 L 264.109375 343.761719 C 261.4375 343.761719 259.265625 341.582031 259.265625 338.917969 L 259.265625 318.15625 Z M 284.101562 249.382812 C 284.945312 250.011719 285.75 250.679688 286.519531 251.328125 C 311.675781 242.847656 331.652344 221.445312 335.652344 195.382812 C 316.144531 187.808594 293.621094 190.34375 275.019531 201.074219 L 275.019531 201.09375 C 274.175781 201.585938 273.332031 202.078125 272.527344 202.582031 C 282.101562 201.8125 291.109375 205.117188 295.917969 212.742188 L 312.421875 203.226562 C 314.734375 201.867188 317.683594 202.679688 319.03125 204.96875 C 320.367188 207.28125 319.578125 210.246094 317.265625 211.582031 L 299 222.136719 C 299.683594 231.234375 294.761719 241.242188 284.101562 249.382812 Z M 209.695312 201.820312 C 212.347656 189.519531 219.546875 180.175781 229.652344 177.917969 L 229.652344 161.019531 C 229.652344 158.347656 231.832031 156.175781 234.496094 156.175781 C 237.183594 156.175781 239.34375 158.355469 239.34375 161.019531 L 239.34375 178.152344 C 248.722656 180.722656 255.492188 189.4375 258.179688 201.074219 C 258.609375 200.699219 259.066406 200.347656 259.515625 199.992188 C 261.929688 176.152344 252.882812 151.722656 234.496094 136.984375 C 215.566406 152.171875 206.695312 177.351562 209.695312 201.820312 Z M 268.957031 318.15625 L 268.957031 334.070312 L 297.054688 334.070312 L 297.054688 318.15625 Z M 62.414062 318.15625 L 62.414062 334.070312 L 90.492188 334.070312 L 90.492188 318.15625 Z M 115.316406 124.195312 C 110.628906 124.195312 108.117188 129.90625 111.527344 133.339844 C 112.511719 134.300781 113.839844 134.910156 115.316406 134.910156 L 174.472656 134.910156 C 179.144531 134.910156 181.671875 129.175781 178.261719 125.765625 C 177.277344 124.78125 175.949219 124.195312 174.472656 124.195312 Z M 115.316406 94.074219 L 174.472656 94.074219 C 174.902344 94.074219 175.316406 94.09375 175.746094 94.128906 C 187.320312 78.824219 185.832031 57.199219 172.195312 43.5625 C 157.125 28.492188 132.65625 28.492188 117.585938 43.5625 C 103.949219 57.199219 102.453125 78.824219 114.035156 94.128906 C 114.449219 94.09375 114.878906 94.074219 115.316406 94.074219 Z M 174.472656 103.765625 L 115.316406 103.765625 C 110.628906 103.765625 108.117188 109.496094 111.527344 112.910156 C 112.511719 113.894531 113.839844 114.503906 115.316406 114.503906 L 174.472656 114.503906 C 179.144531 114.503906 181.671875 108.769531 178.261719 105.359375 C 177.285156 104.375 175.949219 103.765625 174.472656 103.765625 Z M 174.472656 103.765625 " fill-opacity="1" fill-rule="nonzero"/></g></svg>