<svg xmlns="http://www.w3.org/2000/svg" xmlns:xlink="http://www.w3.org/1999/xlink" width="500" zoomAndPan="magnify" viewBox="0 0 375 374.999991" height="500" preserveAspectRatio="xMidYMid meet" version="1.0"><defs><clipPath id="1221edf1ed"><path d="M 11 30 L 364 30 L 364 337.253906 L 11 337.253906 Z M 11 30 " clip-rule="nonzero"/></clipPath><clipPath id="9f72b95f0b"><path d="M 10.632812 29.753906 L 364.632812 29.753906 L 364.632812 337.253906 L 10.632812 337.253906 Z M 10.632812 29.753906 " clip-rule="nonzero"/></clipPath></defs><g clip-path="url(#1221edf1ed)"><path fill="#c4262e" d="M 171.878906 179.46875 C 169.96875 180.882812 167.882812 181.972656 165.628906 182.730469 C 163.375 183.492188 161.058594 183.886719 158.679688 183.917969 C 154.207031 183.917969 149.640625 182.476562 145.101562 179.59375 C 144.835938 179.425781 144.585938 179.230469 144.355469 179.011719 C 144.125 178.792969 143.921875 178.554688 143.738281 178.292969 C 143.554688 178.035156 143.402344 177.761719 143.273438 177.46875 C 143.144531 177.179688 143.046875 176.878906 142.976562 176.570312 C 142.90625 176.261719 142.871094 175.949219 142.863281 175.632812 C 142.855469 175.3125 142.878906 175 142.933594 174.6875 C 142.988281 174.375 143.070312 174.070312 143.1875 173.773438 C 143.300781 173.480469 143.445312 173.199219 143.613281 172.929688 C 143.785156 172.664062 143.976562 172.414062 144.199219 172.183594 C 144.417969 171.957031 144.65625 171.75 144.914062 171.566406 C 145.175781 171.386719 145.449219 171.230469 145.738281 171.101562 C 146.03125 170.976562 146.332031 170.875 146.640625 170.808594 C 146.949219 170.738281 147.261719 170.699219 147.578125 170.695312 C 147.898438 170.6875 148.210938 170.710938 148.523438 170.765625 C 148.835938 170.820312 149.140625 170.90625 149.433594 171.019531 C 149.730469 171.136719 150.011719 171.277344 150.28125 171.449219 C 156.175781 175.195312 161.125 175.234375 166.328125 171.574219 C 166.589844 171.390625 166.863281 171.238281 167.152344 171.109375 C 167.441406 170.980469 167.742188 170.882812 168.050781 170.816406 C 168.359375 170.746094 168.671875 170.707031 168.988281 170.699219 C 169.304688 170.691406 169.621094 170.714844 169.929688 170.769531 C 170.242188 170.824219 170.546875 170.910156 170.84375 171.023438 C 171.136719 171.136719 171.417969 171.28125 171.6875 171.449219 C 171.953125 171.621094 172.203125 171.8125 172.429688 172.03125 C 172.660156 172.25 172.867188 172.488281 173.046875 172.75 C 173.230469 173.007812 173.386719 173.28125 173.511719 173.570312 C 173.640625 173.863281 173.738281 174.160156 173.808594 174.46875 C 173.878906 174.777344 173.917969 175.089844 173.925781 175.40625 C 173.933594 175.722656 173.910156 176.039062 173.855469 176.351562 C 173.800781 176.664062 173.714844 176.964844 173.601562 177.261719 C 173.488281 177.558594 173.347656 177.839844 173.175781 178.105469 C 173.007812 178.375 172.816406 178.621094 172.597656 178.851562 C 172.378906 179.082031 172.140625 179.285156 171.878906 179.46875 Z M 230.0625 179.46875 C 230.320312 179.285156 230.558594 179.082031 230.777344 178.851562 C 230.996094 178.621094 231.191406 178.375 231.359375 178.105469 C 231.53125 177.839844 231.671875 177.558594 231.785156 177.261719 C 231.898438 176.964844 231.984375 176.664062 232.039062 176.351562 C 232.089844 176.039062 232.113281 175.722656 232.105469 175.40625 C 232.097656 175.089844 232.0625 174.777344 231.992188 174.46875 C 231.921875 174.160156 231.824219 173.863281 231.695312 173.570312 C 231.566406 173.28125 231.414062 173.007812 231.230469 172.75 C 231.046875 172.488281 230.84375 172.25 230.613281 172.03125 C 230.382812 171.8125 230.136719 171.621094 229.867188 171.449219 C 229.601562 171.28125 229.320312 171.136719 229.023438 171.023438 C 228.730469 170.910156 228.425781 170.824219 228.113281 170.769531 C 227.800781 170.714844 227.488281 170.691406 227.171875 170.699219 C 226.855469 170.707031 226.542969 170.746094 226.234375 170.816406 C 225.921875 170.882812 225.625 170.980469 225.335938 171.109375 C 225.042969 171.238281 224.769531 171.390625 224.511719 171.574219 C 219.304688 175.234375 214.363281 175.195312 208.484375 171.453125 C 208.21875 171.28125 207.9375 171.136719 207.640625 171.023438 C 207.347656 170.910156 207.042969 170.824219 206.730469 170.769531 C 206.417969 170.714844 206.105469 170.691406 205.789062 170.695312 C 205.472656 170.703125 205.15625 170.742188 204.847656 170.808594 C 204.539062 170.878906 204.238281 170.976562 203.949219 171.105469 C 203.660156 171.230469 203.382812 171.386719 203.125 171.570312 C 202.867188 171.75 202.625 171.957031 202.40625 172.183594 C 202.1875 172.414062 201.992188 172.660156 201.824219 172.929688 C 201.652344 173.195312 201.511719 173.476562 201.394531 173.773438 C 201.28125 174.066406 201.195312 174.371094 201.140625 174.683594 C 201.085938 174.996094 201.0625 175.308594 201.070312 175.628906 C 201.074219 175.945312 201.113281 176.257812 201.183594 176.566406 C 201.25 176.875 201.347656 177.175781 201.476562 177.464844 C 201.605469 177.753906 201.757812 178.03125 201.941406 178.289062 C 202.121094 178.550781 202.328125 178.789062 202.558594 179.007812 C 202.785156 179.226562 203.035156 179.421875 203.300781 179.59375 C 207.832031 182.480469 212.394531 183.921875 216.867188 183.921875 C 219.246094 183.886719 221.558594 183.492188 223.8125 182.730469 C 226.066406 181.972656 228.152344 180.882812 230.0625 179.46875 Z M 200.265625 220.378906 C 191.988281 226.191406 183.808594 226.152344 174.523438 220.253906 C 174.257812 220.082031 173.976562 219.941406 173.679688 219.828125 C 173.386719 219.710938 173.082031 219.628906 172.769531 219.574219 C 172.457031 219.519531 172.144531 219.496094 171.828125 219.503906 C 171.507812 219.507812 171.195312 219.546875 170.886719 219.617188 C 170.578125 219.683594 170.277344 219.785156 169.988281 219.910156 C 169.699219 220.039062 169.425781 220.195312 169.164062 220.375 C 168.90625 220.558594 168.667969 220.765625 168.449219 220.992188 C 168.230469 221.222656 168.035156 221.472656 167.863281 221.738281 C 167.695312 222.003906 167.550781 222.289062 167.4375 222.582031 C 167.324219 222.878906 167.238281 223.183594 167.183594 223.492188 C 167.128906 223.804688 167.105469 224.121094 167.113281 224.4375 C 167.121094 224.753906 167.160156 225.066406 167.226562 225.375 C 167.296875 225.683594 167.394531 225.984375 167.523438 226.273438 C 167.652344 226.566406 167.804688 226.839844 167.988281 227.097656 C 168.167969 227.359375 168.375 227.597656 168.605469 227.816406 C 168.832031 228.035156 169.082031 228.230469 169.347656 228.398438 C 175.550781 232.339844 181.78125 234.308594 187.890625 234.308594 C 194.058594 234.308594 200.089844 232.296875 205.816406 228.277344 C 206.078125 228.09375 206.316406 227.886719 206.535156 227.660156 C 206.753906 227.429688 206.949219 227.179688 207.117188 226.914062 C 207.289062 226.644531 207.429688 226.363281 207.542969 226.070312 C 207.660156 225.773438 207.742188 225.46875 207.796875 225.15625 C 207.851562 224.84375 207.875 224.53125 207.871094 224.214844 C 207.863281 223.898438 207.824219 223.585938 207.753906 223.273438 C 207.6875 222.964844 207.585938 222.664062 207.460938 222.375 C 207.332031 222.085938 207.175781 221.8125 206.992188 221.550781 C 206.8125 221.292969 206.605469 221.054688 206.375 220.835938 C 206.148438 220.617188 205.898438 220.421875 205.632812 220.25 C 205.363281 220.082031 205.082031 219.941406 204.785156 219.824219 C 204.492188 219.710938 204.1875 219.625 203.875 219.570312 C 203.5625 219.515625 203.25 219.492188 202.929688 219.5 C 202.613281 219.507812 202.300781 219.546875 201.992188 219.617188 C 201.683594 219.683594 201.382812 219.785156 201.09375 219.914062 C 200.804688 220.039062 200.527344 220.195312 200.269531 220.378906 Z M 362.539062 89.074219 C 362.761719 89.296875 362.960938 89.539062 363.136719 89.800781 C 363.3125 90.0625 363.460938 90.339844 363.582031 90.632812 C 363.703125 90.921875 363.792969 91.222656 363.855469 91.53125 C 363.917969 91.839844 363.949219 92.152344 363.953125 92.46875 C 363.953125 92.78125 363.925781 93.09375 363.863281 93.402344 C 363.804688 93.714844 363.714844 94.015625 363.597656 94.304688 C 363.476562 94.597656 363.332031 94.875 363.160156 95.140625 C 362.984375 95.402344 362.789062 95.648438 362.566406 95.871094 L 306.203125 153.195312 C 305.746094 153.65625 305.148438 154.476562 305.105469 156.414062 L 303.972656 203.363281 C 303.941406 205.40625 303.511719 207.355469 302.671875 209.21875 C 301.835938 211.082031 300.667969 212.699219 299.160156 214.078125 L 243.890625 265.792969 C 242.445312 267.148438 240.8125 268.210938 238.988281 268.980469 C 237.164062 269.75 235.261719 270.179688 233.285156 270.269531 C 242.195312 282.230469 256.03125 285.421875 270.445312 288.730469 C 290.410156 293.320312 313.039062 298.519531 313.039062 332.273438 C 313.039062 332.589844 313.007812 332.902344 312.945312 333.214844 C 312.886719 333.523438 312.792969 333.828125 312.671875 334.121094 C 312.550781 334.414062 312.402344 334.691406 312.226562 334.953125 C 312.050781 335.21875 311.851562 335.460938 311.625 335.683594 C 311.402344 335.910156 311.160156 336.109375 310.894531 336.285156 C 310.632812 336.460938 310.355469 336.609375 310.0625 336.730469 C 309.769531 336.851562 309.46875 336.945312 309.15625 337.003906 C 308.84375 337.066406 308.53125 337.097656 308.214844 337.097656 L 66.785156 337.097656 C 66.46875 337.097656 66.15625 337.066406 65.84375 337.003906 C 65.535156 336.945312 65.234375 336.851562 64.941406 336.730469 C 64.648438 336.609375 64.371094 336.460938 64.105469 336.285156 C 63.84375 336.109375 63.597656 335.910156 63.375 335.683594 C 63.152344 335.460938 62.949219 335.21875 62.773438 334.953125 C 62.597656 334.691406 62.449219 334.414062 62.328125 334.121094 C 62.207031 333.828125 62.117188 333.523438 62.054688 333.214844 C 61.992188 332.902344 61.960938 332.589844 61.960938 332.273438 C 61.960938 298.519531 84.589844 293.320312 104.558594 288.730469 C 118.972656 285.421875 132.816406 282.226562 141.722656 270.261719 C 139.742188 270.175781 137.839844 269.75 136.015625 268.980469 C 134.1875 268.210938 132.554688 267.148438 131.109375 265.792969 L 75.835938 214.078125 C 74.328125 212.695312 73.15625 211.074219 72.320312 209.207031 C 71.484375 207.34375 71.054688 205.386719 71.027344 203.34375 L 69.894531 156.414062 C 69.847656 154.476562 69.25 153.65625 68.804688 153.203125 L 12.429688 95.871094 C 12.210938 95.648438 12.011719 95.402344 11.839844 95.140625 C 11.667969 94.875 11.519531 94.597656 11.402344 94.304688 C 11.285156 94.015625 11.195312 93.714844 11.132812 93.402344 C 11.074219 93.09375 11.046875 92.78125 11.046875 92.46875 C 11.046875 92.152344 11.078125 91.839844 11.140625 91.53125 C 11.203125 91.222656 11.296875 90.921875 11.417969 90.632812 C 11.539062 90.339844 11.6875 90.0625 11.863281 89.800781 C 12.039062 89.539062 12.238281 89.296875 12.460938 89.074219 L 45.222656 56.3125 C 45.679688 55.855469 46.207031 55.507812 46.804688 55.261719 C 47.398438 55.019531 48.019531 54.894531 48.664062 54.898438 C 49.308594 54.902344 49.929688 55.027344 50.523438 55.28125 C 51.117188 55.535156 51.636719 55.890625 52.089844 56.351562 L 107.265625 112.886719 C 111.933594 97.957031 119.421875 85.660156 129.597656 76.136719 C 129.59375 75.867188 129.578125 75.609375 129.578125 75.332031 C 129.578125 50.382812 155.5625 30.085938 187.507812 30.085938 C 208.523438 30.085938 227.648438 38.890625 237.851562 52.898438 L 250.8125 37.71875 C 251.109375 37.371094 251.449219 37.074219 251.828125 36.820312 C 252.207031 36.570312 252.617188 36.378906 253.050781 36.242188 C 253.488281 36.105469 253.933594 36.035156 254.386719 36.027344 C 254.84375 36.015625 255.292969 36.070312 255.730469 36.1875 C 256.171875 36.308594 256.585938 36.484375 256.976562 36.71875 C 257.367188 36.953125 257.71875 37.238281 258.027344 37.574219 C 258.335938 37.910156 258.59375 38.28125 258.796875 38.6875 C 259 39.09375 259.144531 39.523438 259.226562 39.96875 L 263.351562 62.167969 L 280.515625 76.847656 C 280.863281 77.144531 281.160156 77.484375 281.410156 77.863281 C 281.660156 78.242188 281.855469 78.652344 281.988281 79.085938 C 282.125 79.519531 282.195312 79.964844 282.203125 80.421875 C 282.210938 80.875 282.15625 81.324219 282.039062 81.761719 C 281.921875 82.203125 281.746094 82.617188 281.511719 83.007812 C 281.273438 83.398438 280.992188 83.746094 280.65625 84.054688 C 280.320312 84.363281 279.953125 84.621094 279.542969 84.824219 C 279.136719 85.03125 278.710938 85.171875 278.261719 85.257812 L 256.558594 89.289062 C 261.425781 96.613281 265.148438 104.480469 267.726562 112.890625 L 322.90625 56.351562 C 323.355469 55.890625 323.878906 55.535156 324.472656 55.28125 C 325.066406 55.027344 325.683594 54.902344 326.332031 54.898438 C 326.976562 54.894531 327.59375 55.019531 328.191406 55.261719 C 328.789062 55.507812 329.3125 55.855469 329.773438 56.3125 Z M 249.84375 96.65625 L 241.386719 106.542969 C 241.09375 106.890625 240.753906 107.1875 240.375 107.441406 C 239.992188 107.691406 239.585938 107.882812 239.148438 108.019531 C 238.714844 108.152344 238.269531 108.226562 237.8125 108.234375 C 237.359375 108.242188 236.910156 108.1875 236.46875 108.070312 C 236.03125 107.953125 235.617188 107.777344 235.226562 107.539062 C 234.835938 107.304688 234.484375 107.019531 234.175781 106.683594 C 233.867188 106.351562 233.609375 105.980469 233.40625 105.570312 C 233.203125 105.164062 233.058594 104.738281 232.976562 104.289062 L 228.851562 82.074219 L 212.46875 68.082031 C 205.277344 65.914062 197.921875 64.773438 190.414062 64.664062 C 186.730469 72.507812 187.027344 80.601562 191.332031 89.320312 C 195.753906 96.625 199.433594 104.515625 193.8125 113.980469 L 238.234375 158.261719 L 237.824219 150.535156 C 237.75 149.503906 237.785156 148.476562 237.929688 147.453125 C 238.074219 146.429688 238.324219 145.429688 238.683594 144.460938 C 239.039062 143.488281 239.496094 142.570312 240.050781 141.695312 C 240.605469 140.820312 241.246094 140.015625 241.972656 139.28125 L 259.960938 120.847656 C 257.847656 112.257812 254.472656 104.195312 249.84375 96.65625 Z M 215.511719 252.066406 C 215.519531 251.847656 215.550781 251.640625 215.566406 251.425781 C 215.570312 251.210938 215.589844 251 215.621094 250.785156 C 215.816406 248.878906 216.34375 247.066406 217.203125 245.351562 C 218.058594 243.636719 219.191406 242.128906 220.597656 240.824219 L 249.324219 214.679688 C 247.789062 213.933594 246.414062 212.964844 245.195312 211.769531 C 243.722656 210.34375 242.578125 208.6875 241.765625 206.804688 C 240.953125 204.921875 240.53125 202.957031 240.496094 200.90625 L 239 172.648438 L 187.492188 121.296875 L 136.003906 172.648438 L 134.507812 200.90625 C 134.476562 202.957031 134.050781 204.921875 133.238281 206.804688 C 132.425781 208.6875 131.28125 210.34375 129.808594 211.769531 C 128.589844 212.964844 127.214844 213.933594 125.679688 214.679688 L 154.402344 240.824219 C 155.808594 242.125 156.941406 243.632812 157.796875 245.347656 C 158.65625 247.0625 159.179688 248.875 159.378906 250.78125 C 159.410156 250.996094 159.429688 251.214844 159.433594 251.433594 C 159.449219 251.644531 159.480469 251.851562 159.488281 252.0625 C 159.566406 253.964844 159.347656 255.835938 158.835938 257.667969 C 167.046875 261.886719 176.65625 265.003906 187.492188 266.941406 C 198.339844 264.996094 207.960938 261.882812 216.167969 257.667969 C 215.65625 255.835938 215.4375 253.96875 215.511719 252.066406 Z M 225.648438 66.648438 L 236.417969 75.84375 C 237.285156 76.585938 237.820312 77.515625 238.03125 78.632812 L 240.621094 92.589844 L 246.320312 85.925781 C 246.464844 85.726562 246.625 85.535156 246.800781 85.359375 L 249.835938 81.808594 C 250.574219 80.945312 251.503906 80.410156 252.625 80.203125 L 266.566406 77.617188 L 255.78125 68.394531 C 254.917969 67.652344 254.382812 66.722656 254.175781 65.605469 L 251.585938 51.671875 L 242.386719 62.445312 C 241.648438 63.3125 240.71875 63.851562 239.597656 64.058594 Z M 140.339844 67.769531 C 153.679688 59.203125 169.832031 54.792969 187.417969 54.996094 L 187.5625 54.996094 C 196.929688 54.847656 206.101562 56.113281 215.082031 58.792969 L 228.285156 56.339844 C 219.519531 46.089844 204.300781 39.734375 187.507812 39.734375 C 164.410156 39.734375 145.058594 51.761719 140.339844 67.769531 Z M 115.039062 120.851562 L 133.035156 139.289062 C 133.757812 140.027344 134.398438 140.832031 134.953125 141.703125 C 135.503906 142.574219 135.960938 143.496094 136.316406 144.464844 C 136.675781 145.4375 136.925781 146.433594 137.070312 147.457031 C 137.214844 148.480469 137.25 149.507812 137.171875 150.539062 L 136.765625 158.257812 L 184.277344 110.875 C 188.246094 105.707031 187.960938 102.359375 182.972656 94.15625 C 182.90625 94.039062 182.839844 93.921875 182.78125 93.804688 C 177.820312 83.859375 176.871094 74.15625 179.9375 64.863281 C 147.445312 67.1875 123.601562 87.640625 115.039062 120.851562 Z M 142.765625 260.636719 C 143.707031 260.613281 144.601562 260.40625 145.460938 260.023438 C 146.316406 259.636719 147.066406 259.101562 147.707031 258.417969 C 147.753906 258.367188 147.796875 258.3125 147.84375 258.257812 C 147.851562 258.230469 147.863281 258.203125 147.871094 258.175781 C 147.886719 258.132812 147.898438 258.09375 147.914062 258.050781 C 148.636719 255.84375 149.234375 253.601562 149.703125 251.324219 C 149.476562 250.003906 148.875 248.882812 147.898438 247.960938 L 109.757812 213.242188 C 108.746094 212.507812 107.835938 211.667969 107.023438 210.714844 C 106.214844 209.761719 105.527344 208.730469 104.964844 207.613281 C 104.402344 206.496094 103.984375 205.328125 103.703125 204.109375 C 103.421875 202.890625 103.289062 201.660156 103.300781 200.410156 L 103.769531 163.113281 C 103.773438 162.796875 103.808594 162.484375 103.875 162.171875 C 103.941406 161.863281 104.035156 161.5625 104.160156 161.269531 C 104.285156 160.980469 104.4375 160.703125 104.617188 160.441406 C 104.796875 160.179688 105 159.9375 105.226562 159.71875 C 105.453125 159.496094 105.699219 159.300781 105.964844 159.125 C 106.230469 158.953125 106.511719 158.808594 106.804688 158.691406 C 107.097656 158.574219 107.402344 158.484375 107.714844 158.425781 C 108.023438 158.371094 108.339844 158.34375 108.65625 158.347656 C 108.972656 158.351562 109.285156 158.386719 109.597656 158.453125 C 109.90625 158.515625 110.207031 158.613281 110.5 158.738281 C 110.789062 158.863281 111.066406 159.015625 111.328125 159.195312 C 111.589844 159.375 111.832031 159.578125 112.050781 159.804688 C 112.273438 160.03125 112.46875 160.277344 112.640625 160.542969 C 112.816406 160.808594 112.960938 161.089844 113.078125 161.382812 C 113.195312 161.675781 113.28125 161.980469 113.339844 162.292969 C 113.398438 162.605469 113.425781 162.917969 113.421875 163.234375 L 112.953125 200.53125 C 112.941406 201.554688 113.179688 202.515625 113.664062 203.417969 C 114.148438 204.320312 114.820312 205.046875 115.679688 205.601562 C 115.792969 205.671875 115.90625 205.738281 116.027344 205.800781 C 116.152344 205.875 116.28125 205.945312 116.414062 206.007812 C 117.175781 206.367188 117.976562 206.554688 118.820312 206.566406 C 119.210938 206.570312 119.597656 206.535156 119.980469 206.464844 C 120.367188 206.394531 120.738281 206.285156 121.101562 206.140625 C 121.464844 205.996094 121.808594 205.816406 122.136719 205.605469 C 122.464844 205.390625 122.769531 205.148438 123.050781 204.875 C 123.328125 204.605469 123.578125 204.308594 123.800781 203.984375 C 124.023438 203.664062 124.210938 203.324219 124.367188 202.964844 C 124.519531 202.605469 124.640625 202.238281 124.722656 201.855469 C 124.804688 201.472656 124.847656 201.085938 124.855469 200.695312 C 124.855469 200.625 124.855469 200.558594 124.859375 200.488281 L 127.535156 150.023438 C 127.613281 149.289062 127.527344 148.574219 127.28125 147.875 C 127.039062 147.179688 126.65625 146.566406 126.136719 146.042969 L 48.59375 66.589844 L 22.667969 92.515625 L 75.675781 146.425781 C 78.144531 148.921875 79.449219 152.207031 79.542969 156.183594 L 80.675781 203.128906 C 80.667969 203.875 80.820312 204.589844 81.125 205.269531 C 81.433594 205.949219 81.867188 206.535156 82.429688 207.023438 L 137.703125 258.742188 C 138.386719 259.382812 139.164062 259.871094 140.042969 260.199219 C 140.921875 260.527344 141.828125 260.675781 142.765625 260.636719 Z M 220.039062 266.523438 C 210.867188 271.15625 200.226562 274.539062 188.308594 276.597656 C 188.039062 276.644531 187.765625 276.667969 187.488281 276.667969 C 187.214844 276.667969 186.941406 276.644531 186.667969 276.597656 C 174.765625 274.542969 164.128906 271.160156 154.957031 266.527344 C 144.746094 289.394531 123.941406 294.175781 106.710938 298.136719 C 87.664062 302.511719 73.558594 305.753906 71.796875 327.445312 L 303.199219 327.445312 C 301.4375 305.753906 287.332031 302.511719 268.285156 298.136719 C 251.054688 294.179688 230.25 289.394531 220.039062 266.523438 Z M 352.328125 92.515625 L 326.402344 66.589844 L 248.871094 146.027344 C 248.347656 146.554688 247.964844 147.164062 247.71875 147.863281 C 247.472656 148.5625 247.386719 149.28125 247.460938 150.019531 L 250.140625 200.484375 C 250.140625 200.554688 250.144531 200.625 250.144531 200.691406 C 250.148438 200.941406 250.164062 201.1875 250.199219 201.429688 C 250.230469 201.675781 250.28125 201.917969 250.34375 202.15625 C 250.40625 202.394531 250.484375 202.628906 250.578125 202.859375 C 250.671875 203.085938 250.777344 203.308594 250.898438 203.527344 C 251.019531 203.742188 251.152344 203.949219 251.300781 204.148438 C 251.445312 204.347656 251.605469 204.535156 251.773438 204.714844 C 251.945312 204.894531 252.125 205.0625 252.316406 205.21875 C 252.507812 205.375 252.707031 205.519531 252.917969 205.648438 C 253.125 205.78125 253.34375 205.898438 253.566406 206.003906 C 253.792969 206.109375 254.019531 206.199219 254.257812 206.273438 C 254.492188 206.351562 254.730469 206.410156 254.972656 206.457031 C 255.214844 206.503906 255.460938 206.535156 255.707031 206.546875 C 255.953125 206.5625 256.199219 206.5625 256.445312 206.546875 C 256.695312 206.53125 256.9375 206.5 257.179688 206.457031 C 257.425781 206.410156 257.664062 206.347656 257.898438 206.273438 C 258.132812 206.195312 258.363281 206.105469 258.585938 206 C 258.71875 205.9375 258.84375 205.867188 258.96875 205.792969 C 259.097656 205.71875 259.203125 205.664062 259.3125 205.59375 C 260.171875 205.039062 260.84375 204.308594 261.328125 203.410156 C 261.816406 202.507812 262.050781 201.546875 262.042969 200.527344 L 261.574219 163.226562 C 261.570312 162.910156 261.597656 162.59375 261.65625 162.28125 C 261.714844 161.972656 261.800781 161.667969 261.917969 161.375 C 262.035156 161.078125 262.179688 160.800781 262.355469 160.535156 C 262.527344 160.269531 262.722656 160.023438 262.945312 159.796875 C 263.164062 159.566406 263.40625 159.363281 263.667969 159.1875 C 263.929688 159.007812 264.207031 158.855469 264.496094 158.730469 C 264.789062 158.605469 265.089844 158.507812 265.398438 158.445312 C 265.707031 158.378906 266.023438 158.34375 266.339844 158.339844 L 266.402344 158.339844 C 266.714844 158.339844 267.027344 158.371094 267.335938 158.429688 C 267.644531 158.492188 267.941406 158.582031 268.234375 158.699219 C 268.523438 158.820312 268.800781 158.964844 269.0625 159.140625 C 269.324219 159.3125 269.566406 159.511719 269.792969 159.730469 C 270.015625 159.953125 270.214844 160.191406 270.390625 160.453125 C 270.570312 160.710938 270.71875 160.988281 270.839844 161.277344 C 270.964844 161.566406 271.058594 161.863281 271.121094 162.171875 C 271.1875 162.480469 271.222656 162.789062 271.226562 163.105469 L 271.695312 200.402344 C 271.710938 201.652344 271.578125 202.886719 271.296875 204.105469 C 271.015625 205.320312 270.59375 206.488281 270.03125 207.605469 C 269.46875 208.722656 268.78125 209.757812 267.972656 210.707031 C 267.160156 211.660156 266.25 212.5 265.238281 213.234375 L 227.097656 247.949219 C 226.121094 248.871094 225.519531 249.992188 225.289062 251.316406 C 225.761719 253.59375 226.359375 255.835938 227.082031 258.042969 C 227.097656 258.085938 227.109375 258.125 227.125 258.167969 C 227.132812 258.195312 227.144531 258.21875 227.152344 258.246094 C 227.203125 258.304688 227.25 258.371094 227.300781 258.425781 C 227.617188 258.761719 227.96875 259.066406 228.34375 259.335938 C 228.722656 259.605469 229.121094 259.832031 229.542969 260.023438 C 229.96875 260.214844 230.40625 260.363281 230.855469 260.464844 C 231.308594 260.570312 231.765625 260.628906 232.230469 260.644531 C 232.691406 260.660156 233.152344 260.628906 233.609375 260.554688 C 234.066406 260.476562 234.511719 260.359375 234.945312 260.195312 C 235.382812 260.03125 235.792969 259.828125 236.1875 259.582031 C 236.582031 259.339844 236.949219 259.058594 237.289062 258.742188 L 292.566406 207.019531 C 293.125 206.53125 293.558594 205.949219 293.867188 205.273438 C 294.171875 204.59375 294.324219 203.882812 294.320312 203.140625 L 295.453125 156.171875 C 295.546875 152.199219 296.851562 148.914062 299.328125 146.410156 Z M 352.328125 92.515625 " fill-opacity="1" fill-rule="nonzero"/></g><g clip-path="url(#9f72b95f0b)"><path stroke-linecap="round" transform="matrix(0.689241, 0, 0, 0.689241, 11.053103, 7.145277)" fill="none" stroke-linejoin="round" d="M 233.337569 250.019211 C 230.566178 252.070833 227.53975 253.652057 224.269622 254.751545 C 220.999494 255.856701 217.638686 256.429115 214.187199 256.474455 C 207.69795 256.474455 201.072681 254.38316 194.487085 250.200569 C 194.101697 249.956868 193.738979 249.673495 193.404599 249.356117 C 193.070218 249.038739 192.77551 248.693023 192.509139 248.313303 C 192.242768 247.93925 192.021737 247.542528 191.83471 247.117468 C 191.647684 246.698075 191.505997 246.26168 191.403983 245.81395 C 191.301968 245.36622 191.250961 244.912823 191.239626 244.453758 C 191.228291 243.989026 191.262296 243.535629 191.341641 243.082231 C 191.420985 242.628834 191.540002 242.186772 191.710026 241.756044 C 191.874383 241.330984 192.084079 240.922927 192.32778 240.531871 C 192.577148 240.146484 192.854854 239.783766 193.1779 239.449385 C 193.495278 239.120672 193.840994 238.820296 194.215046 238.553925 C 194.594767 238.293222 194.991489 238.066523 195.410882 237.879497 C 195.835942 237.698138 196.272337 237.550784 196.720067 237.454437 C 197.167796 237.352423 197.621194 237.295748 198.080259 237.29008 C 198.544991 237.278745 198.998388 237.31275 199.451786 237.392095 C 199.905183 237.471439 200.347245 237.596124 200.772305 237.76048 C 201.203033 237.930504 201.61109 238.134533 202.002146 238.383901 C 210.554353 243.819002 217.735033 243.875677 225.284099 238.56526 C 225.663819 238.298889 226.060542 238.077858 226.479934 237.890832 C 226.899327 237.703805 227.335722 237.562119 227.783451 237.465772 C 228.231181 237.363757 228.684579 237.307083 229.143643 237.295748 C 229.602708 237.284413 230.061773 237.318418 230.509503 237.397762 C 230.9629 237.477107 231.404963 237.601791 231.83569 237.766148 C 232.26075 237.930504 232.668808 238.1402 233.059863 238.383901 C 233.445251 238.63327 233.807968 238.910976 234.136682 239.228354 C 234.471062 239.545732 234.771438 239.891448 235.032141 240.271168 C 235.298512 240.645221 235.525211 241.041943 235.70657 241.461336 C 235.893596 241.886396 236.035283 242.317123 236.137297 242.764853 C 236.239312 243.212583 236.295986 243.66598 236.307321 244.125045 C 236.318656 244.58411 236.284651 245.043175 236.205307 245.496572 C 236.125962 245.949969 236.001278 246.386364 235.836922 246.817092 C 235.672565 247.247819 235.468536 247.655877 235.219168 248.041265 C 234.975467 248.43232 234.697761 248.78937 234.380383 249.123751 C 234.063004 249.458131 233.717289 249.75284 233.337569 250.019211 Z M 317.754485 250.019211 C 318.128538 249.75284 318.474253 249.458131 318.791631 249.123751 C 319.109009 248.78937 319.392383 248.43232 319.636084 248.041265 C 319.885452 247.655877 320.089481 247.247819 320.253838 246.817092 C 320.418194 246.386364 320.542878 245.949969 320.622223 245.496572 C 320.6959 245.043175 320.729905 244.58411 320.71857 244.125045 C 320.707235 243.66598 320.656228 243.212583 320.554213 242.764853 C 320.452199 242.317123 320.310512 241.886396 320.123486 241.461336 C 319.936459 241.041943 319.715428 240.645221 319.449057 240.271168 C 319.182686 239.891448 318.887978 239.545732 318.553598 239.228354 C 318.219217 238.910976 317.862167 238.63327 317.471111 238.383901 C 317.085724 238.1402 316.677666 237.930504 316.246939 237.766148 C 315.821879 237.601791 315.379816 237.477107 314.926419 237.397762 C 314.473022 237.318418 314.019624 237.284413 313.560559 237.295748 C 313.101495 237.307083 312.648097 237.363757 312.200367 237.465772 C 311.74697 237.562119 311.316243 237.703805 310.89685 237.890832 C 310.47179 238.077858 310.075067 238.298889 309.701015 238.56526 C 302.146282 243.875677 294.976936 243.819002 286.447399 238.389569 C 286.062011 238.1402 285.653954 237.930504 285.223226 237.766148 C 284.798166 237.601791 284.356104 237.477107 283.902706 237.397762 C 283.449309 237.318418 282.995912 237.284413 282.536847 237.29008 C 282.077782 237.301415 281.618717 237.35809 281.170987 237.454437 C 280.723258 237.556451 280.286863 237.698138 279.86747 237.885164 C 279.448078 238.066523 279.045687 238.293222 278.671635 238.559593 C 278.297582 238.820296 277.946199 239.120672 277.628821 239.449385 C 277.311443 239.783766 277.028069 240.140816 276.784368 240.531871 C 276.535 240.917259 276.330971 241.325317 276.160947 241.756044 C 275.99659 242.181104 275.871906 242.623167 275.792562 243.076564 C 275.713217 243.529961 275.679212 243.983359 275.690547 244.448091 C 275.696215 244.907156 275.752889 245.360553 275.854904 245.808283 C 275.951251 246.256013 276.092937 246.692408 276.279964 247.1118 C 276.46699 247.531193 276.688021 247.933583 276.954392 248.307636 C 277.215096 248.687356 277.515471 249.033071 277.849852 249.350449 C 278.178565 249.667828 278.541283 249.951201 278.926671 250.200569 C 285.500932 254.388827 292.120533 256.480123 298.609782 256.480123 C 302.06127 256.429115 305.41641 255.856701 308.686538 254.751545 C 311.956666 253.652057 314.983094 252.070833 317.754485 250.019211 Z M 274.523049 309.374589 C 262.513687 317.807779 250.646012 317.751105 237.174444 309.19323 C 236.789056 308.943861 236.380998 308.739833 235.950271 308.575476 C 235.525211 308.405452 235.083148 308.286435 234.629751 308.207091 C 234.176354 308.127746 233.722956 308.093741 233.263892 308.105076 C 232.799159 308.110744 232.345762 308.167418 231.898032 308.269433 C 231.450302 308.36578 231.013907 308.513134 230.594515 308.694493 C 230.175122 308.881519 229.7784 309.108218 229.398679 309.368921 C 229.024627 309.635292 228.678911 309.935668 228.361533 310.264381 C 228.044155 310.598762 227.760782 310.96148 227.511413 311.346867 C 227.267712 311.732255 227.058016 312.14598 226.893659 312.57104 C 226.729303 313.001768 226.604618 313.44383 226.525274 313.89156 C 226.445929 314.344957 226.411924 314.804022 226.423259 315.263087 C 226.434594 315.722152 226.491269 316.175549 226.587616 316.623279 C 226.68963 317.071009 226.831317 317.507404 227.018343 317.926796 C 227.20537 318.351856 227.426401 318.748579 227.692772 319.122632 C 227.953475 319.502352 228.253851 319.848067 228.588232 320.165445 C 228.916945 320.482824 229.279663 320.766197 229.66505 321.009898 C 238.664987 326.728372 247.704597 329.584775 256.568515 329.584775 C 265.517444 329.584775 274.268013 326.66603 282.576519 320.834206 C 282.956239 320.567836 283.301955 320.26746 283.619333 319.938747 C 283.936711 319.604366 284.220084 319.241648 284.463786 318.856261 C 284.713154 318.465205 284.917183 318.057148 285.081539 317.632088 C 285.251563 317.20136 285.37058 316.759298 285.449925 316.305901 C 285.529269 315.852503 285.563274 315.399106 285.557607 314.940041 C 285.546272 314.480976 285.489597 314.027579 285.387583 313.574182 C 285.291236 313.126452 285.143882 312.690057 284.962523 312.270664 C 284.775496 311.851272 284.548798 311.454549 284.282427 311.074829 C 284.021723 310.700776 283.721347 310.355061 283.386967 310.037682 C 283.058254 309.720304 282.695536 309.436931 282.310148 309.187562 C 281.919093 308.943861 281.511035 308.739833 281.080308 308.569809 C 280.655248 308.405452 280.213186 308.280768 279.759788 308.201423 C 279.306391 308.122079 278.852994 308.088074 278.388261 308.099409 C 277.929196 308.110744 277.475799 308.167418 277.028069 308.269433 C 276.580339 308.36578 276.143944 308.513134 275.724552 308.70016 C 275.305159 308.881519 274.902769 309.108218 274.528716 309.374589 Z M 509.960949 118.868364 C 510.283995 119.19141 510.573036 119.542793 510.828072 119.922513 C 511.083108 120.302233 511.298471 120.704624 511.474163 121.129684 C 511.649854 121.549076 511.780206 121.985471 511.870885 122.433201 C 511.961565 122.880931 512.006905 123.334328 512.012572 123.793393 C 512.012572 124.24679 511.9729 124.700188 511.88222 125.147917 C 511.797208 125.601315 511.666857 126.03771 511.496833 126.457102 C 511.321141 126.882162 511.111445 127.284552 510.862076 127.66994 C 510.60704 128.04966 510.323667 128.406711 510.000621 128.729756 L 428.224745 211.89983 C 427.561651 212.568591 426.694529 213.758759 426.632187 216.569822 L 424.988621 284.687104 C 424.943282 287.651189 424.31986 290.479255 423.101355 293.182637 C 421.888517 295.886018 420.193945 298.232349 418.006303 300.232965 L 337.817317 375.264556 C 335.720354 377.231167 333.351353 378.772718 330.704646 379.889209 C 328.057939 381.0057 325.297883 381.629121 322.430145 381.759473 C 335.357636 399.113256 355.431803 403.743576 376.344755 408.543921 C 405.311177 415.203194 438.142812 422.746592 438.142812 471.719172 C 438.142812 472.178236 438.097472 472.631634 438.006792 473.085031 C 437.92178 473.532761 437.785761 473.974823 437.61007 474.399883 C 437.434378 474.824943 437.219015 475.227333 436.963979 475.607054 C 436.708943 475.992441 436.419902 476.343824 436.091189 476.66687 C 435.768143 476.995583 435.41676 477.284624 435.031372 477.53966 C 434.651652 477.794696 434.249262 478.01006 433.824202 478.185751 C 433.399142 478.361442 432.962747 478.497462 432.50935 478.582474 C 432.055952 478.673153 431.602555 478.718493 431.14349 478.718493 L 80.860046 478.718493 C 80.400981 478.718493 79.947583 478.673153 79.494186 478.582474 C 79.046456 478.497462 78.610061 478.361442 78.185001 478.185751 C 77.759941 478.01006 77.357551 477.794696 76.972163 477.53966 C 76.592443 477.284624 76.235393 476.995583 75.912347 476.66687 C 75.589302 476.343824 75.294593 475.992441 75.039557 475.607054 C 74.784521 475.227333 74.569158 474.824943 74.393466 474.399883 C 74.217775 473.974823 74.087423 473.532761 73.996743 473.085031 C 73.906064 472.631634 73.860724 472.178236 73.860724 471.719172 C 73.860724 422.746592 106.692359 415.203194 135.664448 408.543921 C 156.5774 403.743576 176.662902 399.107589 189.584726 381.748138 C 186.71132 381.623454 183.951264 381.0057 181.304557 379.889209 C 178.652183 378.772718 176.283182 377.231167 174.186219 375.264556 L 93.991566 300.232965 C 91.803924 298.226682 90.103684 295.874683 88.890846 293.165634 C 87.678008 290.462253 87.054587 287.622852 87.014914 284.658767 L 85.371349 216.569822 C 85.303339 213.758759 84.436217 212.568591 83.790126 211.911165 L 1.997247 128.729756 C 1.679869 128.406711 1.390828 128.04966 1.141459 127.66994 C 0.892091 127.284552 0.676727 126.882162 0.506703 126.457102 C 0.336679 126.03771 0.206327 125.601315 0.115648 125.147917 C 0.0306359 124.700188 -0.00903634 124.24679 -0.00903634 123.793393 C -0.00903634 123.334328 0.0363034 122.880931 0.126983 122.433201 C 0.217662 121.985471 0.353682 121.549076 0.529373 121.129684 C 0.705064 120.704624 0.920428 120.302233 1.175464 119.922513 C 1.4305 119.542793 1.719541 119.19141 2.042587 118.868364 L 49.57563 71.335321 C 50.238723 70.672228 51.003831 70.167823 51.870954 69.810773 C 52.732408 69.45939 53.633536 69.278031 54.568668 69.283699 C 55.5038 69.289366 56.404927 69.470725 57.266382 69.83911 C 58.127837 70.207496 58.88161 70.723235 59.539036 71.391996 L 139.592003 153.417241 C 146.364625 131.756184 157.229159 113.914999 171.99291 100.097715 C 171.987242 99.70666 171.964572 99.332607 171.964572 98.930217 C 171.964572 62.732107 209.66456 33.28395 256.013103 33.28395 C 286.504074 33.28395 314.25199 46.05842 329.055413 66.381956 L 347.860068 44.35818 C 348.290795 43.853776 348.783865 43.423048 349.333609 43.054663 C 349.883353 42.691945 350.478437 42.414239 351.107526 42.215878 C 351.742282 42.017516 352.388374 41.915502 353.0458 41.904167 C 353.708893 41.887165 354.360652 41.966509 354.995408 42.136533 C 355.635832 42.312225 356.236583 42.567261 356.80333 42.907309 C 357.370077 43.247357 357.880149 43.661082 358.327879 44.148484 C 358.775608 44.635886 359.149661 45.174295 359.44437 45.763712 C 359.739078 46.353128 359.948774 46.97655 360.067791 47.622641 L 366.052636 79.830854 L 390.955484 101.129194 C 391.459889 101.559921 391.890616 102.052991 392.253334 102.602735 C 392.616052 103.152479 392.899425 103.747563 393.092119 104.376652 C 393.29048 105.005741 393.392495 105.651832 393.40383 106.314926 C 393.415165 106.972352 393.33582 107.624111 393.165796 108.258867 C 392.995772 108.899291 392.740736 109.500042 392.400688 110.066789 C 392.054973 110.633535 391.646915 111.13794 391.159513 111.58567 C 390.672111 112.0334 390.139369 112.407452 389.544285 112.702161 C 388.954868 113.002536 388.337115 113.206565 387.685356 113.331249 L 356.196911 119.180075 C 363.258575 129.806575 368.65967 141.220853 372.400198 153.422909 L 452.458832 71.391996 C 453.110591 70.723235 453.870032 70.207496 454.731487 69.83911 C 455.592941 69.470725 456.488401 69.289366 457.429201 69.283699 C 458.364333 69.278031 459.259792 69.45939 460.126915 69.810773 C 460.994037 70.167823 461.753478 70.672228 462.422239 71.335321 Z M 346.454536 129.868917 L 334.184471 144.213275 C 333.759411 144.71768 333.266341 145.148407 332.716597 145.516793 C 332.161185 145.879511 331.571768 146.157216 330.937012 146.355578 C 330.307923 146.548272 329.661832 146.655953 328.998739 146.667288 C 328.341312 146.678623 327.689554 146.599279 327.04913 146.429255 C 326.414374 146.259231 325.813622 146.004195 325.246876 145.658479 C 324.680129 145.318431 324.170057 144.904706 323.722327 144.417304 C 323.274597 143.935569 322.900544 143.39716 322.605836 142.802076 C 322.311128 142.21266 322.101432 141.594906 321.982415 140.943147 L 315.99757 108.712264 L 292.228215 88.411399 C 281.794409 85.265955 271.122569 83.611054 260.229698 83.452365 C 254.885277 94.832638 255.316004 106.575629 261.561553 119.225415 C 267.977125 129.823577 273.315879 141.27186 265.160394 155.004132 L 329.610825 219.250534 L 329.015741 208.040285 C 328.908059 206.544074 328.959066 205.05353 329.168763 203.568654 C 329.378459 202.083777 329.741177 200.632906 330.262584 199.227374 C 330.778323 197.816175 331.441417 196.48432 332.246197 195.214808 C 333.050977 193.945295 333.980442 192.777797 335.034591 191.712313 L 361.133275 164.967538 C 358.067175 152.504779 353.170484 140.807128 346.454536 129.868917 Z M 296.643171 355.349078 C 296.654506 355.0317 296.699846 354.731325 296.722516 354.419614 C 296.728183 354.107903 296.756521 353.80186 296.80186 353.490149 C 297.085234 350.724426 297.850342 348.094721 299.097184 345.606703 C 300.33836 343.118685 301.981925 340.931043 304.022213 339.038109 L 345.700763 301.105755 C 343.473448 300.023269 341.4785 298.617737 339.710251 296.883492 C 337.573616 294.814867 335.913048 292.411861 334.734215 289.680142 C 333.555382 286.948423 332.943295 284.097688 332.892288 281.122268 L 330.721648 240.123814 L 255.990433 165.619297 L 181.287555 240.123814 L 179.116915 281.122268 C 179.071575 284.097688 178.453822 286.948423 177.274988 289.680142 C 176.096155 292.411861 174.435588 294.814867 172.298953 296.883492 C 170.530703 298.617737 168.535755 300.023269 166.30844 301.105755 L 207.981323 339.038109 C 210.021611 340.925376 211.665176 343.113018 212.906351 345.601036 C 214.153194 348.089054 214.912635 350.718758 215.201675 353.484482 C 215.247015 353.796193 215.275352 354.113571 215.28102 354.430949 C 215.30369 354.736992 215.34903 355.037368 215.360364 355.343411 C 215.473714 358.103467 215.156336 360.818184 214.413898 363.476226 C 226.326912 369.59709 240.26888 374.119728 255.990433 376.930792 C 271.728988 374.108393 285.687958 369.591422 297.595306 363.476226 C 296.852868 360.818184 296.53549 358.109135 296.643171 355.349078 Z M 311.350247 86.331438 L 326.975453 99.672655 C 328.233631 100.749473 329.010074 102.098331 329.316117 103.719226 L 333.073647 123.969084 L 341.342481 114.300386 C 341.552177 114.011345 341.784543 113.73364 342.039579 113.478604 L 346.443201 108.326876 C 347.514352 107.074366 348.863209 106.297923 350.489772 105.997548 L 370.716961 102.245685 L 355.069085 88.864796 C 353.816575 87.787977 353.040132 86.43912 352.739756 84.818225 L 348.982226 64.602371 L 335.635342 80.233244 C 334.564191 81.491422 333.215334 82.273532 331.588771 82.573908 Z M 187.578443 87.958001 C 206.932842 75.529247 230.367816 69.130677 255.882751 69.425385 L 256.092447 69.425385 C 269.683032 69.210021 282.990244 71.046281 296.01975 74.934163 L 315.175787 71.374994 C 302.457992 56.503561 280.377542 47.282593 256.013103 47.282593 C 222.501372 47.282593 194.424743 64.732723 187.578443 87.958001 Z M 150.870261 164.973206 L 176.98028 191.723648 C 178.028762 192.7948 178.958226 193.962298 179.763006 195.226143 C 180.562119 196.489988 181.225213 197.82751 181.740952 199.233042 C 182.262359 200.644241 182.625077 202.089445 182.834773 203.574321 C 183.04447 205.059197 183.095477 206.549741 182.982127 208.045952 L 182.392711 219.244867 L 251.326108 150.498496 C 257.084254 143.000437 256.670529 138.143419 249.433174 126.241739 C 249.336827 126.071715 249.24048 125.901691 249.155468 125.731667 C 241.957786 111.302296 240.580591 97.224309 245.029552 83.741406 C 197.887565 87.113549 163.293348 116.788404 150.870261 164.973206 Z M 191.09794 367.7835 C 192.463799 367.749496 193.761649 367.44912 195.008492 366.893708 C 196.249667 366.332629 197.33782 365.556186 198.267285 364.564379 C 198.335295 364.490702 198.397637 364.411358 198.465646 364.332013 C 198.476981 364.292341 198.493984 364.252669 198.505319 364.212996 C 198.527988 364.150654 198.544991 364.09398 198.567661 364.031637 C 199.616142 360.829519 200.483264 357.576393 201.16336 354.27226 C 200.834647 352.356656 199.961858 350.730093 198.544991 349.392571 L 143.207846 299.020127 C 141.739972 297.954644 140.419453 296.736138 139.24062 295.353276 C 138.067454 293.970414 137.06998 292.474203 136.253865 290.853308 C 135.43775 289.232412 134.831331 287.53784 134.423273 285.76959 C 134.015215 284.001341 133.822522 282.216089 133.839524 280.402499 L 134.51962 226.289528 C 134.525287 225.830463 134.576295 225.377065 134.672642 224.923668 C 134.768988 224.475938 134.905008 224.039543 135.086367 223.614483 C 135.267726 223.195091 135.488757 222.792701 135.74946 222.41298 C 136.010164 222.03326 136.304872 221.681877 136.633585 221.364499 C 136.962298 221.041453 137.319348 220.75808 137.704736 220.503044 C 138.090124 220.253676 138.498182 220.043979 138.923242 219.873955 C 139.348302 219.703931 139.790364 219.57358 140.243761 219.488568 C 140.691491 219.409223 141.150556 219.369551 141.609621 219.375218 C 142.068686 219.380886 142.522083 219.431893 142.97548 219.52824 C 143.42321 219.618919 143.859605 219.760606 144.284665 219.941965 C 144.704058 220.123324 145.106448 220.344355 145.486168 220.605059 C 145.865888 220.865762 146.217271 221.16047 146.534649 221.489183 C 146.857695 221.817896 147.141068 222.174947 147.390437 222.560335 C 147.645473 222.945722 147.855169 223.35378 148.025193 223.77884 C 148.195217 224.2039 148.319901 224.645962 148.404913 225.09936 C 148.489925 225.552757 148.529598 226.006154 148.52393 226.465219 L 147.843834 280.578191 C 147.826832 282.063067 148.172547 283.457264 148.875313 284.766449 C 149.578079 286.075633 150.552883 287.129782 151.799726 287.934562 C 151.964082 288.036577 152.128439 288.132924 152.30413 288.223603 C 152.485489 288.331285 152.672516 288.4333 152.86521 288.523979 C 153.970366 289.045386 155.132196 289.317424 156.356369 289.334427 C 156.923116 289.340094 157.484195 289.289087 158.039607 289.187073 C 158.600686 289.085058 159.139095 288.926369 159.66617 288.716673 C 160.193244 288.506977 160.691981 288.246273 161.168048 287.94023 C 161.644115 287.628519 162.086178 287.277136 162.494235 286.880414 C 162.896626 286.489358 163.259343 286.058631 163.582389 285.588231 C 163.905435 285.123499 164.177473 284.630429 164.404172 284.109022 C 164.625203 283.587616 164.800894 283.054874 164.919911 282.499462 C 165.038928 281.94405 165.10127 281.382971 165.112605 280.816224 C 165.112605 280.71421 165.112605 280.617863 165.118272 280.515849 L 169.000487 207.297847 C 169.113836 206.232363 168.989152 205.195217 168.632102 204.18074 C 168.280719 203.171931 167.725307 202.282139 166.971534 201.522698 L 54.466653 86.246426 L 16.851677 123.861403 L 93.7592 202.07811 C 97.341039 205.699621 99.233972 210.465961 99.369992 216.235442 L 101.013557 284.347056 C 101.002222 285.429542 101.223253 286.466689 101.665316 287.452828 C 102.113046 288.438967 102.742134 289.289087 103.55825 289.99752 L 183.752903 365.034779 C 184.74471 365.964244 185.872535 366.672677 187.147715 367.148744 C 188.422895 367.624811 189.737748 367.840175 191.09794 367.7835 Z M 303.211765 376.324373 C 289.904554 383.045988 274.466374 387.954014 257.174934 390.940769 C 256.783878 391.008779 256.387156 391.042784 255.984766 391.042784 C 255.588043 391.042784 255.19132 391.008779 254.794598 390.940769 C 237.525827 387.959682 222.093315 383.051656 208.786103 376.33004 C 193.971345 409.50739 163.786418 416.444369 138.787222 422.19118 C 111.152655 428.538743 90.687433 433.24274 88.131405 464.714183 L 423.866463 464.714183 C 421.310436 433.24274 400.845214 428.538743 373.210646 422.19118 C 348.211451 416.450037 318.026523 409.50739 303.211765 376.324373 Z M 495.146191 123.861403 L 457.531215 86.246426 L 345.043337 201.500028 C 344.283896 202.265136 343.728484 203.149261 343.371434 204.163738 C 343.014384 205.178214 342.889699 206.221028 342.997381 207.292179 L 346.885263 280.510181 C 346.885263 280.612196 346.890931 280.71421 346.890931 280.810557 C 346.896598 281.173275 346.919268 281.530325 346.970275 281.881708 C 347.015615 282.238758 347.089292 282.590141 347.179972 282.935857 C 347.270651 283.281572 347.384 283.62162 347.52002 283.956001 C 347.656039 284.284714 347.80906 284.60776 347.984752 284.925138 C 348.160443 285.236848 348.353137 285.537224 348.568501 285.826265 C 348.778197 286.115306 349.010563 286.387344 349.254264 286.648048 C 349.503633 286.908751 349.764336 287.152452 350.042042 287.379151 C 350.319748 287.605849 350.608789 287.815546 350.914832 288.002572 C 351.215208 288.195266 351.532586 288.36529 351.855632 288.518312 C 352.184345 288.671333 352.513058 288.801685 352.858773 288.909367 C 353.198821 289.022716 353.544537 289.107728 353.89592 289.175738 C 354.247303 289.243747 354.604353 289.289087 354.961403 289.306089 C 355.318454 289.328759 355.675504 289.328759 356.032555 289.306089 C 356.395272 289.28342 356.746655 289.23808 357.098038 289.175738 C 357.455089 289.107728 357.800804 289.017049 358.140852 288.909367 C 358.4809 288.796017 358.815281 288.665666 359.138326 288.512644 C 359.33102 288.421965 359.512379 288.31995 359.693738 288.212268 C 359.880764 288.104586 360.033786 288.025242 360.192475 287.923228 C 361.439318 287.118447 362.414122 286.058631 363.116888 284.755114 C 363.825321 283.445929 364.165369 282.051732 364.154034 280.572523 L 363.473938 226.453884 C 363.468271 225.994819 363.507943 225.535755 363.592955 225.082357 C 363.677967 224.634627 363.802651 224.192565 363.972675 223.767505 C 364.142699 223.336777 364.352396 222.934387 364.607432 222.549 C 364.8568 222.163612 365.140174 221.806561 365.463219 221.477848 C 365.780597 221.143468 366.13198 220.84876 366.5117 220.593724 C 366.891421 220.33302 367.293811 220.111989 367.713203 219.93063 C 368.138263 219.749271 368.574658 219.607584 369.022388 219.516905 C 369.470118 219.420558 369.929183 219.369551 370.388248 219.363883 L 370.478927 219.363883 C 370.932324 219.363883 371.385722 219.409223 371.833452 219.494235 C 372.281182 219.584915 372.711909 219.715266 373.136969 219.88529 C 373.556362 220.060982 373.958752 220.270678 374.338472 220.525714 C 374.718192 220.775083 375.069575 221.064123 375.398288 221.381501 C 375.721334 221.704547 376.010375 222.050263 376.265411 222.429983 C 376.526114 222.804036 376.741478 223.206426 376.917169 223.625818 C 377.098528 224.045211 377.234547 224.475938 377.325227 224.923668 C 377.421574 225.371398 377.472581 225.819128 377.478248 226.278193 L 378.158344 280.391164 C 378.181014 282.204754 377.98832 283.995673 377.580263 285.763923 C 377.172205 287.526505 376.560119 289.221077 375.744004 290.841973 C 374.927888 292.462868 373.930414 293.964747 372.757249 295.341941 C 371.578416 296.724803 370.257896 297.943309 368.790022 299.008792 L 313.452878 349.375569 C 312.036011 350.713091 311.163221 352.339654 310.82884 354.260925 C 311.514604 357.565058 312.381726 360.818184 313.430208 364.020302 C 313.452878 364.082645 313.46988 364.139319 313.49255 364.201661 C 313.503885 364.241334 313.520887 364.275338 313.532222 364.315011 C 313.605899 364.400023 313.673909 364.49637 313.747586 364.575714 C 314.206651 365.063116 314.716723 365.505179 315.260799 365.896234 C 315.810544 366.287289 316.388625 366.616002 317.000712 366.893708 C 317.618466 367.171414 318.253222 367.386778 318.90498 367.534132 C 319.562407 367.687153 320.2255 367.772165 320.899929 367.794835 C 321.56869 367.817505 322.237451 367.772165 322.900544 367.664484 C 323.563638 367.551134 324.209729 367.38111 324.838818 367.143077 C 325.473574 366.905043 326.068658 366.610335 326.641072 366.253284 C 327.213487 365.901901 327.746228 365.493844 328.239298 365.034779 L 408.439619 289.991853 C 409.250067 289.28342 409.879155 288.438967 410.326885 287.458495 C 410.768948 286.472356 410.989979 285.440877 410.984311 284.364058 L 412.627877 216.218439 C 412.763896 210.454626 414.65683 205.688286 418.250004 202.05544 Z M 495.146191 123.861403 " stroke="#000000" stroke-width="1.02" stroke-opacity="1" stroke-miterlimit="4"/></g></svg>