<svg xmlns="http://www.w3.org/2000/svg" xmlns:xlink="http://www.w3.org/1999/xlink" width="1250" zoomAndPan="magnify" viewBox="0 0 937.5 225" height="300" preserveAspectRatio="xMidYMid meet" version="1.0"><defs><clipPath id="d93ec4c046"><path d="M 0 12 L 937 12 L 937 213 L 0 213 Z M 0 12 " clip-rule="nonzero"/></clipPath><clipPath id="125e261160"><path d="M 190 215 L 193 215 L 193 217.582031 L 190 217.582031 Z M 190 215 " clip-rule="nonzero"/></clipPath></defs><g clip-path="url(#d93ec4c046)"><path fill="#ecc469" d="M 922.058594 101.539062 C 924.324219 101.21875 926.738281 101.011719 929.117188 100.527344 C 931.53125 100.019531 934.191406 100.414062 937.019531 98.824219 C 934.210938 97.0625 931.625 96.800781 929.042969 96.632812 C 926.570312 96.480469 924.304688 95.808594 922.132812 94.628906 C 919.082031 92.960938 916.945312 90.921875 917.789062 86.949219 C 918.144531 85.304688 917.414062 84.648438 915.914062 84.574219 C 914.304688 84.480469 912.675781 84.609375 911.085938 84.460938 C 908.929688 84.273438 906.703125 84.386719 904.660156 83.300781 C 905.503906 81.671875 906.910156 82.363281 907.976562 82.027344 C 908.929688 81.726562 909.921875 81.519531 910.898438 81.257812 C 912.058594 80.941406 913.199219 80.492188 914.398438 80.320312 C 915.578125 80.152344 916.816406 80.265625 918.03125 80.226562 C 919.25 80.191406 920.484375 80.285156 921.644531 80.023438 C 923.722656 79.589844 926.160156 79.964844 927.617188 77.792969 C 926.476562 75.191406 923.949219 75.753906 921.90625 75.433594 C 918.125 74.835938 914.25 74.722656 910.503906 73.972656 C 901.796875 72.234375 893.070312 70.773438 884.214844 70.136719 C 877.792969 69.6875 871.386719 69.125 864.984375 68.601562 C 870.453125 68.488281 875.882812 67.570312 881.3125 68.355469 C 881.6875 68.414062 882.15625 68.320312 882.492188 68.132812 C 882.808594 67.964844 883.148438 67.609375 883.203125 67.289062 C 883.257812 66.972656 883.054688 66.484375 882.792969 66.277344 C 881.125 64.910156 879.046875 64.894531 877.0625 64.667969 C 873.449219 64.273438 869.871094 63.976562 866.59375 62.121094 C 865.433594 61.464844 863.878906 61.445312 862.472656 61.296875 C 859.664062 60.996094 856.855469 60.792969 854.03125 60.585938 C 848.804688 60.191406 843.5625 59.816406 838.339844 59.425781 C 836.933594 59.3125 835.527344 59.199219 834.367188 58.1875 C 833.65625 57.570312 833.804688 56.074219 834.613281 55.566406 C 835.902344 54.761719 837.328125 54.949219 838.710938 54.929688 C 843.148438 54.835938 847.570312 54.78125 852.007812 54.632812 C 852.832031 54.613281 853.597656 54.105469 853.804688 53.265625 C 854.046875 52.234375 853.1875 51.824219 852.402344 51.671875 C 850.023438 51.222656 847.644531 50.832031 845.230469 50.53125 C 840.230469 49.914062 835.15625 49.6875 830.210938 48.75 C 823.640625 47.515625 817.027344 47.011719 810.382812 46.503906 C 806.167969 46.1875 801.824219 46.242188 797.761719 45.269531 C 790.441406 43.507812 783.003906 43.132812 775.570312 42.609375 C 771.152344 42.292969 766.640625 42.273438 762.351562 41.355469 C 755.628906 39.914062 748.886719 38.695312 742.074219 38.378906 C 731.625 37.871094 721.214844 36.675781 710.707031 36.691406 C 699.210938 36.730469 687.75 35.363281 676.292969 34.539062 C 673.257812 34.316406 670.335938 34.070312 667.640625 32.253906 C 666.40625 31.429688 664.570312 31.261719 662.996094 31.1875 C 659.980469 31.019531 656.949219 31.054688 653.933594 31.09375 C 647.472656 31.167969 641.03125 30.925781 634.683594 29.671875 C 633.917969 29.519531 632.851562 29.519531 632.457031 29.015625 C 629.929688 25.886719 626.222656 25.34375 622.71875 24.765625 C 616.164062 23.679688 609.648438 22.3125 602.945312 22.085938 C 597.722656 21.917969 592.496094 21.355469 587.273438 21 C 583.660156 20.757812 580.027344 20.347656 576.414062 20.382812 C 565.515625 20.476562 554.671875 19.503906 543.8125 18.808594 C 531.339844 18.023438 518.890625 16.621094 506.363281 16.75 C 500.6875 16.808594 495.070312 16.582031 489.472656 15.925781 C 481.289062 14.972656 473.179688 12.988281 464.847656 14.015625 C 464.457031 14.074219 464.042969 13.960938 463.652344 13.847656 C 459.71875 12.707031 455.671875 12.910156 451.683594 12.949219 C 441.199219 13.082031 430.769531 11.824219 420.265625 12.21875 C 414.664062 12.425781 409.046875 13.324219 403.429688 12.726562 C 403.039062 12.6875 402.605469 12.78125 402.25 12.929688 C 401.914062 13.082031 401.519531 13.34375 401.371094 13.660156 C 401.089844 14.316406 401.484375 14.746094 402.0625 15.046875 C 404.03125 16.078125 406.613281 15.851562 408.167969 17.519531 C 411.125 20.664062 414.796875 20.980469 418.671875 20.757812 C 420.507812 20.644531 422.210938 20.71875 423.992188 21.320312 C 425.488281 21.824219 427.175781 21.824219 428.765625 21.917969 C 433.183594 22.199219 437.640625 22.253906 442.042969 22.707031 C 450.878906 23.621094 459.738281 23.996094 468.613281 23.960938 C 469.8125 23.960938 471.027344 24.089844 472.226562 24.242188 C 478.425781 24.953125 484.585938 26.074219 490.800781 26.300781 C 502.128906 26.695312 513.121094 29.765625 524.433594 30.140625 C 525.03125 30.15625 525.628906 30.289062 526.210938 30.457031 C 533.589844 32.59375 541.191406 33.453125 548.773438 34.351562 C 549.296875 34.410156 550.105469 34.445312 549.484375 35.757812 C 547.652344 35.699219 545.664062 35.679688 543.679688 35.589844 C 539.859375 35.4375 536.023438 35.121094 532.203125 35.101562 C 522.933594 35.042969 513.644531 35.402344 504.394531 35.101562 C 492.300781 34.707031 480.203125 34.953125 468.105469 34.96875 C 465.09375 34.96875 462.078125 34.613281 459.0625 34.390625 C 457.265625 34.257812 455.449219 33.957031 453.652344 33.902344 C 440.957031 33.527344 428.261719 33.191406 415.566406 32.890625 C 412.34375 32.816406 409.085938 33.246094 405.921875 32.910156 C 401.875 32.480469 397.886719 32.609375 393.84375 32.796875 C 387.609375 33.078125 381.355469 33.398438 375.117188 33.152344 C 368.660156 32.910156 362.234375 32.777344 355.8125 33.808594 C 353.976562 34.109375 352.179688 34.128906 350.605469 32.910156 C 349.070312 31.730469 347.613281 32.105469 346.132812 33.003906 C 344.148438 34.222656 341.976562 34.425781 339.710938 34.296875 C 331.113281 33.753906 322.464844 33.601562 313.960938 32.03125 C 312.800781 31.804688 311.566406 31.992188 310.367188 31.992188 C 307.148438 31.992188 303.871094 32.347656 300.707031 31.9375 C 297.617188 31.523438 294.65625 30.007812 291.417969 31.074219 C 291.097656 31.1875 290.613281 30.945312 290.273438 30.757812 C 288.214844 29.539062 286.191406 29.464844 283.925781 30.363281 C 282.898438 30.777344 281.550781 30.4375 280.351562 30.308594 C 277.75 30.007812 275.144531 29.597656 272.542969 29.296875 C 269.527344 28.941406 266.496094 28.808594 263.6875 30.308594 C 261.980469 31.226562 260.183594 31.132812 258.367188 31 C 251.925781 30.550781 245.503906 30.082031 239.0625 29.632812 C 236.046875 29.410156 233.050781 29.296875 230.019531 29.839844 C 227.882812 30.214844 225.542969 30.683594 223.445312 29.765625 C 219.234375 27.910156 214.871094 27.816406 210.414062 28.117188 C 209.027344 28.210938 207.585938 28.058594 206.21875 27.816406 C 204.214844 27.441406 202.25 27.386719 200.207031 27.59375 C 198.015625 27.816406 195.769531 27.816406 193.5625 27.59375 C 189.722656 27.21875 185.921875 27.085938 182.101562 27.667969 C 180.003906 27.984375 177.625 27.125 175.921875 29.148438 C 177.664062 31.597656 180.191406 30.234375 182.382812 30.4375 C 183.375 30.53125 184.386719 30.195312 185.394531 30.214844 C 188.410156 30.269531 191.351562 30.382812 194.367188 31.074219 C 201.648438 32.722656 209.175781 33.304688 216.59375 32.667969 C 220.675781 32.3125 224.605469 32.460938 228.59375 32.835938 C 231.199219 33.078125 233.820312 33.191406 236.441406 33.378906 C 240.1875 33.660156 243.96875 33.679688 248.425781 34.332031 C 246.90625 35.738281 245.804688 35.90625 244.625 35.832031 C 237.976562 35.496094 231.328125 35.214844 224.679688 34.800781 C 220.65625 34.539062 216.628906 34.332031 212.605469 34.765625 C 206.78125 35.402344 200.9375 35.308594 195.078125 35.289062 C 185.789062 35.230469 176.558594 36.039062 167.402344 37.535156 C 166.015625 37.761719 164.554688 37.855469 163.449219 38.847656 C 163.207031 39.050781 163.078125 39.558594 163.132812 39.894531 C 163.207031 40.230469 163.582031 40.773438 163.804688 40.757812 C 166.015625 40.71875 168.226562 40.71875 170.417969 40.417969 C 176.238281 39.652344 182.0625 40.382812 187.886719 40.269531 C 187.960938 40.269531 188.035156 40.550781 188.316406 41.074219 C 183.316406 42.011719 178.410156 42.683594 173.429688 42.890625 C 160.941406 43.394531 148.453125 43.734375 135.980469 44.445312 C 129.128906 44.839844 122.332031 45.417969 115.457031 45.023438 C 106.375 44.5 97.332031 45.753906 88.269531 45.71875 C 78.476562 45.679688 69.132812 48.207031 59.695312 50.195312 C 53.816406 51.429688 48.160156 53.695312 42.09375 54.277344 C 41.140625 54.367188 40.164062 54.855469 39.339844 55.398438 C 35.164062 58.171875 33.179688 62.589844 31.160156 66.878906 C 30.257812 68.769531 30.933594 69.984375 32.9375 70.621094 C 35.257812 71.351562 37.675781 71.746094 38.667969 74.460938 C 38.761719 74.722656 39.492188 75.078125 39.640625 74.984375 C 41.496094 73.675781 43.683594 75.324219 45.277344 74.609375 C 48.367188 73.1875 51.382812 71.597656 54.601562 70.433594 C 54.863281 70.339844 55.089844 69.78125 55.125 69.425781 C 55.183594 68.75 54.714844 68.246094 54.117188 68.132812 C 52.074219 67.71875 50.089844 68.1875 48.179688 68.804688 C 46.25 69.425781 45.183594 68.414062 43.835938 66.765625 C 45.746094 65.847656 47.449219 64.519531 49.304688 64.257812 C 54.863281 63.449219 60.5 63.078125 66.097656 62.457031 C 68.347656 62.214844 68.851562 64.722656 70.554688 65.097656 C 72.746094 65.566406 72.597656 62.140625 74.769531 62.269531 C 75.367188 62.308594 75.984375 62.269531 76.585938 62.214844 C 82.425781 61.785156 88.269531 61.578125 94.113281 61.972656 C 95.105469 62.046875 96.132812 61.914062 97.125 61.972656 C 98.101562 62.007812 99.222656 61.089844 100.441406 62.363281 C 98.082031 63.339844 96.003906 64.085938 94.019531 65.042969 C 91.957031 66.035156 89.9375 66.484375 87.632812 65.960938 C 85.910156 65.566406 85.816406 65.792969 86.171875 68.058594 C 86.285156 68.789062 86.078125 69.179688 85.5 69.519531 C 82.296875 71.390625 78.945312 72.589844 75.164062 72.027344 C 72.539062 71.632812 69.957031 71.746094 67.355469 72.140625 C 62.1875 72.945312 56.980469 73.488281 51.886719 74.609375 C 46.8125 75.714844 41.53125 76.351562 37.152344 79.628906 C 35.242188 81.050781 33.050781 81.183594 30.953125 79.648438 C 29.886719 78.878906 28.40625 78.523438 27.730469 79.742188 C 26.121094 82.585938 23.199219 83.636719 20.859375 85.488281 C 19.625 86.464844 17.675781 86.988281 17.488281 88.710938 C 17.375 89.742188 18.371094 90.882812 18.726562 92.007812 C 19.082031 93.148438 19.285156 94.347656 19.472656 95.546875 C 20.222656 100.265625 20.222656 100.375 25.054688 100.414062 C 27.542969 100.414062 29.25 101.574219 30.746094 103.316406 C 32.113281 104.90625 32.976562 106.554688 32.152344 108.804688 C 31.53125 110.46875 32.730469 110.824219 34.171875 110.75 C 34.660156 110.730469 35.464844 110.675781 34.828125 111.816406 C 33.105469 111.6875 31.308594 111.480469 29.511719 111.460938 C 28.238281 111.441406 27.898438 112.417969 27.808594 113.503906 C 27.695312 114.90625 28.386719 115.695312 29.585938 116.332031 C 30.464844 116.796875 32.226562 116.332031 32.019531 118.351562 C 30.035156 118.746094 28.03125 119.007812 26.121094 119.570312 C 24.304688 120.09375 22.714844 120.148438 20.878906 119.4375 C 18.988281 118.707031 17.882812 120.167969 18.5 122.210938 C 18.613281 122.585938 18.949219 122.902344 19.0625 123.277344 C 19.8125 125.46875 19.550781 126.253906 17.621094 127.132812 C 16.160156 127.808594 14.585938 128.21875 13.144531 128.96875 C 11.984375 129.570312 11.570312 130.75 11.742188 132.058594 C 11.871094 133.144531 12.527344 133.914062 13.539062 134.269531 C 14.101562 134.476562 14.71875 134.53125 15.296875 134.585938 C 16.085938 134.660156 17.019531 134.550781 17.097656 135.636719 C 17.152344 136.515625 16.421875 137.058594 15.730469 137.488281 C 15.054688 137.921875 14.269531 138.632812 13.613281 138.539062 C 9.699219 137.996094 7.996094 139.53125 8.257812 143.5 C 8.3125 144.191406 7.582031 144.921875 7.246094 145.671875 C 5.316406 150.074219 6.386719 153.949219 11.570312 155.691406 C 12.507812 156.007812 13.480469 156.363281 14.324219 156.871094 C 15.671875 157.675781 16.066406 159.246094 15.1875 160.519531 C 12.507812 164.339844 9.773438 168.105469 5.09375 169.714844 C 4.34375 169.976562 3.59375 170.351562 2.921875 170.78125 C 0.785156 172.128906 0 174.582031 1.667969 176.476562 C 3.875 178.964844 5.035156 182.449219 8.652344 183.703125 C 10.09375 184.207031 10.113281 185.5 8.96875 186.605469 C 8.390625 187.148438 7.621094 187.503906 7.039062 188.046875 C 6.816406 188.253906 6.683594 188.851562 6.816406 189.078125 C 6.984375 189.339844 7.546875 189.582031 7.847656 189.488281 C 10.167969 188.832031 12.453125 188.066406 14.753906 187.371094 C 15.578125 187.128906 16.402344 187.316406 16.871094 188.085938 C 17.359375 188.890625 17.003906 189.621094 16.367188 190.238281 C 16.066406 190.519531 15.730469 190.742188 15.449219 191.023438 C 14.847656 191.640625 14.457031 192.410156 15.09375 193.140625 C 15.449219 193.550781 16.105469 193.90625 16.648438 193.90625 C 18.667969 193.90625 20.691406 193.851562 22.675781 193.644531 C 24.792969 193.421875 26.195312 195.535156 28.40625 195.144531 C 29.867188 194.902344 30.539062 196.023438 30.445312 197.445312 C 30.335938 199.261719 30.316406 201.285156 28.648438 202.390625 C 26.328125 203.925781 26.234375 205.796875 26.984375 208.121094 C 27.132812 208.605469 26.664062 209.261719 26.570312 209.84375 C 26.175781 211.996094 26.683594 212.539062 28.5 211.957031 C 30.429688 211.339844 32.375 210.722656 33.6875 209.039062 C 35.632812 206.546875 38.21875 205.875 41.214844 206.152344 C 42.84375 206.304688 44.507812 206.097656 45.933594 205.347656 C 49.078125 203.703125 52.484375 203.589844 55.894531 203.175781 C 59.640625 202.726562 62.671875 203.476562 64.65625 206.921875 C 65.125 207.746094 65.78125 208.140625 66.605469 207.707031 C 69.246094 206.339844 71.753906 208.121094 74.28125 207.953125 C 76.886719 207.765625 79.429688 206.867188 82.070312 207.257812 C 83.0625 207.410156 84.074219 207.632812 85.011719 207.96875 C 87.164062 208.757812 89.410156 208.925781 91.566406 208.476562 C 95.253906 207.707031 98.773438 208.476562 102.332031 209.167969 C 108.90625 210.40625 115.457031 211.527344 121.992188 208.980469 C 122.722656 208.699219 123.585938 208.738281 124.390625 208.71875 C 129.632812 208.683594 134.859375 208.589844 140.101562 208.664062 C 143.320312 208.699219 146.5625 209.261719 149.761719 209.074219 C 161.035156 208.363281 172.289062 207.503906 183.542969 206.585938 C 197.398438 205.460938 211.199219 203.53125 225.148438 203.683594 C 225.75 203.683594 226.367188 203.625 226.949219 203.515625 C 234.511719 202.109375 242.171875 202.015625 249.828125 202.015625 C 256.269531 202.015625 262.785156 202.296875 269.171875 201.605469 C 278.609375 200.574219 288.066406 200.253906 297.539062 200.125 C 298.945312 200.105469 300.3125 200.011719 301.714844 200.40625 C 305.332031 201.378906 308.90625 201.210938 312.332031 199.601562 C 314.394531 198.625 316.585938 198.496094 318.832031 198.476562 C 324.859375 198.4375 330.910156 198.625 336.902344 198.175781 C 347.535156 197.351562 358.191406 197.671875 368.808594 197.503906 C 382.308594 197.277344 395.808594 196.359375 409.308594 197.464844 C 410.507812 197.558594 411.726562 197.316406 412.925781 197.316406 C 419.179688 197.277344 425.414062 197.277344 431.667969 197.277344 C 433.914062 198.777344 436.648438 196.792969 438.691406 197.972656 C 441.628906 199.695312 443.652344 196.902344 446.179688 197.109375 C 446.984375 197.167969 447.789062 197.148438 448.59375 197.128906 C 452.621094 197.054688 456.664062 196.734375 460.671875 196.921875 C 464.605469 197.109375 468.78125 196.003906 472.359375 198.71875 C 472.882812 199.113281 473.445312 198.757812 474.003906 198.515625 C 474.921875 198.140625 475.914062 197.671875 476.871094 197.726562 C 482.730469 198.046875 488.347656 195.292969 494.246094 196.417969 C 499.488281 195.332031 504.65625 196.230469 509.882812 196.660156 C 513.140625 196.941406 516.53125 198.253906 519.804688 196.398438 C 520.441406 196.042969 521.417969 196.0625 522.183594 196.191406 C 525.78125 196.828125 529.375 196.003906 532.96875 196.15625 C 533.757812 196.191406 534.878906 196.378906 535.292969 195.96875 C 536.789062 194.433594 538.0625 192.617188 538.960938 196.34375 C 539 196.492188 539.28125 196.753906 539.394531 196.714844 C 542.183594 196.171875 544.65625 198.550781 547.519531 197.523438 C 548.289062 197.242188 549.148438 197.277344 549.28125 196.324219 C 549.597656 193.871094 551.339844 193.550781 553.269531 193.703125 C 558.699219 194.132812 564.128906 194.207031 569.578125 193.851562 C 571.355469 193.738281 573.191406 194.132812 574.953125 194.527344 C 578.527344 195.332031 582.105469 195.707031 585.757812 195.144531 C 591.917969 194.207031 598.058594 195.273438 604.21875 195.332031 C 610.003906 195.386719 615.792969 196.003906 621.597656 195.78125 C 630.863281 195.40625 640.113281 196.210938 649.363281 196.492188 C 656.984375 196.714844 664.625 196.230469 672.191406 197.539062 C 672.378906 197.578125 672.601562 197.539062 672.789062 197.484375 C 675.410156 196.886719 678.015625 197.429688 680.617188 197.691406 C 683.632812 198.007812 686.628906 198.402344 689.640625 198.53125 C 698.292969 198.925781 706.964844 199.207031 715.613281 199.507812 C 721.457031 199.710938 727.296875 200.03125 733.160156 200.105469 C 742.222656 200.199219 751.304688 199.730469 760.347656 200.199219 C 775.851562 201.003906 791.414062 200.816406 806.878906 202.277344 C 808.675781 202.445312 810.492188 202.296875 812.308594 202.222656 C 812.574219 202.222656 812.984375 201.699219 812.984375 201.433594 C 812.984375 201.136719 812.609375 200.59375 812.328125 200.554688 C 809.539062 200.21875 806.730469 199.9375 803.941406 199.695312 C 797.515625 199.152344 791.167969 198.328125 784.859375 196.960938 C 779.203125 195.722656 773.699219 193.722656 767.761719 193.722656 C 765.402344 193.722656 763.027344 192.765625 760.648438 192.335938 C 759.300781 192.089844 759 190.445312 757.820312 190.238281 C 756.136719 189.9375 756.003906 192.296875 754.523438 192.484375 C 753.550781 192.597656 752.519531 192.710938 751.566406 192.558594 C 750.199219 192.335938 748.832031 191.492188 747.503906 191.585938 C 743.007812 191.886719 738.796875 190.144531 734.359375 190.199219 C 741.398438 190.070312 748.421875 190.070312 755.421875 189.1875 C 759.394531 188.683594 763.492188 189.488281 767.425781 188.214844 C 771.714844 189.226562 775.816406 187.933594 779.972656 187.261719 C 780.964844 187.109375 781.996094 187.09375 782.988281 187.109375 C 789.839844 187.277344 796.730469 187.109375 803.527344 187.804688 C 807.851562 188.234375 812.347656 188.007812 816.523438 189.636719 C 817.664062 190.089844 818.375 189.636719 818.976562 188.609375 C 820.042969 186.699219 821.859375 186.644531 823.714844 186.921875 C 824.03125 186.960938 824.480469 187.335938 824.539062 187.617188 C 824.59375 187.859375 824.21875 188.234375 823.976562 188.496094 C 822.609375 190.070312 822.722656 190.835938 824.460938 191.136719 C 827.441406 191.640625 830.4375 192.054688 833.414062 192.558594 C 836.109375 193.007812 838.542969 192.503906 838.152344 191.53125 C 837.402344 189.75 835.566406 189.84375 834.085938 189.359375 C 833.507812 189.171875 832.890625 189.152344 832.308594 188.984375 C 831.671875 188.777344 830.605469 188.910156 831.015625 187.464844 C 832.363281 187.109375 833.710938 187.335938 835.042969 187.839844 C 836.183594 188.289062 837.496094 188.796875 838.542969 188.160156 C 840.941406 186.699219 843.523438 186.773438 846.128906 186.679688 C 846.953125 186.644531 847.851562 186.175781 847.757812 185.257812 C 847.570312 183.554688 848.449219 183.027344 849.835938 183.046875 C 853.46875 183.085938 857.082031 183.234375 860.714844 183.328125 C 863.316406 183.402344 865.9375 183.609375 868.523438 182.992188 C 868.859375 182.917969 869.253906 182.523438 869.347656 182.203125 C 869.441406 181.90625 869.289062 181.25 869.066406 181.15625 C 866.480469 180.109375 865.507812 177.636719 863.953125 175.761719 C 865.132812 173.835938 866.929688 173.480469 868.671875 172.992188 C 870.414062 172.523438 872.230469 172.222656 873.898438 171.550781 C 878.503906 169.714844 883.335938 169.339844 888.144531 169.714844 C 896.816406 170.390625 904.363281 168.046875 910.859375 162.261719 C 911.683594 161.53125 911.515625 160.933594 910.972656 160.222656 C 910.597656 159.714844 910.296875 159.171875 911.007812 158.742188 C 911.871094 158.21875 912.84375 157.882812 913.648438 157.300781 C 914.0625 157 914.417969 156.34375 914.472656 155.820312 C 914.546875 155.109375 913.855469 154.847656 913.238281 154.773438 C 912.246094 154.660156 911.214844 154.773438 910.222656 154.585938 C 908.648438 154.304688 907.078125 153.949219 905.542969 153.480469 C 903.78125 152.917969 903.800781 152.84375 903.613281 149.625 C 901.777344 148.011719 903.332031 146.347656 903.539062 144.699219 C 906.738281 144.472656 909.941406 144.285156 913.144531 143.96875 C 913.894531 143.894531 914.625 143.460938 915.355469 143.144531 C 915.523438 143.070312 915.671875 142.863281 915.726562 142.675781 C 915.839844 142.191406 915.558594 141.871094 915.035156 141.984375 C 913.011719 142.414062 911.609375 142.394531 911.382812 139.605469 C 911.214844 137.582031 909.175781 136.929688 907.359375 136.476562 C 906.421875 136.253906 905.917969 135.824219 906.628906 134.832031 C 907.734375 133.296875 906.816406 132.171875 905.804688 131.121094 C 904.773438 130.035156 903.292969 129.941406 901.964844 129.476562 C 899.886719 128.746094 897.789062 127.996094 895.785156 127.078125 C 894.605469 126.535156 894.402344 124.8125 895.410156 123.988281 C 897.097656 122.585938 898.949219 121.367188 900.710938 120.054688 C 903.914062 117.660156 907.46875 116.554688 911.476562 116.816406 C 913.894531 116.984375 916.289062 117.117188 918.707031 117.152344 C 920.183594 117.171875 921.609375 116.761719 922.039062 115.113281 C 922.449219 113.597656 921.027344 113.128906 920.183594 112.34375 C 920.015625 112.191406 920.167969 111.667969 920.183594 111.125 C 922.710938 110.636719 925.257812 110.019531 927.863281 109.71875 C 930.257812 109.4375 932.691406 109.53125 935.089844 109.421875 C 935.726562 109.402344 936.25 109.082031 936.402344 108.410156 C 936.550781 107.753906 936.289062 107.265625 935.707031 106.910156 C 931.402344 104.289062 926.15625 104.066406 921.964844 101.613281 Z M 85.03125 55.640625 C 88.511719 54.6875 91.976562 54.519531 96.714844 55.175781 C 92.015625 56.859375 88.511719 56.484375 85.03125 55.640625 Z M 33.96875 130.054688 C 31.34375 130.074219 28.742188 130.054688 26.550781 131.890625 C 25.597656 132.675781 24.34375 132.828125 23.105469 132.769531 C 22.300781 132.734375 21.535156 132.621094 21.007812 131.871094 C 20.578125 131.234375 21.496094 130.207031 22.824219 130.019531 C 25.203125 129.679688 27.601562 129.34375 29.996094 129.195312 C 32.394531 129.0625 34.792969 129.175781 37.9375 129.175781 C 36.34375 130.523438 35.109375 130.035156 33.96875 130.054688 Z M 97.296875 71.410156 C 98.042969 70.433594 99.09375 71.332031 100.140625 71.613281 C 99.1875 71.539062 98.210938 71.484375 97.296875 71.410156 Z M 107.519531 55.679688 C 106.601562 55.921875 105.570312 56.296875 104.578125 55.003906 C 106.375 54.164062 108.136719 54.875 110.101562 54.59375 C 109.316406 55.847656 108.285156 55.472656 107.519531 55.679688 Z M 138.996094 64.425781 C 138.601562 64.441406 138.191406 64.40625 137.816406 64.292969 C 136.28125 63.863281 135.230469 62.457031 133.546875 62.195312 C 132.234375 61.988281 130.792969 62.945312 129.089844 61.296875 C 131.730469 61.335938 133.882812 61.335938 136.039062 61.410156 C 137.234375 61.464844 138.433594 61.617188 139.613281 61.804688 C 140.230469 61.898438 140.71875 62.363281 140.664062 63.019531 C 140.585938 63.976562 139.875 64.347656 138.996094 64.386719 Z M 276.15625 35.8125 C 273.140625 35.214844 270.164062 36.019531 267.1875 36.039062 C 265.296875 36.039062 263.648438 36.1875 262.414062 37.890625 C 261.8125 38.714844 260.597656 39.183594 259.734375 38.566406 C 258.273438 37.535156 256.777344 37.667969 255.164062 37.722656 C 254.097656 37.761719 253.480469 36.785156 252.976562 35.886719 C 252.542969 35.121094 252.976562 34.128906 253.800781 34.015625 C 254.191406 33.957031 254.585938 33.863281 254.980469 33.882812 C 261.175781 34.089844 267.355469 34.296875 274.640625 34.539062 C 274.339844 34.578125 275.125 34.445312 275.933594 34.425781 C 276.511719 34.425781 277.148438 34.578125 277.074219 35.324219 C 277.054688 35.511719 276.4375 35.851562 276.15625 35.792969 Z M 293.496094 37.761719 C 291.773438 38.660156 289.976562 38.210938 286.921875 37.871094 C 286.269531 37.871094 284.152344 38.660156 282.617188 36.730469 C 282.222656 36.242188 281.660156 35.867188 282.222656 35.25 C 282.449219 35.007812 283.027344 34.800781 283.328125 34.914062 C 285.648438 35.71875 287.933594 36.074219 290.386719 35.289062 C 291.53125 34.933594 292.765625 35.4375 293.757812 36.242188 C 293.90625 36.355469 294.058594 36.617188 294.019531 36.769531 C 293.90625 37.140625 293.796875 37.648438 293.515625 37.777344 Z M 304.335938 37.402344 C 304.429688 36.65625 305.105469 36.394531 305.59375 36.542969 C 309.957031 37.871094 314.316406 36.878906 318.664062 36.675781 C 319.636719 36.636719 320.628906 36.28125 321.566406 36.824219 C 318.71875 38.621094 310.777344 38.882812 304.320312 37.421875 Z M 903.59375 144.585938 C 902.285156 144.285156 900.972656 144.003906 899.4375 143.667969 C 901.910156 142.714844 901.929688 142.714844 903.59375 144.585938 Z M 903.59375 144.585938 " fill-opacity="1" fill-rule="nonzero"/></g><path fill="#ecc469" d="M 872.71875 190.539062 C 865.546875 191.191406 858.375 192.464844 851.128906 191.625 C 850.941406 191.605469 850.695312 191.660156 850.546875 191.773438 C 850.246094 192 849.835938 192.222656 849.722656 192.523438 C 849.5 193.195312 849.949219 193.738281 850.507812 193.945312 C 851.445312 194.300781 852.4375 194.601562 853.410156 194.65625 C 857.4375 194.917969 861.464844 195.292969 865.46875 195.257812 C 871.40625 195.179688 877.453125 195.613281 883.800781 192.015625 C 879.457031 191.175781 876.21875 190.199219 872.71875 190.519531 Z M 872.71875 190.539062 " fill-opacity="1" fill-rule="nonzero"/><path fill="#ecc469" d="M 385.660156 205.855469 C 384.519531 204.601562 382.160156 204.507812 380.753906 205.890625 C 379.648438 206.976562 379.386719 206.867188 378.039062 206.136719 C 374.96875 204.46875 372.402344 205.890625 371.167969 209.394531 C 370.960938 209.992188 371.429688 210.515625 372.046875 210.703125 C 372.609375 210.871094 373.226562 210.890625 373.339844 210.910156 C 377.382812 210.777344 380.960938 210.667969 384.519531 210.535156 C 386.222656 210.480469 388.730469 211.398438 389.21875 209.320312 C 389.628906 207.578125 386.820312 207.148438 385.640625 205.855469 Z M 385.660156 205.855469 " fill-opacity="1" fill-rule="nonzero"/><path fill="#ecc469" d="M 900.75 124.25 C 900.65625 124.382812 900.65625 124.679688 900.75 124.832031 C 901.890625 126.496094 903.539062 127.601562 905.242188 128.59375 C 905.898438 128.96875 907.546875 128.050781 907.582031 127.246094 C 907.601562 126.742188 907.378906 125.898438 907.003906 125.730469 C 905.242188 124.867188 903.40625 124.195312 901.574219 123.445312 C 901.253906 123.746094 900.953125 123.96875 900.730469 124.269531 Z M 900.75 124.25 " fill-opacity="1" fill-rule="nonzero"/><path fill="#ecc469" d="M 790.066406 193.984375 C 791.074219 195.628906 792.875 194.902344 794.578125 195.351562 C 796.207031 195.050781 798.171875 195.835938 800.027344 194.84375 C 798.714844 192.820312 796.414062 193.214844 794.539062 192.746094 C 791.882812 192.074219 789.464844 192.992188 790.082031 194 Z M 790.066406 193.984375 " fill-opacity="1" fill-rule="nonzero"/><path fill="#ecc469" d="M 54.527344 204.542969 C 52.917969 204.1875 51.363281 204.636719 49.941406 205.386719 C 49.660156 205.535156 49.359375 205.96875 49.339844 206.285156 C 49.304688 206.960938 49.789062 207.316406 50.875 207.503906 C 51.8125 207.410156 53.214844 207.332031 54.582031 207.109375 C 55.386719 206.976562 56.15625 206.492188 55.855469 205.535156 C 55.707031 205.105469 55.03125 204.65625 54.527344 204.542969 Z M 54.527344 204.542969 " fill-opacity="1" fill-rule="nonzero"/><path fill="#ecc469" d="M 388.804688 16.1875 C 391.164062 16.695312 393.507812 16.714844 396.539062 15.457031 C 393.414062 13.867188 391.015625 13.773438 388.527344 14.914062 C 388.375 14.992188 388.167969 15.289062 388.226562 15.382812 C 388.375 15.703125 388.5625 16.152344 388.804688 16.207031 Z M 388.804688 16.1875 " fill-opacity="1" fill-rule="nonzero"/><path fill="#ecc469" d="M 334.109375 21.863281 C 335.046875 21.527344 336.039062 20.644531 335.832031 19.632812 C 335.535156 18.210938 334.355469 18.808594 333.4375 19.128906 C 331.789062 19.710938 330.140625 20.289062 327.761719 21.152344 C 330.308594 22.332031 332.199219 22.554688 334.109375 21.863281 Z M 334.109375 21.863281 " fill-opacity="1" fill-rule="nonzero"/><path fill="#ecc469" d="M 371.375 19.257812 C 372.421875 19.464844 373.695312 18.585938 373.902344 17.40625 C 374.070312 16.527344 373.527344 15.945312 372.664062 15.832031 C 371.390625 15.664062 370.660156 16.449219 370.550781 17.929688 C 370.550781 18.546875 370.699219 19.109375 371.375 19.242188 Z M 371.375 19.257812 " fill-opacity="1" fill-rule="nonzero"/><path fill="#ecc469" d="M 841.425781 195.855469 C 840.246094 195.910156 839.199219 195.722656 838.433594 196.472656 C 838.261719 196.640625 838.28125 197.351562 838.449219 197.464844 C 839.890625 198.4375 841.390625 198.421875 842.8125 197.390625 C 842.980469 197.257812 842.980469 196.53125 842.832031 196.4375 C 842.363281 196.136719 841.785156 195.988281 841.425781 195.855469 Z M 841.425781 195.855469 " fill-opacity="1" fill-rule="nonzero"/><path fill="#ecc469" d="M 818.507812 194.433594 C 817.722656 194.414062 816.917969 194.542969 816.167969 194.769531 C 815.925781 194.84375 815.792969 195.386719 815.679688 195.742188 C 815.644531 195.855469 815.886719 196.117188 816.054688 196.171875 C 816.824219 196.417969 817.589844 196.585938 818.039062 196.699219 C 819.183594 196.699219 820.007812 196.808594 820.566406 196.042969 C 821.015625 195.445312 819.855469 194.449219 818.507812 194.414062 Z M 818.507812 194.433594 " fill-opacity="1" fill-rule="nonzero"/><path fill="#ecc469" d="M 7.152344 75.789062 C 7.695312 75.808594 8.40625 75.734375 8.78125 75.398438 C 9.980469 74.386719 11.179688 73.320312 11.890625 70.789062 C 9.664062 71.652344 8.390625 72.53125 7.320312 73.710938 C 6.722656 74.386719 6.589844 75.773438 7.152344 75.789062 Z M 7.152344 75.789062 " fill-opacity="1" fill-rule="nonzero"/><path fill="#ecc469" d="M 333.679688 209.691406 C 332.3125 209.691406 330.925781 209.542969 329.652344 210.234375 C 329.523438 210.3125 329.449219 210.535156 329.429688 210.703125 C 329.429688 210.871094 329.46875 211.152344 329.578125 211.191406 C 330.101562 211.414062 330.648438 211.566406 330.964844 211.679688 C 332.011719 211.601562 332.800781 211.601562 333.566406 211.472656 C 334.183594 211.378906 334.730469 211.023438 334.558594 210.3125 C 334.484375 210.03125 334 209.65625 333.699219 209.65625 Z M 333.679688 209.691406 " fill-opacity="1" fill-rule="nonzero"/><path fill="#ecc469" d="M 925.539062 114.699219 C 925.257812 114.8125 925.089844 115.226562 924.867188 115.488281 C 924.902344 115.675781 924.867188 115.898438 924.980469 116.050781 C 925.765625 117.136719 926.851562 117.378906 928.070312 117.023438 C 928.347656 116.949219 928.667969 116.5 928.6875 116.199219 C 928.722656 115.878906 928.535156 115.394531 928.273438 115.1875 C 927.46875 114.570312 926.515625 114.34375 925.539062 114.699219 Z M 925.539062 114.699219 " fill-opacity="1" fill-rule="nonzero"/><path fill="#ecc469" d="M 324.691406 209.824219 C 324.355469 209.710938 323.90625 209.863281 323.550781 209.992188 C 322.988281 210.199219 322.351562 210.609375 322.558594 211.210938 C 322.707031 211.621094 323.417969 211.847656 323.738281 212.050781 C 324.355469 211.976562 324.75 211.996094 325.121094 211.882812 C 325.722656 211.714844 326.300781 211.265625 326.058594 210.648438 C 325.890625 210.234375 325.199219 209.972656 324.691406 209.804688 Z M 324.691406 209.824219 " fill-opacity="1" fill-rule="nonzero"/><path fill="#ecc469" d="M 17.84375 116.648438 C 18.929688 116.855469 20.242188 116.144531 20.09375 115.46875 C 20.015625 115.1875 19.566406 115 19.285156 114.777344 C 17.996094 114.570312 16.945312 115.09375 17.113281 115.917969 C 17.171875 116.21875 17.5625 116.59375 17.84375 116.648438 Z M 17.84375 116.648438 " fill-opacity="1" fill-rule="nonzero"/><path fill="#ecc469" d="M 363.304688 205.253906 C 362.480469 205.144531 361.785156 205.460938 361.582031 206.324219 C 361.429688 206.976562 361.878906 207.410156 362.480469 207.503906 C 363.304688 207.632812 363.957031 207.316406 364.144531 206.714844 C 364.3125 205.761719 363.902344 205.347656 363.320312 205.253906 Z M 363.304688 205.253906 " fill-opacity="1" fill-rule="nonzero"/><path fill="#ecc469" d="M 351.695312 206.324219 C 351.582031 206.546875 351.695312 207.109375 351.898438 207.238281 C 352.441406 207.597656 352.929688 207.351562 353.042969 206.734375 C 353.078125 206.511719 352.722656 206.191406 352.554688 205.929688 C 352.253906 206.058594 351.804688 206.097656 351.695312 206.324219 Z M 351.695312 206.324219 " fill-opacity="1" fill-rule="nonzero"/><path fill="#ecc469" d="M 386.203125 19.429688 C 386.617188 19.316406 386.617188 18.792969 386.222656 18.53125 C 385.53125 18.042969 384.78125 18.042969 384.105469 18.605469 C 383.917969 19.035156 384.050781 19.410156 384.519531 19.464844 C 385.082031 19.539062 385.679688 19.558594 386.203125 19.410156 Z M 386.203125 19.429688 " fill-opacity="1" fill-rule="nonzero"/><path fill="#ecc469" d="M 406.519531 18.699219 C 406.371094 18.511719 405.753906 18.53125 405.472656 18.699219 C 405.210938 18.867188 405.117188 19.316406 404.929688 19.632812 C 405.285156 19.746094 405.660156 20.007812 405.957031 19.933594 C 406.613281 19.800781 406.988281 19.316406 406.5 18.699219 Z M 406.519531 18.699219 " fill-opacity="1" fill-rule="nonzero"/><g clip-path="url(#125e261160)"><path fill="#ecc469" d="M 191.613281 215.125 C 190.976562 215.085938 190.546875 215.480469 190.414062 215.910156 C 190.339844 216.828125 190.808594 217.183594 191.425781 217.238281 C 192.0625 217.296875 192.605469 216.941406 192.660156 216.265625 C 192.71875 215.609375 192.25 215.160156 191.613281 215.105469 Z M 191.613281 215.125 " fill-opacity="1" fill-rule="nonzero"/></g><path fill="#ecc469" d="M 13.800781 122.191406 C 14.585938 122.136719 15.335938 121.855469 15.691406 121.105469 C 15.878906 120.730469 15.558594 120.394531 15.09375 120.414062 C 14.289062 120.429688 13.59375 120.691406 13.199219 121.480469 C 13.144531 121.929688 13.351562 122.230469 13.800781 122.191406 Z M 13.800781 122.191406 " fill-opacity="1" fill-rule="nonzero"/></svg>