<svg xmlns="http://www.w3.org/2000/svg" xmlns:xlink="http://www.w3.org/1999/xlink" width="500" zoomAndPan="magnify" viewBox="0 0 375 374.999991" height="500" preserveAspectRatio="xMidYMid meet" version="1.0"><defs><clipPath id="4845200088"><path d="M 41.152344 55 L 333.652344 55 L 333.652344 332.359375 L 41.152344 332.359375 Z M 41.152344 55 " clip-rule="nonzero"/></clipPath><clipPath id="961438dea4"><path d="M 86 27.859375 L 128 27.859375 L 128 92 L 86 92 Z M 86 27.859375 " clip-rule="nonzero"/></clipPath><clipPath id="47911c320a"><path d="M 167 27.859375 L 208 27.859375 L 208 92 L 167 92 Z M 167 27.859375 " clip-rule="nonzero"/></clipPath><clipPath id="b64a4f07bb"><path d="M 247 27.859375 L 289 27.859375 L 289 92 L 247 92 Z M 247 27.859375 " clip-rule="nonzero"/></clipPath><clipPath id="2bbf70f242"><path d="M 41.152344 105 L 333.652344 105 L 333.652344 115 L 41.152344 115 Z M 41.152344 105 " clip-rule="nonzero"/></clipPath></defs><g clip-path="url(#4845200088)"><path fill="#c4262e" d="M 69.507812 55.054688 L 91.679688 55.054688 C 94.308594 55.054688 96.4375 57.183594 96.4375 59.8125 L 96.4375 71.527344 C 96.4375 77.429688 101.261719 82.25 107.160156 82.25 C 113.058594 82.25 117.882812 77.417969 117.882812 71.527344 L 117.882812 59.8125 C 117.882812 57.183594 120.015625 55.054688 122.640625 55.054688 L 172.015625 55.054688 C 174.644531 55.054688 176.773438 57.183594 176.773438 59.8125 L 176.773438 71.527344 C 176.773438 77.421875 181.597656 82.25 187.496094 82.25 C 190.441406 82.25 193.121094 81.042969 195.066406 79.097656 C 195.136719 79.023438 195.210938 78.953125 195.289062 78.890625 C 197.101562 76.972656 198.21875 74.378906 198.21875 71.527344 L 198.21875 59.8125 C 198.21875 57.183594 200.347656 55.054688 202.976562 55.054688 L 252.351562 55.054688 C 254.976562 55.054688 257.109375 57.183594 257.109375 59.8125 L 257.109375 71.527344 C 257.109375 77.421875 261.933594 82.25 267.832031 82.25 C 270.789062 82.25 273.46875 81.050781 275.402344 79.117188 L 275.398438 79.097656 C 275.472656 79.027344 275.542969 78.957031 275.617188 78.894531 C 277.433594 76.976562 278.554688 74.382812 278.554688 71.527344 L 278.554688 59.8125 C 278.554688 57.183594 280.683594 55.054688 283.3125 55.054688 L 305.484375 55.054688 C 313.242188 55.054688 320.289062 58.226562 325.398438 63.332031 C 330.503906 68.4375 333.671875 75.488281 333.671875 83.242188 L 333.671875 304.160156 C 333.671875 311.917969 330.503906 318.964844 325.398438 324.070312 C 320.289062 329.179688 313.242188 332.347656 305.484375 332.347656 L 69.507812 332.347656 C 61.75 332.347656 54.699219 329.179688 49.59375 324.070312 C 44.488281 318.964844 41.316406 311.917969 41.316406 304.160156 L 41.316406 83.242188 C 41.316406 75.484375 44.488281 68.4375 49.59375 63.332031 C 54.699219 58.222656 61.75 55.054688 69.507812 55.054688 Z M 86.921875 64.570312 L 69.507812 64.570312 C 64.375 64.570312 59.707031 66.671875 56.320312 70.058594 C 52.933594 73.445312 50.832031 78.113281 50.832031 83.242188 L 50.832031 304.160156 C 50.832031 309.289062 52.933594 313.957031 56.320312 317.34375 C 59.707031 320.730469 64.375 322.832031 69.507812 322.832031 L 305.484375 322.832031 C 310.617188 322.832031 315.28125 320.730469 318.667969 317.34375 C 322.054688 313.957031 324.15625 309.289062 324.15625 304.160156 L 324.15625 83.242188 C 324.15625 78.113281 322.054688 73.445312 318.667969 70.058594 C 315.28125 66.671875 310.617188 64.570312 305.484375 64.570312 L 288.070312 64.570312 L 288.070312 71.527344 C 288.070312 82.644531 278.957031 91.765625 267.832031 91.765625 C 256.699219 91.765625 247.59375 82.660156 247.59375 71.527344 L 247.59375 64.570312 L 207.734375 64.570312 L 207.734375 71.527344 C 207.734375 82.65625 198.621094 91.765625 187.496094 91.765625 C 176.363281 91.765625 167.257812 82.660156 167.257812 71.527344 L 167.257812 64.570312 L 127.398438 64.570312 L 127.398438 71.527344 C 127.398438 82.65625 118.285156 91.765625 107.160156 91.765625 C 96.042969 91.765625 86.921875 82.65625 86.921875 71.527344 Z M 86.921875 64.570312 " fill-opacity="1" fill-rule="nonzero"/></g><g clip-path="url(#961438dea4)"><path fill="#c4262e" d="M 107.160156 27.859375 C 118.285156 27.859375 127.398438 36.96875 127.398438 48.097656 L 127.398438 71.527344 C 127.398438 82.660156 118.292969 91.765625 107.160156 91.765625 C 96.035156 91.765625 86.921875 82.644531 86.921875 71.527344 L 86.921875 48.097656 C 86.921875 36.972656 96.042969 27.859375 107.160156 27.859375 Z M 107.160156 37.375 C 101.261719 37.375 96.4375 42.195312 96.4375 48.097656 L 96.4375 71.527344 C 96.4375 74.382812 97.558594 76.976562 99.375 78.894531 C 99.449219 78.957031 99.519531 79.027344 99.59375 79.097656 L 99.589844 79.117188 C 101.527344 81.050781 104.203125 82.25 107.160156 82.25 C 113.058594 82.25 117.882812 77.421875 117.882812 71.527344 L 117.882812 48.097656 C 117.882812 42.207031 113.058594 37.375 107.160156 37.375 Z M 107.160156 37.375 " fill-opacity="1" fill-rule="nonzero"/></g><g clip-path="url(#47911c320a)"><path fill="#c4262e" d="M 187.496094 27.859375 C 198.621094 27.859375 207.734375 36.96875 207.734375 48.097656 L 207.734375 71.527344 C 207.734375 82.660156 198.628906 91.765625 187.496094 91.765625 C 181.925781 91.765625 176.863281 89.492188 173.199219 85.824219 C 173.097656 85.726562 173.003906 85.621094 172.914062 85.515625 C 169.414062 81.867188 167.257812 76.929688 167.257812 71.527344 L 167.257812 48.097656 C 167.257812 36.964844 176.363281 27.859375 187.496094 27.859375 Z M 187.496094 37.375 C 181.597656 37.375 176.773438 42.203125 176.773438 48.097656 L 176.773438 71.527344 C 176.773438 77.417969 181.597656 82.25 187.496094 82.25 C 193.394531 82.25 198.21875 77.421875 198.21875 71.527344 L 198.21875 48.097656 C 198.21875 42.207031 193.394531 37.375 187.496094 37.375 Z M 187.496094 37.375 " fill-opacity="1" fill-rule="nonzero"/></g><g clip-path="url(#b64a4f07bb)"><path fill="#c4262e" d="M 267.832031 27.859375 C 278.957031 27.859375 288.070312 36.980469 288.070312 48.097656 L 288.070312 71.527344 C 288.070312 82.652344 278.949219 91.765625 267.832031 91.765625 C 256.707031 91.765625 247.59375 82.65625 247.59375 71.527344 L 247.59375 48.097656 C 247.59375 36.964844 256.699219 27.859375 267.832031 27.859375 Z M 267.832031 37.375 C 261.933594 37.375 257.109375 42.203125 257.109375 48.097656 L 257.109375 71.527344 C 257.109375 77.417969 261.933594 82.25 267.832031 82.25 C 273.730469 82.25 278.554688 77.429688 278.554688 71.527344 L 278.554688 48.097656 C 278.554688 42.195312 273.734375 37.375 267.832031 37.375 Z M 267.832031 37.375 " fill-opacity="1" fill-rule="nonzero"/></g><g clip-path="url(#2bbf70f242)"><path fill="#c4262e" d="M 328.914062 114.78125 C 331.542969 114.78125 333.671875 112.652344 333.671875 110.023438 C 333.671875 107.394531 331.542969 105.265625 328.914062 105.265625 L 46.078125 105.265625 C 43.449219 105.265625 41.316406 107.394531 41.316406 110.023438 C 41.316406 112.652344 43.449219 114.78125 46.078125 114.78125 Z M 328.914062 114.78125 " fill-opacity="1" fill-rule="nonzero"/></g><path fill="#c4262e" d="M 143.5625 145.429688 L 172.015625 145.429688 C 174.644531 145.429688 176.773438 147.5625 176.773438 150.1875 L 176.773438 178.640625 C 176.773438 181.269531 174.644531 183.398438 172.015625 183.398438 L 143.5625 183.398438 C 140.9375 183.398438 138.804688 181.269531 138.804688 178.640625 L 138.804688 150.1875 C 138.804688 147.5625 140.9375 145.429688 143.5625 145.429688 Z M 167.257812 154.945312 L 148.320312 154.945312 L 148.320312 173.882812 L 167.257812 173.882812 Z M 167.257812 154.945312 " fill-opacity="1" fill-rule="nonzero"/><path fill="#c4262e" d="M 202.976562 145.429688 L 231.429688 145.429688 C 234.054688 145.429688 236.1875 147.5625 236.1875 150.1875 L 236.1875 178.640625 C 236.1875 181.269531 234.054688 183.398438 231.429688 183.398438 L 202.976562 183.398438 C 200.347656 183.398438 198.21875 181.269531 198.21875 178.640625 L 198.21875 150.1875 C 198.21875 147.5625 200.347656 145.429688 202.976562 145.429688 Z M 226.671875 154.945312 L 207.734375 154.945312 L 207.734375 173.882812 L 226.671875 173.882812 Z M 226.671875 154.945312 " fill-opacity="1" fill-rule="nonzero"/><path fill="#c4262e" d="M 262.390625 145.429688 L 290.839844 145.429688 C 293.46875 145.429688 295.597656 147.5625 295.597656 150.1875 L 295.597656 178.640625 C 295.597656 181.269531 293.46875 183.398438 290.839844 183.398438 L 262.390625 183.398438 C 259.761719 183.398438 257.632812 181.269531 257.632812 178.640625 L 257.632812 150.1875 C 257.632812 147.5625 259.761719 145.429688 262.390625 145.429688 Z M 286.082031 154.945312 L 267.148438 154.945312 L 267.148438 173.882812 L 286.082031 173.882812 Z M 286.082031 154.945312 " fill-opacity="1" fill-rule="nonzero"/><path fill="#c4262e" d="M 84.152344 199.820312 L 112.601562 199.820312 C 115.230469 199.820312 117.359375 201.953125 117.359375 204.578125 L 117.359375 233.03125 C 117.359375 235.660156 115.230469 237.789062 112.601562 237.789062 L 84.152344 237.789062 C 81.523438 237.789062 79.394531 235.660156 79.394531 233.03125 L 79.394531 204.578125 C 79.394531 201.953125 81.523438 199.820312 84.152344 199.820312 Z M 107.84375 209.339844 L 88.910156 209.339844 L 88.910156 228.273438 L 107.84375 228.273438 Z M 107.84375 209.339844 " fill-opacity="1" fill-rule="nonzero"/><path fill="#c4262e" d="M 143.5625 199.820312 L 172.015625 199.820312 C 174.644531 199.820312 176.773438 201.953125 176.773438 204.578125 L 176.773438 233.03125 C 176.773438 235.660156 174.644531 237.789062 172.015625 237.789062 L 143.5625 237.789062 C 140.9375 237.789062 138.804688 235.660156 138.804688 233.03125 L 138.804688 204.578125 C 138.804688 201.953125 140.9375 199.820312 143.5625 199.820312 Z M 167.257812 209.339844 L 148.320312 209.339844 L 148.320312 228.273438 L 167.257812 228.273438 Z M 167.257812 209.339844 " fill-opacity="1" fill-rule="nonzero"/><path fill="#c4262e" d="M 202.976562 199.820312 L 231.429688 199.820312 C 234.054688 199.820312 236.1875 201.953125 236.1875 204.578125 L 236.1875 233.03125 C 236.1875 235.660156 234.054688 237.789062 231.429688 237.789062 L 202.976562 237.789062 C 200.347656 237.789062 198.21875 235.660156 198.21875 233.03125 L 198.21875 204.578125 C 198.21875 201.953125 200.347656 199.820312 202.976562 199.820312 Z M 226.671875 209.339844 L 207.734375 209.339844 L 207.734375 228.273438 L 226.671875 228.273438 Z M 226.671875 209.339844 " fill-opacity="1" fill-rule="nonzero"/><path fill="#c4262e" d="M 262.390625 199.820312 L 290.839844 199.820312 C 293.46875 199.820312 295.597656 201.953125 295.597656 204.578125 L 295.597656 233.03125 C 295.597656 235.660156 293.46875 237.789062 290.839844 237.789062 L 262.390625 237.789062 C 259.761719 237.789062 257.632812 235.660156 257.632812 233.03125 L 257.632812 204.578125 C 257.632812 201.953125 259.761719 199.820312 262.390625 199.820312 Z M 286.082031 209.339844 L 267.148438 209.339844 L 267.148438 228.273438 L 286.082031 228.273438 Z M 286.082031 209.339844 " fill-opacity="1" fill-rule="nonzero"/><path fill="#c4262e" d="M 84.152344 254.214844 L 112.601562 254.214844 C 115.230469 254.214844 117.359375 256.34375 117.359375 258.972656 L 117.359375 287.425781 C 117.359375 290.050781 115.230469 292.183594 112.601562 292.183594 L 84.152344 292.183594 C 81.523438 292.183594 79.394531 290.050781 79.394531 287.425781 L 79.394531 258.972656 C 79.394531 256.34375 81.523438 254.214844 84.152344 254.214844 Z M 107.84375 263.730469 L 88.910156 263.730469 L 88.910156 282.664062 L 107.84375 282.664062 Z M 107.84375 263.730469 " fill-opacity="1" fill-rule="nonzero"/><path fill="#c4262e" d="M 143.5625 254.214844 L 172.015625 254.214844 C 174.644531 254.214844 176.773438 256.34375 176.773438 258.972656 L 176.773438 287.425781 C 176.773438 290.050781 174.644531 292.183594 172.015625 292.183594 L 143.5625 292.183594 C 140.9375 292.183594 138.804688 290.050781 138.804688 287.425781 L 138.804688 258.972656 C 138.804688 256.34375 140.9375 254.214844 143.5625 254.214844 Z M 167.257812 263.730469 L 148.320312 263.730469 L 148.320312 282.664062 L 167.257812 282.664062 Z M 167.257812 263.730469 " fill-opacity="1" fill-rule="nonzero"/><path fill="#c4262e" d="M 202.976562 254.214844 L 231.429688 254.214844 C 234.054688 254.214844 236.1875 256.34375 236.1875 258.972656 L 236.1875 287.425781 C 236.1875 290.050781 234.054688 292.183594 231.429688 292.183594 L 202.976562 292.183594 C 200.347656 292.183594 198.21875 290.050781 198.21875 287.425781 L 198.21875 258.972656 C 198.21875 256.34375 200.347656 254.214844 202.976562 254.214844 Z M 226.671875 263.730469 L 207.734375 263.730469 L 207.734375 282.664062 L 226.671875 282.664062 Z M 226.671875 263.730469 " fill-opacity="1" fill-rule="nonzero"/></svg>