<svg xmlns="http://www.w3.org/2000/svg" xmlns:xlink="http://www.w3.org/1999/xlink" width="500" zoomAndPan="magnify" viewBox="0 0 375 374.999991" height="500" preserveAspectRatio="xMidYMid meet" version="1.0"><defs><clipPath id="8d7a5d1eae"><path d="M 13.4375 62.609375 L 361.4375 62.609375 L 361.4375 312.359375 L 13.4375 312.359375 Z M 13.4375 62.609375 " clip-rule="nonzero"/></clipPath></defs><g clip-path="url(#8d7a5d1eae)"><path fill="#c4262e" d="M 134.519531 62.628906 C 101.605469 62.628906 71.636719 72.707031 49.621094 89.589844 C 27.601562 106.46875 13.4375 130.523438 13.4375 157.226562 C 13.4375 190.257812 35.40625 218.300781 67 235.03125 C 63.332031 251.675781 56.625 265.980469 45.953125 276.652344 C 45.410156 277.179688 44.957031 277.773438 44.589844 278.4375 C 44.226562 279.097656 43.964844 279.796875 43.808594 280.539062 C 43.65625 281.277344 43.613281 282.027344 43.679688 282.777344 C 43.75 283.53125 43.925781 284.257812 44.210938 284.957031 C 44.5 285.65625 44.882812 286.300781 45.359375 286.886719 C 45.839844 287.472656 46.394531 287.972656 47.023438 288.390625 C 47.652344 288.8125 48.328125 289.128906 49.054688 289.34375 C 49.777344 289.5625 50.519531 289.667969 51.273438 289.660156 C 84.335938 289.660156 112.492188 275.410156 126.597656 251.46875 C 129.21875 251.605469 131.824219 251.820312 134.519531 251.820312 C 142.847656 251.820312 150.925781 251.074219 158.761719 249.8125 C 180.449219 265.300781 209.089844 274.523438 240.46875 274.523438 C 243.167969 274.523438 245.769531 274.308594 248.390625 274.171875 C 262.5 298.113281 290.652344 312.363281 323.714844 312.363281 C 324.472656 312.371094 325.210938 312.265625 325.9375 312.046875 C 326.660156 311.832031 327.335938 311.515625 327.96875 311.09375 C 328.597656 310.675781 329.152344 310.175781 329.628906 309.589844 C 330.109375 309.003906 330.492188 308.363281 330.777344 307.660156 C 331.0625 306.960938 331.242188 306.234375 331.308594 305.480469 C 331.378906 304.730469 331.335938 303.980469 331.179688 303.242188 C 331.023438 302.503906 330.765625 301.800781 330.398438 301.140625 C 330.035156 300.476562 329.578125 299.882812 329.035156 299.355469 C 318.363281 288.683594 311.65625 274.378906 307.988281 257.734375 C 339.585938 241.003906 361.554688 212.964844 361.554688 179.929688 C 361.554688 153.226562 347.386719 129.171875 325.371094 112.292969 C 303.351562 95.410156 273.382812 85.332031 240.46875 85.332031 C 232.160156 85.332031 224.082031 85.992188 216.230469 87.222656 C 194.554688 71.789062 165.851562 62.628906 134.519531 62.628906 Z M 134.519531 77.761719 C 157.136719 77.761719 178.070312 83.214844 195.179688 92.1875 C 180.324219 96.828125 166.898438 103.605469 155.566406 112.292969 C 133.550781 129.171875 119.386719 153.226562 119.386719 179.929688 C 119.386719 201.234375 128.441406 220.84375 143.269531 236.449219 C 140.394531 236.644531 137.46875 236.6875 134.519531 236.6875 C 130.832031 236.6875 127.183594 236.496094 123.523438 236.214844 C 122.761719 236.148438 122.003906 236.199219 121.257812 236.367188 C 120.507812 236.53125 119.800781 236.804688 119.136719 237.183594 C 118.472656 237.5625 117.878906 238.035156 117.355469 238.59375 C 116.832031 239.15625 116.40625 239.78125 116.074219 240.46875 C 108.085938 257.125 90.6875 268.636719 68.183594 272.632812 C 75.667969 260.980469 80.769531 247.683594 83.320312 233.019531 C 83.460938 232.203125 83.46875 231.378906 83.34375 230.558594 C 83.214844 229.738281 82.957031 228.957031 82.574219 228.21875 C 82.1875 227.484375 81.695312 226.828125 81.09375 226.25 C 80.496094 225.675781 79.816406 225.214844 79.0625 224.863281 C 48.164062 210.546875 28.570312 185.339844 28.570312 157.226562 C 28.570312 135.859375 39.777344 116.265625 58.84375 101.648438 C 77.910156 87.03125 104.742188 77.761719 134.519531 77.761719 Z M 240.46875 100.464844 C 270.25 100.464844 297.078125 109.734375 316.148438 124.351562 C 335.214844 138.972656 346.417969 158.5625 346.417969 179.929688 C 346.417969 208.042969 326.824219 233.25 295.925781 247.566406 C 295.171875 247.917969 294.496094 248.378906 293.894531 248.953125 C 293.292969 249.53125 292.800781 250.1875 292.414062 250.921875 C 292.03125 251.660156 291.773438 252.441406 291.648438 253.261719 C 291.519531 254.085938 291.527344 254.90625 291.667969 255.722656 C 294.21875 270.386719 299.320312 283.6875 306.804688 295.335938 C 284.300781 291.34375 266.90625 279.828125 258.914062 263.171875 C 258.582031 262.484375 258.15625 261.859375 257.632812 261.296875 C 257.109375 260.738281 256.515625 260.269531 255.851562 259.886719 C 255.1875 259.507812 254.480469 259.234375 253.734375 259.070312 C 252.984375 258.902344 252.230469 258.851562 251.464844 258.917969 C 247.808594 259.199219 244.160156 259.390625 240.46875 259.390625 C 210.691406 259.390625 183.859375 250.003906 164.792969 235.386719 C 145.722656 220.765625 134.519531 201.292969 134.519531 179.929688 C 134.519531 158.5625 145.722656 138.972656 164.792969 124.351562 C 183.859375 109.734375 210.691406 100.464844 240.46875 100.464844 Z M 187.496094 168.578125 C 181.226562 168.578125 176.144531 173.660156 176.144531 179.929688 C 176.144531 186.199219 181.226562 191.28125 187.496094 191.28125 C 193.765625 191.28125 198.847656 186.199219 198.847656 179.929688 C 198.847656 173.660156 193.765625 168.578125 187.496094 168.578125 Z M 240.46875 168.578125 C 234.199219 168.578125 229.117188 173.660156 229.117188 179.929688 C 229.117188 186.199219 234.199219 191.28125 240.46875 191.28125 C 246.738281 191.28125 251.820312 186.199219 251.820312 179.929688 C 251.820312 173.660156 246.738281 168.578125 240.46875 168.578125 Z M 293.445312 168.578125 C 287.175781 168.578125 282.09375 173.660156 282.09375 179.929688 C 282.09375 186.199219 287.175781 191.28125 293.445312 191.28125 C 299.710938 191.28125 304.796875 186.199219 304.796875 179.929688 C 304.796875 173.660156 299.710938 168.578125 293.445312 168.578125 Z M 293.445312 168.578125 " fill-opacity="1" fill-rule="nonzero"/></g></svg>