<svg xmlns="http://www.w3.org/2000/svg" xmlns:xlink="http://www.w3.org/1999/xlink" width="1500" zoomAndPan="magnify" viewBox="0 0 1125 525.000007" height="700" preserveAspectRatio="xMidYMid meet" version="1.0"><defs><clipPath id="ef70462f12"><path d="M 106.558594 147 L 884 147 L 884 377 L 106.558594 377 Z M 106.558594 147 " clip-rule="nonzero"/></clipPath><clipPath id="248ee630ae"><path d="M 427 210 L 1018.320312 210 L 1018.320312 314 L 427 314 Z M 427 210 " clip-rule="nonzero"/></clipPath></defs><g clip-path="url(#ef70462f12)"><path fill="#b4b6b8" d="M 106.539062 235.398438 C 107.824219 235.011719 109.054688 234.496094 110.230469 233.851562 L 153.140625 207.246094 C 153.886719 206.683594 154.601562 206.082031 155.285156 205.445312 L 155.285156 148.542969 L 201.03125 148.542969 L 201.03125 177.894531 L 250.464844 147.859375 L 394.390625 236.082031 L 370.703125 274.875 L 346.070312 259.855469 L 345.210938 259.855469 C 345.164062 260.027344 345.164062 260.199219 345.210938 260.371094 L 345.210938 375.375 C 340.40625 376.574219 172.707031 377.089844 156.402344 375.976562 L 156.402344 374 C 156.402344 336.410156 156.402344 298.761719 156.402344 261.058594 L 155.886719 260.027344 L 129.96875 274.960938 L 120.269531 259.511719 C 116.152344 252.820312 111.6875 246.125 107.824219 239.429688 C 107.421875 238.761719 106.933594 238.164062 106.367188 237.628906 Z M 839.921875 313.984375 L 835.097656 313 C 833.601562 312.761719 832.128906 312.425781 830.675781 311.992188 C 829.226562 311.5625 827.808594 311.035156 826.425781 310.414062 C 825.042969 309.796875 823.707031 309.089844 822.417969 308.292969 C 821.128906 307.496094 819.898438 306.617188 818.726562 305.660156 C 817.550781 304.703125 816.449219 303.671875 815.410156 302.566406 C 814.375 301.460938 813.414062 300.292969 812.53125 299.0625 C 811.648438 297.832031 810.851562 296.546875 810.136719 295.210938 C 809.425781 293.875 808.800781 292.496094 808.269531 291.078125 C 805.035156 282.882812 804.203125 273.929688 805.867188 265.28125 C 806.648438 259.988281 808.460938 255.070312 811.300781 250.535156 C 812.578125 248.460938 814.058594 246.539062 815.738281 244.773438 C 817.421875 243.011719 819.269531 241.441406 821.285156 240.066406 C 823.296875 238.691406 825.429688 237.542969 827.6875 236.617188 C 829.941406 235.695312 832.269531 235.015625 834.667969 234.582031 C 838.457031 233.765625 842.285156 233.464844 846.152344 233.675781 C 850.019531 233.890625 853.789062 234.609375 857.464844 235.835938 C 867.214844 238.820312 875.144531 245.960938 879.117188 255.367188 C 884.695312 267.796875 884.4375 281.972656 878.398438 294.273438 C 877.382812 296.46875 876.140625 298.523438 874.667969 300.441406 C 873.191406 302.359375 871.527344 304.09375 869.664062 305.636719 C 867.804688 307.183594 865.796875 308.503906 863.640625 309.597656 C 861.484375 310.695312 859.234375 311.539062 856.890625 312.132812 C 854.273438 312.851562 851.535156 313.160156 848.875 313.691406 C 848.597656 313.777344 848.339844 313.925781 848.015625 314.121094 Z M 862.714844 273.632812 C 862.714844 271.65625 862.714844 269.828125 862.417969 267.742188 C 862.339844 266.808594 862.1875 265.882812 861.960938 264.972656 C 859.945312 256.269531 854.777344 250.613281 846.460938 249.78125 C 838.804688 248.492188 831.246094 252.5 827.992188 259.546875 C 827.09375 261.640625 826.394531 263.796875 825.898438 266.019531 C 825.40625 268.242188 825.121094 270.492188 825.050781 272.765625 C 824.980469 275.042969 825.121094 277.304688 825.476562 279.554688 C 825.832031 281.804688 826.390625 284 827.160156 286.144531 C 830.421875 296.183594 839.132812 300.089844 849.128906 297.542969 C 854.796875 296.082031 859.257812 291.75 860.90625 286.144531 C 862.289062 282.089844 862.898438 277.921875 862.734375 273.640625 Z M 862.714844 273.632812 " fill-opacity="1" fill-rule="nonzero"/></g><path fill="#b4b6b8" d="M 699.378906 313.984375 C 699.398438 313.84375 699.398438 313.703125 699.378906 313.566406 L 708.15625 313.566406 L 708.15625 313.992188 Z M 699.378906 313.984375 " fill-opacity="1" fill-rule="nonzero"/><path fill="#b4b6b8" d="M 553.675781 313.984375 C 553.65625 313.84375 553.65625 313.703125 553.675781 313.566406 L 562.035156 313.566406 C 562.058594 313.703125 562.058594 313.84375 562.035156 313.984375 Z M 923.015625 313.984375 L 923.015625 313.554688 L 931.410156 313.554688 L 931.410156 313.984375 Z M 923.015625 313.984375 " fill-opacity="1" fill-rule="nonzero"/><path fill="#b4b6b8" d="M 760.476562 313.582031 C 760.457031 313.722656 760.457031 313.863281 760.476562 314.003906 L 753.292969 314.003906 L 753.292969 313.574219 Z M 760.476562 313.582031 " fill-opacity="1" fill-rule="nonzero"/><g clip-path="url(#248ee630ae)"><path fill="#b4b6b8" d="M 449.796875 210.9375 C 463.269531 234.191406 476.734375 257.441406 490.183594 280.695312 L 490.5625 280.695312 L 490.5625 210.972656 L 508.910156 210.972656 L 508.910156 311.78125 L 486.597656 311.78125 L 446.707031 244.152344 L 446.277344 244.152344 L 446.277344 311.402344 C 440.164062 311.894531 434.050781 311.957031 427.929688 311.589844 L 427.929688 210.9375 Z M 760.476562 313.582031 L 753.144531 313.582031 C 742.917969 312.792969 733.808594 306.828125 728.980469 297.773438 C 725.65625 291.800781 723.78125 285.40625 723.355469 278.582031 C 722.875 272.941406 723.257812 267.355469 724.5 261.832031 C 725.203125 258.304688 726.386719 254.945312 728.054688 251.757812 C 729.722656 248.574219 731.804688 245.683594 734.300781 243.09375 C 735.582031 241.777344 736.96875 240.582031 738.460938 239.511719 C 739.957031 238.441406 741.535156 237.511719 743.195312 236.722656 C 744.855469 235.933594 746.574219 235.300781 748.347656 234.820312 C 750.121094 234.339844 751.925781 234.019531 753.753906 233.859375 C 756.859375 233.457031 759.949219 233.53125 763.027344 234.082031 C 766.109375 234.632812 769.035156 235.632812 771.804688 237.085938 C 773.914062 238.390625 775.949219 239.835938 777.878906 241.378906 L 777.878906 211.339844 C 784.296875 210.773438 790.71875 210.695312 797.148438 211.109375 L 797.148438 311.867188 L 778.414062 311.867188 L 778.414062 304.535156 C 777.261719 305.824219 776 306.996094 774.628906 308.046875 C 773.257812 309.101562 771.804688 310.015625 770.261719 310.796875 C 768.71875 311.578125 767.121094 312.207031 765.460938 312.691406 C 763.800781 313.171875 762.109375 313.492188 760.390625 313.660156 Z M 743.335938 273.914062 C 743.113281 278.597656 743.832031 283.132812 745.5 287.515625 C 745.757812 288.175781 746.058594 288.8125 746.394531 289.433594 C 746.734375 290.050781 747.113281 290.644531 747.527344 291.21875 C 747.941406 291.789062 748.390625 292.332031 748.875 292.847656 C 749.359375 293.363281 749.871094 293.84375 750.414062 294.292969 C 750.960938 294.742188 751.53125 295.15625 752.128906 295.535156 C 752.722656 295.910156 753.34375 296.25 753.980469 296.550781 C 754.621094 296.847656 755.277344 297.105469 755.949219 297.320312 C 756.621094 297.539062 757.304688 297.710938 758 297.839844 C 758.695312 297.96875 759.394531 298.054688 760.097656 298.097656 C 760.800781 298.136719 761.507812 298.132812 762.210938 298.085938 C 762.917969 298.039062 763.613281 297.945312 764.308594 297.808594 C 765 297.671875 765.683594 297.492188 766.351562 297.269531 C 767.023438 297.046875 767.675781 296.785156 768.3125 296.480469 C 768.949219 296.171875 769.5625 295.828125 770.15625 295.445312 C 770.75 295.0625 771.316406 294.644531 771.855469 294.1875 C 772.394531 293.734375 772.90625 293.246094 773.382812 292.726562 C 775.140625 290.609375 776.410156 288.226562 777.183594 285.585938 C 778.15625 282.351562 778.714844 279.042969 778.863281 275.667969 C 779.011719 272.292969 778.742188 268.949219 778.0625 265.640625 C 777.523438 262.507812 776.40625 259.59375 774.714844 256.902344 C 774.054688 255.765625 773.261719 254.726562 772.335938 253.792969 C 771.40625 252.859375 770.375 252.058594 769.238281 251.394531 C 768.101562 250.726562 766.898438 250.21875 765.632812 249.863281 C 764.363281 249.511719 763.070312 249.324219 761.753906 249.308594 C 760.835938 249.253906 759.921875 249.277344 759.007812 249.378906 C 758.097656 249.476562 757.199219 249.652344 756.3125 249.902344 C 755.429688 250.152344 754.574219 250.476562 753.742188 250.871094 C 752.914062 251.265625 752.125 251.726562 751.371094 252.253906 C 750.621094 252.78125 749.917969 253.367188 749.265625 254.015625 C 748.609375 254.660156 748.015625 255.355469 747.480469 256.101562 C 746.941406 256.847656 746.472656 257.632812 746.070312 258.457031 C 745.664062 259.28125 745.332031 260.132812 745.070312 261.015625 C 743.644531 265.167969 743.054688 269.554688 743.320312 273.929688 Z M 561.957031 313.582031 L 553.597656 313.582031 C 537.765625 313.042969 524.417969 301.824219 520.960938 286.339844 C 518.386719 276.042969 518.902344 265.339844 522.710938 255.488281 C 526.726562 244.175781 536.699219 236.050781 548.585938 234.402344 C 555.050781 233.140625 561.71875 233.542969 568.042969 235.3125 C 570.324219 235.96875 572.5 236.867188 574.578125 238.011719 C 576.65625 239.15625 578.582031 240.511719 580.359375 242.085938 C 582.132812 243.660156 583.710938 245.410156 585.09375 247.339844 C 586.476562 249.265625 587.632812 251.320312 588.554688 253.503906 C 590.253906 257.453125 591.453125 261.550781 592.144531 265.792969 C 592.839844 270.035156 593.011719 274.296875 592.65625 278.582031 L 539.464844 278.582031 C 540.066406 285.765625 541.816406 292.074219 548.390625 295.746094 C 552.75 298.011719 557.832031 298.734375 562.550781 297.808594 C 563.949219 297.609375 565.308594 297.257812 566.625 296.746094 C 567.941406 296.234375 569.183594 295.582031 570.351562 294.785156 C 571.515625 293.988281 572.574219 293.066406 573.53125 292.027344 C 574.484375 290.984375 575.308594 289.847656 576 288.617188 L 576.796875 287.550781 L 592.453125 295.53125 C 585.980469 306.304688 574.496094 313.066406 561.941406 313.503906 Z M 539.386719 265.132812 L 572.558594 265.132812 C 572.601562 264.609375 572.613281 264.082031 572.601562 263.554688 C 572.589844 263.027344 572.554688 262.5 572.488281 261.976562 C 572.421875 261.453125 572.328125 260.933594 572.210938 260.421875 C 572.09375 259.90625 571.949219 259.402344 571.777344 258.902344 C 571.605469 258.402344 571.410156 257.914062 571.191406 257.433594 C 570.96875 256.953125 570.722656 256.488281 570.457031 256.035156 C 570.1875 255.578125 569.894531 255.140625 569.582031 254.714844 C 569.269531 254.292969 568.933594 253.882812 568.578125 253.492188 C 568.222656 253.105469 567.847656 252.734375 567.457031 252.382812 C 567.0625 252.03125 566.652344 251.699219 566.226562 251.390625 C 565.796875 251.078125 565.355469 250.792969 564.898438 250.527344 C 564.441406 250.265625 563.972656 250.023438 563.492188 249.808594 C 563.011719 249.589844 562.519531 249.398438 562.019531 249.234375 C 561.519531 249.066406 561.011719 248.929688 560.496094 248.8125 C 559.980469 248.699219 559.460938 248.613281 558.9375 248.550781 C 558.410156 248.492188 557.886719 248.457031 557.359375 248.449219 C 547.558594 248.074219 540.640625 253.34375 539.386719 265.132812 Z M 931.339844 313.582031 L 922.945312 313.582031 C 921.945312 313.535156 920.949219 313.445312 919.957031 313.316406 C 918.960938 313.1875 917.976562 313.015625 916.996094 312.800781 C 916.019531 312.589844 915.050781 312.335938 914.09375 312.039062 C 913.136719 311.746094 912.191406 311.414062 911.261719 311.039062 C 910.332031 310.667969 909.417969 310.253906 908.523438 309.804688 C 907.628906 309.355469 906.753906 308.871094 905.898438 308.347656 C 905.042969 307.824219 904.214844 307.265625 903.40625 306.675781 C 902.597656 306.082031 901.816406 305.457031 901.058594 304.796875 C 900.304688 304.140625 899.578125 303.453125 898.878906 302.734375 C 898.183594 302.015625 897.515625 301.269531 896.882812 300.492188 C 896.246094 299.71875 895.644531 298.917969 895.074219 298.09375 C 894.507812 297.269531 893.976562 296.421875 893.476562 295.550781 C 892.980469 294.679688 892.519531 293.792969 892.097656 292.882812 C 891.675781 291.976562 891.292969 291.050781 890.945312 290.109375 C 890.601562 289.171875 890.296875 288.21875 890.03125 287.25 C 889.765625 286.285156 889.539062 285.308594 889.355469 284.324219 C 887.425781 275.984375 887.828125 267.261719 890.53125 259.136719 C 890.996094 257.546875 891.570312 256 892.253906 254.492188 C 892.9375 252.984375 893.726562 251.535156 894.617188 250.140625 C 895.507812 248.746094 896.496094 247.421875 897.578125 246.167969 C 898.65625 244.914062 899.820312 243.746094 901.070312 242.65625 C 902.316406 241.570312 903.636719 240.578125 905.027344 239.679688 C 906.414062 238.78125 907.863281 237.984375 909.367188 237.292969 C 910.867188 236.601562 912.414062 236.019531 914 235.546875 C 915.585938 235.074219 917.199219 234.71875 918.835938 234.480469 C 921.109375 233.992188 923.40625 233.703125 925.726562 233.609375 C 928.050781 233.515625 930.363281 233.621094 932.664062 233.921875 C 934.96875 234.222656 937.230469 234.71875 939.453125 235.402344 C 941.671875 236.089844 943.816406 236.960938 945.886719 238.015625 C 948.105469 239.132812 950.183594 240.464844 952.117188 242.019531 C 954.054688 243.574219 955.804688 245.316406 957.375 247.242188 C 958.941406 249.164062 960.292969 251.234375 961.425781 253.441406 C 962.558594 255.652344 963.445312 257.957031 964.089844 260.355469 C 964.859375 262.824219 965.414062 265.34375 965.761719 267.90625 C 966.113281 270.472656 966.246094 273.046875 966.164062 275.632812 C 966.082031 278.21875 965.789062 280.78125 965.28125 283.320312 C 964.773438 285.855469 964.058594 288.335938 963.136719 290.753906 C 958.976562 302.449219 948.789062 310.972656 936.53125 313.015625 C 934.804688 313.296875 933.070312 313.484375 931.324219 313.582031 Z M 908.546875 273.226562 C 908.375 277.75 909.0625 282.257812 910.5625 286.53125 C 910.964844 287.667969 911.480469 288.753906 912.109375 289.789062 C 912.738281 290.820312 913.460938 291.777344 914.289062 292.660156 C 915.113281 293.542969 916.019531 294.332031 917.003906 295.03125 C 917.992188 295.726562 919.039062 296.3125 920.148438 296.792969 C 921.257812 297.273438 922.402344 297.636719 923.585938 297.882812 C 924.765625 298.125 925.960938 298.25 927.167969 298.25 C 928.378906 298.25 929.570312 298.125 930.753906 297.882812 C 931.9375 297.636719 933.082031 297.273438 934.191406 296.792969 C 935.507812 296.269531 936.738281 295.589844 937.886719 294.757812 C 939.035156 293.929688 940.0625 292.96875 940.972656 291.878906 C 941.878906 290.792969 942.640625 289.609375 943.253906 288.332031 C 943.871094 287.054688 944.316406 285.722656 944.601562 284.332031 C 945.945312 279.339844 946.324219 274.273438 945.742188 269.132812 C 945.484375 265.648438 944.601562 262.234375 943.125 259.066406 C 941.40625 255.035156 937.914062 251.925781 933.742188 250.484375 C 929.238281 248.699219 924.199219 248.835938 919.789062 250.84375 C 917.59375 251.867188 915.679688 253.269531 914.046875 255.058594 C 912.414062 256.847656 911.191406 258.882812 910.375 261.160156 C 908.984375 265.070312 908.363281 269.097656 908.511719 273.246094 Z M 596.109375 235.601562 L 617.304688 235.601562 L 631.59375 258.773438 L 646.03125 235.601562 L 666.128906 235.601562 L 654.734375 252.765625 L 643.335938 270.171875 L 669.699219 311.738281 L 648.648438 311.738281 L 631.019531 282.558594 L 613.617188 311.769531 L 593.0625 311.769531 L 619.203125 270.886719 Z M 708.234375 313.582031 L 699.394531 313.582031 C 696.785156 313.480469 694.210938 312.914062 691.800781 311.90625 C 685.449219 309.445312 681.097656 303.515625 680.667969 296.71875 C 680.355469 294.082031 680.21875 291.433594 680.25 288.777344 L 680.25 249.902344 L 669.949219 249.902344 L 669.949219 235.613281 L 680.058594 235.613281 L 680.058594 216.601562 L 699.328125 216.601562 L 699.328125 235.601562 L 718.328125 235.601562 L 718.328125 249.816406 L 699.59375 249.816406 L 699.59375 288.453125 C 699.609375 289.988281 699.773438 291.507812 700.089844 293.011719 C 700.449219 295.191406 702.109375 296.921875 704.269531 297.300781 C 705.925781 297.640625 707.597656 297.753906 709.28125 297.644531 L 719.925781 296.3125 L 719.925781 311.136719 C 716.136719 312.609375 712.210938 313.390625 708.148438 313.488281 Z M 993.191406 311.824219 L 974.191406 311.824219 L 974.191406 235.824219 L 992.851562 235.824219 L 992.851562 245.695312 L 993.277344 245.882812 L 995.105469 243.335938 C 998.195312 238.984375 1002.710938 235.851562 1007.878906 234.480469 C 1011.449219 233.671875 1015.019531 233.671875 1018.589844 234.480469 L 1018.589844 253.359375 L 1012.777344 253.359375 C 1010.828125 253.421875 1008.902344 253.675781 1007.003906 254.125 C 1000.652344 255.78125 995.820312 260.964844 994.617188 267.425781 C 993.761719 270.902344 993.355469 274.480469 993.441406 278.066406 L 993.441406 312.207031 Z M 993.191406 311.824219 " fill-opacity="1" fill-rule="nonzero"/></g></svg>