<svg xmlns="http://www.w3.org/2000/svg" xmlns:xlink="http://www.w3.org/1999/xlink" width="500" zoomAndPan="magnify" viewBox="0 0 375 374.999991" height="500" preserveAspectRatio="xMidYMid meet" version="1.0"><defs><clipPath id="fce65603ea"><path d="M 54 111 L 317.867188 111 L 317.867188 349 L 54 349 Z M 54 111 " clip-rule="nonzero"/></clipPath></defs><g clip-path="url(#fce65603ea)"><path fill="#000000" d="M 111.679688 115.042969 C 86.722656 123.324219 67.160156 143.828125 59.347656 169.960938 C 53.230469 190.460938 49.367188 224.554688 66.03125 270.222656 C 66.191406 270.707031 82.617188 315.8125 122.871094 340.175781 C 142.675781 352.234375 167.472656 351.671875 185.992188 338.890625 L 186.714844 338.40625 C 187.441406 337.84375 188.164062 337.363281 188.808594 336.878906 C 189.855469 335.996094 191.0625 335.59375 192.269531 335.59375 C 193.480469 335.59375 194.605469 335.996094 195.652344 336.71875 C 196.617188 337.523438 197.585938 338.246094 198.390625 338.726562 L 198.550781 338.808594 C 217.066406 351.671875 241.863281 352.15625 261.671875 340.09375 C 297.738281 318.226562 314.566406 280.03125 317.867188 271.75 C 317.140625 271.75 316.417969 271.75 315.691406 271.75 L 315.53125 271.75 C 296.371094 271.75 278.253906 264.273438 264.730469 250.765625 C 251.125 237.175781 243.554688 219.167969 243.554688 199.949219 C 243.476562 166.101562 267.226562 137.15625 299.347656 129.757812 C 291.621094 123.164062 282.683594 118.097656 273.023438 114.882812 C 230.273438 100.730469 199.679688 130.640625 196.378906 134.097656 L 196.214844 134.261719 C 194.121094 136.351562 190.660156 136.351562 188.566406 134.261719 L 188.40625 134.097656 C 184.945312 130.804688 154.429688 100.890625 111.679688 115.042969 Z M 111.679688 115.042969 " fill-opacity="1" fill-rule="evenodd"/></g><path fill="#000000" d="M 209.179688 29.65625 C 197.664062 41.152344 192.109375 58.199219 193.15625 77.976562 C 213.042969 79.023438 230.109375 73.394531 241.625 61.816406 C 253.136719 50.316406 258.773438 33.273438 257.644531 13.492188 C 237.757812 12.449219 220.691406 18.074219 209.179688 29.65625 Z M 209.179688 29.65625 " fill-opacity="1" fill-rule="evenodd"/></svg>