<svg xmlns="http://www.w3.org/2000/svg" xmlns:xlink="http://www.w3.org/1999/xlink" width="500" zoomAndPan="magnify" viewBox="0 0 375 374.999991" height="500" preserveAspectRatio="xMidYMid meet" version="1.0"><defs><clipPath id="8b100a1d89"><path d="M 55.6875 171 L 164 171 L 164 261 L 55.6875 261 Z M 55.6875 171 " clip-rule="nonzero"/></clipPath></defs><path fill="#000000" d="M 192.433594 151.71875 C 192.210938 155.671875 192.3125 162.371094 191.335938 168.90625 C 190.3125 175.722656 186.640625 181.085938 179.546875 183.167969 C 172.675781 185.1875 166.800781 182.910156 162.117188 178.015625 C 158.765625 174.507812 155.824219 170.507812 153.25 166.386719 C 131.148438 130.988281 109.117188 95.542969 87.160156 60.050781 C 80.492188 49.300781 82.976562 40.269531 94.601562 33.75 C 107.507812 26.515625 121.484375 22 135.773438 18.542969 C 143.699219 16.59375 151.71875 15.183594 159.832031 14.304688 C 164.71875 13.804688 169.523438 14.214844 174.246094 15.542969 C 180.316406 17.289062 183.761719 21.929688 184.199219 28.546875 C 186.855469 68.699219 189.5625 108.851562 192.433594 151.71875 Z M 192.433594 151.71875 " fill-opacity="1" fill-rule="nonzero"/><path fill="#000000" d="M 229.417969 233 C 231.890625 233.675781 234.40625 234.222656 236.828125 235.042969 C 259.738281 242.824219 282.683594 250.511719 305.511719 258.527344 C 316.703125 262.453125 319.320312 268.082031 315.6875 279.398438 C 311.703125 291.8125 304.089844 302.183594 295.789062 311.914062 C 289.910156 318.804688 283.414062 325.335938 276.402344 331.050781 C 267.449219 338.34375 258.582031 336.699219 252.558594 327.011719 C 239.058594 305.296875 225.695312 283.496094 212.691406 261.484375 C 205.578125 249.453125 215.4375 233.242188 229.417969 233 Z M 229.417969 233 " fill-opacity="1" fill-rule="nonzero"/><path fill="#000000" d="M 316.046875 177.253906 C 315.695312 185.945312 312.019531 190.90625 302.910156 193.300781 C 281.363281 198.96875 259.742188 204.359375 238.152344 209.871094 C 236.046875 210.410156 233.929688 210.933594 231.855469 211.582031 C 224.039062 214.03125 216.273438 211.472656 211.28125 204.75 C 206.070312 197.730469 205.8125 189.644531 210.773438 182.777344 C 225.265625 162.722656 239.796875 142.695312 254.367188 122.695312 C 262.207031 111.988281 271.679688 110.75 281.324219 119.855469 C 296.050781 133.761719 306.953125 150.417969 314.1875 169.378906 C 315.140625 171.878906 315.441406 174.625 316.046875 177.253906 Z M 316.046875 177.253906 " fill-opacity="1" fill-rule="nonzero"/><g clip-path="url(#8b100a1d89)"><path fill="#000000" d="M 55.6875 214.996094 C 56.859375 207.1875 58.34375 196.996094 59.964844 186.828125 C 60.257812 184.972656 60.984375 183.160156 61.710938 181.410156 C 65.230469 172.925781 73.054688 168.988281 81.640625 172.269531 C 96.859375 178.085938 111.882812 184.425781 126.949219 190.644531 C 135.488281 194.164062 143.96875 197.824219 152.4375 201.511719 C 159.859375 204.75 164.035156 211.769531 163.683594 220.136719 C 163.351562 228.171875 158.898438 234.152344 150.980469 236.738281 C 127.996094 244.234375 104.902344 251.402344 82.007812 259.15625 C 68.011719 263.894531 60.777344 255.480469 58.394531 245.855469 C 57.742188 243.222656 57.140625 240.539062 56.941406 237.84375 C 56.4375 231.074219 56.179688 224.285156 55.6875 214.996094 Z M 55.6875 214.996094 " fill-opacity="1" fill-rule="nonzero"/></g><path fill="#000000" d="M 190.8125 306.125 C 190.8125 319.042969 191.015625 331.964844 190.742188 344.878906 C 190.539062 354.507812 183.226562 361.214844 173.523438 360.328125 C 152.105469 358.371094 132.492188 350.835938 114.800781 338.832031 C 104.496094 331.84375 103.609375 322.339844 111.554688 312.605469 C 127.117188 293.539062 142.875 274.625 158.625 255.710938 C 163.929688 249.339844 171.421875 247.546875 179.265625 250.4375 C 187.324219 253.410156 191.492188 259.269531 191.507812 267.769531 C 191.535156 280.554688 191.535156 293.339844 191.515625 306.125 Z M 190.8125 306.125 " fill-opacity="1" fill-rule="nonzero"/></svg>